M48
; DRILL file {KiCad 7.0.1} date Wed Jan 31 00:22:40 2024
; FORMAT={-:-/ absolute / metric / decimal}
; #@! TF.CreationDate,2024-01-31T00:22:40-07:00
; #@! TF.GenerationSoftware,Kicad,Pcbnew,7.0.1
; #@! TF.FileFunction,MixedPlating,1,2
FMAT,2
METRIC
; #@! TA.AperFunction,Plated,PTH,ComponentDrill
T1C0.800
; #@! TA.AperFunction,Plated,PTH,ComponentDrill
T2C0.900
; #@! TA.AperFunction,Plated,PTH,ComponentDrill
T3C1.000
; #@! TA.AperFunction,Plated,PTH,ComponentDrill
T4C1.300
; #@! TA.AperFunction,NonPlated,NPTH,ComponentDrill
T5C2.700
%
G90
G05
T1
X117.5Y-76.5
X117.5Y-81.5
T2
X101.575Y-90.0
X104.115Y-90.0
T3
X102.725Y-60.5
X103.225Y-53.0
X105.265Y-60.5
X105.765Y-53.0
X108.37Y-46.23
X108.37Y-48.77
X109.2Y-60.5
X110.91Y-46.23
X110.91Y-48.77
X111.74Y-60.5
X113.45Y-46.23
X113.45Y-48.77
X114.5Y-52.725
X114.5Y-55.265
X115.99Y-46.23
X115.99Y-48.77
X118.53Y-46.23
X118.53Y-48.77
X121.07Y-46.23
X121.07Y-48.77
X123.61Y-46.23
X123.61Y-48.77
X126.15Y-46.23
X126.15Y-48.77
X127.0Y-52.725
X127.0Y-55.265
X128.69Y-46.23
X128.69Y-48.77
X131.23Y-46.23
X131.23Y-48.77
X133.77Y-46.23
X133.77Y-48.77
X136.31Y-46.23
X136.31Y-48.77
X138.85Y-46.23
X138.85Y-48.77
X141.39Y-46.23
X141.39Y-48.77
X143.93Y-46.23
X143.93Y-48.77
X146.47Y-46.23
X146.47Y-48.77
X149.01Y-46.23
X149.01Y-48.77
X151.55Y-46.23
X151.55Y-48.77
X154.09Y-46.23
X154.09Y-48.77
X156.63Y-46.23
X156.63Y-48.77
X161.0Y-87.735
X161.0Y-90.275
T4
X105.5Y-76.5
X105.5Y-81.5
X117.35Y-92.8
X122.35Y-92.8
X127.35Y-92.8
X132.35Y-92.8
X138.85Y-92.8
X143.85Y-92.8
X148.85Y-92.8
X153.85Y-92.8
X158.15Y-55.3
X158.15Y-60.3
X158.15Y-65.3
X158.15Y-71.8
X158.15Y-76.8
X158.15Y-81.8
T5
X103.5Y-96.5
X161.5Y-47.5
X161.5Y-96.5
T0
M30
