%TF.GenerationSoftware,KiCad,Pcbnew,7.0.1*%
%TF.CreationDate,2024-02-06T22:48:23-07:00*%
%TF.ProjectId,Portal Gun PiHAT Mk2,506f7274-616c-4204-9775-6e2050694841,rev?*%
%TF.SameCoordinates,Original*%
%TF.FileFunction,Copper,L1,Top*%
%TF.FilePolarity,Positive*%
%FSLAX46Y46*%
G04 Gerber Fmt 4.6, Leading zero omitted, Abs format (unit mm)*
G04 Created by KiCad (PCBNEW 7.0.1) date 2024-02-06 22:48:23*
%MOMM*%
%LPD*%
G01*
G04 APERTURE LIST*
G04 Aperture macros list*
%AMRoundRect*
0 Rectangle with rounded corners*
0 $1 Rounding radius*
0 $2 $3 $4 $5 $6 $7 $8 $9 X,Y pos of 4 corners*
0 Add a 4 corners polygon primitive as box body*
4,1,4,$2,$3,$4,$5,$6,$7,$8,$9,$2,$3,0*
0 Add four circle primitives for the rounded corners*
1,1,$1+$1,$2,$3*
1,1,$1+$1,$4,$5*
1,1,$1+$1,$6,$7*
1,1,$1+$1,$8,$9*
0 Add four rect primitives between the rounded corners*
20,1,$1+$1,$2,$3,$4,$5,0*
20,1,$1+$1,$4,$5,$6,$7,0*
20,1,$1+$1,$6,$7,$8,$9,0*
20,1,$1+$1,$8,$9,$2,$3,0*%
G04 Aperture macros list end*
%TA.AperFunction,ComponentPad*%
%ADD10R,1.700000X1.700000*%
%TD*%
%TA.AperFunction,ComponentPad*%
%ADD11O,1.700000X1.700000*%
%TD*%
%TA.AperFunction,SMDPad,CuDef*%
%ADD12R,1.500000X1.000000*%
%TD*%
%TA.AperFunction,SMDPad,CuDef*%
%ADD13RoundRect,0.250001X-0.462499X-0.624999X0.462499X-0.624999X0.462499X0.624999X-0.462499X0.624999X0*%
%TD*%
%TA.AperFunction,ComponentPad*%
%ADD14R,2.600000X2.600000*%
%TD*%
%TA.AperFunction,ComponentPad*%
%ADD15C,2.600000*%
%TD*%
%TA.AperFunction,SMDPad,CuDef*%
%ADD16C,1.000000*%
%TD*%
%TA.AperFunction,SMDPad,CuDef*%
%ADD17RoundRect,0.250000X0.625000X-0.400000X0.625000X0.400000X-0.625000X0.400000X-0.625000X-0.400000X0*%
%TD*%
%TA.AperFunction,SMDPad,CuDef*%
%ADD18RoundRect,0.250000X-0.400000X-0.625000X0.400000X-0.625000X0.400000X0.625000X-0.400000X0.625000X0*%
%TD*%
%TA.AperFunction,ComponentPad*%
%ADD19C,1.600000*%
%TD*%
%TA.AperFunction,Conductor*%
%ADD20C,1.000000*%
%TD*%
%TA.AperFunction,Conductor*%
%ADD21C,0.300000*%
%TD*%
%TA.AperFunction,Conductor*%
%ADD22C,0.500000*%
%TD*%
G04 APERTURE END LIST*
D10*
%TO.P,J1,1,Pin_1*%
%TO.N,+5V*%
X102725000Y-60500000D03*
D11*
%TO.P,J1,2,Pin_2*%
%TO.N,GND*%
X105265000Y-60500000D03*
%TD*%
D10*
%TO.P,SW2,1,1*%
%TO.N,GPIO_SPARE_2*%
X114500000Y-52725000D03*
D11*
%TO.P,SW2,2,2*%
%TO.N,GND*%
X114500000Y-55265000D03*
%TD*%
D12*
%TO.P,JP1,1,A*%
%TO.N,+5V*%
X102550000Y-68200000D03*
%TO.P,JP1,2,B*%
%TO.N,VIN*%
X102550000Y-69500000D03*
%TD*%
D13*
%TO.P,D2,1,K*%
%TO.N,GND*%
X101912500Y-87000000D03*
%TO.P,D2,2,A*%
%TO.N,Net-(D2-A)*%
X104887500Y-87000000D03*
%TD*%
%TO.P,D1,1,K*%
%TO.N,GND*%
X108512500Y-87000000D03*
%TO.P,D1,2,A*%
%TO.N,Net-(D1-A)*%
X111487500Y-87000000D03*
%TD*%
D14*
%TO.P,J6,1,Pin_1*%
%TO.N,LED_FWD_GPIO*%
X158150000Y-65300000D03*
D15*
%TO.P,J6,2,Pin_2*%
%TO.N,LED_PWR*%
X158150000Y-60300000D03*
%TO.P,J6,3,Pin_3*%
%TO.N,GND*%
X158150000Y-55300000D03*
%TD*%
D16*
%TO.P,TP2,1,1*%
%TO.N,+3V3*%
X136000000Y-53200000D03*
%TD*%
D17*
%TO.P,R1,1*%
%TO.N,GND*%
X123500000Y-55100000D03*
%TO.P,R1,2*%
%TO.N,GPIO_SPARE_1*%
X123500000Y-52000000D03*
%TD*%
D10*
%TO.P,J10,1,Pin_1*%
%TO.N,LED_SPARE_GPIO*%
X147800000Y-53420000D03*
D11*
%TO.P,J10,2,Pin_2*%
%TO.N,LED_PWR*%
X147800000Y-55960000D03*
%TO.P,J10,3,Pin_3*%
%TO.N,GND*%
X147800000Y-58500000D03*
%TD*%
D14*
%TO.P,J8,1,Pin_1*%
%TO.N,+5V*%
X117350000Y-92800000D03*
D15*
%TO.P,J8,2,Pin_2*%
%TO.N,+3V3*%
X122350000Y-92800000D03*
%TO.P,J8,3,Pin_3*%
%TO.N,PB2_GPIO_WHT*%
X127350000Y-92800000D03*
%TO.P,J8,4,Pin_4*%
%TO.N,GND*%
X132350000Y-92800000D03*
%TD*%
D18*
%TO.P,R5,1*%
%TO.N,GND*%
X115450000Y-60500000D03*
%TO.P,R5,2*%
%TO.N,PB2_GPIO_WHT*%
X118550000Y-60500000D03*
%TD*%
%TO.P,R3,1*%
%TO.N,+5V*%
X108550000Y-90700000D03*
%TO.P,R3,2*%
%TO.N,Net-(D1-A)*%
X111650000Y-90700000D03*
%TD*%
D16*
%TO.P,TP4,1,1*%
%TO.N,GND*%
X130110000Y-59440000D03*
%TD*%
D14*
%TO.P,J2,1,Pin_1*%
%TO.N,VIN*%
X105500000Y-76500000D03*
D15*
%TO.P,J2,2,Pin_2*%
%TO.N,GND*%
X105500000Y-81500000D03*
%TD*%
D16*
%TO.P,TP3,1,1*%
%TO.N,VIN*%
X112500000Y-71600000D03*
%TD*%
D19*
%TO.P,C1,1*%
%TO.N,VIN*%
X117500000Y-76500000D03*
%TO.P,C1,2*%
%TO.N,GND*%
X117500000Y-81500000D03*
%TD*%
D18*
%TO.P,R4,1*%
%TO.N,GND*%
X120950000Y-60500000D03*
%TO.P,R4,2*%
%TO.N,PB1_GPIO_WHT*%
X124050000Y-60500000D03*
%TD*%
D10*
%TO.P,J4,1,Pin_1*%
%TO.N,+3V3*%
X109200000Y-60500000D03*
D11*
%TO.P,J4,2,Pin_2*%
%TO.N,GND*%
X111740000Y-60500000D03*
%TD*%
D16*
%TO.P,TP1,1,1*%
%TO.N,+5V*%
X105700000Y-64750000D03*
%TD*%
D14*
%TO.P,J9,1,Pin_1*%
%TO.N,LED_AFT_GPIO*%
X158150000Y-81800000D03*
D15*
%TO.P,J9,2,Pin_2*%
%TO.N,LED_PWR*%
X158150000Y-76800000D03*
%TO.P,J9,3,Pin_3*%
%TO.N,GND*%
X158150000Y-71800000D03*
%TD*%
D10*
%TO.P,J5,1,Pin_1*%
%TO.N,+5V*%
X103225000Y-53000000D03*
D11*
%TO.P,J5,2,Pin_2*%
%TO.N,GND*%
X105765000Y-53000000D03*
%TD*%
D14*
%TO.P,J7,1,Pin_1*%
%TO.N,+5V*%
X138850000Y-92800000D03*
D15*
%TO.P,J7,2,Pin_2*%
%TO.N,+3V3*%
X143850000Y-92800000D03*
%TO.P,J7,3,Pin_3*%
%TO.N,PB1_GPIO_WHT*%
X148850000Y-92800000D03*
%TO.P,J7,4,Pin_4*%
%TO.N,GND*%
X153850000Y-92800000D03*
%TD*%
D10*
%TO.P,SW1,1,1*%
%TO.N,GPIO_SPARE_1*%
X127000000Y-52725000D03*
D11*
%TO.P,SW1,2,2*%
%TO.N,GND*%
X127000000Y-55265000D03*
%TD*%
D18*
%TO.P,R6,1*%
%TO.N,+3V3*%
X101850000Y-90700000D03*
%TO.P,R6,2*%
%TO.N,Net-(D2-A)*%
X104950000Y-90700000D03*
%TD*%
D10*
%TO.P,SW3,1*%
%TO.N,+5V*%
X161000000Y-90275000D03*
D11*
%TO.P,SW3,2*%
%TO.N,LED_PWR*%
X161000000Y-87735000D03*
%TD*%
D17*
%TO.P,R2,1*%
%TO.N,GND*%
X111000000Y-55100000D03*
%TO.P,R2,2*%
%TO.N,GPIO_SPARE_2*%
X111000000Y-52000000D03*
%TD*%
D10*
%TO.P,J3,1,Pin_1*%
%TO.N,+3V3*%
X108370000Y-48770000D03*
D11*
%TO.P,J3,2,Pin_2*%
%TO.N,+5V*%
X108370000Y-46230000D03*
%TO.P,J3,3,Pin_3*%
%TO.N,GPIO_SPARE_2*%
X110910000Y-48770000D03*
%TO.P,J3,4,Pin_4*%
%TO.N,+5V*%
X110910000Y-46230000D03*
%TO.P,J3,5,Pin_5*%
%TO.N,/GPIO3{slash}SCL1*%
X113450000Y-48770000D03*
%TO.P,J3,6,Pin_6*%
%TO.N,GND*%
X113450000Y-46230000D03*
%TO.P,J3,7,Pin_7*%
%TO.N,/GPIO4{slash}GPCLK0*%
X115990000Y-48770000D03*
%TO.P,J3,8,Pin_8*%
%TO.N,/GPIO14{slash}TXD0*%
X115990000Y-46230000D03*
%TO.P,J3,9,Pin_9*%
%TO.N,GND*%
X118530000Y-48770000D03*
%TO.P,J3,10,Pin_10*%
%TO.N,PB2_GPIO_WHT*%
X118530000Y-46230000D03*
%TO.P,J3,11,Pin_11*%
%TO.N,PB1_GPIO_WHT*%
X121070000Y-48770000D03*
%TO.P,J3,12,Pin_12*%
%TO.N,LED_AFT_GPIO*%
X121070000Y-46230000D03*
%TO.P,J3,13,Pin_13*%
%TO.N,GPIO_SPARE_1*%
X123610000Y-48770000D03*
%TO.P,J3,14,Pin_14*%
%TO.N,GND*%
X123610000Y-46230000D03*
%TO.P,J3,15,Pin_15*%
%TO.N,/GPIO22*%
X126150000Y-48770000D03*
%TO.P,J3,16,Pin_16*%
%TO.N,/GPIO23*%
X126150000Y-46230000D03*
%TO.P,J3,17,Pin_17*%
%TO.N,+3V3*%
X128690000Y-48770000D03*
%TO.P,J3,18,Pin_18*%
%TO.N,/GPIO24*%
X128690000Y-46230000D03*
%TO.P,J3,19,Pin_19*%
%TO.N,/GPIO10{slash}SPI0.MOSI*%
X131230000Y-48770000D03*
%TO.P,J3,20,Pin_20*%
%TO.N,GND*%
X131230000Y-46230000D03*
%TO.P,J3,21,Pin_21*%
%TO.N,/GPIO9{slash}SPI0.MISO*%
X133770000Y-48770000D03*
%TO.P,J3,22,Pin_22*%
%TO.N,/GPIO25*%
X133770000Y-46230000D03*
%TO.P,J3,23,Pin_23*%
%TO.N,/GPIO11{slash}SPI0.SCLK*%
X136310000Y-48770000D03*
%TO.P,J3,24,Pin_24*%
%TO.N,/GPIO8{slash}SPI0.CE0*%
X136310000Y-46230000D03*
%TO.P,J3,25,Pin_25*%
%TO.N,GND*%
X138850000Y-48770000D03*
%TO.P,J3,26,Pin_26*%
%TO.N,/GPIO7{slash}SPI0.CE1*%
X138850000Y-46230000D03*
%TO.P,J3,27,Pin_27*%
%TO.N,/ID_SDA*%
X141390000Y-48770000D03*
%TO.P,J3,28,Pin_28*%
%TO.N,/ID_SCL*%
X141390000Y-46230000D03*
%TO.P,J3,29,Pin_29*%
%TO.N,/GPIO5*%
X143930000Y-48770000D03*
%TO.P,J3,30,Pin_30*%
%TO.N,GND*%
X143930000Y-46230000D03*
%TO.P,J3,31,Pin_31*%
%TO.N,/GPIO6*%
X146470000Y-48770000D03*
%TO.P,J3,32,Pin_32*%
%TO.N,LED_SPARE_GPIO*%
X146470000Y-46230000D03*
%TO.P,J3,33,Pin_33*%
%TO.N,/GPIO13{slash}PWM1*%
X149010000Y-48770000D03*
%TO.P,J3,34,Pin_34*%
%TO.N,GND*%
X149010000Y-46230000D03*
%TO.P,J3,35,Pin_35*%
%TO.N,/GPIO19{slash}PCM.FS*%
X151550000Y-48770000D03*
%TO.P,J3,36,Pin_36*%
%TO.N,/GPIO16*%
X151550000Y-46230000D03*
%TO.P,J3,37,Pin_37*%
%TO.N,/GPIO26*%
X154090000Y-48770000D03*
%TO.P,J3,38,Pin_38*%
%TO.N,/GPIO20{slash}PCM.DIN*%
X154090000Y-46230000D03*
%TO.P,J3,39,Pin_39*%
%TO.N,GND*%
X156630000Y-48770000D03*
%TO.P,J3,40,Pin_40*%
%TO.N,LED_FWD_GPIO*%
X156630000Y-46230000D03*
%TD*%
D20*
%TO.N,GND*%
X158150000Y-50290000D02*
X156630000Y-48770000D01*
X158150000Y-55300000D02*
X158150000Y-50290000D01*
X105500000Y-81500000D02*
X117500000Y-81500000D01*
D21*
%TO.N,LED_SPARE_GPIO*%
X147750000Y-53370000D02*
X147800000Y-53420000D01*
X147750000Y-47510000D02*
X147750000Y-53370000D01*
X146470000Y-46230000D02*
X147750000Y-47510000D01*
D20*
%TO.N,+5V*%
X108370000Y-46230000D02*
X105270000Y-46230000D01*
X124200000Y-75600000D02*
X124200000Y-84500000D01*
D22*
X111000000Y-92800000D02*
X117350000Y-92800000D01*
X108550000Y-90700000D02*
X108900000Y-90700000D01*
X105700000Y-64750000D02*
X105700000Y-65050000D01*
D20*
X117350000Y-91350000D02*
X117350000Y-92800000D01*
D22*
X108900000Y-90700000D02*
X111000000Y-92800000D01*
D20*
X103225000Y-53000000D02*
X103225000Y-57375000D01*
X105270000Y-46230000D02*
X103225000Y-48275000D01*
X110910000Y-46230000D02*
X108370000Y-46230000D01*
X161000000Y-90600000D02*
X161000000Y-90275000D01*
X138850000Y-93550000D02*
X142800000Y-97500000D01*
X102725000Y-60500000D02*
X102725000Y-68025000D01*
X142800000Y-97500000D02*
X154100000Y-97500000D01*
X102550000Y-68200000D02*
X116800000Y-68200000D01*
X124200000Y-84500000D02*
X117350000Y-91350000D01*
D22*
X105700000Y-65050000D02*
X102550000Y-68200000D01*
D20*
X154100000Y-97500000D02*
X161000000Y-90600000D01*
X103225000Y-48275000D02*
X103225000Y-53000000D01*
X138850000Y-92800000D02*
X138850000Y-93550000D01*
X103225000Y-57375000D02*
X102725000Y-57875000D01*
X102725000Y-68025000D02*
X102550000Y-68200000D01*
X102725000Y-57875000D02*
X102725000Y-60500000D01*
X116800000Y-68200000D02*
X124200000Y-75600000D01*
D22*
%TO.N,+3V3*%
X111700000Y-95400000D02*
X119750000Y-95400000D01*
X102300000Y-90700000D02*
X104500000Y-92900000D01*
X119750000Y-95400000D02*
X122350000Y-92800000D01*
X109200000Y-92900000D02*
X111700000Y-95400000D01*
X128690000Y-48770000D02*
X133120000Y-53200000D01*
D20*
X108370000Y-48770000D02*
X108370000Y-59670000D01*
D22*
X133120000Y-53200000D02*
X136000000Y-53200000D01*
X104500000Y-92900000D02*
X109200000Y-92900000D01*
D20*
X108370000Y-59670000D02*
X109200000Y-60500000D01*
D22*
X101850000Y-90700000D02*
X102300000Y-90700000D01*
D20*
%TO.N,VIN*%
X102550000Y-69500000D02*
X102550000Y-73550000D01*
X117500000Y-76500000D02*
X105500000Y-76500000D01*
D22*
X112500000Y-71600000D02*
X117400000Y-76500000D01*
X117400000Y-76500000D02*
X117500000Y-76500000D01*
D20*
X102550000Y-73550000D02*
X105500000Y-76500000D01*
D22*
%TO.N,Net-(D1-A)*%
X111650000Y-87162500D02*
X111487500Y-87000000D01*
X111650000Y-90700000D02*
X111650000Y-87162500D01*
%TO.N,GPIO_SPARE_2*%
X114500000Y-52725000D02*
X111725000Y-52725000D01*
X111725000Y-52725000D02*
X111000000Y-52000000D01*
X110910000Y-51910000D02*
X111000000Y-52000000D01*
X110910000Y-48770000D02*
X110910000Y-51910000D01*
D21*
%TO.N,PB2_GPIO_WHT*%
X118530000Y-46230000D02*
X117250000Y-47510000D01*
X117250000Y-47510000D02*
X117250000Y-59200000D01*
D22*
X127350000Y-75850000D02*
X127350000Y-92800000D01*
X118550000Y-60500000D02*
X118500000Y-60550000D01*
X118500000Y-67000000D02*
X127350000Y-75850000D01*
X118500000Y-60550000D02*
X118500000Y-67000000D01*
D21*
X117250000Y-59200000D02*
X118550000Y-60500000D01*
D22*
%TO.N,PB1_GPIO_WHT*%
X121070000Y-57520000D02*
X124050000Y-60500000D01*
X129650000Y-75700000D02*
X129650000Y-85950000D01*
X144150000Y-88100000D02*
X148850000Y-92800000D01*
X124050000Y-60500000D02*
X124050000Y-70100000D01*
X121070000Y-48770000D02*
X121070000Y-57520000D01*
X129650000Y-85950000D02*
X131800000Y-88100000D01*
X124050000Y-70100000D02*
X129650000Y-75700000D01*
X131800000Y-88100000D02*
X144150000Y-88100000D01*
%TO.N,GPIO_SPARE_1*%
X123610000Y-48770000D02*
X123610000Y-51890000D01*
X127000000Y-52725000D02*
X124225000Y-52725000D01*
X124225000Y-52725000D02*
X123500000Y-52000000D01*
X123610000Y-51890000D02*
X123500000Y-52000000D01*
D20*
%TO.N,LED_PWR*%
X155950000Y-58100000D02*
X151800000Y-58100000D01*
X161150000Y-79800000D02*
X161150000Y-83300000D01*
X161150000Y-83300000D02*
X160650000Y-83800000D01*
X161150000Y-63300000D02*
X161150000Y-73800000D01*
X158150000Y-76800000D02*
X161150000Y-79800000D01*
X161150000Y-73800000D02*
X158150000Y-76800000D01*
X149660000Y-55960000D02*
X147800000Y-55960000D01*
X160650000Y-83800000D02*
X160650000Y-87035000D01*
X151800000Y-58100000D02*
X149660000Y-55960000D01*
X158150000Y-60300000D02*
X161150000Y-63300000D01*
X158150000Y-60300000D02*
X155950000Y-58100000D01*
D22*
%TO.N,Net-(D2-A)*%
X104950000Y-90700000D02*
X104950000Y-87062500D01*
X104950000Y-87062500D02*
X104887500Y-87000000D01*
%TD*%
%TA.AperFunction,Conductor*%
%TO.N,GND*%
G36*
X162003243Y-44000669D02*
G01*
X162133379Y-44007490D01*
X162313908Y-44017628D01*
X162326309Y-44018955D01*
X162474990Y-44042504D01*
X162476245Y-44042709D01*
X162635324Y-44069738D01*
X162646606Y-44072202D01*
X162795635Y-44112134D01*
X162797761Y-44112725D01*
X162949174Y-44156347D01*
X162959260Y-44159729D01*
X163104710Y-44215562D01*
X163107599Y-44216714D01*
X163251768Y-44276430D01*
X163260594Y-44280500D01*
X163400064Y-44351565D01*
X163403748Y-44353521D01*
X163493848Y-44403316D01*
X163539548Y-44428574D01*
X163547061Y-44433081D01*
X163678754Y-44518604D01*
X163682947Y-44521452D01*
X163809147Y-44610996D01*
X163815428Y-44615759D01*
X163937567Y-44714665D01*
X163942158Y-44718571D01*
X164057424Y-44821579D01*
X164062478Y-44826358D01*
X164173640Y-44937520D01*
X164178419Y-44942574D01*
X164281427Y-45057840D01*
X164285333Y-45062431D01*
X164384239Y-45184570D01*
X164389002Y-45190851D01*
X164478546Y-45317051D01*
X164481409Y-45321266D01*
X164566907Y-45452921D01*
X164571430Y-45460460D01*
X164646477Y-45596250D01*
X164648433Y-45599934D01*
X164719498Y-45739404D01*
X164723575Y-45748247D01*
X164783259Y-45892337D01*
X164784462Y-45895353D01*
X164840265Y-46040727D01*
X164843655Y-46050836D01*
X164887258Y-46202185D01*
X164887879Y-46204419D01*
X164927791Y-46353370D01*
X164930264Y-46364694D01*
X164957282Y-46523715D01*
X164957507Y-46525087D01*
X164981040Y-46673666D01*
X164982372Y-46686111D01*
X164992498Y-46866421D01*
X164992523Y-46866884D01*
X164999330Y-46996757D01*
X164999500Y-47003247D01*
X164999500Y-50704429D01*
X148200500Y-50828315D01*
X148200500Y-49844586D01*
X148217593Y-49781761D01*
X148264161Y-49736257D01*
X148327364Y-49720619D01*
X148389777Y-49739159D01*
X148494979Y-49804297D01*
X148494981Y-49804298D01*
X148693802Y-49881321D01*
X148903390Y-49920500D01*
X149116608Y-49920500D01*
X149116610Y-49920500D01*
X149326198Y-49881321D01*
X149525019Y-49804298D01*
X149706302Y-49692052D01*
X149863872Y-49548407D01*
X149992366Y-49378255D01*
X149992366Y-49378253D01*
X149992368Y-49378252D01*
X150054034Y-49254407D01*
X150087405Y-49187389D01*
X150145756Y-48982310D01*
X150156529Y-48866047D01*
X150176633Y-48808996D01*
X150219410Y-48769999D01*
X150340589Y-48769999D01*
X150383367Y-48808996D01*
X150403471Y-48866048D01*
X150414243Y-48982310D01*
X150472595Y-49187390D01*
X150567631Y-49378252D01*
X150696126Y-49548405D01*
X150696128Y-49548407D01*
X150853698Y-49692052D01*
X151034981Y-49804298D01*
X151233802Y-49881321D01*
X151443390Y-49920500D01*
X151656608Y-49920500D01*
X151656610Y-49920500D01*
X151866198Y-49881321D01*
X152065019Y-49804298D01*
X152246302Y-49692052D01*
X152403872Y-49548407D01*
X152532366Y-49378255D01*
X152532366Y-49378253D01*
X152532368Y-49378252D01*
X152594034Y-49254407D01*
X152627405Y-49187389D01*
X152685756Y-48982310D01*
X152696529Y-48866047D01*
X152716633Y-48808996D01*
X152759410Y-48769999D01*
X152880589Y-48769999D01*
X152923367Y-48808996D01*
X152943471Y-48866048D01*
X152954243Y-48982310D01*
X153012595Y-49187390D01*
X153107631Y-49378252D01*
X153236126Y-49548405D01*
X153236128Y-49548407D01*
X153393698Y-49692052D01*
X153574981Y-49804298D01*
X153773802Y-49881321D01*
X153983390Y-49920500D01*
X154196608Y-49920500D01*
X154196610Y-49920500D01*
X154406198Y-49881321D01*
X154605019Y-49804298D01*
X154786302Y-49692052D01*
X154943872Y-49548407D01*
X155072366Y-49378255D01*
X155072366Y-49378253D01*
X155072368Y-49378252D01*
X155134034Y-49254407D01*
X155167405Y-49187389D01*
X155225756Y-48982310D01*
X155245429Y-48770000D01*
X155225756Y-48557690D01*
X155167405Y-48352611D01*
X155106376Y-48230046D01*
X155072368Y-48161747D01*
X154943873Y-47991594D01*
X154786301Y-47847947D01*
X154637677Y-47755923D01*
X154605019Y-47735702D01*
X154605017Y-47735701D01*
X154406198Y-47658679D01*
X154406197Y-47658678D01*
X154209385Y-47621888D01*
X154148634Y-47591637D01*
X154112906Y-47533934D01*
X154112906Y-47499999D01*
X159894551Y-47499999D01*
X159914317Y-47751149D01*
X159973126Y-47996110D01*
X159996710Y-48053046D01*
X160069534Y-48228859D01*
X160201164Y-48443659D01*
X160364776Y-48635224D01*
X160556341Y-48798836D01*
X160771141Y-48930466D01*
X161003889Y-49026873D01*
X161248852Y-49085683D01*
X161437118Y-49100500D01*
X161562879Y-49100500D01*
X161562882Y-49100500D01*
X161751148Y-49085683D01*
X161996111Y-49026873D01*
X162228859Y-48930466D01*
X162443659Y-48798836D01*
X162635224Y-48635224D01*
X162798836Y-48443659D01*
X162930466Y-48228859D01*
X163026873Y-47996111D01*
X163085683Y-47751148D01*
X163105449Y-47500000D01*
X163085683Y-47248852D01*
X163026873Y-47003889D01*
X162930466Y-46771141D01*
X162798836Y-46556341D01*
X162635224Y-46364776D01*
X162443659Y-46201164D01*
X162228859Y-46069534D01*
X162103694Y-46017689D01*
X161996110Y-45973126D01*
X161751149Y-45914317D01*
X161704081Y-45910612D01*
X161562882Y-45899500D01*
X161437118Y-45899500D01*
X161324158Y-45908390D01*
X161248850Y-45914317D01*
X161003889Y-45973126D01*
X160771139Y-46069535D01*
X160556342Y-46201163D01*
X160364776Y-46364776D01*
X160201163Y-46556342D01*
X160121422Y-46686467D01*
X160069534Y-46771141D01*
X160055415Y-46805225D01*
X159973126Y-47003889D01*
X159914317Y-47248850D01*
X159894551Y-47499999D01*
X154112906Y-47499999D01*
X154112906Y-47466066D01*
X154148634Y-47408363D01*
X154209385Y-47378111D01*
X154406198Y-47341321D01*
X154605019Y-47264298D01*
X154786302Y-47152052D01*
X154943872Y-47008407D01*
X155072366Y-46838255D01*
X155072366Y-46838253D01*
X155072368Y-46838252D01*
X155132866Y-46716753D01*
X155167405Y-46647389D01*
X155225756Y-46442310D01*
X155236529Y-46326047D01*
X155256633Y-46268996D01*
X155299410Y-46229999D01*
X155420589Y-46229999D01*
X155463367Y-46268996D01*
X155483471Y-46326048D01*
X155494243Y-46442310D01*
X155552595Y-46647390D01*
X155647631Y-46838252D01*
X155772231Y-47003247D01*
X155776128Y-47008407D01*
X155933698Y-47152052D01*
X156114981Y-47264298D01*
X156313802Y-47341321D01*
X156523390Y-47380500D01*
X156736608Y-47380500D01*
X156736610Y-47380500D01*
X156946198Y-47341321D01*
X157145019Y-47264298D01*
X157326302Y-47152052D01*
X157483872Y-47008407D01*
X157612366Y-46838255D01*
X157612366Y-46838253D01*
X157612368Y-46838252D01*
X157672866Y-46716753D01*
X157707405Y-46647389D01*
X157765756Y-46442310D01*
X157785429Y-46230000D01*
X157765756Y-46017690D01*
X157707405Y-45812611D01*
X157707014Y-45811827D01*
X157612368Y-45621747D01*
X157483873Y-45451594D01*
X157326301Y-45307947D01*
X157145017Y-45195701D01*
X156946198Y-45118679D01*
X156946197Y-45118678D01*
X156736610Y-45079500D01*
X156523390Y-45079500D01*
X156383664Y-45105619D01*
X156313801Y-45118679D01*
X156114982Y-45195701D01*
X155933698Y-45307947D01*
X155776126Y-45451594D01*
X155647631Y-45621747D01*
X155552595Y-45812609D01*
X155494243Y-46017689D01*
X155483471Y-46133951D01*
X155463367Y-46191003D01*
X155420589Y-46229999D01*
X155299410Y-46229999D01*
X155256633Y-46191003D01*
X155236529Y-46133951D01*
X155225756Y-46017689D01*
X155192127Y-45899500D01*
X155167405Y-45812611D01*
X155167014Y-45811827D01*
X155072368Y-45621747D01*
X154943873Y-45451594D01*
X154786301Y-45307947D01*
X154605017Y-45195701D01*
X154406198Y-45118679D01*
X154406197Y-45118678D01*
X154196610Y-45079500D01*
X153983390Y-45079500D01*
X153843664Y-45105619D01*
X153773801Y-45118679D01*
X153574982Y-45195701D01*
X153393698Y-45307947D01*
X153236126Y-45451594D01*
X153107631Y-45621747D01*
X153012595Y-45812609D01*
X152954243Y-46017689D01*
X152943471Y-46133951D01*
X152923367Y-46191003D01*
X152880589Y-46229999D01*
X152923367Y-46268996D01*
X152943471Y-46326048D01*
X152954243Y-46442310D01*
X153012595Y-46647390D01*
X153107631Y-46838252D01*
X153232231Y-47003247D01*
X153236128Y-47008407D01*
X153393698Y-47152052D01*
X153574981Y-47264298D01*
X153773802Y-47341321D01*
X153970613Y-47378111D01*
X154031365Y-47408363D01*
X154067093Y-47466066D01*
X154067093Y-47533934D01*
X154031365Y-47591637D01*
X153970613Y-47621888D01*
X153840475Y-47646215D01*
X153773801Y-47658679D01*
X153574982Y-47735701D01*
X153393698Y-47847947D01*
X153236126Y-47991594D01*
X153107631Y-48161747D01*
X153012595Y-48352609D01*
X152954243Y-48557689D01*
X152943471Y-48673951D01*
X152923367Y-48731003D01*
X152880589Y-48769999D01*
X152759410Y-48769999D01*
X152716633Y-48731003D01*
X152696529Y-48673951D01*
X152685756Y-48557689D01*
X152627404Y-48352609D01*
X152532368Y-48161747D01*
X152403873Y-47991594D01*
X152246301Y-47847947D01*
X152097677Y-47755923D01*
X152065019Y-47735702D01*
X152065017Y-47735701D01*
X151866198Y-47658679D01*
X151866197Y-47658678D01*
X151669385Y-47621888D01*
X151608634Y-47591637D01*
X151572906Y-47533934D01*
X151572906Y-47466066D01*
X151608634Y-47408363D01*
X151669385Y-47378111D01*
X151866198Y-47341321D01*
X152065019Y-47264298D01*
X152246302Y-47152052D01*
X152403872Y-47008407D01*
X152532366Y-46838255D01*
X152532366Y-46838253D01*
X152532368Y-46838252D01*
X152592866Y-46716753D01*
X152627405Y-46647389D01*
X152685756Y-46442310D01*
X152696529Y-46326047D01*
X152716633Y-46268996D01*
X152759410Y-46229999D01*
X152716633Y-46191003D01*
X152696529Y-46133951D01*
X152685756Y-46017689D01*
X152652127Y-45899500D01*
X152627405Y-45812611D01*
X152627014Y-45811827D01*
X152532368Y-45621747D01*
X152403873Y-45451594D01*
X152246301Y-45307947D01*
X152065017Y-45195701D01*
X151866198Y-45118679D01*
X151866197Y-45118678D01*
X151656610Y-45079500D01*
X151443390Y-45079500D01*
X151303664Y-45105619D01*
X151233801Y-45118679D01*
X151034982Y-45195701D01*
X150853698Y-45307947D01*
X150696126Y-45451594D01*
X150567631Y-45621747D01*
X150472595Y-45812609D01*
X150414243Y-46017689D01*
X150394571Y-46229999D01*
X150414243Y-46442310D01*
X150472595Y-46647390D01*
X150567631Y-46838252D01*
X150692231Y-47003247D01*
X150696128Y-47008407D01*
X150853698Y-47152052D01*
X151034981Y-47264298D01*
X151233802Y-47341321D01*
X151430613Y-47378111D01*
X151491365Y-47408363D01*
X151527093Y-47466066D01*
X151527093Y-47533934D01*
X151491365Y-47591637D01*
X151430613Y-47621888D01*
X151300475Y-47646215D01*
X151233801Y-47658679D01*
X151034982Y-47735701D01*
X150853698Y-47847947D01*
X150696126Y-47991594D01*
X150567631Y-48161747D01*
X150472595Y-48352609D01*
X150414243Y-48557689D01*
X150403471Y-48673951D01*
X150383367Y-48731003D01*
X150340589Y-48769999D01*
X150219410Y-48769999D01*
X150176633Y-48731003D01*
X150156529Y-48673951D01*
X150145756Y-48557689D01*
X150087404Y-48352609D01*
X149992368Y-48161747D01*
X149863873Y-47991594D01*
X149706301Y-47847947D01*
X149557677Y-47755923D01*
X149525019Y-47735702D01*
X149525017Y-47735701D01*
X149326198Y-47658679D01*
X149326197Y-47658678D01*
X149116610Y-47619500D01*
X148903390Y-47619500D01*
X148763664Y-47645619D01*
X148693801Y-47658679D01*
X148494979Y-47735702D01*
X148389777Y-47800841D01*
X148327364Y-47819381D01*
X148264161Y-47803743D01*
X148217593Y-47758239D01*
X148200500Y-47695414D01*
X148200500Y-47542262D01*
X148201280Y-47528378D01*
X148205270Y-47492966D01*
X148200180Y-47466066D01*
X148194635Y-47436761D01*
X148193864Y-47432220D01*
X148193676Y-47430973D01*
X148185348Y-47375713D01*
X148185347Y-47375711D01*
X148184448Y-47369744D01*
X148182842Y-47364861D01*
X148170399Y-47341319D01*
X148153296Y-47308961D01*
X148151241Y-47304892D01*
X148126425Y-47253358D01*
X148126423Y-47253356D01*
X148123807Y-47247923D01*
X148120827Y-47243723D01*
X148076165Y-47199062D01*
X148072946Y-47195721D01*
X148029958Y-47149391D01*
X148015067Y-47137964D01*
X147593856Y-46716753D01*
X147561518Y-46660242D01*
X147562270Y-46595141D01*
X147605756Y-46442310D01*
X147625429Y-46230000D01*
X147605756Y-46017690D01*
X147547405Y-45812611D01*
X147547014Y-45811827D01*
X147452368Y-45621747D01*
X147323873Y-45451594D01*
X147166301Y-45307947D01*
X146985017Y-45195701D01*
X146786198Y-45118679D01*
X146786197Y-45118678D01*
X146576610Y-45079500D01*
X146363390Y-45079500D01*
X146223664Y-45105619D01*
X146153801Y-45118679D01*
X145954982Y-45195701D01*
X145773698Y-45307947D01*
X145616126Y-45451594D01*
X145487631Y-45621747D01*
X145392595Y-45812609D01*
X145334243Y-46017689D01*
X145314571Y-46229999D01*
X145334243Y-46442310D01*
X145392595Y-46647390D01*
X145487631Y-46838252D01*
X145612231Y-47003247D01*
X145616128Y-47008407D01*
X145773698Y-47152052D01*
X145954981Y-47264298D01*
X146153802Y-47341321D01*
X146350613Y-47378111D01*
X146411365Y-47408363D01*
X146447093Y-47466066D01*
X146447093Y-47533934D01*
X146411365Y-47591637D01*
X146350613Y-47621888D01*
X146220475Y-47646215D01*
X146153801Y-47658679D01*
X145954982Y-47735701D01*
X145773698Y-47847947D01*
X145616126Y-47991594D01*
X145487631Y-48161747D01*
X145392595Y-48352609D01*
X145334243Y-48557689D01*
X145323471Y-48673951D01*
X145303367Y-48731003D01*
X145260589Y-48769999D01*
X145303367Y-48808996D01*
X145323471Y-48866048D01*
X145334243Y-48982310D01*
X145392595Y-49187390D01*
X145487631Y-49378252D01*
X145616126Y-49548405D01*
X145616128Y-49548407D01*
X145773698Y-49692052D01*
X145954981Y-49804298D01*
X146153802Y-49881321D01*
X146363390Y-49920500D01*
X146576608Y-49920500D01*
X146576610Y-49920500D01*
X146786198Y-49881321D01*
X146985019Y-49804298D01*
X147110223Y-49726774D01*
X147172636Y-49708235D01*
X147235839Y-49723873D01*
X147282407Y-49769377D01*
X147299500Y-49832202D01*
X147299500Y-50834960D01*
X131648902Y-50950377D01*
X130784307Y-50085782D01*
X130751549Y-50027604D01*
X130753709Y-49960872D01*
X130790160Y-49904933D01*
X130850335Y-49876006D01*
X130902163Y-49881052D01*
X130902508Y-49879209D01*
X130913798Y-49881319D01*
X130913802Y-49881321D01*
X131123390Y-49920500D01*
X131336608Y-49920500D01*
X131336610Y-49920500D01*
X131546198Y-49881321D01*
X131745019Y-49804298D01*
X131926302Y-49692052D01*
X132083872Y-49548407D01*
X132212366Y-49378255D01*
X132212366Y-49378253D01*
X132212368Y-49378252D01*
X132274034Y-49254407D01*
X132307405Y-49187389D01*
X132365756Y-48982310D01*
X132376529Y-48866047D01*
X132396633Y-48808996D01*
X132439410Y-48769999D01*
X132560589Y-48769999D01*
X132603367Y-48808996D01*
X132623471Y-48866048D01*
X132634243Y-48982310D01*
X132692595Y-49187390D01*
X132787631Y-49378252D01*
X132916126Y-49548405D01*
X132916128Y-49548407D01*
X133073698Y-49692052D01*
X133254981Y-49804298D01*
X133453802Y-49881321D01*
X133663390Y-49920500D01*
X133876608Y-49920500D01*
X133876610Y-49920500D01*
X134086198Y-49881321D01*
X134285019Y-49804298D01*
X134466302Y-49692052D01*
X134623872Y-49548407D01*
X134752366Y-49378255D01*
X134752366Y-49378253D01*
X134752368Y-49378252D01*
X134814034Y-49254407D01*
X134847405Y-49187389D01*
X134905756Y-48982310D01*
X134916529Y-48866047D01*
X134936633Y-48808996D01*
X134979410Y-48769999D01*
X135100589Y-48769999D01*
X135143367Y-48808996D01*
X135163471Y-48866048D01*
X135174243Y-48982310D01*
X135232595Y-49187390D01*
X135327631Y-49378252D01*
X135456126Y-49548405D01*
X135456128Y-49548407D01*
X135613698Y-49692052D01*
X135794981Y-49804298D01*
X135993802Y-49881321D01*
X136203390Y-49920500D01*
X136416608Y-49920500D01*
X136416610Y-49920500D01*
X136626198Y-49881321D01*
X136825019Y-49804298D01*
X137006302Y-49692052D01*
X137163872Y-49548407D01*
X137292366Y-49378255D01*
X137292366Y-49378253D01*
X137292368Y-49378252D01*
X137354034Y-49254407D01*
X137387405Y-49187389D01*
X137445756Y-48982310D01*
X137465429Y-48770000D01*
X137445756Y-48557690D01*
X137387405Y-48352611D01*
X137326376Y-48230046D01*
X137292368Y-48161747D01*
X137163873Y-47991594D01*
X137006301Y-47847947D01*
X136857677Y-47755923D01*
X136825019Y-47735702D01*
X136825017Y-47735701D01*
X136626198Y-47658679D01*
X136626197Y-47658678D01*
X136429385Y-47621888D01*
X136368634Y-47591637D01*
X136332906Y-47533934D01*
X136332906Y-47466066D01*
X136368634Y-47408363D01*
X136429385Y-47378111D01*
X136626198Y-47341321D01*
X136825019Y-47264298D01*
X137006302Y-47152052D01*
X137163872Y-47008407D01*
X137292366Y-46838255D01*
X137292366Y-46838253D01*
X137292368Y-46838252D01*
X137352866Y-46716753D01*
X137387405Y-46647389D01*
X137445756Y-46442310D01*
X137456529Y-46326047D01*
X137476633Y-46268996D01*
X137519410Y-46229999D01*
X137640589Y-46229999D01*
X137683367Y-46268996D01*
X137703471Y-46326048D01*
X137714243Y-46442310D01*
X137772595Y-46647390D01*
X137867631Y-46838252D01*
X137992231Y-47003247D01*
X137996128Y-47008407D01*
X138153698Y-47152052D01*
X138334981Y-47264298D01*
X138533802Y-47341321D01*
X138743390Y-47380500D01*
X138956608Y-47380500D01*
X138956610Y-47380500D01*
X139166198Y-47341321D01*
X139365019Y-47264298D01*
X139546302Y-47152052D01*
X139703872Y-47008407D01*
X139832366Y-46838255D01*
X139832366Y-46838253D01*
X139832368Y-46838252D01*
X139892866Y-46716753D01*
X139927405Y-46647389D01*
X139985756Y-46442310D01*
X139996529Y-46326047D01*
X140016633Y-46268996D01*
X140059410Y-46229999D01*
X140180589Y-46229999D01*
X140223367Y-46268996D01*
X140243471Y-46326048D01*
X140254243Y-46442310D01*
X140312595Y-46647390D01*
X140407631Y-46838252D01*
X140532231Y-47003247D01*
X140536128Y-47008407D01*
X140693698Y-47152052D01*
X140874981Y-47264298D01*
X141073802Y-47341321D01*
X141270613Y-47378111D01*
X141331365Y-47408363D01*
X141367093Y-47466066D01*
X141367093Y-47533934D01*
X141331365Y-47591637D01*
X141270613Y-47621888D01*
X141140475Y-47646215D01*
X141073801Y-47658679D01*
X140874982Y-47735701D01*
X140693698Y-47847947D01*
X140536126Y-47991594D01*
X140407631Y-48161747D01*
X140312595Y-48352609D01*
X140254243Y-48557689D01*
X140234571Y-48769999D01*
X140254243Y-48982310D01*
X140312595Y-49187390D01*
X140407631Y-49378252D01*
X140536126Y-49548405D01*
X140536128Y-49548407D01*
X140693698Y-49692052D01*
X140874981Y-49804298D01*
X141073802Y-49881321D01*
X141283390Y-49920500D01*
X141496608Y-49920500D01*
X141496610Y-49920500D01*
X141706198Y-49881321D01*
X141905019Y-49804298D01*
X142086302Y-49692052D01*
X142243872Y-49548407D01*
X142372366Y-49378255D01*
X142372366Y-49378253D01*
X142372368Y-49378252D01*
X142434034Y-49254407D01*
X142467405Y-49187389D01*
X142525756Y-48982310D01*
X142536529Y-48866047D01*
X142556633Y-48808996D01*
X142599410Y-48769999D01*
X142720589Y-48769999D01*
X142763367Y-48808996D01*
X142783471Y-48866048D01*
X142794243Y-48982310D01*
X142852595Y-49187390D01*
X142947631Y-49378252D01*
X143076126Y-49548405D01*
X143076128Y-49548407D01*
X143233698Y-49692052D01*
X143414981Y-49804298D01*
X143613802Y-49881321D01*
X143823390Y-49920500D01*
X144036608Y-49920500D01*
X144036610Y-49920500D01*
X144246198Y-49881321D01*
X144445019Y-49804298D01*
X144626302Y-49692052D01*
X144783872Y-49548407D01*
X144912366Y-49378255D01*
X144912366Y-49378253D01*
X144912368Y-49378252D01*
X144974034Y-49254407D01*
X145007405Y-49187389D01*
X145065756Y-48982310D01*
X145076529Y-48866047D01*
X145096633Y-48808996D01*
X145139410Y-48769999D01*
X145096633Y-48731003D01*
X145076529Y-48673951D01*
X145065756Y-48557689D01*
X145007404Y-48352609D01*
X144912368Y-48161747D01*
X144783873Y-47991594D01*
X144626301Y-47847947D01*
X144477677Y-47755923D01*
X144445019Y-47735702D01*
X144445017Y-47735701D01*
X144246198Y-47658679D01*
X144246197Y-47658678D01*
X144036610Y-47619500D01*
X143823390Y-47619500D01*
X143683664Y-47645619D01*
X143613801Y-47658679D01*
X143414982Y-47735701D01*
X143233698Y-47847947D01*
X143076126Y-47991594D01*
X142947631Y-48161747D01*
X142852595Y-48352609D01*
X142794243Y-48557689D01*
X142783471Y-48673951D01*
X142763367Y-48731003D01*
X142720589Y-48769999D01*
X142599410Y-48769999D01*
X142556633Y-48731003D01*
X142536529Y-48673951D01*
X142525756Y-48557689D01*
X142467404Y-48352609D01*
X142372368Y-48161747D01*
X142243873Y-47991594D01*
X142086301Y-47847947D01*
X141937677Y-47755923D01*
X141905019Y-47735702D01*
X141905017Y-47735701D01*
X141706198Y-47658679D01*
X141706197Y-47658678D01*
X141509385Y-47621888D01*
X141448634Y-47591637D01*
X141412906Y-47533934D01*
X141412906Y-47466066D01*
X141448634Y-47408363D01*
X141509385Y-47378111D01*
X141706198Y-47341321D01*
X141905019Y-47264298D01*
X142086302Y-47152052D01*
X142243872Y-47008407D01*
X142372366Y-46838255D01*
X142372366Y-46838253D01*
X142372368Y-46838252D01*
X142432866Y-46716753D01*
X142467405Y-46647389D01*
X142525756Y-46442310D01*
X142545429Y-46230000D01*
X142525756Y-46017690D01*
X142467405Y-45812611D01*
X142467014Y-45811827D01*
X142372368Y-45621747D01*
X142243873Y-45451594D01*
X142086301Y-45307947D01*
X141905017Y-45195701D01*
X141706198Y-45118679D01*
X141706197Y-45118678D01*
X141496610Y-45079500D01*
X141283390Y-45079500D01*
X141143664Y-45105619D01*
X141073801Y-45118679D01*
X140874982Y-45195701D01*
X140693698Y-45307947D01*
X140536126Y-45451594D01*
X140407631Y-45621747D01*
X140312595Y-45812609D01*
X140254243Y-46017689D01*
X140243471Y-46133951D01*
X140223367Y-46191003D01*
X140180589Y-46229999D01*
X140059410Y-46229999D01*
X140016633Y-46191003D01*
X139996529Y-46133951D01*
X139985756Y-46017689D01*
X139952127Y-45899500D01*
X139927405Y-45812611D01*
X139927014Y-45811827D01*
X139832368Y-45621747D01*
X139703873Y-45451594D01*
X139546301Y-45307947D01*
X139365017Y-45195701D01*
X139166198Y-45118679D01*
X139166197Y-45118678D01*
X138956610Y-45079500D01*
X138743390Y-45079500D01*
X138603664Y-45105619D01*
X138533801Y-45118679D01*
X138334982Y-45195701D01*
X138153698Y-45307947D01*
X137996126Y-45451594D01*
X137867631Y-45621747D01*
X137772595Y-45812609D01*
X137714243Y-46017689D01*
X137703471Y-46133951D01*
X137683367Y-46191003D01*
X137640589Y-46229999D01*
X137519410Y-46229999D01*
X137476633Y-46191003D01*
X137456529Y-46133951D01*
X137445756Y-46017689D01*
X137412127Y-45899500D01*
X137387405Y-45812611D01*
X137387014Y-45811827D01*
X137292368Y-45621747D01*
X137163873Y-45451594D01*
X137006301Y-45307947D01*
X136825017Y-45195701D01*
X136626198Y-45118679D01*
X136626197Y-45118678D01*
X136416610Y-45079500D01*
X136203390Y-45079500D01*
X136063664Y-45105619D01*
X135993801Y-45118679D01*
X135794982Y-45195701D01*
X135613698Y-45307947D01*
X135456126Y-45451594D01*
X135327631Y-45621747D01*
X135232595Y-45812609D01*
X135174243Y-46017689D01*
X135163471Y-46133951D01*
X135143367Y-46191003D01*
X135100589Y-46229999D01*
X135143367Y-46268996D01*
X135163471Y-46326048D01*
X135174243Y-46442310D01*
X135232595Y-46647390D01*
X135327631Y-46838252D01*
X135452231Y-47003247D01*
X135456128Y-47008407D01*
X135613698Y-47152052D01*
X135794981Y-47264298D01*
X135993802Y-47341321D01*
X136190613Y-47378111D01*
X136251365Y-47408363D01*
X136287093Y-47466066D01*
X136287093Y-47533934D01*
X136251365Y-47591637D01*
X136190613Y-47621888D01*
X136060475Y-47646215D01*
X135993801Y-47658679D01*
X135794982Y-47735701D01*
X135613698Y-47847947D01*
X135456126Y-47991594D01*
X135327631Y-48161747D01*
X135232595Y-48352609D01*
X135174243Y-48557689D01*
X135163471Y-48673951D01*
X135143367Y-48731003D01*
X135100589Y-48769999D01*
X134979410Y-48769999D01*
X134936633Y-48731003D01*
X134916529Y-48673951D01*
X134905756Y-48557689D01*
X134847404Y-48352609D01*
X134752368Y-48161747D01*
X134623873Y-47991594D01*
X134466301Y-47847947D01*
X134317677Y-47755923D01*
X134285019Y-47735702D01*
X134285017Y-47735701D01*
X134086198Y-47658679D01*
X134086197Y-47658678D01*
X133889385Y-47621888D01*
X133828634Y-47591637D01*
X133792906Y-47533934D01*
X133792906Y-47466066D01*
X133828634Y-47408363D01*
X133889385Y-47378111D01*
X134086198Y-47341321D01*
X134285019Y-47264298D01*
X134466302Y-47152052D01*
X134623872Y-47008407D01*
X134752366Y-46838255D01*
X134752366Y-46838253D01*
X134752368Y-46838252D01*
X134812866Y-46716753D01*
X134847405Y-46647389D01*
X134905756Y-46442310D01*
X134916529Y-46326047D01*
X134936633Y-46268996D01*
X134979410Y-46229999D01*
X134936633Y-46191003D01*
X134916529Y-46133951D01*
X134905756Y-46017689D01*
X134872127Y-45899500D01*
X134847405Y-45812611D01*
X134847014Y-45811827D01*
X134752368Y-45621747D01*
X134623873Y-45451594D01*
X134466301Y-45307947D01*
X134285017Y-45195701D01*
X134086198Y-45118679D01*
X134086197Y-45118678D01*
X133876610Y-45079500D01*
X133663390Y-45079500D01*
X133523664Y-45105619D01*
X133453801Y-45118679D01*
X133254982Y-45195701D01*
X133073698Y-45307947D01*
X132916126Y-45451594D01*
X132787631Y-45621747D01*
X132692595Y-45812609D01*
X132634243Y-46017689D01*
X132614571Y-46229999D01*
X132634243Y-46442310D01*
X132692595Y-46647390D01*
X132787631Y-46838252D01*
X132912231Y-47003247D01*
X132916128Y-47008407D01*
X133073698Y-47152052D01*
X133254981Y-47264298D01*
X133453802Y-47341321D01*
X133650613Y-47378111D01*
X133711365Y-47408363D01*
X133747093Y-47466066D01*
X133747093Y-47533934D01*
X133711365Y-47591637D01*
X133650613Y-47621888D01*
X133520475Y-47646215D01*
X133453801Y-47658679D01*
X133254982Y-47735701D01*
X133073698Y-47847947D01*
X132916126Y-47991594D01*
X132787631Y-48161747D01*
X132692595Y-48352609D01*
X132634243Y-48557689D01*
X132623471Y-48673951D01*
X132603367Y-48731003D01*
X132560589Y-48769999D01*
X132439410Y-48769999D01*
X132396633Y-48731003D01*
X132376529Y-48673951D01*
X132365756Y-48557689D01*
X132307404Y-48352609D01*
X132212368Y-48161747D01*
X132083873Y-47991594D01*
X131926301Y-47847947D01*
X131777677Y-47755923D01*
X131745019Y-47735702D01*
X131745017Y-47735701D01*
X131546198Y-47658679D01*
X131546197Y-47658678D01*
X131336610Y-47619500D01*
X131123390Y-47619500D01*
X130983664Y-47645619D01*
X130913801Y-47658679D01*
X130714982Y-47735701D01*
X130533698Y-47847947D01*
X130376126Y-47991594D01*
X130247631Y-48161747D01*
X130152595Y-48352609D01*
X130094243Y-48557689D01*
X130083471Y-48673951D01*
X130063367Y-48731003D01*
X130020589Y-48769999D01*
X130063367Y-48808996D01*
X130083471Y-48866048D01*
X130094243Y-48982310D01*
X130127985Y-49100897D01*
X130128880Y-49165447D01*
X130097207Y-49221699D01*
X130041550Y-49254407D01*
X129976995Y-49254705D01*
X129921038Y-49222513D01*
X129845182Y-49146657D01*
X129812844Y-49090145D01*
X129813596Y-49025043D01*
X129825756Y-48982310D01*
X129836529Y-48866047D01*
X129856633Y-48808996D01*
X129899410Y-48769999D01*
X129856633Y-48731003D01*
X129836529Y-48673951D01*
X129825756Y-48557689D01*
X129767404Y-48352609D01*
X129672368Y-48161747D01*
X129543873Y-47991594D01*
X129386301Y-47847947D01*
X129237677Y-47755923D01*
X129205019Y-47735702D01*
X129205017Y-47735701D01*
X129006198Y-47658679D01*
X129006197Y-47658678D01*
X128809385Y-47621888D01*
X128748634Y-47591637D01*
X128712906Y-47533934D01*
X128712906Y-47466066D01*
X128748634Y-47408363D01*
X128809385Y-47378111D01*
X129006198Y-47341321D01*
X129205019Y-47264298D01*
X129386302Y-47152052D01*
X129543872Y-47008407D01*
X129672366Y-46838255D01*
X129672366Y-46838253D01*
X129672368Y-46838252D01*
X129732866Y-46716753D01*
X129767405Y-46647389D01*
X129825756Y-46442310D01*
X129845429Y-46230000D01*
X129825756Y-46017690D01*
X129767405Y-45812611D01*
X129767014Y-45811827D01*
X129672368Y-45621747D01*
X129543873Y-45451594D01*
X129386301Y-45307947D01*
X129205017Y-45195701D01*
X129006198Y-45118679D01*
X129006197Y-45118678D01*
X128796610Y-45079500D01*
X128583390Y-45079500D01*
X128443664Y-45105619D01*
X128373801Y-45118679D01*
X128174982Y-45195701D01*
X127993698Y-45307947D01*
X127836126Y-45451594D01*
X127707631Y-45621747D01*
X127612595Y-45812609D01*
X127554243Y-46017689D01*
X127543471Y-46133951D01*
X127523367Y-46191003D01*
X127480589Y-46229999D01*
X127523367Y-46268996D01*
X127543471Y-46326048D01*
X127554243Y-46442310D01*
X127612595Y-46647390D01*
X127707631Y-46838252D01*
X127832231Y-47003247D01*
X127836128Y-47008407D01*
X127993698Y-47152052D01*
X128174981Y-47264298D01*
X128373802Y-47341321D01*
X128570613Y-47378111D01*
X128631365Y-47408363D01*
X128667093Y-47466066D01*
X128667093Y-47533934D01*
X128631365Y-47591637D01*
X128570613Y-47621888D01*
X128440475Y-47646215D01*
X128373801Y-47658679D01*
X128174982Y-47735701D01*
X127993698Y-47847947D01*
X127836126Y-47991594D01*
X127707631Y-48161747D01*
X127612595Y-48352609D01*
X127554243Y-48557689D01*
X127543471Y-48673951D01*
X127523367Y-48731003D01*
X127480589Y-48769999D01*
X127523367Y-48808996D01*
X127543471Y-48866048D01*
X127554243Y-48982310D01*
X127612595Y-49187390D01*
X127707631Y-49378252D01*
X127836126Y-49548405D01*
X127836128Y-49548407D01*
X127993698Y-49692052D01*
X128174981Y-49804298D01*
X128373802Y-49881321D01*
X128583390Y-49920500D01*
X128796607Y-49920500D01*
X128796610Y-49920500D01*
X128955937Y-49890716D01*
X129015398Y-49894154D01*
X129066399Y-49924924D01*
X130103250Y-50961775D01*
X124182867Y-51005436D01*
X124174731Y-50996266D01*
X124160500Y-50938587D01*
X124160500Y-49851397D01*
X124176171Y-49791058D01*
X124219222Y-49745970D01*
X124234909Y-49736257D01*
X124306302Y-49692052D01*
X124463872Y-49548407D01*
X124592366Y-49378255D01*
X124592366Y-49378253D01*
X124592368Y-49378252D01*
X124654034Y-49254407D01*
X124687405Y-49187389D01*
X124745756Y-48982310D01*
X124756529Y-48866047D01*
X124776633Y-48808996D01*
X124819410Y-48769999D01*
X124940589Y-48769999D01*
X124983367Y-48808996D01*
X125003471Y-48866048D01*
X125014243Y-48982310D01*
X125072595Y-49187390D01*
X125167631Y-49378252D01*
X125296126Y-49548405D01*
X125296128Y-49548407D01*
X125453698Y-49692052D01*
X125634981Y-49804298D01*
X125833802Y-49881321D01*
X126043390Y-49920500D01*
X126256608Y-49920500D01*
X126256610Y-49920500D01*
X126466198Y-49881321D01*
X126665019Y-49804298D01*
X126846302Y-49692052D01*
X127003872Y-49548407D01*
X127132366Y-49378255D01*
X127132366Y-49378253D01*
X127132368Y-49378252D01*
X127194034Y-49254407D01*
X127227405Y-49187389D01*
X127285756Y-48982310D01*
X127296529Y-48866047D01*
X127316633Y-48808996D01*
X127359410Y-48769999D01*
X127316633Y-48731003D01*
X127296529Y-48673951D01*
X127285756Y-48557689D01*
X127227404Y-48352609D01*
X127132368Y-48161747D01*
X127003873Y-47991594D01*
X126846301Y-47847947D01*
X126697677Y-47755923D01*
X126665019Y-47735702D01*
X126665017Y-47735701D01*
X126466198Y-47658679D01*
X126466197Y-47658678D01*
X126269385Y-47621888D01*
X126208634Y-47591637D01*
X126172906Y-47533934D01*
X126172906Y-47466066D01*
X126208634Y-47408363D01*
X126269385Y-47378111D01*
X126466198Y-47341321D01*
X126665019Y-47264298D01*
X126846302Y-47152052D01*
X127003872Y-47008407D01*
X127132366Y-46838255D01*
X127132366Y-46838253D01*
X127132368Y-46838252D01*
X127192866Y-46716753D01*
X127227405Y-46647389D01*
X127285756Y-46442310D01*
X127296529Y-46326047D01*
X127316633Y-46268996D01*
X127359410Y-46229999D01*
X127316633Y-46191003D01*
X127296529Y-46133951D01*
X127285756Y-46017689D01*
X127252127Y-45899500D01*
X127227405Y-45812611D01*
X127227014Y-45811827D01*
X127132368Y-45621747D01*
X127003873Y-45451594D01*
X126846301Y-45307947D01*
X126665017Y-45195701D01*
X126466198Y-45118679D01*
X126466197Y-45118678D01*
X126256610Y-45079500D01*
X126043390Y-45079500D01*
X125903664Y-45105619D01*
X125833801Y-45118679D01*
X125634982Y-45195701D01*
X125453698Y-45307947D01*
X125296126Y-45451594D01*
X125167631Y-45621747D01*
X125072595Y-45812609D01*
X125014243Y-46017689D01*
X124994571Y-46230000D01*
X125014243Y-46442310D01*
X125072595Y-46647390D01*
X125167631Y-46838252D01*
X125292231Y-47003247D01*
X125296128Y-47008407D01*
X125453698Y-47152052D01*
X125634981Y-47264298D01*
X125833802Y-47341321D01*
X126030613Y-47378111D01*
X126091365Y-47408363D01*
X126127093Y-47466066D01*
X126127093Y-47533934D01*
X126091365Y-47591637D01*
X126030613Y-47621888D01*
X125900475Y-47646215D01*
X125833801Y-47658679D01*
X125634982Y-47735701D01*
X125453698Y-47847947D01*
X125296126Y-47991594D01*
X125167631Y-48161747D01*
X125072595Y-48352609D01*
X125014243Y-48557689D01*
X125003471Y-48673951D01*
X124983367Y-48731003D01*
X124940589Y-48769999D01*
X124819410Y-48769999D01*
X124776633Y-48731003D01*
X124756529Y-48673951D01*
X124745756Y-48557689D01*
X124687404Y-48352609D01*
X124592368Y-48161747D01*
X124463873Y-47991594D01*
X124306301Y-47847947D01*
X124157677Y-47755923D01*
X124125019Y-47735702D01*
X124125017Y-47735701D01*
X123926198Y-47658679D01*
X123926197Y-47658678D01*
X123716610Y-47619500D01*
X123503390Y-47619500D01*
X123363664Y-47645619D01*
X123293801Y-47658679D01*
X123094982Y-47735701D01*
X122913698Y-47847947D01*
X122756126Y-47991594D01*
X122627631Y-48161747D01*
X122532595Y-48352609D01*
X122474243Y-48557689D01*
X122463471Y-48673951D01*
X122443367Y-48731003D01*
X122400589Y-48769999D01*
X122443367Y-48808996D01*
X122463471Y-48866048D01*
X122474243Y-48982310D01*
X122532595Y-49187390D01*
X122627631Y-49378252D01*
X122756126Y-49548405D01*
X122756128Y-49548407D01*
X122913698Y-49692052D01*
X122978478Y-49732162D01*
X123000778Y-49745970D01*
X123043829Y-49791058D01*
X123059500Y-49851397D01*
X123059500Y-50925500D01*
X123042887Y-50987500D01*
X123016348Y-51014038D01*
X121620500Y-51024333D01*
X121620500Y-49851397D01*
X121636171Y-49791058D01*
X121679222Y-49745970D01*
X121694909Y-49736257D01*
X121766302Y-49692052D01*
X121923872Y-49548407D01*
X122052366Y-49378255D01*
X122052366Y-49378253D01*
X122052368Y-49378252D01*
X122114034Y-49254407D01*
X122147405Y-49187389D01*
X122205756Y-48982310D01*
X122216529Y-48866047D01*
X122236633Y-48808996D01*
X122279410Y-48769999D01*
X122236633Y-48731003D01*
X122216529Y-48673951D01*
X122205756Y-48557689D01*
X122147404Y-48352609D01*
X122052368Y-48161747D01*
X121923873Y-47991594D01*
X121766301Y-47847947D01*
X121617677Y-47755923D01*
X121585019Y-47735702D01*
X121585017Y-47735701D01*
X121386198Y-47658679D01*
X121386197Y-47658678D01*
X121189385Y-47621888D01*
X121128634Y-47591637D01*
X121092906Y-47533934D01*
X121092906Y-47466066D01*
X121128634Y-47408363D01*
X121189385Y-47378111D01*
X121386198Y-47341321D01*
X121585019Y-47264298D01*
X121766302Y-47152052D01*
X121923872Y-47008407D01*
X122052366Y-46838255D01*
X122052366Y-46838253D01*
X122052368Y-46838252D01*
X122112866Y-46716753D01*
X122147405Y-46647389D01*
X122205756Y-46442310D01*
X122225429Y-46230000D01*
X122205756Y-46017690D01*
X122147405Y-45812611D01*
X122147014Y-45811827D01*
X122052368Y-45621747D01*
X121923873Y-45451594D01*
X121766301Y-45307947D01*
X121585017Y-45195701D01*
X121386198Y-45118679D01*
X121386197Y-45118678D01*
X121176610Y-45079500D01*
X120963390Y-45079500D01*
X120823664Y-45105619D01*
X120753801Y-45118679D01*
X120554982Y-45195701D01*
X120373698Y-45307947D01*
X120216126Y-45451594D01*
X120087631Y-45621747D01*
X119992595Y-45812609D01*
X119934243Y-46017689D01*
X119923471Y-46133951D01*
X119903367Y-46191003D01*
X119860589Y-46229999D01*
X119903367Y-46268996D01*
X119923471Y-46326048D01*
X119934243Y-46442310D01*
X119992595Y-46647390D01*
X120087631Y-46838252D01*
X120212231Y-47003247D01*
X120216128Y-47008407D01*
X120373698Y-47152052D01*
X120554981Y-47264298D01*
X120753802Y-47341321D01*
X120950613Y-47378111D01*
X121011365Y-47408363D01*
X121047093Y-47466066D01*
X121047093Y-47533934D01*
X121011365Y-47591637D01*
X120950613Y-47621888D01*
X120820475Y-47646215D01*
X120753801Y-47658679D01*
X120554982Y-47735701D01*
X120373698Y-47847947D01*
X120216126Y-47991594D01*
X120087631Y-48161747D01*
X119992595Y-48352609D01*
X119934243Y-48557689D01*
X119914571Y-48770000D01*
X119934243Y-48982310D01*
X119992595Y-49187390D01*
X120087631Y-49378252D01*
X120216126Y-49548405D01*
X120216128Y-49548407D01*
X120373698Y-49692052D01*
X120438478Y-49732162D01*
X120460778Y-49745970D01*
X120503829Y-49791058D01*
X120519500Y-49851397D01*
X120519500Y-51032452D01*
X117700500Y-51053241D01*
X117700500Y-47747966D01*
X117709939Y-47700513D01*
X117736816Y-47660287D01*
X118042777Y-47354325D01*
X118082119Y-47327819D01*
X118128543Y-47318026D01*
X118175247Y-47326385D01*
X118208974Y-47339450D01*
X118213802Y-47341321D01*
X118423390Y-47380500D01*
X118636608Y-47380500D01*
X118636610Y-47380500D01*
X118846198Y-47341321D01*
X119045019Y-47264298D01*
X119226302Y-47152052D01*
X119383872Y-47008407D01*
X119512366Y-46838255D01*
X119512366Y-46838253D01*
X119512368Y-46838252D01*
X119572866Y-46716753D01*
X119607405Y-46647389D01*
X119665756Y-46442310D01*
X119676529Y-46326047D01*
X119696633Y-46268996D01*
X119739410Y-46229999D01*
X119696633Y-46191003D01*
X119676529Y-46133951D01*
X119665756Y-46017689D01*
X119632127Y-45899500D01*
X119607405Y-45812611D01*
X119607014Y-45811827D01*
X119512368Y-45621747D01*
X119383873Y-45451594D01*
X119226301Y-45307947D01*
X119045017Y-45195701D01*
X118846198Y-45118679D01*
X118846197Y-45118678D01*
X118636610Y-45079500D01*
X118423390Y-45079500D01*
X118283664Y-45105619D01*
X118213801Y-45118679D01*
X118014982Y-45195701D01*
X117833698Y-45307947D01*
X117676126Y-45451594D01*
X117547631Y-45621747D01*
X117452595Y-45812609D01*
X117394243Y-46017689D01*
X117383471Y-46133951D01*
X117363367Y-46191003D01*
X117320589Y-46229999D01*
X117363367Y-46268996D01*
X117383471Y-46326048D01*
X117394244Y-46442312D01*
X117437727Y-46595138D01*
X117438479Y-46660242D01*
X117406142Y-46716753D01*
X117200165Y-46922730D01*
X117139757Y-46956012D01*
X117070912Y-46951873D01*
X117014928Y-46911592D01*
X116989124Y-46847631D01*
X117001484Y-46779778D01*
X117032866Y-46716753D01*
X117067405Y-46647389D01*
X117125756Y-46442310D01*
X117136529Y-46326047D01*
X117156633Y-46268996D01*
X117199410Y-46229999D01*
X117156633Y-46191003D01*
X117136529Y-46133951D01*
X117125756Y-46017689D01*
X117092127Y-45899500D01*
X117067405Y-45812611D01*
X117067014Y-45811827D01*
X116972368Y-45621747D01*
X116843873Y-45451594D01*
X116686301Y-45307947D01*
X116505017Y-45195701D01*
X116306198Y-45118679D01*
X116306197Y-45118678D01*
X116096610Y-45079500D01*
X115883390Y-45079500D01*
X115743664Y-45105619D01*
X115673801Y-45118679D01*
X115474982Y-45195701D01*
X115293698Y-45307947D01*
X115136126Y-45451594D01*
X115007631Y-45621747D01*
X114912595Y-45812609D01*
X114854243Y-46017689D01*
X114834571Y-46230000D01*
X114854243Y-46442310D01*
X114912595Y-46647390D01*
X115007631Y-46838252D01*
X115132231Y-47003247D01*
X115136128Y-47008407D01*
X115293698Y-47152052D01*
X115474981Y-47264298D01*
X115673802Y-47341321D01*
X115870613Y-47378111D01*
X115931365Y-47408363D01*
X115967093Y-47466066D01*
X115967093Y-47533934D01*
X115931365Y-47591637D01*
X115870613Y-47621888D01*
X115740475Y-47646215D01*
X115673801Y-47658679D01*
X115474982Y-47735701D01*
X115293698Y-47847947D01*
X115136126Y-47991594D01*
X115007631Y-48161747D01*
X114912595Y-48352609D01*
X114854243Y-48557689D01*
X114843471Y-48673951D01*
X114823367Y-48731003D01*
X114780589Y-48769999D01*
X114823367Y-48808996D01*
X114843471Y-48866048D01*
X114854243Y-48982310D01*
X114912595Y-49187390D01*
X115007631Y-49378252D01*
X115136126Y-49548405D01*
X115136128Y-49548407D01*
X115293698Y-49692052D01*
X115474981Y-49804298D01*
X115673802Y-49881321D01*
X115883390Y-49920500D01*
X116096608Y-49920500D01*
X116096610Y-49920500D01*
X116306198Y-49881321D01*
X116505019Y-49804298D01*
X116541417Y-49781761D01*
X116610223Y-49739159D01*
X116672636Y-49720619D01*
X116735839Y-49736257D01*
X116782407Y-49781761D01*
X116799500Y-49844586D01*
X116799500Y-51059886D01*
X111848550Y-51096397D01*
X111756567Y-51060123D01*
X111712332Y-51054811D01*
X111668102Y-51049500D01*
X111668099Y-51049500D01*
X111584500Y-51049500D01*
X111522500Y-51032887D01*
X111477113Y-50987500D01*
X111460500Y-50925500D01*
X111460500Y-49851397D01*
X111476171Y-49791058D01*
X111519222Y-49745970D01*
X111534909Y-49736257D01*
X111606302Y-49692052D01*
X111763872Y-49548407D01*
X111892366Y-49378255D01*
X111892366Y-49378253D01*
X111892368Y-49378252D01*
X111954034Y-49254407D01*
X111987405Y-49187389D01*
X112045756Y-48982310D01*
X112056529Y-48866047D01*
X112076633Y-48808996D01*
X112119410Y-48769999D01*
X112240589Y-48769999D01*
X112283367Y-48808996D01*
X112303471Y-48866048D01*
X112314243Y-48982310D01*
X112372595Y-49187390D01*
X112467631Y-49378252D01*
X112596126Y-49548405D01*
X112596128Y-49548407D01*
X112753698Y-49692052D01*
X112934981Y-49804298D01*
X113133802Y-49881321D01*
X113343390Y-49920500D01*
X113556608Y-49920500D01*
X113556610Y-49920500D01*
X113766198Y-49881321D01*
X113965019Y-49804298D01*
X114146302Y-49692052D01*
X114303872Y-49548407D01*
X114432366Y-49378255D01*
X114432366Y-49378253D01*
X114432368Y-49378252D01*
X114494034Y-49254407D01*
X114527405Y-49187389D01*
X114585756Y-48982310D01*
X114596529Y-48866047D01*
X114616633Y-48808996D01*
X114659410Y-48769999D01*
X114616633Y-48731003D01*
X114596529Y-48673951D01*
X114585756Y-48557689D01*
X114527404Y-48352609D01*
X114432368Y-48161747D01*
X114303873Y-47991594D01*
X114146301Y-47847947D01*
X113997677Y-47755923D01*
X113965019Y-47735702D01*
X113965017Y-47735701D01*
X113766198Y-47658679D01*
X113766197Y-47658678D01*
X113556610Y-47619500D01*
X113343390Y-47619500D01*
X113203664Y-47645619D01*
X113133801Y-47658679D01*
X112934982Y-47735701D01*
X112753698Y-47847947D01*
X112596126Y-47991594D01*
X112467631Y-48161747D01*
X112372595Y-48352609D01*
X112314243Y-48557689D01*
X112303471Y-48673951D01*
X112283367Y-48731003D01*
X112240589Y-48769999D01*
X112119410Y-48769999D01*
X112076633Y-48731003D01*
X112056529Y-48673951D01*
X112045756Y-48557689D01*
X111987404Y-48352609D01*
X111892368Y-48161747D01*
X111763873Y-47991594D01*
X111606301Y-47847947D01*
X111457677Y-47755923D01*
X111425019Y-47735702D01*
X111425017Y-47735701D01*
X111226198Y-47658679D01*
X111226197Y-47658678D01*
X111029385Y-47621888D01*
X110968634Y-47591637D01*
X110932906Y-47533934D01*
X110932906Y-47466066D01*
X110968634Y-47408363D01*
X111029385Y-47378111D01*
X111226198Y-47341321D01*
X111425019Y-47264298D01*
X111606302Y-47152052D01*
X111763872Y-47008407D01*
X111892366Y-46838255D01*
X111892366Y-46838253D01*
X111892368Y-46838252D01*
X111952866Y-46716753D01*
X111987405Y-46647389D01*
X112045756Y-46442310D01*
X112065429Y-46230000D01*
X112045756Y-46017690D01*
X111987405Y-45812611D01*
X111987014Y-45811827D01*
X111892368Y-45621747D01*
X111763873Y-45451594D01*
X111606301Y-45307947D01*
X111425017Y-45195701D01*
X111226198Y-45118679D01*
X111226197Y-45118678D01*
X111016610Y-45079500D01*
X110803390Y-45079500D01*
X110663664Y-45105619D01*
X110593801Y-45118679D01*
X110394982Y-45195701D01*
X110213695Y-45307949D01*
X110115862Y-45397137D01*
X110077118Y-45421127D01*
X110032324Y-45429500D01*
X109247676Y-45429500D01*
X109202882Y-45421127D01*
X109164138Y-45397137D01*
X109066304Y-45307949D01*
X108885017Y-45195701D01*
X108686198Y-45118679D01*
X108686197Y-45118678D01*
X108476610Y-45079500D01*
X108263390Y-45079500D01*
X108123664Y-45105619D01*
X108053801Y-45118679D01*
X107854982Y-45195701D01*
X107673695Y-45307949D01*
X107575862Y-45397137D01*
X107537118Y-45421127D01*
X107492324Y-45429500D01*
X105179803Y-45429500D01*
X105142480Y-45438017D01*
X105128780Y-45440345D01*
X105090743Y-45444631D01*
X105054623Y-45457270D01*
X105041268Y-45461118D01*
X105003939Y-45469639D01*
X104969441Y-45486251D01*
X104956604Y-45491568D01*
X104920476Y-45504211D01*
X104888067Y-45524574D01*
X104875903Y-45531297D01*
X104841414Y-45547906D01*
X104811486Y-45571773D01*
X104800152Y-45579815D01*
X104767738Y-45600183D01*
X104746177Y-45621745D01*
X104735748Y-45632174D01*
X103720532Y-46647390D01*
X102705297Y-47662624D01*
X102595185Y-47772735D01*
X102574817Y-47805151D01*
X102566772Y-47816489D01*
X102542908Y-47846413D01*
X102526300Y-47880899D01*
X102519576Y-47893064D01*
X102499211Y-47925475D01*
X102486565Y-47961613D01*
X102481246Y-47974453D01*
X102464639Y-48008938D01*
X102456118Y-48046268D01*
X102452270Y-48059623D01*
X102439631Y-48095743D01*
X102435345Y-48133780D01*
X102433017Y-48147480D01*
X102424500Y-48184803D01*
X102424500Y-51165896D01*
X100000500Y-51183772D01*
X100000500Y-47003245D01*
X100000670Y-46996756D01*
X100003022Y-46951873D01*
X100007501Y-46866421D01*
X100017628Y-46686087D01*
X100018954Y-46673694D01*
X100042513Y-46524947D01*
X100042700Y-46523809D01*
X100069739Y-46364666D01*
X100072199Y-46353402D01*
X100112150Y-46204305D01*
X100112709Y-46202293D01*
X100156351Y-46050811D01*
X100159724Y-46040753D01*
X100215583Y-45895233D01*
X100216692Y-45892452D01*
X100276439Y-45748212D01*
X100280488Y-45739429D01*
X100351569Y-45599925D01*
X100353521Y-45596250D01*
X100367049Y-45571773D01*
X100428588Y-45460426D01*
X100433065Y-45452962D01*
X100518633Y-45321199D01*
X100521434Y-45317077D01*
X100611010Y-45190832D01*
X100615733Y-45184603D01*
X100714702Y-45062386D01*
X100718532Y-45057885D01*
X100821613Y-44942537D01*
X100826323Y-44937556D01*
X100937556Y-44826323D01*
X100942537Y-44821613D01*
X101057885Y-44718532D01*
X101062386Y-44714702D01*
X101184603Y-44615733D01*
X101190832Y-44611010D01*
X101317077Y-44521434D01*
X101321199Y-44518633D01*
X101452962Y-44433065D01*
X101460426Y-44428588D01*
X101596255Y-44353517D01*
X101599934Y-44351565D01*
X101739429Y-44280488D01*
X101748212Y-44276439D01*
X101892452Y-44216692D01*
X101895233Y-44215583D01*
X102040753Y-44159724D01*
X102050811Y-44156351D01*
X102202293Y-44112709D01*
X102204305Y-44112150D01*
X102353402Y-44072199D01*
X102364666Y-44069739D01*
X102523809Y-44042700D01*
X102524947Y-44042513D01*
X102673694Y-44018954D01*
X102686087Y-44017628D01*
X102866554Y-44007493D01*
X102996756Y-44000669D01*
X103003245Y-44000500D01*
X161996755Y-44000500D01*
X162003243Y-44000669D01*
G37*
%TD.AperFunction*%
%TA.AperFunction,Conductor*%
G36*
X107537118Y-47038873D02*
G01*
X107575862Y-47062863D01*
X107673695Y-47152050D01*
X107673697Y-47152051D01*
X107673698Y-47152052D01*
X107854981Y-47264298D01*
X108053802Y-47341321D01*
X108226546Y-47373612D01*
X108281496Y-47398894D01*
X108317950Y-47447166D01*
X108327229Y-47506941D01*
X108307125Y-47563993D01*
X108262422Y-47604745D01*
X108203758Y-47619500D01*
X107475132Y-47619500D01*
X107450011Y-47622414D01*
X107347232Y-47667795D01*
X107267795Y-47747232D01*
X107222415Y-47850009D01*
X107219500Y-47875136D01*
X107219500Y-49664867D01*
X107222414Y-49689988D01*
X107222414Y-49689990D01*
X107222415Y-49689991D01*
X107244125Y-49739159D01*
X107267795Y-49792767D01*
X107347232Y-49872204D01*
X107347233Y-49872204D01*
X107347235Y-49872206D01*
X107396943Y-49894154D01*
X107450009Y-49917585D01*
X107459791Y-49918720D01*
X107515578Y-49939595D01*
X107555194Y-49984074D01*
X107569500Y-50041894D01*
X107569500Y-51127954D01*
X104025500Y-51154089D01*
X104025500Y-48657940D01*
X104034939Y-48610487D01*
X104061819Y-48570259D01*
X105565259Y-47066819D01*
X105605487Y-47039939D01*
X105652940Y-47030500D01*
X107492324Y-47030500D01*
X107537118Y-47038873D01*
G37*
%TD.AperFunction*%
%TA.AperFunction,Conductor*%
G36*
X109699770Y-48815049D02*
G01*
X109746799Y-48855972D01*
X109767970Y-48914607D01*
X109774243Y-48982310D01*
X109832595Y-49187390D01*
X109927631Y-49378252D01*
X110056126Y-49548405D01*
X110056128Y-49548407D01*
X110213698Y-49692052D01*
X110278478Y-49732162D01*
X110300778Y-49745970D01*
X110343829Y-49791058D01*
X110359500Y-49851397D01*
X110359500Y-50936185D01*
X110345271Y-50993859D01*
X110305850Y-51038297D01*
X110250285Y-51059300D01*
X110247418Y-51059644D01*
X110243432Y-51060123D01*
X110119107Y-51109151D01*
X109170500Y-51116147D01*
X109170500Y-50041893D01*
X109184807Y-49984071D01*
X109224426Y-49939591D01*
X109280213Y-49918718D01*
X109289991Y-49917585D01*
X109392765Y-49872206D01*
X109472206Y-49792765D01*
X109517585Y-49689991D01*
X109520500Y-49664865D01*
X109520499Y-48926046D01*
X109536170Y-48865710D01*
X109579221Y-48820622D01*
X109638772Y-48802181D01*
X109699770Y-48815049D01*
G37*
%TD.AperFunction*%
%TD*%
%TA.AperFunction,Conductor*%
%TO.N,GND*%
G36*
X102424500Y-51728107D02*
G01*
X102410193Y-51785929D01*
X102370574Y-51830409D01*
X102314786Y-51851281D01*
X102306558Y-51852235D01*
X102305008Y-51852415D01*
X102202232Y-51897795D01*
X102122795Y-51977232D01*
X102077415Y-52080009D01*
X102074500Y-52105136D01*
X102074500Y-53894867D01*
X102077414Y-53919988D01*
X102077414Y-53919990D01*
X102077415Y-53919991D01*
X102119649Y-54015642D01*
X102122795Y-54022767D01*
X102202232Y-54102204D01*
X102202233Y-54102204D01*
X102202235Y-54102206D01*
X102305008Y-54147584D01*
X102305009Y-54147585D01*
X102314791Y-54148720D01*
X102370578Y-54169595D01*
X102410194Y-54214074D01*
X102424500Y-54271894D01*
X102424500Y-56992060D01*
X102415061Y-57039513D01*
X102388183Y-57079738D01*
X102234388Y-57233533D01*
X102205297Y-57262624D01*
X102205295Y-57262626D01*
X102095185Y-57372735D01*
X102074817Y-57405151D01*
X102066772Y-57416489D01*
X102042908Y-57446413D01*
X102026300Y-57480899D01*
X102019576Y-57493064D01*
X101999211Y-57525475D01*
X101986565Y-57561613D01*
X101981246Y-57574453D01*
X101964639Y-57608938D01*
X101956118Y-57646268D01*
X101952270Y-57659623D01*
X101939631Y-57695743D01*
X101935345Y-57733780D01*
X101933017Y-57747480D01*
X101924500Y-57784803D01*
X101924500Y-59228107D01*
X101910193Y-59285929D01*
X101870574Y-59330409D01*
X101814786Y-59351281D01*
X101806558Y-59352235D01*
X101805008Y-59352415D01*
X101702232Y-59397795D01*
X101622795Y-59477232D01*
X101577415Y-59580009D01*
X101574500Y-59605136D01*
X101574500Y-61394867D01*
X101577414Y-61419988D01*
X101622795Y-61522767D01*
X101702232Y-61602204D01*
X101702233Y-61602204D01*
X101702235Y-61602206D01*
X101801798Y-61646167D01*
X101805009Y-61647585D01*
X101814791Y-61648720D01*
X101870578Y-61669595D01*
X101910194Y-61714074D01*
X101924500Y-61771894D01*
X101924500Y-67275501D01*
X101907887Y-67337501D01*
X101862500Y-67382888D01*
X101800500Y-67399501D01*
X101755133Y-67399501D01*
X101730011Y-67402414D01*
X101627232Y-67447795D01*
X101547795Y-67527232D01*
X101502415Y-67630009D01*
X101499500Y-67655136D01*
X101499500Y-68744867D01*
X101502414Y-68769989D01*
X101515627Y-68799914D01*
X101526192Y-68849998D01*
X101515628Y-68900082D01*
X101502415Y-68930008D01*
X101499500Y-68955136D01*
X101499500Y-70044867D01*
X101502414Y-70069988D01*
X101502414Y-70069990D01*
X101502415Y-70069991D01*
X101540756Y-70156826D01*
X101547795Y-70172767D01*
X101627234Y-70252206D01*
X101675586Y-70273556D01*
X101714521Y-70300669D01*
X101740423Y-70340421D01*
X101749500Y-70386990D01*
X101749500Y-73640196D01*
X101758017Y-73677518D01*
X101760345Y-73691219D01*
X101764631Y-73729252D01*
X101777272Y-73765380D01*
X101781119Y-73778736D01*
X101789638Y-73816058D01*
X101806250Y-73850553D01*
X101811570Y-73863398D01*
X101824209Y-73899520D01*
X101834770Y-73916327D01*
X101844576Y-73931933D01*
X101851298Y-73944095D01*
X101867908Y-73978586D01*
X101891772Y-74008510D01*
X101899818Y-74019850D01*
X101920184Y-74052262D01*
X103863181Y-75995259D01*
X103890061Y-76035487D01*
X103899500Y-76082940D01*
X103899500Y-77844867D01*
X103902414Y-77869988D01*
X103947795Y-77972767D01*
X104027232Y-78052204D01*
X104027233Y-78052204D01*
X104027235Y-78052206D01*
X104130009Y-78097585D01*
X104155135Y-78100500D01*
X106844864Y-78100499D01*
X106844867Y-78100499D01*
X106857427Y-78099042D01*
X106869991Y-78097585D01*
X106972765Y-78052206D01*
X107052206Y-77972765D01*
X107097585Y-77869991D01*
X107100500Y-77844865D01*
X107100500Y-77424500D01*
X107117113Y-77362500D01*
X107162500Y-77317113D01*
X107224500Y-77300500D01*
X116696541Y-77300500D01*
X116741335Y-77308874D01*
X116780076Y-77332860D01*
X116826682Y-77375347D01*
X116833961Y-77381983D01*
X117007361Y-77489347D01*
X117007363Y-77489348D01*
X117197544Y-77563024D01*
X117398024Y-77600500D01*
X117601974Y-77600500D01*
X117601976Y-77600500D01*
X117802456Y-77563024D01*
X117992637Y-77489348D01*
X118166041Y-77381981D01*
X118316764Y-77244579D01*
X118439673Y-77081821D01*
X118439673Y-77081819D01*
X118439675Y-77081818D01*
X118485313Y-76990161D01*
X118530582Y-76899250D01*
X118586397Y-76703083D01*
X118605215Y-76500000D01*
X118586397Y-76296917D01*
X118530582Y-76100750D01*
X118515838Y-76071139D01*
X118439675Y-75918181D01*
X118316763Y-75755419D01*
X118166041Y-75618018D01*
X117992638Y-75510652D01*
X117802457Y-75436976D01*
X117711198Y-75419917D01*
X117601976Y-75399500D01*
X117398024Y-75399500D01*
X117375674Y-75403678D01*
X117192668Y-75437886D01*
X117133204Y-75434448D01*
X117082203Y-75403678D01*
X113339680Y-71661155D01*
X113315641Y-71627276D01*
X113304141Y-71587358D01*
X113285368Y-71420748D01*
X113285368Y-71420745D01*
X113225789Y-71250478D01*
X113129816Y-71097738D01*
X113129815Y-71097737D01*
X113129814Y-71097735D01*
X113002264Y-70970185D01*
X112939867Y-70930978D01*
X112849522Y-70874211D01*
X112679255Y-70814632D01*
X112679253Y-70814631D01*
X112679251Y-70814631D01*
X112500000Y-70794434D01*
X112320748Y-70814631D01*
X112320745Y-70814631D01*
X112320745Y-70814632D01*
X112150478Y-70874211D01*
X112150476Y-70874211D01*
X112150476Y-70874212D01*
X111997735Y-70970185D01*
X111870185Y-71097735D01*
X111774212Y-71250476D01*
X111774211Y-71250478D01*
X111714632Y-71420745D01*
X111714631Y-71420748D01*
X111694434Y-71599999D01*
X111714631Y-71779251D01*
X111714631Y-71779253D01*
X111714632Y-71779255D01*
X111774211Y-71949522D01*
X111774212Y-71949523D01*
X111870185Y-72102264D01*
X111997735Y-72229814D01*
X111997737Y-72229815D01*
X111997738Y-72229816D01*
X112150478Y-72325789D01*
X112320745Y-72385368D01*
X112397257Y-72393988D01*
X112487358Y-72404141D01*
X112527276Y-72415641D01*
X112561155Y-72439680D01*
X114150218Y-74028743D01*
X115609295Y-75487819D01*
X115639545Y-75537182D01*
X115644087Y-75594898D01*
X115621932Y-75648385D01*
X115577909Y-75685985D01*
X115521614Y-75699500D01*
X107224499Y-75699500D01*
X107162499Y-75682887D01*
X107117112Y-75637500D01*
X107100499Y-75575500D01*
X107100499Y-75155133D01*
X107098285Y-75136044D01*
X107097585Y-75130009D01*
X107052206Y-75027235D01*
X107052204Y-75027233D01*
X107052204Y-75027232D01*
X106972767Y-74947795D01*
X106972765Y-74947794D01*
X106869991Y-74902415D01*
X106844865Y-74899500D01*
X106844864Y-74899500D01*
X105082940Y-74899500D01*
X105035487Y-74890061D01*
X104995259Y-74863181D01*
X103386819Y-73254741D01*
X103359939Y-73214513D01*
X103350500Y-73167060D01*
X103350500Y-70386990D01*
X103359577Y-70340421D01*
X103385479Y-70300669D01*
X103424414Y-70273556D01*
X103472765Y-70252206D01*
X103552204Y-70172767D01*
X103552203Y-70172767D01*
X103552206Y-70172765D01*
X103597585Y-70069991D01*
X103600500Y-70044865D01*
X103600499Y-69124499D01*
X103617112Y-69062500D01*
X103662499Y-69017113D01*
X103724499Y-69000500D01*
X116417060Y-69000500D01*
X116464513Y-69009939D01*
X116504741Y-69036819D01*
X123363181Y-75895259D01*
X123390061Y-75935487D01*
X123399500Y-75982940D01*
X123399500Y-84117060D01*
X123390061Y-84164513D01*
X123363181Y-84204741D01*
X116830297Y-90737624D01*
X116720185Y-90847735D01*
X116699817Y-90880151D01*
X116691772Y-90891489D01*
X116667908Y-90921413D01*
X116651300Y-90955899D01*
X116644576Y-90968064D01*
X116624211Y-91000475D01*
X116611565Y-91036613D01*
X116606246Y-91049453D01*
X116589639Y-91083938D01*
X116585266Y-91103097D01*
X116561321Y-91152815D01*
X116518176Y-91187221D01*
X116464376Y-91199500D01*
X116005132Y-91199500D01*
X115980011Y-91202414D01*
X115877232Y-91247795D01*
X115797795Y-91327232D01*
X115752415Y-91430009D01*
X115749500Y-91455136D01*
X115749500Y-92125500D01*
X115732887Y-92187500D01*
X115687500Y-92232887D01*
X115625500Y-92249500D01*
X111279386Y-92249500D01*
X111231933Y-92240061D01*
X111191705Y-92213181D01*
X111059414Y-92080890D01*
X111028282Y-92028697D01*
X111025689Y-91967980D01*
X111052257Y-91913323D01*
X111101605Y-91877854D01*
X111161880Y-91870094D01*
X111206895Y-91875500D01*
X111206898Y-91875500D01*
X112093099Y-91875500D01*
X112093102Y-91875500D01*
X112181564Y-91864877D01*
X112322342Y-91809361D01*
X112442922Y-91717922D01*
X112534361Y-91597342D01*
X112589877Y-91456564D01*
X112600500Y-91368102D01*
X112600500Y-90031898D01*
X112589877Y-89943436D01*
X112589876Y-89943434D01*
X112589876Y-89943432D01*
X112534361Y-89802659D01*
X112534361Y-89802658D01*
X112488641Y-89742368D01*
X112442922Y-89682077D01*
X112322341Y-89590638D01*
X112279009Y-89573550D01*
X112237822Y-89546869D01*
X112210211Y-89506300D01*
X112200500Y-89458196D01*
X112200500Y-88187514D01*
X112213444Y-88132354D01*
X112249575Y-88088710D01*
X112342922Y-88017922D01*
X112342921Y-88017922D01*
X112434361Y-87897342D01*
X112489876Y-87756564D01*
X112489876Y-87756561D01*
X112489877Y-87756560D01*
X112494767Y-87715837D01*
X112500500Y-87668099D01*
X112500499Y-86331902D01*
X112489876Y-86243436D01*
X112434361Y-86102658D01*
X112391952Y-86046733D01*
X112342922Y-85982077D01*
X112222343Y-85890640D01*
X112222342Y-85890639D01*
X112139421Y-85857939D01*
X112081560Y-85835122D01*
X111993102Y-85824500D01*
X110981906Y-85824500D01*
X110893453Y-85835122D01*
X110893436Y-85835124D01*
X110752658Y-85890639D01*
X110752657Y-85890639D01*
X110752656Y-85890640D01*
X110632077Y-85982077D01*
X110540640Y-86102656D01*
X110485122Y-86243439D01*
X110474500Y-86331897D01*
X110474500Y-87668093D01*
X110480419Y-87717381D01*
X110485124Y-87756564D01*
X110540639Y-87897342D01*
X110540640Y-87897343D01*
X110632077Y-88017922D01*
X110705718Y-88073765D01*
X110752658Y-88109361D01*
X110893436Y-88164876D01*
X110893439Y-88164877D01*
X110989267Y-88176385D01*
X110988940Y-88179101D01*
X111037500Y-88192113D01*
X111082887Y-88237500D01*
X111099500Y-88299500D01*
X111099500Y-89458196D01*
X111089789Y-89506300D01*
X111062178Y-89546869D01*
X111020991Y-89573550D01*
X110977658Y-89590638D01*
X110857077Y-89682077D01*
X110765638Y-89802659D01*
X110710123Y-89943432D01*
X110710123Y-89943436D01*
X110699500Y-90031898D01*
X110699500Y-91368102D01*
X110700678Y-91377908D01*
X110704906Y-91413119D01*
X110697144Y-91473394D01*
X110661675Y-91522742D01*
X110607018Y-91549310D01*
X110546301Y-91546716D01*
X110494109Y-91515584D01*
X109536819Y-90558294D01*
X109509939Y-90518066D01*
X109500500Y-90470613D01*
X109500500Y-90031901D01*
X109500500Y-90031898D01*
X109489877Y-89943436D01*
X109489876Y-89943434D01*
X109489876Y-89943432D01*
X109434361Y-89802659D01*
X109434361Y-89802658D01*
X109388641Y-89742368D01*
X109342922Y-89682077D01*
X109263416Y-89621786D01*
X109222342Y-89590639D01*
X109222340Y-89590638D01*
X109081567Y-89535123D01*
X109037333Y-89529811D01*
X108993102Y-89524500D01*
X108106898Y-89524500D01*
X108068985Y-89529052D01*
X108018432Y-89535123D01*
X107877659Y-89590638D01*
X107757077Y-89682077D01*
X107665638Y-89802659D01*
X107610123Y-89943432D01*
X107610123Y-89943436D01*
X107599500Y-90031898D01*
X107599500Y-91368102D01*
X107600678Y-91377908D01*
X107610123Y-91456567D01*
X107665638Y-91597340D01*
X107665639Y-91597342D01*
X107696787Y-91638416D01*
X107757077Y-91717922D01*
X107815954Y-91762569D01*
X107877658Y-91809361D01*
X107925324Y-91828158D01*
X108018432Y-91864876D01*
X108018434Y-91864876D01*
X108018436Y-91864877D01*
X108106898Y-91875500D01*
X108993099Y-91875500D01*
X108993102Y-91875500D01*
X109081564Y-91864877D01*
X109152772Y-91836795D01*
X109199674Y-91828158D01*
X109246367Y-91837861D01*
X109285944Y-91864469D01*
X109687512Y-92266036D01*
X109718231Y-92316877D01*
X109721779Y-92376174D01*
X109697341Y-92430316D01*
X109650524Y-92466880D01*
X109592074Y-92477473D01*
X109535403Y-92459665D01*
X109515577Y-92447609D01*
X109505079Y-92440464D01*
X109472342Y-92415639D01*
X109472340Y-92415638D01*
X109455644Y-92409053D01*
X109436714Y-92399650D01*
X109421384Y-92390328D01*
X109390924Y-92381793D01*
X109381814Y-92379240D01*
X109369795Y-92375199D01*
X109331564Y-92360124D01*
X109331563Y-92360123D01*
X109331561Y-92360123D01*
X109313715Y-92358288D01*
X109292952Y-92354342D01*
X109275668Y-92349500D01*
X109275665Y-92349500D01*
X109234582Y-92349500D01*
X109221901Y-92348850D01*
X109181027Y-92344647D01*
X109163344Y-92347697D01*
X109142275Y-92349500D01*
X104779387Y-92349500D01*
X104731934Y-92340061D01*
X104691706Y-92313181D01*
X104465706Y-92087181D01*
X104435456Y-92037818D01*
X104430914Y-91980102D01*
X104453069Y-91926615D01*
X104497092Y-91889015D01*
X104553387Y-91875500D01*
X105393099Y-91875500D01*
X105393102Y-91875500D01*
X105481564Y-91864877D01*
X105622342Y-91809361D01*
X105742922Y-91717922D01*
X105834361Y-91597342D01*
X105889877Y-91456564D01*
X105900500Y-91368102D01*
X105900500Y-90031898D01*
X105889877Y-89943436D01*
X105889876Y-89943434D01*
X105889876Y-89943432D01*
X105834361Y-89802659D01*
X105834361Y-89802658D01*
X105788641Y-89742368D01*
X105742922Y-89682077D01*
X105622341Y-89590638D01*
X105579009Y-89573550D01*
X105537822Y-89546869D01*
X105510211Y-89506300D01*
X105500500Y-89458196D01*
X105500500Y-88241803D01*
X105510211Y-88193699D01*
X105537823Y-88153129D01*
X105579009Y-88126449D01*
X105622342Y-88109361D01*
X105742922Y-88017922D01*
X105834361Y-87897342D01*
X105889876Y-87756564D01*
X105889876Y-87756561D01*
X105889877Y-87756560D01*
X105894767Y-87715837D01*
X105900500Y-87668099D01*
X105900500Y-87250000D01*
X107300000Y-87250000D01*
X107300000Y-87674978D01*
X107310493Y-87777695D01*
X107365642Y-87944121D01*
X107457683Y-88093344D01*
X107581655Y-88217316D01*
X107730878Y-88309357D01*
X107897304Y-88364506D01*
X108000022Y-88375000D01*
X108262500Y-88375000D01*
X108262500Y-87250000D01*
X108762500Y-87250000D01*
X108762500Y-88375000D01*
X109024978Y-88375000D01*
X109127695Y-88364506D01*
X109294121Y-88309357D01*
X109443344Y-88217316D01*
X109567316Y-88093344D01*
X109659357Y-87944121D01*
X109714506Y-87777695D01*
X109725000Y-87674978D01*
X109725000Y-87250000D01*
X108762500Y-87250000D01*
X108262500Y-87250000D01*
X107300000Y-87250000D01*
X105900500Y-87250000D01*
X105900499Y-86750000D01*
X107300000Y-86750000D01*
X108262500Y-86750000D01*
X108262500Y-85625000D01*
X108762500Y-85625000D01*
X108762500Y-86750000D01*
X109725000Y-86750000D01*
X109725000Y-86325022D01*
X109714506Y-86222304D01*
X109659357Y-86055878D01*
X109567316Y-85906655D01*
X109443344Y-85782683D01*
X109294121Y-85690642D01*
X109127695Y-85635493D01*
X109024978Y-85625000D01*
X108762500Y-85625000D01*
X108262500Y-85625000D01*
X108000022Y-85625000D01*
X107897304Y-85635493D01*
X107730878Y-85690642D01*
X107581655Y-85782683D01*
X107457683Y-85906655D01*
X107365642Y-86055878D01*
X107310493Y-86222304D01*
X107300000Y-86325022D01*
X107300000Y-86750000D01*
X105900499Y-86750000D01*
X105900499Y-86331902D01*
X105889876Y-86243436D01*
X105834361Y-86102658D01*
X105791952Y-86046733D01*
X105742922Y-85982077D01*
X105622343Y-85890640D01*
X105622342Y-85890639D01*
X105539421Y-85857939D01*
X105481560Y-85835122D01*
X105393102Y-85824500D01*
X104381906Y-85824500D01*
X104293453Y-85835122D01*
X104293436Y-85835124D01*
X104152658Y-85890639D01*
X104152657Y-85890639D01*
X104152656Y-85890640D01*
X104032077Y-85982077D01*
X103940640Y-86102656D01*
X103885122Y-86243439D01*
X103874500Y-86331897D01*
X103874500Y-87668093D01*
X103880419Y-87717381D01*
X103885124Y-87756564D01*
X103940639Y-87897342D01*
X103940640Y-87897343D01*
X104032077Y-88017922D01*
X104105718Y-88073765D01*
X104152658Y-88109361D01*
X104293436Y-88164876D01*
X104293437Y-88164876D01*
X104308289Y-88170733D01*
X104308093Y-88171229D01*
X104345849Y-88185500D01*
X104385271Y-88229939D01*
X104399500Y-88287613D01*
X104399500Y-89458196D01*
X104389789Y-89506300D01*
X104362178Y-89546869D01*
X104320991Y-89573550D01*
X104277658Y-89590638D01*
X104157077Y-89682077D01*
X104065638Y-89802659D01*
X104010123Y-89943432D01*
X103999500Y-90031901D01*
X103999500Y-91321613D01*
X103985985Y-91377908D01*
X103948385Y-91421931D01*
X103894898Y-91444086D01*
X103837182Y-91439544D01*
X103787819Y-91409294D01*
X102836819Y-90458294D01*
X102809939Y-90418066D01*
X102800500Y-90370613D01*
X102800500Y-90031901D01*
X102800500Y-90031898D01*
X102789877Y-89943436D01*
X102789876Y-89943434D01*
X102789876Y-89943432D01*
X102734361Y-89802659D01*
X102734361Y-89802658D01*
X102688641Y-89742368D01*
X102642922Y-89682077D01*
X102563416Y-89621786D01*
X102522342Y-89590639D01*
X102522340Y-89590638D01*
X102381567Y-89535123D01*
X102337333Y-89529811D01*
X102293102Y-89524500D01*
X101406898Y-89524500D01*
X101368985Y-89529052D01*
X101318432Y-89535123D01*
X101177659Y-89590638D01*
X101057077Y-89682077D01*
X100965638Y-89802659D01*
X100910123Y-89943432D01*
X100910123Y-89943436D01*
X100899500Y-90031898D01*
X100899500Y-91368102D01*
X100900678Y-91377908D01*
X100910123Y-91456567D01*
X100965638Y-91597340D01*
X100965639Y-91597342D01*
X100996787Y-91638416D01*
X101057077Y-91717922D01*
X101115954Y-91762569D01*
X101177658Y-91809361D01*
X101225324Y-91828158D01*
X101318432Y-91864876D01*
X101318434Y-91864876D01*
X101318436Y-91864877D01*
X101406898Y-91875500D01*
X102293099Y-91875500D01*
X102293102Y-91875500D01*
X102381564Y-91864877D01*
X102382599Y-91864469D01*
X102524491Y-91808514D01*
X102571392Y-91799876D01*
X102618085Y-91809579D01*
X102657662Y-91836187D01*
X104102592Y-93281117D01*
X104105534Y-93284161D01*
X104139712Y-93320757D01*
X104149320Y-93331044D01*
X104184434Y-93352397D01*
X104194914Y-93359530D01*
X104227658Y-93384361D01*
X104244354Y-93390945D01*
X104263281Y-93400345D01*
X104278618Y-93409672D01*
X104278620Y-93409672D01*
X104278621Y-93409673D01*
X104318181Y-93420757D01*
X104330213Y-93424803D01*
X104368436Y-93439876D01*
X104386285Y-93441711D01*
X104407046Y-93445656D01*
X104424335Y-93450500D01*
X104465418Y-93450500D01*
X104478098Y-93451149D01*
X104518972Y-93455352D01*
X104536656Y-93452303D01*
X104557725Y-93450500D01*
X108920613Y-93450500D01*
X108968066Y-93459939D01*
X109008294Y-93486819D01*
X111302592Y-95781117D01*
X111305534Y-95784161D01*
X111349320Y-95831044D01*
X111384434Y-95852397D01*
X111394914Y-95859530D01*
X111427658Y-95884361D01*
X111444354Y-95890945D01*
X111463281Y-95900345D01*
X111478618Y-95909672D01*
X111478620Y-95909672D01*
X111478621Y-95909673D01*
X111518181Y-95920757D01*
X111530213Y-95924803D01*
X111568436Y-95939876D01*
X111586285Y-95941711D01*
X111607046Y-95945656D01*
X111624335Y-95950500D01*
X111665418Y-95950500D01*
X111678098Y-95951149D01*
X111718972Y-95955352D01*
X111736656Y-95952303D01*
X111757725Y-95950500D01*
X119738478Y-95950500D01*
X119742711Y-95950572D01*
X119806824Y-95952762D01*
X119806824Y-95952761D01*
X119806826Y-95952762D01*
X119846751Y-95943031D01*
X119859196Y-95940666D01*
X119899920Y-95935070D01*
X119916383Y-95927918D01*
X119936419Y-95921180D01*
X119953852Y-95916933D01*
X119989695Y-95896778D01*
X120001015Y-95891157D01*
X120038720Y-95874780D01*
X120052635Y-95863458D01*
X120070111Y-95851563D01*
X120085759Y-95842766D01*
X120114813Y-95813710D01*
X120124230Y-95805211D01*
X120156108Y-95779278D01*
X120166461Y-95764610D01*
X120180073Y-95748450D01*
X121616945Y-94311577D01*
X121657170Y-94284700D01*
X121704623Y-94275261D01*
X121752072Y-94284699D01*
X121853889Y-94326873D01*
X122098852Y-94385683D01*
X122350000Y-94405449D01*
X122601148Y-94385683D01*
X122846111Y-94326873D01*
X123078859Y-94230466D01*
X123293659Y-94098836D01*
X123485224Y-93935224D01*
X123648836Y-93743659D01*
X123780466Y-93528859D01*
X123876873Y-93296111D01*
X123935683Y-93051148D01*
X123955449Y-92800000D01*
X123935683Y-92548852D01*
X123876873Y-92303889D01*
X123780466Y-92071141D01*
X123648836Y-91856341D01*
X123485224Y-91664776D01*
X123293659Y-91501164D01*
X123078859Y-91369534D01*
X122947921Y-91315298D01*
X122846110Y-91273126D01*
X122601149Y-91214317D01*
X122350000Y-91194551D01*
X122098850Y-91214317D01*
X121853889Y-91273126D01*
X121675531Y-91347005D01*
X121624599Y-91368102D01*
X121621139Y-91369535D01*
X121406342Y-91501163D01*
X121214776Y-91664776D01*
X121051163Y-91856342D01*
X120919535Y-92071139D01*
X120823126Y-92303889D01*
X120764317Y-92548850D01*
X120744551Y-92800000D01*
X120764317Y-93051149D01*
X120823127Y-93296113D01*
X120865298Y-93397923D01*
X120874737Y-93445375D01*
X120865298Y-93492828D01*
X120838418Y-93533056D01*
X119558294Y-94813181D01*
X119518066Y-94840061D01*
X119470613Y-94849500D01*
X111979387Y-94849500D01*
X111931934Y-94840061D01*
X111891706Y-94813181D01*
X110512488Y-93433963D01*
X110481768Y-93383121D01*
X110478220Y-93323825D01*
X110502658Y-93269682D01*
X110549474Y-93233118D01*
X110607924Y-93222525D01*
X110664591Y-93240331D01*
X110684438Y-93252400D01*
X110694912Y-93259529D01*
X110727657Y-93284361D01*
X110744351Y-93290944D01*
X110763287Y-93300349D01*
X110778618Y-93309672D01*
X110793354Y-93313801D01*
X110818179Y-93320757D01*
X110830209Y-93324802D01*
X110868435Y-93339876D01*
X110886287Y-93341710D01*
X110907056Y-93345658D01*
X110924335Y-93350500D01*
X110965425Y-93350500D01*
X110978103Y-93351149D01*
X111018971Y-93355351D01*
X111036650Y-93352302D01*
X111057719Y-93350500D01*
X115625501Y-93350500D01*
X115687501Y-93367113D01*
X115732888Y-93412500D01*
X115749501Y-93474500D01*
X115749501Y-94144867D01*
X115752414Y-94169988D01*
X115752414Y-94169990D01*
X115752415Y-94169991D01*
X115779117Y-94230466D01*
X115797795Y-94272767D01*
X115877232Y-94352204D01*
X115877233Y-94352204D01*
X115877235Y-94352206D01*
X115980009Y-94397585D01*
X116005135Y-94400500D01*
X118694864Y-94400499D01*
X118694867Y-94400499D01*
X118707427Y-94399041D01*
X118719991Y-94397585D01*
X118822765Y-94352206D01*
X118902206Y-94272765D01*
X118947585Y-94169991D01*
X118950500Y-94144865D01*
X118950499Y-91455136D01*
X118947585Y-91430009D01*
X118902206Y-91327235D01*
X118902204Y-91327233D01*
X118902204Y-91327232D01*
X118822535Y-91247563D01*
X118775808Y-91211422D01*
X118751120Y-91157214D01*
X118754558Y-91097749D01*
X118785326Y-91046750D01*
X124797826Y-85034252D01*
X124813819Y-85018257D01*
X124829816Y-85002262D01*
X124850192Y-84969832D01*
X124858209Y-84958534D01*
X124882092Y-84928587D01*
X124898700Y-84894097D01*
X124905427Y-84881927D01*
X124907998Y-84877834D01*
X124925789Y-84849522D01*
X124938432Y-84813385D01*
X124943750Y-84800550D01*
X124960360Y-84766061D01*
X124968882Y-84728721D01*
X124972722Y-84715392D01*
X124985368Y-84679255D01*
X124989655Y-84641197D01*
X124991980Y-84627520D01*
X125000500Y-84590194D01*
X125000500Y-84409806D01*
X125000500Y-75555046D01*
X125000500Y-75509805D01*
X124998527Y-75501163D01*
X124995482Y-75487819D01*
X124991980Y-75472481D01*
X124989655Y-75458800D01*
X124985368Y-75420745D01*
X124972724Y-75384610D01*
X124968875Y-75371249D01*
X124960644Y-75335188D01*
X124960359Y-75333939D01*
X124943754Y-75299458D01*
X124938433Y-75286614D01*
X124933714Y-75273127D01*
X124925789Y-75250478D01*
X124905418Y-75218058D01*
X124898698Y-75205899D01*
X124882091Y-75171413D01*
X124882090Y-75171412D01*
X124882090Y-75171411D01*
X124858225Y-75141486D01*
X124850177Y-75130143D01*
X124829816Y-75097738D01*
X124702262Y-74970184D01*
X117334252Y-67602174D01*
X117302262Y-67570184D01*
X117269851Y-67549818D01*
X117258510Y-67541772D01*
X117228586Y-67517908D01*
X117194095Y-67501298D01*
X117181933Y-67494576D01*
X117166327Y-67484770D01*
X117149520Y-67474209D01*
X117113398Y-67461570D01*
X117100553Y-67456250D01*
X117066058Y-67439638D01*
X117028736Y-67431119D01*
X117015380Y-67427272D01*
X116979252Y-67414631D01*
X116941219Y-67410345D01*
X116927518Y-67408017D01*
X116890196Y-67399500D01*
X116890194Y-67399500D01*
X116844954Y-67399500D01*
X104428387Y-67399500D01*
X104372092Y-67385985D01*
X104328069Y-67348385D01*
X104305914Y-67294898D01*
X104310456Y-67237182D01*
X104340706Y-67187819D01*
X104760459Y-66768066D01*
X106048291Y-65480232D01*
X106069997Y-65462923D01*
X106202262Y-65379816D01*
X106329814Y-65252264D01*
X106329813Y-65252264D01*
X106329816Y-65252262D01*
X106425789Y-65099522D01*
X106485368Y-64929255D01*
X106505565Y-64750000D01*
X106485368Y-64570745D01*
X106425789Y-64400478D01*
X106329816Y-64247738D01*
X106329815Y-64247737D01*
X106329814Y-64247735D01*
X106202264Y-64120185D01*
X106139867Y-64080978D01*
X106049522Y-64024211D01*
X105879255Y-63964632D01*
X105879253Y-63964631D01*
X105879251Y-63964631D01*
X105700000Y-63944434D01*
X105520748Y-63964631D01*
X105520745Y-63964631D01*
X105520745Y-63964632D01*
X105350478Y-64024211D01*
X105350476Y-64024211D01*
X105350476Y-64024212D01*
X105197735Y-64120185D01*
X105070185Y-64247735D01*
X104974212Y-64400476D01*
X104914631Y-64570748D01*
X104894434Y-64749999D01*
X104914631Y-64929252D01*
X104921971Y-64950228D01*
X104925820Y-65018775D01*
X104892610Y-65078863D01*
X103737181Y-66234294D01*
X103687818Y-66264544D01*
X103630102Y-66269086D01*
X103576615Y-66246931D01*
X103539015Y-66202908D01*
X103525500Y-66146613D01*
X103525500Y-61771893D01*
X103539807Y-61714071D01*
X103579426Y-61669591D01*
X103635213Y-61648718D01*
X103644991Y-61647585D01*
X103747765Y-61602206D01*
X103827206Y-61522765D01*
X103872585Y-61419991D01*
X103875500Y-61394865D01*
X103875499Y-61262516D01*
X103891046Y-61202403D01*
X103933788Y-61157361D01*
X103993009Y-61138689D01*
X104053856Y-61151068D01*
X104101073Y-61191395D01*
X104226889Y-61371077D01*
X104393918Y-61538106D01*
X104587423Y-61673600D01*
X104801507Y-61773430D01*
X105014999Y-61830635D01*
X105015000Y-61830636D01*
X105015000Y-60750000D01*
X105515000Y-60750000D01*
X105515000Y-61830635D01*
X105728492Y-61773430D01*
X105942576Y-61673600D01*
X106136081Y-61538106D01*
X106303106Y-61371081D01*
X106438600Y-61177576D01*
X106538430Y-60963492D01*
X106595636Y-60750000D01*
X105515000Y-60750000D01*
X105015000Y-60750000D01*
X105015000Y-59169364D01*
X105515000Y-59169364D01*
X105515000Y-60250000D01*
X106595636Y-60250000D01*
X106595635Y-60249999D01*
X106538430Y-60036507D01*
X106438599Y-59822421D01*
X106303109Y-59628921D01*
X106136081Y-59461893D01*
X105942576Y-59326399D01*
X105728492Y-59226569D01*
X105515000Y-59169364D01*
X105015000Y-59169364D01*
X105014999Y-59169364D01*
X104801507Y-59226569D01*
X104587421Y-59326400D01*
X104393921Y-59461890D01*
X104226893Y-59628918D01*
X104101074Y-59808607D01*
X104053857Y-59848933D01*
X103993009Y-59861313D01*
X103933789Y-59842641D01*
X103891046Y-59797599D01*
X103875499Y-59737483D01*
X103875499Y-59605133D01*
X103872585Y-59580011D01*
X103872585Y-59580009D01*
X103827206Y-59477235D01*
X103827204Y-59477233D01*
X103827204Y-59477232D01*
X103747767Y-59397795D01*
X103644990Y-59352414D01*
X103635209Y-59351280D01*
X103579422Y-59330405D01*
X103539806Y-59285926D01*
X103525500Y-59228106D01*
X103525500Y-58257940D01*
X103534939Y-58210487D01*
X103561819Y-58170259D01*
X103854814Y-57877264D01*
X103854814Y-57877263D01*
X103854816Y-57877262D01*
X103875184Y-57844845D01*
X103883219Y-57833521D01*
X103907092Y-57803586D01*
X103923704Y-57769088D01*
X103930423Y-57756931D01*
X103950789Y-57724522D01*
X103963433Y-57688385D01*
X103968747Y-57675556D01*
X103985360Y-57641061D01*
X103993882Y-57603721D01*
X103997720Y-57590399D01*
X104010368Y-57554255D01*
X104014655Y-57516197D01*
X104016980Y-57502520D01*
X104025500Y-57465194D01*
X104025500Y-57284806D01*
X104025500Y-54271893D01*
X104039807Y-54214071D01*
X104079426Y-54169591D01*
X104135213Y-54148718D01*
X104144991Y-54147585D01*
X104247765Y-54102206D01*
X104327206Y-54022765D01*
X104372585Y-53919991D01*
X104375500Y-53894865D01*
X104375499Y-53762516D01*
X104391046Y-53702403D01*
X104433788Y-53657361D01*
X104493009Y-53638689D01*
X104553856Y-53651068D01*
X104601073Y-53691395D01*
X104726889Y-53871077D01*
X104893918Y-54038106D01*
X105087423Y-54173600D01*
X105301507Y-54273430D01*
X105514999Y-54330635D01*
X105515000Y-54330636D01*
X105515000Y-53250000D01*
X106015000Y-53250000D01*
X106015000Y-54330635D01*
X106228492Y-54273430D01*
X106442576Y-54173600D01*
X106636081Y-54038106D01*
X106803106Y-53871081D01*
X106938600Y-53677576D01*
X107038430Y-53463492D01*
X107095636Y-53250000D01*
X106015000Y-53250000D01*
X105515000Y-53250000D01*
X105515000Y-51669364D01*
X106015000Y-51669364D01*
X106015000Y-52750000D01*
X107095636Y-52750000D01*
X107095635Y-52749999D01*
X107038430Y-52536507D01*
X106938599Y-52322421D01*
X106803109Y-52128921D01*
X106636081Y-51961893D01*
X106442576Y-51826399D01*
X106228492Y-51726569D01*
X106015000Y-51669364D01*
X105515000Y-51669364D01*
X105514999Y-51669364D01*
X105301507Y-51726569D01*
X105087421Y-51826400D01*
X104893921Y-51961890D01*
X104726893Y-52128918D01*
X104601074Y-52308607D01*
X104553857Y-52348933D01*
X104493009Y-52361313D01*
X104433789Y-52342641D01*
X104391046Y-52297599D01*
X104375499Y-52237483D01*
X104375499Y-52105133D01*
X104372585Y-52080011D01*
X104372585Y-52080009D01*
X104327206Y-51977235D01*
X104327204Y-51977233D01*
X104327204Y-51977232D01*
X104247767Y-51897795D01*
X104144990Y-51852414D01*
X104135209Y-51851280D01*
X104079422Y-51830405D01*
X104039806Y-51785926D01*
X104025500Y-51728106D01*
X104025500Y-50400000D01*
X107569500Y-50400000D01*
X107569500Y-59760196D01*
X107578017Y-59797518D01*
X107580345Y-59811219D01*
X107584631Y-59849252D01*
X107597272Y-59885380D01*
X107601119Y-59898736D01*
X107609638Y-59936058D01*
X107626250Y-59970553D01*
X107631570Y-59983398D01*
X107644209Y-60019520D01*
X107654770Y-60036327D01*
X107664576Y-60051933D01*
X107671298Y-60064095D01*
X107687908Y-60098586D01*
X107711771Y-60128509D01*
X107719818Y-60139850D01*
X107740185Y-60172264D01*
X107772174Y-60204252D01*
X108013181Y-60445259D01*
X108040061Y-60485487D01*
X108049500Y-60532940D01*
X108049500Y-61394867D01*
X108052414Y-61419988D01*
X108097795Y-61522767D01*
X108177232Y-61602204D01*
X108177233Y-61602204D01*
X108177235Y-61602206D01*
X108280009Y-61647585D01*
X108305135Y-61650500D01*
X110094864Y-61650499D01*
X110094867Y-61650499D01*
X110107427Y-61649042D01*
X110119991Y-61647585D01*
X110222765Y-61602206D01*
X110302206Y-61522765D01*
X110347585Y-61419991D01*
X110350500Y-61394865D01*
X110350499Y-61262516D01*
X110366046Y-61202403D01*
X110408788Y-61157361D01*
X110468009Y-61138689D01*
X110528856Y-61151068D01*
X110576073Y-61191395D01*
X110701889Y-61371077D01*
X110868918Y-61538106D01*
X111062423Y-61673600D01*
X111276507Y-61773430D01*
X111489999Y-61830635D01*
X111490000Y-61830636D01*
X111490000Y-60750000D01*
X111990000Y-60750000D01*
X111990000Y-61830635D01*
X112203492Y-61773430D01*
X112417576Y-61673600D01*
X112611081Y-61538106D01*
X112778106Y-61371081D01*
X112913600Y-61177576D01*
X113013430Y-60963492D01*
X113070636Y-60750000D01*
X114300001Y-60750000D01*
X114300001Y-61174979D01*
X114310493Y-61277695D01*
X114365642Y-61444122D01*
X114457683Y-61593345D01*
X114581654Y-61717316D01*
X114730877Y-61809357D01*
X114897303Y-61864506D01*
X115000021Y-61875000D01*
X115200000Y-61875000D01*
X115200000Y-60750000D01*
X115700000Y-60750000D01*
X115700000Y-61874999D01*
X115899979Y-61874999D01*
X116002695Y-61864506D01*
X116169122Y-61809357D01*
X116318345Y-61717316D01*
X116442316Y-61593345D01*
X116534357Y-61444122D01*
X116589506Y-61277696D01*
X116600000Y-61174979D01*
X116600000Y-60750000D01*
X115700000Y-60750000D01*
X115200000Y-60750000D01*
X114300001Y-60750000D01*
X113070636Y-60750000D01*
X111990000Y-60750000D01*
X111490000Y-60750000D01*
X111490000Y-59169364D01*
X111990000Y-59169364D01*
X111990000Y-60250000D01*
X113070636Y-60250000D01*
X114300000Y-60250000D01*
X115200000Y-60250000D01*
X115200000Y-59125001D01*
X115000021Y-59125001D01*
X114897304Y-59135493D01*
X114730877Y-59190642D01*
X114581654Y-59282683D01*
X114457683Y-59406654D01*
X114365642Y-59555877D01*
X114310493Y-59722303D01*
X114300000Y-59825021D01*
X114300000Y-60250000D01*
X113070636Y-60250000D01*
X113070635Y-60249999D01*
X113013430Y-60036507D01*
X112913599Y-59822421D01*
X112778109Y-59628921D01*
X112611081Y-59461893D01*
X112417576Y-59326399D01*
X112203492Y-59226569D01*
X111990000Y-59169364D01*
X111490000Y-59169364D01*
X111489999Y-59169364D01*
X111276507Y-59226569D01*
X111062421Y-59326400D01*
X110868921Y-59461890D01*
X110701893Y-59628918D01*
X110576074Y-59808607D01*
X110528857Y-59848933D01*
X110468009Y-59861313D01*
X110408789Y-59842641D01*
X110366046Y-59797599D01*
X110350499Y-59737483D01*
X110350499Y-59605133D01*
X110347585Y-59580011D01*
X110347585Y-59580009D01*
X110302206Y-59477235D01*
X110302204Y-59477233D01*
X110302204Y-59477232D01*
X110222767Y-59397795D01*
X110206558Y-59390638D01*
X110119991Y-59352415D01*
X110094865Y-59349500D01*
X110094864Y-59349500D01*
X109294500Y-59349500D01*
X109232500Y-59332887D01*
X109187113Y-59287500D01*
X109170500Y-59225500D01*
X109170500Y-59125000D01*
X115700000Y-59125000D01*
X115700000Y-60250000D01*
X116599999Y-60250000D01*
X116599999Y-59825021D01*
X116589506Y-59722304D01*
X116534357Y-59555877D01*
X116442316Y-59406654D01*
X116318345Y-59282683D01*
X116169122Y-59190642D01*
X116002696Y-59135493D01*
X115899979Y-59125000D01*
X115700000Y-59125000D01*
X109170500Y-59125000D01*
X109170500Y-55350000D01*
X109625001Y-55350000D01*
X109625001Y-55549979D01*
X109635493Y-55652695D01*
X109690642Y-55819122D01*
X109782683Y-55968345D01*
X109906654Y-56092316D01*
X110055877Y-56184357D01*
X110222303Y-56239506D01*
X110325021Y-56250000D01*
X110750000Y-56250000D01*
X110750000Y-55350000D01*
X111250000Y-55350000D01*
X111250000Y-56249999D01*
X111674979Y-56249999D01*
X111777695Y-56239506D01*
X111944122Y-56184357D01*
X112093345Y-56092316D01*
X112217316Y-55968345D01*
X112309357Y-55819122D01*
X112364506Y-55652696D01*
X112375000Y-55549979D01*
X112375000Y-55515000D01*
X113169364Y-55515000D01*
X113226569Y-55728492D01*
X113326399Y-55942576D01*
X113461893Y-56136081D01*
X113628918Y-56303106D01*
X113822423Y-56438600D01*
X114036507Y-56538430D01*
X114249999Y-56595635D01*
X114250000Y-56595636D01*
X114250000Y-55515000D01*
X114750000Y-55515000D01*
X114750000Y-56595635D01*
X114963492Y-56538430D01*
X115177576Y-56438600D01*
X115371081Y-56303106D01*
X115538106Y-56136081D01*
X115673600Y-55942576D01*
X115773430Y-55728492D01*
X115830636Y-55515000D01*
X114750000Y-55515000D01*
X114250000Y-55515000D01*
X113169364Y-55515000D01*
X112375000Y-55515000D01*
X112375000Y-55350000D01*
X111250000Y-55350000D01*
X110750000Y-55350000D01*
X109625001Y-55350000D01*
X109170500Y-55350000D01*
X109170500Y-54850000D01*
X109625000Y-54850000D01*
X110750000Y-54850000D01*
X110750000Y-53950001D01*
X110325021Y-53950001D01*
X110222304Y-53960493D01*
X110055877Y-54015642D01*
X109906654Y-54107683D01*
X109782683Y-54231654D01*
X109690642Y-54380877D01*
X109635493Y-54547303D01*
X109625000Y-54650021D01*
X109625000Y-54850000D01*
X109170500Y-54850000D01*
X109170500Y-53950000D01*
X111250000Y-53950000D01*
X111250000Y-54850000D01*
X112374999Y-54850000D01*
X112374999Y-54650021D01*
X112364506Y-54547304D01*
X112309357Y-54380877D01*
X112217316Y-54231654D01*
X112093345Y-54107683D01*
X111944122Y-54015642D01*
X111777696Y-53960493D01*
X111674979Y-53950000D01*
X111250000Y-53950000D01*
X109170500Y-53950000D01*
X109170500Y-50400000D01*
X110359500Y-50400000D01*
X110359500Y-50936185D01*
X110345271Y-50993859D01*
X110305850Y-51038297D01*
X110250285Y-51059300D01*
X110247418Y-51059644D01*
X110243432Y-51060123D01*
X110102659Y-51115638D01*
X109982077Y-51207077D01*
X109890638Y-51327659D01*
X109835123Y-51468432D01*
X109824500Y-51556901D01*
X109824500Y-52443099D01*
X109835123Y-52531567D01*
X109877909Y-52640061D01*
X109890639Y-52672342D01*
X109921787Y-52713416D01*
X109982077Y-52792922D01*
X110042368Y-52838641D01*
X110102658Y-52884361D01*
X110159786Y-52906889D01*
X110243432Y-52939876D01*
X110243434Y-52939876D01*
X110243436Y-52939877D01*
X110331898Y-52950500D01*
X111120613Y-52950500D01*
X111168066Y-52959939D01*
X111208294Y-52986819D01*
X111327592Y-53106117D01*
X111330534Y-53109161D01*
X111374320Y-53156044D01*
X111409434Y-53177397D01*
X111419914Y-53184530D01*
X111452658Y-53209361D01*
X111469354Y-53215945D01*
X111488281Y-53225345D01*
X111503618Y-53234672D01*
X111503620Y-53234672D01*
X111503621Y-53234673D01*
X111543181Y-53245757D01*
X111555213Y-53249803D01*
X111593436Y-53264876D01*
X111611285Y-53266711D01*
X111632046Y-53270656D01*
X111649335Y-53275500D01*
X111690418Y-53275500D01*
X111703098Y-53276149D01*
X111743972Y-53280352D01*
X111761656Y-53277303D01*
X111782725Y-53275500D01*
X113225501Y-53275500D01*
X113287501Y-53292113D01*
X113332888Y-53337500D01*
X113349501Y-53399500D01*
X113349501Y-53619867D01*
X113352414Y-53644988D01*
X113352414Y-53644990D01*
X113352415Y-53644991D01*
X113395600Y-53742796D01*
X113397795Y-53747767D01*
X113477232Y-53827204D01*
X113477233Y-53827204D01*
X113477235Y-53827206D01*
X113580009Y-53872585D01*
X113605135Y-53875500D01*
X113737483Y-53875499D01*
X113797597Y-53891046D01*
X113842639Y-53933788D01*
X113861311Y-53993009D01*
X113848932Y-54053856D01*
X113808605Y-54101073D01*
X113628922Y-54226889D01*
X113461890Y-54393921D01*
X113326400Y-54587421D01*
X113226569Y-54801507D01*
X113169364Y-55014999D01*
X113169364Y-55015000D01*
X115830636Y-55015000D01*
X115830635Y-55014999D01*
X115773430Y-54801507D01*
X115673599Y-54587421D01*
X115538109Y-54393921D01*
X115371081Y-54226893D01*
X115191393Y-54101074D01*
X115151067Y-54053857D01*
X115138687Y-53993009D01*
X115157359Y-53933789D01*
X115202401Y-53891046D01*
X115262516Y-53875499D01*
X115394864Y-53875499D01*
X115394867Y-53875499D01*
X115407427Y-53874042D01*
X115419991Y-53872585D01*
X115522765Y-53827206D01*
X115602206Y-53747765D01*
X115647585Y-53644991D01*
X115650500Y-53619865D01*
X115650499Y-51830136D01*
X115647585Y-51805009D01*
X115602206Y-51702235D01*
X115602204Y-51702233D01*
X115602204Y-51702232D01*
X115522767Y-51622795D01*
X115522765Y-51622794D01*
X115419991Y-51577415D01*
X115394865Y-51574500D01*
X115394863Y-51574500D01*
X113605132Y-51574500D01*
X113580011Y-51577414D01*
X113477232Y-51622795D01*
X113397795Y-51702232D01*
X113386371Y-51728106D01*
X113352415Y-51805009D01*
X113349934Y-51826399D01*
X113349500Y-51830136D01*
X113349500Y-52050500D01*
X113332887Y-52112500D01*
X113287500Y-52157887D01*
X113225500Y-52174500D01*
X112299500Y-52174500D01*
X112237500Y-52157887D01*
X112192113Y-52112500D01*
X112175500Y-52050500D01*
X112175500Y-51556901D01*
X112175500Y-51556898D01*
X112164877Y-51468436D01*
X112164876Y-51468434D01*
X112164876Y-51468432D01*
X112109361Y-51327659D01*
X112109361Y-51327658D01*
X112063641Y-51267368D01*
X112017922Y-51207077D01*
X111938416Y-51146787D01*
X111897342Y-51115639D01*
X111897340Y-51115638D01*
X111756567Y-51060123D01*
X111707782Y-51054265D01*
X111668102Y-51049500D01*
X111668099Y-51049500D01*
X111584500Y-51049500D01*
X111522500Y-51032887D01*
X111477113Y-50987500D01*
X111460500Y-50925500D01*
X111460500Y-50400000D01*
X116799500Y-50400000D01*
X116799500Y-59167738D01*
X116798720Y-59181622D01*
X116794729Y-59217034D01*
X116805356Y-59273194D01*
X116806130Y-59277751D01*
X116809607Y-59300819D01*
X116815550Y-59340248D01*
X116817163Y-59345148D01*
X116846687Y-59401010D01*
X116848777Y-59405150D01*
X116876184Y-59462060D01*
X116879183Y-59466287D01*
X116923846Y-59510950D01*
X116927063Y-59514289D01*
X116970043Y-59560611D01*
X116984930Y-59572034D01*
X117274209Y-59861313D01*
X117563181Y-60150284D01*
X117590061Y-60190512D01*
X117599500Y-60237965D01*
X117599500Y-61168099D01*
X117610123Y-61256567D01*
X117655281Y-61371077D01*
X117665639Y-61397342D01*
X117694365Y-61435223D01*
X117757077Y-61517922D01*
X117891238Y-61619659D01*
X117891141Y-61619785D01*
X117912178Y-61633413D01*
X117939789Y-61673982D01*
X117949500Y-61722086D01*
X117949500Y-66988478D01*
X117949428Y-66992711D01*
X117947237Y-67056826D01*
X117956963Y-67096733D01*
X117959334Y-67109207D01*
X117964930Y-67149922D01*
X117972079Y-67166380D01*
X117978819Y-67186421D01*
X117983067Y-67203853D01*
X118003206Y-67239672D01*
X118008852Y-67251039D01*
X118025220Y-67288720D01*
X118030246Y-67294898D01*
X118036542Y-67302637D01*
X118048437Y-67320116D01*
X118057232Y-67335757D01*
X118086285Y-67364810D01*
X118094793Y-67374237D01*
X118117717Y-67402415D01*
X118120722Y-67406108D01*
X118132796Y-67414631D01*
X118135378Y-67416453D01*
X118151552Y-67430077D01*
X126763181Y-76041705D01*
X126790061Y-76081933D01*
X126799500Y-76129386D01*
X126799500Y-91212802D01*
X126790061Y-91260255D01*
X126763181Y-91300484D01*
X126722953Y-91327362D01*
X126687159Y-91342188D01*
X126621138Y-91369534D01*
X126406342Y-91501163D01*
X126214776Y-91664776D01*
X126051163Y-91856342D01*
X125919535Y-92071139D01*
X125823126Y-92303889D01*
X125764317Y-92548850D01*
X125744551Y-92800000D01*
X125764317Y-93051149D01*
X125823126Y-93296110D01*
X125864020Y-93394836D01*
X125919534Y-93528859D01*
X126051164Y-93743659D01*
X126214776Y-93935224D01*
X126406341Y-94098836D01*
X126621141Y-94230466D01*
X126853889Y-94326873D01*
X127098852Y-94385683D01*
X127350000Y-94405449D01*
X127601148Y-94385683D01*
X127846111Y-94326873D01*
X128058975Y-94238702D01*
X131264848Y-94238702D01*
X131447479Y-94363217D01*
X131690542Y-94480270D01*
X131948339Y-94559791D01*
X132215109Y-94600000D01*
X132484891Y-94600000D01*
X132751660Y-94559791D01*
X133009460Y-94480270D01*
X133252523Y-94363217D01*
X133435150Y-94238702D01*
X132350000Y-93153553D01*
X131264848Y-94238702D01*
X128058975Y-94238702D01*
X128078859Y-94230466D01*
X128293659Y-94098836D01*
X128485224Y-93935224D01*
X128648836Y-93743659D01*
X128780466Y-93528859D01*
X128876873Y-93296111D01*
X128935683Y-93051148D01*
X128955449Y-92800000D01*
X128955449Y-92799999D01*
X130544952Y-92799999D01*
X130565113Y-93069026D01*
X130625146Y-93332049D01*
X130723708Y-93583178D01*
X130858598Y-93816816D01*
X130912295Y-93884150D01*
X131996447Y-92800001D01*
X131996447Y-92800000D01*
X132703553Y-92800000D01*
X133787703Y-93884151D01*
X133787704Y-93884150D01*
X133841400Y-93816818D01*
X133976291Y-93583178D01*
X134074853Y-93332049D01*
X134134886Y-93069026D01*
X134155047Y-92799999D01*
X134134886Y-92530973D01*
X134074853Y-92267950D01*
X133976291Y-92016821D01*
X133841398Y-91783178D01*
X133787704Y-91715847D01*
X132703553Y-92800000D01*
X131996447Y-92800000D01*
X130912295Y-91715848D01*
X130858598Y-91783182D01*
X130723708Y-92016821D01*
X130625146Y-92267950D01*
X130565113Y-92530973D01*
X130544952Y-92799999D01*
X128955449Y-92799999D01*
X128935683Y-92548852D01*
X128876873Y-92303889D01*
X128780466Y-92071141D01*
X128648836Y-91856341D01*
X128485224Y-91664776D01*
X128293659Y-91501164D01*
X128248343Y-91473394D01*
X128078861Y-91369534D01*
X128058972Y-91361296D01*
X131264848Y-91361296D01*
X132350000Y-92446447D01*
X132350001Y-92446447D01*
X133435150Y-91361296D01*
X133252519Y-91236780D01*
X133009460Y-91119729D01*
X132751660Y-91040208D01*
X132484891Y-91000000D01*
X132215109Y-91000000D01*
X131948339Y-91040208D01*
X131690542Y-91119729D01*
X131447476Y-91236783D01*
X131264848Y-91361296D01*
X128058972Y-91361296D01*
X128022709Y-91346276D01*
X127977046Y-91327362D01*
X127936819Y-91300484D01*
X127909939Y-91260255D01*
X127900500Y-91212802D01*
X127900500Y-75861522D01*
X127900572Y-75857289D01*
X127902762Y-75793174D01*
X127893035Y-75753262D01*
X127890665Y-75740794D01*
X127885070Y-75700080D01*
X127877920Y-75683620D01*
X127871180Y-75663578D01*
X127866933Y-75646148D01*
X127865261Y-75643174D01*
X127846796Y-75610333D01*
X127841148Y-75598963D01*
X127840333Y-75597086D01*
X127824780Y-75561280D01*
X127813458Y-75547364D01*
X127801554Y-75529874D01*
X127792764Y-75514239D01*
X127763718Y-75485194D01*
X127755209Y-75475766D01*
X127752542Y-75472488D01*
X127729278Y-75443892D01*
X127720770Y-75437886D01*
X127714612Y-75433539D01*
X127698441Y-75419917D01*
X119086819Y-66808294D01*
X119059939Y-66768066D01*
X119050500Y-66720613D01*
X119050500Y-61761521D01*
X119060211Y-61713417D01*
X119087822Y-61672848D01*
X119129010Y-61646167D01*
X119161351Y-61633413D01*
X119222342Y-61609361D01*
X119342922Y-61517922D01*
X119434361Y-61397342D01*
X119489877Y-61256564D01*
X119500500Y-61168102D01*
X119500500Y-60750000D01*
X119800001Y-60750000D01*
X119800001Y-61174979D01*
X119810493Y-61277695D01*
X119865642Y-61444122D01*
X119957683Y-61593345D01*
X120081654Y-61717316D01*
X120230877Y-61809357D01*
X120397303Y-61864506D01*
X120500021Y-61875000D01*
X120700000Y-61875000D01*
X120700000Y-60750000D01*
X121200000Y-60750000D01*
X121200000Y-61874999D01*
X121399979Y-61874999D01*
X121502695Y-61864506D01*
X121669122Y-61809357D01*
X121818345Y-61717316D01*
X121942316Y-61593345D01*
X122034357Y-61444122D01*
X122089506Y-61277696D01*
X122100000Y-61174979D01*
X122100000Y-60750000D01*
X121200000Y-60750000D01*
X120700000Y-60750000D01*
X119800001Y-60750000D01*
X119500500Y-60750000D01*
X119500500Y-60250000D01*
X119800000Y-60250000D01*
X120700000Y-60250000D01*
X120700000Y-59125001D01*
X120500021Y-59125001D01*
X120397304Y-59135493D01*
X120230877Y-59190642D01*
X120081654Y-59282683D01*
X119957683Y-59406654D01*
X119865642Y-59555877D01*
X119810493Y-59722303D01*
X119800000Y-59825021D01*
X119800000Y-60250000D01*
X119500500Y-60250000D01*
X119500500Y-59831898D01*
X119489877Y-59743436D01*
X119489876Y-59743434D01*
X119489876Y-59743432D01*
X119444718Y-59628921D01*
X119434361Y-59602658D01*
X119385410Y-59538106D01*
X119342922Y-59482077D01*
X119243461Y-59406654D01*
X119222342Y-59390639D01*
X119222340Y-59390638D01*
X119081567Y-59335123D01*
X119037332Y-59329811D01*
X118993102Y-59324500D01*
X118106898Y-59324500D01*
X118081660Y-59327530D01*
X118026351Y-59321604D01*
X117979198Y-59292095D01*
X117736819Y-59049716D01*
X117709939Y-59009488D01*
X117700500Y-58962035D01*
X117700500Y-50400000D01*
X120519500Y-50400000D01*
X120519500Y-57508478D01*
X120519428Y-57512711D01*
X120517237Y-57576826D01*
X120526963Y-57616733D01*
X120529334Y-57629207D01*
X120534930Y-57669922D01*
X120542079Y-57686380D01*
X120548819Y-57706421D01*
X120553067Y-57723853D01*
X120573206Y-57759672D01*
X120578852Y-57771039D01*
X120595220Y-57808720D01*
X120603009Y-57818294D01*
X120606542Y-57822637D01*
X120618437Y-57840116D01*
X120627232Y-57855757D01*
X120656285Y-57884810D01*
X120664793Y-57894237D01*
X120690721Y-57926107D01*
X120705378Y-57936453D01*
X120721552Y-57950077D01*
X121737364Y-58965889D01*
X121769823Y-59022872D01*
X121768679Y-59088442D01*
X121734251Y-59144258D01*
X121676169Y-59174708D01*
X121610679Y-59171276D01*
X121502696Y-59135493D01*
X121399979Y-59125000D01*
X121200000Y-59125000D01*
X121200000Y-60250000D01*
X122099999Y-60250000D01*
X122099999Y-59825021D01*
X122089506Y-59722304D01*
X122053723Y-59614319D01*
X122050291Y-59548829D01*
X122080741Y-59490747D01*
X122136557Y-59456319D01*
X122202127Y-59455175D01*
X122259110Y-59487634D01*
X123063181Y-60291705D01*
X123090061Y-60331933D01*
X123099500Y-60379386D01*
X123099500Y-61168099D01*
X123110123Y-61256567D01*
X123155281Y-61371077D01*
X123165639Y-61397342D01*
X123194365Y-61435223D01*
X123257077Y-61517922D01*
X123377658Y-61609361D01*
X123420991Y-61626450D01*
X123462178Y-61653131D01*
X123489789Y-61693700D01*
X123499500Y-61741804D01*
X123499500Y-70088478D01*
X123499428Y-70092711D01*
X123497237Y-70156826D01*
X123506963Y-70196733D01*
X123509334Y-70209207D01*
X123514930Y-70249922D01*
X123522079Y-70266380D01*
X123528819Y-70286421D01*
X123533067Y-70303853D01*
X123553206Y-70339672D01*
X123558852Y-70351039D01*
X123575220Y-70388720D01*
X123583009Y-70398294D01*
X123586542Y-70402637D01*
X123598437Y-70420116D01*
X123607232Y-70435757D01*
X123636285Y-70464810D01*
X123644793Y-70474237D01*
X123670721Y-70506107D01*
X123685378Y-70516453D01*
X123701552Y-70530077D01*
X129063181Y-75891706D01*
X129090061Y-75931934D01*
X129099500Y-75979387D01*
X129099500Y-85938478D01*
X129099428Y-85942711D01*
X129097237Y-86006826D01*
X129106963Y-86046733D01*
X129109334Y-86059207D01*
X129114930Y-86099922D01*
X129122079Y-86116380D01*
X129128819Y-86136421D01*
X129133067Y-86153853D01*
X129153206Y-86189672D01*
X129158852Y-86201039D01*
X129175220Y-86238720D01*
X129183009Y-86248294D01*
X129186542Y-86252637D01*
X129198437Y-86270116D01*
X129207232Y-86285757D01*
X129236285Y-86314810D01*
X129244793Y-86324237D01*
X129270721Y-86356107D01*
X129285378Y-86366453D01*
X129301552Y-86380077D01*
X131402579Y-88481103D01*
X131405492Y-88484116D01*
X131449320Y-88531044D01*
X131484425Y-88552391D01*
X131494918Y-88559532D01*
X131527658Y-88584361D01*
X131544353Y-88590944D01*
X131563292Y-88600352D01*
X131578618Y-88609672D01*
X131618181Y-88620757D01*
X131630213Y-88624803D01*
X131668436Y-88639876D01*
X131686285Y-88641711D01*
X131707046Y-88645656D01*
X131724335Y-88650500D01*
X131765418Y-88650500D01*
X131778098Y-88651149D01*
X131818972Y-88655352D01*
X131836656Y-88652303D01*
X131857725Y-88650500D01*
X143870613Y-88650500D01*
X143918066Y-88659939D01*
X143958294Y-88686819D01*
X147338418Y-92066943D01*
X147365298Y-92107171D01*
X147374737Y-92154623D01*
X147365298Y-92202076D01*
X147323127Y-92303886D01*
X147264317Y-92548850D01*
X147244551Y-92799999D01*
X147264317Y-93051149D01*
X147323126Y-93296110D01*
X147364020Y-93394836D01*
X147419534Y-93528859D01*
X147551164Y-93743659D01*
X147714776Y-93935224D01*
X147906341Y-94098836D01*
X148121141Y-94230466D01*
X148353889Y-94326873D01*
X148598852Y-94385683D01*
X148850000Y-94405449D01*
X149101148Y-94385683D01*
X149346111Y-94326873D01*
X149558975Y-94238702D01*
X152764848Y-94238702D01*
X152947479Y-94363217D01*
X153190542Y-94480270D01*
X153448339Y-94559791D01*
X153715109Y-94600000D01*
X153984891Y-94600000D01*
X154251660Y-94559791D01*
X154509460Y-94480270D01*
X154752523Y-94363217D01*
X154935150Y-94238702D01*
X153850000Y-93153553D01*
X152764848Y-94238702D01*
X149558975Y-94238702D01*
X149578859Y-94230466D01*
X149793659Y-94098836D01*
X149985224Y-93935224D01*
X150148836Y-93743659D01*
X150280466Y-93528859D01*
X150376873Y-93296111D01*
X150435683Y-93051148D01*
X150455449Y-92800000D01*
X150455449Y-92799999D01*
X152044952Y-92799999D01*
X152065113Y-93069026D01*
X152125146Y-93332049D01*
X152223708Y-93583178D01*
X152358598Y-93816816D01*
X152412295Y-93884150D01*
X153496447Y-92800001D01*
X154203553Y-92800001D01*
X155287703Y-93884151D01*
X155287704Y-93884150D01*
X155341400Y-93816818D01*
X155476291Y-93583178D01*
X155574853Y-93332049D01*
X155634886Y-93069026D01*
X155655047Y-92799999D01*
X155634886Y-92530973D01*
X155574853Y-92267950D01*
X155476291Y-92016821D01*
X155341398Y-91783178D01*
X155287704Y-91715847D01*
X154203553Y-92800000D01*
X154203553Y-92800001D01*
X153496447Y-92800001D01*
X153496447Y-92800000D01*
X152412295Y-91715848D01*
X152358598Y-91783182D01*
X152223708Y-92016821D01*
X152125146Y-92267950D01*
X152065113Y-92530973D01*
X152044952Y-92799999D01*
X150455449Y-92799999D01*
X150435683Y-92548852D01*
X150376873Y-92303889D01*
X150280466Y-92071141D01*
X150148836Y-91856341D01*
X149985224Y-91664776D01*
X149793659Y-91501164D01*
X149578859Y-91369534D01*
X149558971Y-91361296D01*
X152764848Y-91361296D01*
X153850000Y-92446447D01*
X153850001Y-92446447D01*
X154935150Y-91361296D01*
X154752519Y-91236780D01*
X154509460Y-91119729D01*
X154251660Y-91040208D01*
X153984891Y-91000000D01*
X153715109Y-91000000D01*
X153448339Y-91040208D01*
X153190542Y-91119729D01*
X152947476Y-91236783D01*
X152764848Y-91361296D01*
X149558971Y-91361296D01*
X149447921Y-91315298D01*
X149346110Y-91273126D01*
X149101149Y-91214317D01*
X148850000Y-91194551D01*
X148598850Y-91214317D01*
X148353886Y-91273127D01*
X148252076Y-91315298D01*
X148204623Y-91324737D01*
X148157171Y-91315298D01*
X148116943Y-91288418D01*
X144547406Y-87718881D01*
X144544492Y-87715867D01*
X144500680Y-87668956D01*
X144500679Y-87668955D01*
X144500678Y-87668954D01*
X144465574Y-87647607D01*
X144455079Y-87640464D01*
X144422342Y-87615639D01*
X144422340Y-87615638D01*
X144405644Y-87609053D01*
X144386714Y-87599650D01*
X144371384Y-87590328D01*
X144340924Y-87581793D01*
X144331814Y-87579240D01*
X144319795Y-87575199D01*
X144281564Y-87560124D01*
X144281563Y-87560123D01*
X144281561Y-87560123D01*
X144263715Y-87558288D01*
X144242952Y-87554342D01*
X144225668Y-87549500D01*
X144225665Y-87549500D01*
X144184582Y-87549500D01*
X144171901Y-87548850D01*
X144131027Y-87544647D01*
X144113344Y-87547697D01*
X144092275Y-87549500D01*
X132079386Y-87549500D01*
X132031933Y-87540061D01*
X131991705Y-87513181D01*
X130236819Y-85758294D01*
X130209939Y-85718066D01*
X130200500Y-85670613D01*
X130200500Y-83144867D01*
X156549500Y-83144867D01*
X156552414Y-83169988D01*
X156552414Y-83169990D01*
X156552415Y-83169991D01*
X156597794Y-83272765D01*
X156597795Y-83272767D01*
X156677232Y-83352204D01*
X156677233Y-83352204D01*
X156677235Y-83352206D01*
X156780009Y-83397585D01*
X156805135Y-83400500D01*
X159494864Y-83400499D01*
X159494867Y-83400499D01*
X159507427Y-83399042D01*
X159519991Y-83397585D01*
X159622765Y-83352206D01*
X159702206Y-83272765D01*
X159747585Y-83169991D01*
X159750500Y-83144865D01*
X159750499Y-80455136D01*
X159747585Y-80430009D01*
X159702206Y-80327235D01*
X159702204Y-80327233D01*
X159702204Y-80327232D01*
X159622767Y-80247795D01*
X159622765Y-80247794D01*
X159519991Y-80202415D01*
X159494865Y-80199500D01*
X159494863Y-80199500D01*
X156805132Y-80199500D01*
X156780011Y-80202414D01*
X156677232Y-80247795D01*
X156597795Y-80327232D01*
X156552415Y-80430009D01*
X156549500Y-80455136D01*
X156549500Y-83144867D01*
X130200500Y-83144867D01*
X130200500Y-75711522D01*
X130200572Y-75707289D01*
X130202762Y-75643174D01*
X130201379Y-75637500D01*
X130193034Y-75603259D01*
X130190665Y-75590794D01*
X130185070Y-75550080D01*
X130177920Y-75533620D01*
X130171180Y-75513578D01*
X130166933Y-75496148D01*
X130146792Y-75460327D01*
X130141149Y-75448964D01*
X130124780Y-75411280D01*
X130113456Y-75397360D01*
X130101559Y-75379880D01*
X130092766Y-75364241D01*
X130063712Y-75335187D01*
X130055205Y-75325761D01*
X130029277Y-75293891D01*
X130014615Y-75283541D01*
X129998444Y-75269919D01*
X127967227Y-73238702D01*
X157064848Y-73238702D01*
X157247479Y-73363217D01*
X157490542Y-73480270D01*
X157748339Y-73559791D01*
X158015109Y-73600000D01*
X158284891Y-73600000D01*
X158551660Y-73559791D01*
X158809460Y-73480270D01*
X159052523Y-73363217D01*
X159235150Y-73238702D01*
X158150000Y-72153553D01*
X157064848Y-73238702D01*
X127967227Y-73238702D01*
X126528524Y-71799999D01*
X156344952Y-71799999D01*
X156365113Y-72069026D01*
X156425146Y-72332049D01*
X156523708Y-72583178D01*
X156658598Y-72816816D01*
X156712295Y-72884150D01*
X157796447Y-71800001D01*
X157796447Y-71800000D01*
X158503553Y-71800000D01*
X159587703Y-72884151D01*
X159587704Y-72884150D01*
X159641400Y-72816818D01*
X159776291Y-72583178D01*
X159874853Y-72332049D01*
X159934886Y-72069026D01*
X159955047Y-71799999D01*
X159934886Y-71530973D01*
X159874853Y-71267950D01*
X159776291Y-71016821D01*
X159641398Y-70783178D01*
X159587704Y-70715847D01*
X158503553Y-71800000D01*
X157796447Y-71800000D01*
X156712295Y-70715848D01*
X156658598Y-70783182D01*
X156523708Y-71016821D01*
X156425146Y-71267950D01*
X156365113Y-71530973D01*
X156344952Y-71799999D01*
X126528524Y-71799999D01*
X125089821Y-70361296D01*
X157064848Y-70361296D01*
X158150000Y-71446447D01*
X158150001Y-71446447D01*
X159235150Y-70361296D01*
X159052519Y-70236780D01*
X158809460Y-70119729D01*
X158551660Y-70040208D01*
X158284891Y-70000000D01*
X158015109Y-70000000D01*
X157748339Y-70040208D01*
X157490542Y-70119729D01*
X157247476Y-70236783D01*
X157064848Y-70361296D01*
X125089821Y-70361296D01*
X124636819Y-69908294D01*
X124609939Y-69868066D01*
X124600500Y-69820613D01*
X124600500Y-66644867D01*
X156549500Y-66644867D01*
X156552414Y-66669988D01*
X156597795Y-66772767D01*
X156677232Y-66852204D01*
X156677233Y-66852204D01*
X156677235Y-66852206D01*
X156780009Y-66897585D01*
X156805135Y-66900500D01*
X159494864Y-66900499D01*
X159494867Y-66900499D01*
X159507427Y-66899041D01*
X159519991Y-66897585D01*
X159622765Y-66852206D01*
X159702206Y-66772765D01*
X159747585Y-66669991D01*
X159750500Y-66644865D01*
X159750499Y-63955136D01*
X159747585Y-63930009D01*
X159702206Y-63827235D01*
X159702204Y-63827233D01*
X159702204Y-63827232D01*
X159622767Y-63747795D01*
X159622765Y-63747794D01*
X159519991Y-63702415D01*
X159494865Y-63699500D01*
X159494863Y-63699500D01*
X156805132Y-63699500D01*
X156780011Y-63702414D01*
X156677232Y-63747795D01*
X156597795Y-63827232D01*
X156597793Y-63827235D01*
X156597794Y-63827235D01*
X156552415Y-63930009D01*
X156550742Y-63944434D01*
X156549500Y-63955136D01*
X156549500Y-66644867D01*
X124600500Y-66644867D01*
X124600500Y-61741804D01*
X124610211Y-61693700D01*
X124637822Y-61653131D01*
X124679009Y-61626450D01*
X124701239Y-61617682D01*
X124722342Y-61609361D01*
X124842922Y-61517922D01*
X124934361Y-61397342D01*
X124989877Y-61256564D01*
X125000500Y-61168102D01*
X125000500Y-60302076D01*
X129601476Y-60302076D01*
X129725465Y-60368349D01*
X129913969Y-60425531D01*
X130110000Y-60444838D01*
X130306030Y-60425531D01*
X130494538Y-60368347D01*
X130618522Y-60302077D01*
X130618522Y-60302076D01*
X130110001Y-59793553D01*
X130110000Y-59793553D01*
X129601476Y-60302076D01*
X125000500Y-60302076D01*
X125000500Y-59831898D01*
X124989877Y-59743436D01*
X124989876Y-59743434D01*
X124989876Y-59743432D01*
X124944718Y-59628921D01*
X124934361Y-59602658D01*
X124885410Y-59538106D01*
X124842922Y-59482077D01*
X124787435Y-59440000D01*
X129105161Y-59440000D01*
X129124468Y-59636032D01*
X129181650Y-59824537D01*
X129247921Y-59948522D01*
X129247922Y-59948522D01*
X129756446Y-59439999D01*
X130463553Y-59439999D01*
X130972077Y-59948523D01*
X131038347Y-59824538D01*
X131095531Y-59636030D01*
X131114838Y-59440000D01*
X131095531Y-59243969D01*
X131038349Y-59055465D01*
X130972076Y-58931476D01*
X130463553Y-59439998D01*
X130463553Y-59439999D01*
X129756446Y-59439999D01*
X129756446Y-59439998D01*
X129247923Y-58931475D01*
X129247922Y-58931476D01*
X129181649Y-59055466D01*
X129124468Y-59243967D01*
X129105161Y-59440000D01*
X124787435Y-59440000D01*
X124743461Y-59406654D01*
X124722342Y-59390639D01*
X124722340Y-59390638D01*
X124581567Y-59335123D01*
X124537332Y-59329811D01*
X124493102Y-59324500D01*
X124493099Y-59324500D01*
X123704386Y-59324500D01*
X123656933Y-59315061D01*
X123616705Y-59288181D01*
X122906446Y-58577922D01*
X129601476Y-58577922D01*
X130110000Y-59086446D01*
X130110001Y-59086446D01*
X130446445Y-58750000D01*
X146469364Y-58750000D01*
X146526569Y-58963492D01*
X146626399Y-59177576D01*
X146761893Y-59371081D01*
X146928918Y-59538106D01*
X147122423Y-59673600D01*
X147336507Y-59773430D01*
X147549999Y-59830635D01*
X147550000Y-59830636D01*
X147550000Y-58750000D01*
X148050000Y-58750000D01*
X148050000Y-59830635D01*
X148263492Y-59773430D01*
X148477576Y-59673600D01*
X148671081Y-59538106D01*
X148838106Y-59371081D01*
X148973600Y-59177576D01*
X149073430Y-58963492D01*
X149130636Y-58750000D01*
X148050000Y-58750000D01*
X147550000Y-58750000D01*
X146469364Y-58750000D01*
X130446445Y-58750000D01*
X130618522Y-58577922D01*
X130618522Y-58577921D01*
X130494537Y-58511650D01*
X130306032Y-58454468D01*
X130110000Y-58435161D01*
X129913967Y-58454468D01*
X129725466Y-58511649D01*
X129601476Y-58577922D01*
X122906446Y-58577922D01*
X121656819Y-57328294D01*
X121629939Y-57288066D01*
X121620500Y-57240613D01*
X121620500Y-55350000D01*
X122125001Y-55350000D01*
X122125001Y-55549979D01*
X122135493Y-55652695D01*
X122190642Y-55819122D01*
X122282683Y-55968345D01*
X122406654Y-56092316D01*
X122555877Y-56184357D01*
X122722303Y-56239506D01*
X122825021Y-56250000D01*
X123250000Y-56250000D01*
X123250000Y-55350000D01*
X123750000Y-55350000D01*
X123750000Y-56249999D01*
X124174979Y-56249999D01*
X124277695Y-56239506D01*
X124444122Y-56184357D01*
X124593345Y-56092316D01*
X124717316Y-55968345D01*
X124809357Y-55819122D01*
X124864506Y-55652696D01*
X124875000Y-55549979D01*
X124875000Y-55515000D01*
X125669364Y-55515000D01*
X125726569Y-55728492D01*
X125826399Y-55942576D01*
X125961893Y-56136081D01*
X126128918Y-56303106D01*
X126322423Y-56438600D01*
X126536507Y-56538430D01*
X126749999Y-56595635D01*
X126750000Y-56595636D01*
X126750000Y-55515000D01*
X127250000Y-55515000D01*
X127250000Y-56595635D01*
X127463492Y-56538430D01*
X127677576Y-56438600D01*
X127871081Y-56303106D01*
X128038106Y-56136081D01*
X128173600Y-55942576D01*
X128273430Y-55728492D01*
X128330636Y-55515000D01*
X127250000Y-55515000D01*
X126750000Y-55515000D01*
X125669364Y-55515000D01*
X124875000Y-55515000D01*
X124875000Y-55350000D01*
X123750000Y-55350000D01*
X123250000Y-55350000D01*
X122125001Y-55350000D01*
X121620500Y-55350000D01*
X121620500Y-54850000D01*
X122125000Y-54850000D01*
X123250000Y-54850000D01*
X123250000Y-53950001D01*
X122825021Y-53950001D01*
X122722304Y-53960493D01*
X122555877Y-54015642D01*
X122406654Y-54107683D01*
X122282683Y-54231654D01*
X122190642Y-54380877D01*
X122135493Y-54547303D01*
X122125000Y-54650021D01*
X122125000Y-54850000D01*
X121620500Y-54850000D01*
X121620500Y-53950000D01*
X123750000Y-53950000D01*
X123750000Y-54850000D01*
X124874999Y-54850000D01*
X124874999Y-54650021D01*
X124864506Y-54547304D01*
X124809357Y-54380877D01*
X124717316Y-54231654D01*
X124593345Y-54107683D01*
X124444122Y-54015642D01*
X124277696Y-53960493D01*
X124174979Y-53950000D01*
X123750000Y-53950000D01*
X121620500Y-53950000D01*
X121620500Y-50400000D01*
X123059500Y-50400000D01*
X123059500Y-50925500D01*
X123042887Y-50987500D01*
X122997500Y-51032887D01*
X122935500Y-51049500D01*
X122831898Y-51049500D01*
X122793985Y-51054052D01*
X122743432Y-51060123D01*
X122602659Y-51115638D01*
X122482077Y-51207077D01*
X122390638Y-51327659D01*
X122335123Y-51468432D01*
X122324500Y-51556901D01*
X122324500Y-52443099D01*
X122335123Y-52531567D01*
X122377909Y-52640061D01*
X122390639Y-52672342D01*
X122421787Y-52713416D01*
X122482077Y-52792922D01*
X122542368Y-52838641D01*
X122602658Y-52884361D01*
X122659786Y-52906889D01*
X122743432Y-52939876D01*
X122743434Y-52939876D01*
X122743436Y-52939877D01*
X122831898Y-52950500D01*
X123620613Y-52950500D01*
X123668066Y-52959939D01*
X123708294Y-52986819D01*
X123827592Y-53106117D01*
X123830534Y-53109161D01*
X123874320Y-53156044D01*
X123909434Y-53177397D01*
X123919914Y-53184530D01*
X123952658Y-53209361D01*
X123969354Y-53215945D01*
X123988281Y-53225345D01*
X124003618Y-53234672D01*
X124003620Y-53234672D01*
X124003621Y-53234673D01*
X124043181Y-53245757D01*
X124055213Y-53249803D01*
X124093436Y-53264876D01*
X124111285Y-53266711D01*
X124132046Y-53270656D01*
X124149335Y-53275500D01*
X124190418Y-53275500D01*
X124203098Y-53276149D01*
X124243972Y-53280352D01*
X124261656Y-53277303D01*
X124282725Y-53275500D01*
X125725501Y-53275500D01*
X125787501Y-53292113D01*
X125832888Y-53337500D01*
X125849501Y-53399500D01*
X125849501Y-53619867D01*
X125852414Y-53644988D01*
X125852414Y-53644990D01*
X125852415Y-53644991D01*
X125895600Y-53742796D01*
X125897795Y-53747767D01*
X125977232Y-53827204D01*
X125977233Y-53827204D01*
X125977235Y-53827206D01*
X126080009Y-53872585D01*
X126105135Y-53875500D01*
X126237483Y-53875499D01*
X126297597Y-53891046D01*
X126342639Y-53933788D01*
X126361311Y-53993009D01*
X126348932Y-54053856D01*
X126308605Y-54101073D01*
X126128922Y-54226889D01*
X125961890Y-54393921D01*
X125826400Y-54587421D01*
X125726569Y-54801507D01*
X125669364Y-55014999D01*
X125669364Y-55015000D01*
X128330636Y-55015000D01*
X128330635Y-55014999D01*
X128273430Y-54801507D01*
X128173599Y-54587421D01*
X128038109Y-54393921D01*
X127871081Y-54226893D01*
X127691393Y-54101074D01*
X127651067Y-54053857D01*
X127638687Y-53993009D01*
X127657359Y-53933789D01*
X127702401Y-53891046D01*
X127762516Y-53875499D01*
X127894864Y-53875499D01*
X127894867Y-53875499D01*
X127907427Y-53874042D01*
X127919991Y-53872585D01*
X128022765Y-53827206D01*
X128102206Y-53747765D01*
X128147585Y-53644991D01*
X128150500Y-53619865D01*
X128150499Y-51830136D01*
X128147585Y-51805009D01*
X128102206Y-51702235D01*
X128102204Y-51702233D01*
X128102204Y-51702232D01*
X128022767Y-51622795D01*
X128022765Y-51622794D01*
X127919991Y-51577415D01*
X127894865Y-51574500D01*
X127894863Y-51574500D01*
X126105132Y-51574500D01*
X126080011Y-51577414D01*
X125977232Y-51622795D01*
X125897795Y-51702232D01*
X125886371Y-51728106D01*
X125852415Y-51805009D01*
X125849934Y-51826399D01*
X125849500Y-51830136D01*
X125849500Y-52050500D01*
X125832887Y-52112500D01*
X125787500Y-52157887D01*
X125725500Y-52174500D01*
X124799500Y-52174500D01*
X124737500Y-52157887D01*
X124692113Y-52112500D01*
X124675500Y-52050500D01*
X124675500Y-51556901D01*
X124675500Y-51556898D01*
X124664877Y-51468436D01*
X124664876Y-51468434D01*
X124664876Y-51468432D01*
X124609361Y-51327659D01*
X124609361Y-51327658D01*
X124563641Y-51267368D01*
X124517922Y-51207077D01*
X124438416Y-51146787D01*
X124397342Y-51115639D01*
X124397340Y-51115638D01*
X124241711Y-51054265D01*
X124242791Y-51051524D01*
X124214158Y-51040705D01*
X124174731Y-50996266D01*
X124160500Y-50938587D01*
X124160500Y-50400000D01*
X129541475Y-50400000D01*
X132722579Y-53581103D01*
X132725492Y-53584116D01*
X132769320Y-53631044D01*
X132792251Y-53644988D01*
X132804425Y-53652391D01*
X132814918Y-53659532D01*
X132847658Y-53684361D01*
X132864353Y-53690944D01*
X132883292Y-53700352D01*
X132898618Y-53709672D01*
X132938181Y-53720757D01*
X132950213Y-53724803D01*
X132988436Y-53739876D01*
X133006285Y-53741711D01*
X133027046Y-53745656D01*
X133044335Y-53750500D01*
X133085418Y-53750500D01*
X133098098Y-53751149D01*
X133138972Y-53755352D01*
X133156656Y-53752303D01*
X133177725Y-53750500D01*
X135367060Y-53750500D01*
X135414513Y-53759939D01*
X135454742Y-53786820D01*
X135497736Y-53829815D01*
X135497738Y-53829816D01*
X135650478Y-53925789D01*
X135820745Y-53985368D01*
X136000000Y-54005565D01*
X136179255Y-53985368D01*
X136349522Y-53925789D01*
X136502262Y-53829816D01*
X136629816Y-53702262D01*
X136725789Y-53549522D01*
X136785368Y-53379255D01*
X136805565Y-53200000D01*
X136785368Y-53020745D01*
X136725789Y-52850478D01*
X136629816Y-52697738D01*
X136629815Y-52697737D01*
X136629814Y-52697735D01*
X136502264Y-52570185D01*
X136390579Y-52500009D01*
X136349522Y-52474211D01*
X136179255Y-52414632D01*
X136179253Y-52414631D01*
X136179251Y-52414631D01*
X136000000Y-52394434D01*
X135820748Y-52414631D01*
X135820745Y-52414631D01*
X135820745Y-52414632D01*
X135650478Y-52474211D01*
X135650476Y-52474211D01*
X135650476Y-52474212D01*
X135497736Y-52570184D01*
X135454742Y-52613180D01*
X135414513Y-52640061D01*
X135367060Y-52649500D01*
X133399386Y-52649500D01*
X133351933Y-52640061D01*
X133311705Y-52613181D01*
X131098525Y-50400000D01*
X147299500Y-50400000D01*
X147299500Y-52145501D01*
X147282887Y-52207501D01*
X147237500Y-52252888D01*
X147175500Y-52269501D01*
X146905133Y-52269501D01*
X146880011Y-52272414D01*
X146777232Y-52317795D01*
X146697795Y-52397232D01*
X146652415Y-52500009D01*
X146649500Y-52525136D01*
X146649500Y-54314867D01*
X146652414Y-54339988D01*
X146652414Y-54339990D01*
X146652415Y-54339991D01*
X146697794Y-54442765D01*
X146697795Y-54442767D01*
X146777232Y-54522204D01*
X146777233Y-54522204D01*
X146777235Y-54522206D01*
X146880009Y-54567585D01*
X146905135Y-54570500D01*
X147633759Y-54570499D01*
X147692420Y-54585253D01*
X147737124Y-54626005D01*
X147757228Y-54683057D01*
X147747949Y-54742832D01*
X147711496Y-54791105D01*
X147656543Y-54816387D01*
X147483802Y-54848679D01*
X147430357Y-54869383D01*
X147284982Y-54925701D01*
X147103698Y-55037947D01*
X146946126Y-55181594D01*
X146817631Y-55351747D01*
X146722595Y-55542609D01*
X146664243Y-55747689D01*
X146644571Y-55959999D01*
X146664243Y-56172310D01*
X146722595Y-56377390D01*
X146817631Y-56568252D01*
X146838311Y-56595636D01*
X146946128Y-56738407D01*
X147103698Y-56882052D01*
X147284981Y-56994298D01*
X147313961Y-57005524D01*
X147361231Y-57038083D01*
X147388775Y-57088442D01*
X147390691Y-57145809D01*
X147366567Y-57197893D01*
X147321573Y-57233533D01*
X147122419Y-57326401D01*
X146928921Y-57461890D01*
X146761890Y-57628921D01*
X146626400Y-57822421D01*
X146526569Y-58036507D01*
X146469364Y-58249999D01*
X146469364Y-58250000D01*
X149130636Y-58250000D01*
X149130635Y-58249999D01*
X149073430Y-58036507D01*
X148973599Y-57822421D01*
X148838109Y-57628921D01*
X148671081Y-57461893D01*
X148477576Y-57326399D01*
X148278427Y-57233533D01*
X148233432Y-57197893D01*
X148209308Y-57145809D01*
X148211224Y-57088441D01*
X148238769Y-57038083D01*
X148286038Y-57005524D01*
X148315019Y-56994298D01*
X148496302Y-56882052D01*
X148516963Y-56863217D01*
X148594138Y-56792863D01*
X148632882Y-56768873D01*
X148677676Y-56760500D01*
X149277060Y-56760500D01*
X149324513Y-56769939D01*
X149364741Y-56796819D01*
X151170184Y-58602262D01*
X151297738Y-58729816D01*
X151309650Y-58737301D01*
X151330143Y-58750177D01*
X151341486Y-58758225D01*
X151371414Y-58782092D01*
X151405895Y-58798697D01*
X151418066Y-58805423D01*
X151450480Y-58825790D01*
X151486608Y-58838432D01*
X151499450Y-58843750D01*
X151533938Y-58860359D01*
X151533939Y-58860360D01*
X151571250Y-58868876D01*
X151584611Y-58872725D01*
X151620745Y-58885368D01*
X151658776Y-58889653D01*
X151672481Y-58891981D01*
X151709806Y-58900500D01*
X151755046Y-58900500D01*
X151890194Y-58900500D01*
X155567060Y-58900500D01*
X155614513Y-58909939D01*
X155654741Y-58936819D01*
X156554408Y-59836486D01*
X156586071Y-59890508D01*
X156587301Y-59953113D01*
X156564317Y-60048848D01*
X156544551Y-60300000D01*
X156564317Y-60551149D01*
X156623126Y-60796110D01*
X156671330Y-60912485D01*
X156719534Y-61028859D01*
X156851164Y-61243659D01*
X157014776Y-61435224D01*
X157206341Y-61598836D01*
X157421141Y-61730466D01*
X157653889Y-61826873D01*
X157898852Y-61885683D01*
X158150000Y-61905449D01*
X158401148Y-61885683D01*
X158496886Y-61862698D01*
X158559490Y-61863927D01*
X158613513Y-61895591D01*
X160313181Y-63595258D01*
X160340061Y-63635486D01*
X160349500Y-63682939D01*
X160349500Y-73417061D01*
X160340061Y-73464514D01*
X160313181Y-73504742D01*
X158613512Y-75204408D01*
X158559490Y-75236071D01*
X158496884Y-75237301D01*
X158401149Y-75214317D01*
X158150000Y-75194551D01*
X157898850Y-75214317D01*
X157653889Y-75273126D01*
X157455225Y-75355416D01*
X157433920Y-75364241D01*
X157421139Y-75369535D01*
X157206342Y-75501163D01*
X157014776Y-75664776D01*
X156851163Y-75856342D01*
X156719535Y-76071139D01*
X156623126Y-76303889D01*
X156564317Y-76548850D01*
X156544551Y-76799999D01*
X156564317Y-77051149D01*
X156623126Y-77296110D01*
X156631826Y-77317113D01*
X156719534Y-77528859D01*
X156851164Y-77743659D01*
X157014776Y-77935224D01*
X157206341Y-78098836D01*
X157421141Y-78230466D01*
X157653889Y-78326873D01*
X157898852Y-78385683D01*
X158150000Y-78405449D01*
X158401148Y-78385683D01*
X158496886Y-78362698D01*
X158559490Y-78363927D01*
X158613513Y-78395591D01*
X160313181Y-80095258D01*
X160340061Y-80135486D01*
X160349500Y-80182939D01*
X160349500Y-82917060D01*
X160340061Y-82964513D01*
X160313183Y-83004738D01*
X160254705Y-83063217D01*
X160130297Y-83187624D01*
X160130295Y-83187626D01*
X160020185Y-83297735D01*
X159999817Y-83330151D01*
X159991772Y-83341489D01*
X159967908Y-83371413D01*
X159951300Y-83405899D01*
X159944576Y-83418064D01*
X159924211Y-83450475D01*
X159911565Y-83486613D01*
X159906246Y-83499453D01*
X159889639Y-83533938D01*
X159881118Y-83571268D01*
X159877270Y-83584623D01*
X159864631Y-83620743D01*
X159860345Y-83658780D01*
X159858017Y-83672480D01*
X159849500Y-83709803D01*
X159849500Y-87079957D01*
X159864631Y-87214253D01*
X159899840Y-87314876D01*
X159906743Y-87352148D01*
X159902064Y-87389764D01*
X159864244Y-87522688D01*
X159844571Y-87735000D01*
X159864243Y-87947310D01*
X159922595Y-88152390D01*
X160017631Y-88343252D01*
X160146126Y-88513405D01*
X160146128Y-88513407D01*
X160303698Y-88657052D01*
X160484981Y-88769298D01*
X160683802Y-88846321D01*
X160856546Y-88878612D01*
X160911496Y-88903894D01*
X160947950Y-88952166D01*
X160957229Y-89011941D01*
X160937125Y-89068993D01*
X160892422Y-89109745D01*
X160833758Y-89124500D01*
X160105132Y-89124500D01*
X160080011Y-89127414D01*
X159977232Y-89172795D01*
X159897795Y-89252232D01*
X159852415Y-89355009D01*
X159849500Y-89380136D01*
X159849500Y-90567059D01*
X159840061Y-90614512D01*
X159813181Y-90654740D01*
X153804741Y-96663181D01*
X153764513Y-96690061D01*
X153717060Y-96699500D01*
X143182940Y-96699500D01*
X143135487Y-96690061D01*
X143095259Y-96663181D01*
X140486818Y-94054740D01*
X140459938Y-94014512D01*
X140450499Y-93967059D01*
X140450499Y-92799999D01*
X142244551Y-92799999D01*
X142264317Y-93051149D01*
X142323126Y-93296110D01*
X142364020Y-93394836D01*
X142419534Y-93528859D01*
X142551164Y-93743659D01*
X142714776Y-93935224D01*
X142906341Y-94098836D01*
X143121141Y-94230466D01*
X143353889Y-94326873D01*
X143598852Y-94385683D01*
X143850000Y-94405449D01*
X144101148Y-94385683D01*
X144346111Y-94326873D01*
X144578859Y-94230466D01*
X144793659Y-94098836D01*
X144985224Y-93935224D01*
X145148836Y-93743659D01*
X145280466Y-93528859D01*
X145376873Y-93296111D01*
X145435683Y-93051148D01*
X145455449Y-92800000D01*
X145435683Y-92548852D01*
X145376873Y-92303889D01*
X145280466Y-92071141D01*
X145148836Y-91856341D01*
X144985224Y-91664776D01*
X144793659Y-91501164D01*
X144578859Y-91369534D01*
X144447921Y-91315298D01*
X144346110Y-91273126D01*
X144101149Y-91214317D01*
X143850000Y-91194551D01*
X143598850Y-91214317D01*
X143353889Y-91273126D01*
X143175531Y-91347005D01*
X143124599Y-91368102D01*
X143121139Y-91369535D01*
X142906342Y-91501163D01*
X142714776Y-91664776D01*
X142551163Y-91856342D01*
X142419535Y-92071139D01*
X142323126Y-92303889D01*
X142264317Y-92548850D01*
X142244551Y-92799999D01*
X140450499Y-92799999D01*
X140450499Y-91455133D01*
X140447585Y-91430011D01*
X140447585Y-91430009D01*
X140402206Y-91327235D01*
X140402204Y-91327233D01*
X140402204Y-91327232D01*
X140322767Y-91247795D01*
X140297827Y-91236783D01*
X140219991Y-91202415D01*
X140194865Y-91199500D01*
X140194863Y-91199500D01*
X137505132Y-91199500D01*
X137480011Y-91202414D01*
X137377232Y-91247795D01*
X137297795Y-91327232D01*
X137252415Y-91430009D01*
X137249500Y-91455136D01*
X137249500Y-94144867D01*
X137252414Y-94169988D01*
X137252414Y-94169990D01*
X137252415Y-94169991D01*
X137279117Y-94230466D01*
X137297795Y-94272767D01*
X137377232Y-94352204D01*
X137377233Y-94352204D01*
X137377235Y-94352206D01*
X137480009Y-94397585D01*
X137505135Y-94400500D01*
X138517059Y-94400499D01*
X138564512Y-94409938D01*
X138604740Y-94436818D01*
X142152742Y-97984819D01*
X142152743Y-97984821D01*
X142170184Y-98002262D01*
X142297738Y-98129816D01*
X142314447Y-98140315D01*
X142330149Y-98150181D01*
X142341491Y-98158229D01*
X142371414Y-98182092D01*
X142405898Y-98198699D01*
X142418068Y-98205424D01*
X142418070Y-98205426D01*
X142450480Y-98225790D01*
X142486597Y-98238428D01*
X142499441Y-98243748D01*
X142530499Y-98258703D01*
X142533939Y-98260360D01*
X142571276Y-98268881D01*
X142584613Y-98272725D01*
X142620745Y-98285368D01*
X142658776Y-98289653D01*
X142672481Y-98291981D01*
X142709806Y-98300500D01*
X142755046Y-98300500D01*
X142890195Y-98300500D01*
X154009806Y-98300500D01*
X154144954Y-98300500D01*
X154190194Y-98300500D01*
X154190195Y-98300500D01*
X154201009Y-98298031D01*
X154227520Y-98291980D01*
X154241197Y-98289655D01*
X154279255Y-98285368D01*
X154315399Y-98272720D01*
X154328721Y-98268882D01*
X154366061Y-98260360D01*
X154400549Y-98243750D01*
X154413391Y-98238431D01*
X154449522Y-98225789D01*
X154481932Y-98205423D01*
X154494103Y-98198697D01*
X154528587Y-98182091D01*
X154558515Y-98158222D01*
X154569834Y-98150190D01*
X154602262Y-98129816D01*
X154729816Y-98002262D01*
X154788396Y-97943682D01*
X154788399Y-97943678D01*
X156232077Y-96500000D01*
X159894551Y-96500000D01*
X159914317Y-96751149D01*
X159973126Y-96996110D01*
X160021330Y-97112485D01*
X160069534Y-97228859D01*
X160201164Y-97443659D01*
X160364776Y-97635224D01*
X160556341Y-97798836D01*
X160771141Y-97930466D01*
X161003889Y-98026873D01*
X161248852Y-98085683D01*
X161437118Y-98100500D01*
X161562879Y-98100500D01*
X161562882Y-98100500D01*
X161751148Y-98085683D01*
X161996111Y-98026873D01*
X162228859Y-97930466D01*
X162443659Y-97798836D01*
X162635224Y-97635224D01*
X162798836Y-97443659D01*
X162930466Y-97228859D01*
X163026873Y-96996111D01*
X163085683Y-96751148D01*
X163105449Y-96500000D01*
X163085683Y-96248852D01*
X163026873Y-96003889D01*
X162930466Y-95771141D01*
X162798836Y-95556341D01*
X162635224Y-95364776D01*
X162443659Y-95201164D01*
X162228859Y-95069534D01*
X162112485Y-95021330D01*
X161996110Y-94973126D01*
X161751149Y-94914317D01*
X161704081Y-94910612D01*
X161562882Y-94899500D01*
X161437118Y-94899500D01*
X161324158Y-94908390D01*
X161248850Y-94914317D01*
X161003889Y-94973126D01*
X160771139Y-95069535D01*
X160556342Y-95201163D01*
X160364776Y-95364776D01*
X160201163Y-95556342D01*
X160069535Y-95771139D01*
X159973126Y-96003889D01*
X159914317Y-96248850D01*
X159894551Y-96500000D01*
X156232077Y-96500000D01*
X161270259Y-91461817D01*
X161310487Y-91434938D01*
X161357940Y-91425499D01*
X161894867Y-91425499D01*
X161907427Y-91424042D01*
X161919991Y-91422585D01*
X162022765Y-91377206D01*
X162102206Y-91297765D01*
X162147585Y-91194991D01*
X162150500Y-91169865D01*
X162150499Y-89380136D01*
X162147585Y-89355009D01*
X162102206Y-89252235D01*
X162102204Y-89252233D01*
X162102204Y-89252232D01*
X162022767Y-89172795D01*
X162022765Y-89172794D01*
X161919991Y-89127415D01*
X161894864Y-89124500D01*
X161166242Y-89124500D01*
X161107578Y-89109746D01*
X161062875Y-89068993D01*
X161042771Y-89011941D01*
X161052050Y-88952167D01*
X161088503Y-88903894D01*
X161143453Y-88878612D01*
X161316198Y-88846321D01*
X161515019Y-88769298D01*
X161696302Y-88657052D01*
X161853872Y-88513407D01*
X161982366Y-88343255D01*
X161982366Y-88343253D01*
X161982368Y-88343252D01*
X162038790Y-88229939D01*
X162077405Y-88152389D01*
X162135756Y-87947310D01*
X162155429Y-87735000D01*
X162135756Y-87522690D01*
X162135755Y-87522688D01*
X162112550Y-87441132D01*
X162077405Y-87317611D01*
X162043739Y-87250000D01*
X161982368Y-87126747D01*
X161853873Y-86956594D01*
X161853872Y-86956593D01*
X161696302Y-86812948D01*
X161594638Y-86750000D01*
X161509222Y-86697112D01*
X161466171Y-86652024D01*
X161450500Y-86591685D01*
X161450500Y-84182940D01*
X161459939Y-84135487D01*
X161486819Y-84095259D01*
X161779814Y-83802264D01*
X161779814Y-83802263D01*
X161779816Y-83802262D01*
X161800184Y-83769845D01*
X161808219Y-83758521D01*
X161832092Y-83728586D01*
X161848704Y-83694088D01*
X161855423Y-83681931D01*
X161875789Y-83649522D01*
X161888433Y-83613385D01*
X161893747Y-83600556D01*
X161910360Y-83566061D01*
X161918882Y-83528721D01*
X161922720Y-83515399D01*
X161935368Y-83479255D01*
X161939655Y-83441197D01*
X161941980Y-83427520D01*
X161950500Y-83390194D01*
X161950500Y-83209806D01*
X161950500Y-79755046D01*
X161950500Y-79709806D01*
X161941981Y-79672481D01*
X161939653Y-79658776D01*
X161935368Y-79620745D01*
X161922725Y-79584613D01*
X161918881Y-79571276D01*
X161910360Y-79533939D01*
X161908703Y-79530499D01*
X161893748Y-79499441D01*
X161888428Y-79486597D01*
X161875790Y-79450480D01*
X161855425Y-79418069D01*
X161848699Y-79405898D01*
X161832092Y-79371414D01*
X161808228Y-79341490D01*
X161800185Y-79330156D01*
X161779816Y-79297738D01*
X161652262Y-79170184D01*
X161643582Y-79161504D01*
X161643577Y-79161500D01*
X159745591Y-77263513D01*
X159713927Y-77209490D01*
X159712698Y-77146886D01*
X159735683Y-77051148D01*
X159755449Y-76800000D01*
X159735683Y-76548852D01*
X159712697Y-76453113D01*
X159713928Y-76390507D01*
X159745589Y-76336487D01*
X161652259Y-74429817D01*
X161652262Y-74429816D01*
X161779816Y-74302262D01*
X161800187Y-74269839D01*
X161808228Y-74258509D01*
X161832090Y-74228588D01*
X161832092Y-74228586D01*
X161848705Y-74194086D01*
X161855423Y-74181931D01*
X161875789Y-74149522D01*
X161888433Y-74113385D01*
X161893747Y-74100556D01*
X161910360Y-74066061D01*
X161918882Y-74028721D01*
X161922720Y-74015399D01*
X161935368Y-73979255D01*
X161939655Y-73941197D01*
X161941980Y-73927520D01*
X161950500Y-73890194D01*
X161950500Y-73709805D01*
X161950500Y-63255046D01*
X161950500Y-63209806D01*
X161941981Y-63172481D01*
X161939653Y-63158776D01*
X161935368Y-63120745D01*
X161922725Y-63084613D01*
X161918881Y-63071276D01*
X161910360Y-63033939D01*
X161908703Y-63030499D01*
X161893748Y-62999441D01*
X161888428Y-62986597D01*
X161875790Y-62950480D01*
X161855425Y-62918069D01*
X161848699Y-62905898D01*
X161832092Y-62871414D01*
X161808228Y-62841490D01*
X161800185Y-62830156D01*
X161779816Y-62797738D01*
X161652262Y-62670184D01*
X161643582Y-62661504D01*
X161643577Y-62661500D01*
X159745591Y-60763513D01*
X159713927Y-60709490D01*
X159712698Y-60646886D01*
X159735683Y-60551148D01*
X159755449Y-60300000D01*
X159735683Y-60048852D01*
X159676873Y-59803889D01*
X159580466Y-59571141D01*
X159448836Y-59356341D01*
X159285224Y-59164776D01*
X159093659Y-59001164D01*
X158878859Y-58869534D01*
X158724081Y-58805423D01*
X158646110Y-58773126D01*
X158401149Y-58714317D01*
X158150000Y-58694551D01*
X157898848Y-58714317D01*
X157803113Y-58737301D01*
X157740508Y-58736071D01*
X157686486Y-58704408D01*
X156452262Y-57470184D01*
X156419850Y-57449818D01*
X156408510Y-57441772D01*
X156378586Y-57417908D01*
X156344095Y-57401298D01*
X156331933Y-57394576D01*
X156316327Y-57384770D01*
X156299520Y-57374209D01*
X156263398Y-57361570D01*
X156250553Y-57356250D01*
X156216058Y-57339638D01*
X156178736Y-57331119D01*
X156165380Y-57327272D01*
X156129252Y-57314631D01*
X156091219Y-57310345D01*
X156077518Y-57308017D01*
X156040196Y-57299500D01*
X156040194Y-57299500D01*
X155994954Y-57299500D01*
X152182940Y-57299500D01*
X152135487Y-57290061D01*
X152095259Y-57263181D01*
X151570780Y-56738702D01*
X157064848Y-56738702D01*
X157247479Y-56863217D01*
X157490542Y-56980270D01*
X157748339Y-57059791D01*
X158015109Y-57100000D01*
X158284891Y-57100000D01*
X158551660Y-57059791D01*
X158809460Y-56980270D01*
X159052523Y-56863217D01*
X159235150Y-56738702D01*
X158150000Y-55653553D01*
X157064848Y-56738702D01*
X151570780Y-56738702D01*
X150162262Y-55330184D01*
X150129850Y-55309818D01*
X150118510Y-55301772D01*
X150116289Y-55300001D01*
X150116286Y-55299999D01*
X156344952Y-55299999D01*
X156365113Y-55569026D01*
X156425146Y-55832049D01*
X156523708Y-56083178D01*
X156658598Y-56316816D01*
X156712295Y-56384150D01*
X157796447Y-55300001D01*
X157796447Y-55300000D01*
X158503553Y-55300000D01*
X159587703Y-56384151D01*
X159587704Y-56384150D01*
X159641400Y-56316818D01*
X159776291Y-56083178D01*
X159874853Y-55832049D01*
X159934886Y-55569026D01*
X159955047Y-55299999D01*
X159934886Y-55030973D01*
X159874853Y-54767950D01*
X159776291Y-54516821D01*
X159641398Y-54283178D01*
X159587704Y-54215847D01*
X158503553Y-55300000D01*
X157796447Y-55300000D01*
X156712295Y-54215848D01*
X156658598Y-54283182D01*
X156523708Y-54516821D01*
X156425146Y-54767950D01*
X156365113Y-55030973D01*
X156344952Y-55299999D01*
X150116286Y-55299999D01*
X150088587Y-55277909D01*
X150088586Y-55277908D01*
X150054095Y-55261298D01*
X150041933Y-55254576D01*
X150026327Y-55244770D01*
X150009520Y-55234209D01*
X149973398Y-55221570D01*
X149960553Y-55216250D01*
X149926058Y-55199638D01*
X149888736Y-55191119D01*
X149875380Y-55187272D01*
X149839252Y-55174631D01*
X149801219Y-55170345D01*
X149787518Y-55168017D01*
X149750196Y-55159500D01*
X149750194Y-55159500D01*
X149704954Y-55159500D01*
X148677676Y-55159500D01*
X148632882Y-55151127D01*
X148594138Y-55127137D01*
X148496304Y-55037949D01*
X148315017Y-54925701D01*
X148116198Y-54848679D01*
X148116197Y-54848678D01*
X147943455Y-54816387D01*
X147888502Y-54791105D01*
X147852049Y-54742832D01*
X147842770Y-54683057D01*
X147862874Y-54626006D01*
X147907577Y-54585253D01*
X147966239Y-54570499D01*
X148694864Y-54570499D01*
X148694867Y-54570499D01*
X148707427Y-54569041D01*
X148719991Y-54567585D01*
X148822765Y-54522206D01*
X148902206Y-54442765D01*
X148947585Y-54339991D01*
X148950500Y-54314865D01*
X148950500Y-53861296D01*
X157064848Y-53861296D01*
X158150000Y-54946447D01*
X158150001Y-54946447D01*
X159235150Y-53861296D01*
X159052519Y-53736780D01*
X158809460Y-53619729D01*
X158551660Y-53540208D01*
X158284891Y-53500000D01*
X158015109Y-53500000D01*
X157748339Y-53540208D01*
X157490542Y-53619729D01*
X157247476Y-53736783D01*
X157064848Y-53861296D01*
X148950500Y-53861296D01*
X148950499Y-52525136D01*
X148947585Y-52500009D01*
X148902206Y-52397235D01*
X148902204Y-52397233D01*
X148902204Y-52397232D01*
X148822767Y-52317795D01*
X148801958Y-52308607D01*
X148719991Y-52272415D01*
X148694865Y-52269500D01*
X148694864Y-52269500D01*
X148324500Y-52269500D01*
X148262500Y-52252887D01*
X148217113Y-52207500D01*
X148200500Y-52145500D01*
X148200500Y-50400000D01*
X164999500Y-50400000D01*
X164999500Y-96996753D01*
X164999330Y-97003243D01*
X164992523Y-97133114D01*
X164992498Y-97133577D01*
X164982372Y-97313887D01*
X164981040Y-97326332D01*
X164957507Y-97474911D01*
X164957282Y-97476283D01*
X164930264Y-97635304D01*
X164927791Y-97646628D01*
X164887879Y-97795579D01*
X164887258Y-97797813D01*
X164843655Y-97949162D01*
X164840265Y-97959271D01*
X164784462Y-98104645D01*
X164783259Y-98107661D01*
X164723575Y-98251751D01*
X164719498Y-98260594D01*
X164648433Y-98400064D01*
X164646477Y-98403748D01*
X164571430Y-98539538D01*
X164566897Y-98547094D01*
X164481412Y-98678728D01*
X164478546Y-98682947D01*
X164389002Y-98809147D01*
X164384239Y-98815428D01*
X164285333Y-98937567D01*
X164281427Y-98942158D01*
X164178419Y-99057424D01*
X164173640Y-99062478D01*
X164062478Y-99173640D01*
X164057424Y-99178419D01*
X163942158Y-99281427D01*
X163937567Y-99285333D01*
X163815428Y-99384239D01*
X163809147Y-99389002D01*
X163682947Y-99478546D01*
X163678728Y-99481412D01*
X163547094Y-99566897D01*
X163539538Y-99571430D01*
X163403748Y-99646477D01*
X163400064Y-99648433D01*
X163260594Y-99719498D01*
X163251751Y-99723575D01*
X163107661Y-99783259D01*
X163104645Y-99784462D01*
X162959271Y-99840265D01*
X162949162Y-99843655D01*
X162797813Y-99887258D01*
X162795579Y-99887879D01*
X162646628Y-99927791D01*
X162635304Y-99930264D01*
X162476283Y-99957282D01*
X162474911Y-99957507D01*
X162326332Y-99981040D01*
X162313887Y-99982372D01*
X162133577Y-99992498D01*
X162133114Y-99992523D01*
X162003243Y-99999330D01*
X161996753Y-99999500D01*
X103003247Y-99999500D01*
X102996757Y-99999330D01*
X102866884Y-99992523D01*
X102866421Y-99992498D01*
X102686111Y-99982372D01*
X102673666Y-99981040D01*
X102525087Y-99957507D01*
X102523715Y-99957282D01*
X102364694Y-99930264D01*
X102353370Y-99927791D01*
X102204419Y-99887879D01*
X102202185Y-99887258D01*
X102050836Y-99843655D01*
X102040727Y-99840265D01*
X101895353Y-99784462D01*
X101892337Y-99783259D01*
X101748247Y-99723575D01*
X101739404Y-99719498D01*
X101599934Y-99648433D01*
X101596250Y-99646477D01*
X101460460Y-99571430D01*
X101452921Y-99566907D01*
X101321266Y-99481409D01*
X101317051Y-99478546D01*
X101190851Y-99389002D01*
X101184570Y-99384239D01*
X101062431Y-99285333D01*
X101057840Y-99281427D01*
X100942574Y-99178419D01*
X100937520Y-99173640D01*
X100826358Y-99062478D01*
X100821579Y-99057424D01*
X100718571Y-98942158D01*
X100714665Y-98937567D01*
X100615759Y-98815428D01*
X100610996Y-98809147D01*
X100521452Y-98682947D01*
X100518604Y-98678754D01*
X100433081Y-98547061D01*
X100428568Y-98539538D01*
X100353521Y-98403748D01*
X100351565Y-98400064D01*
X100280500Y-98260594D01*
X100276430Y-98251768D01*
X100216714Y-98107599D01*
X100215562Y-98104710D01*
X100159729Y-97959260D01*
X100156347Y-97949174D01*
X100112725Y-97797761D01*
X100112134Y-97795635D01*
X100072202Y-97646606D01*
X100069738Y-97635324D01*
X100042709Y-97476245D01*
X100042491Y-97474911D01*
X100018955Y-97326309D01*
X100017628Y-97313908D01*
X100007485Y-97133285D01*
X100007476Y-97133114D01*
X100000669Y-97003243D01*
X100000500Y-96996755D01*
X100000500Y-96500000D01*
X101894551Y-96500000D01*
X101914317Y-96751149D01*
X101973126Y-96996110D01*
X102021330Y-97112484D01*
X102069534Y-97228859D01*
X102201164Y-97443659D01*
X102364776Y-97635224D01*
X102556341Y-97798836D01*
X102771141Y-97930466D01*
X103003889Y-98026873D01*
X103248852Y-98085683D01*
X103437118Y-98100500D01*
X103562879Y-98100500D01*
X103562882Y-98100500D01*
X103751148Y-98085683D01*
X103996111Y-98026873D01*
X104228859Y-97930466D01*
X104443659Y-97798836D01*
X104635224Y-97635224D01*
X104798836Y-97443659D01*
X104930466Y-97228859D01*
X105026873Y-96996111D01*
X105085683Y-96751148D01*
X105105449Y-96500000D01*
X105085683Y-96248852D01*
X105026873Y-96003889D01*
X104930466Y-95771141D01*
X104798836Y-95556341D01*
X104635224Y-95364776D01*
X104443659Y-95201164D01*
X104228859Y-95069534D01*
X104112485Y-95021330D01*
X103996110Y-94973126D01*
X103751149Y-94914317D01*
X103704081Y-94910612D01*
X103562882Y-94899500D01*
X103437118Y-94899500D01*
X103324158Y-94908390D01*
X103248850Y-94914317D01*
X103003889Y-94973126D01*
X102771139Y-95069535D01*
X102556342Y-95201163D01*
X102364776Y-95364776D01*
X102201163Y-95556342D01*
X102069535Y-95771139D01*
X101973126Y-96003889D01*
X101914317Y-96248850D01*
X101894551Y-96500000D01*
X100000500Y-96500000D01*
X100000500Y-87250000D01*
X100700000Y-87250000D01*
X100700000Y-87674978D01*
X100710493Y-87777695D01*
X100765642Y-87944121D01*
X100857683Y-88093344D01*
X100981655Y-88217316D01*
X101130878Y-88309357D01*
X101297304Y-88364506D01*
X101400022Y-88375000D01*
X101662500Y-88375000D01*
X101662500Y-87250000D01*
X102162500Y-87250000D01*
X102162500Y-88375000D01*
X102424978Y-88375000D01*
X102527695Y-88364506D01*
X102694121Y-88309357D01*
X102843344Y-88217316D01*
X102967316Y-88093344D01*
X103059357Y-87944121D01*
X103114506Y-87777695D01*
X103125000Y-87674978D01*
X103125000Y-87250000D01*
X102162500Y-87250000D01*
X101662500Y-87250000D01*
X100700000Y-87250000D01*
X100000500Y-87250000D01*
X100000500Y-86750000D01*
X100700000Y-86750000D01*
X101662500Y-86750000D01*
X101662500Y-85625000D01*
X102162500Y-85625000D01*
X102162500Y-86750000D01*
X103125000Y-86750000D01*
X103125000Y-86325022D01*
X103114506Y-86222304D01*
X103059357Y-86055878D01*
X102967316Y-85906655D01*
X102843344Y-85782683D01*
X102694121Y-85690642D01*
X102527695Y-85635493D01*
X102424978Y-85625000D01*
X102162500Y-85625000D01*
X101662500Y-85625000D01*
X101400022Y-85625000D01*
X101297304Y-85635493D01*
X101130878Y-85690642D01*
X100981655Y-85782683D01*
X100857683Y-85906655D01*
X100765642Y-86055878D01*
X100710493Y-86222304D01*
X100700000Y-86325022D01*
X100700000Y-86750000D01*
X100000500Y-86750000D01*
X100000500Y-82938702D01*
X104414848Y-82938702D01*
X104597479Y-83063217D01*
X104840542Y-83180270D01*
X105098339Y-83259791D01*
X105365109Y-83300000D01*
X105634891Y-83300000D01*
X105901660Y-83259791D01*
X106159460Y-83180270D01*
X106402523Y-83063217D01*
X106585150Y-82938702D01*
X105500000Y-81853553D01*
X104414848Y-82938702D01*
X100000500Y-82938702D01*
X100000500Y-81499999D01*
X103694952Y-81499999D01*
X103715113Y-81769026D01*
X103775146Y-82032049D01*
X103873708Y-82283178D01*
X104008598Y-82516816D01*
X104062295Y-82584150D01*
X105146447Y-81500001D01*
X105146447Y-81500000D01*
X105853553Y-81500000D01*
X106937703Y-82584151D01*
X106937704Y-82584150D01*
X106941790Y-82579026D01*
X116774526Y-82579026D01*
X116847515Y-82630133D01*
X117053673Y-82726266D01*
X117273397Y-82785141D01*
X117500000Y-82804966D01*
X117726602Y-82785141D01*
X117946326Y-82726266D01*
X118152480Y-82630134D01*
X118225472Y-82579025D01*
X117500001Y-81853553D01*
X117500000Y-81853553D01*
X116774526Y-82579025D01*
X116774526Y-82579026D01*
X106941790Y-82579026D01*
X106991400Y-82516818D01*
X107126291Y-82283178D01*
X107224853Y-82032049D01*
X107284886Y-81769026D01*
X107305047Y-81499999D01*
X116195033Y-81499999D01*
X116214858Y-81726602D01*
X116273733Y-81946326D01*
X116369866Y-82152484D01*
X116420972Y-82225471D01*
X116420974Y-82225472D01*
X117146446Y-81500001D01*
X117853553Y-81500001D01*
X118579025Y-82225472D01*
X118630134Y-82152480D01*
X118726266Y-81946326D01*
X118785141Y-81726602D01*
X118804966Y-81499999D01*
X118785141Y-81273397D01*
X118726266Y-81053673D01*
X118630133Y-80847515D01*
X118579025Y-80774526D01*
X117853553Y-81500000D01*
X117853553Y-81500001D01*
X117146446Y-81500001D01*
X117146446Y-81500000D01*
X116420973Y-80774526D01*
X116420973Y-80774527D01*
X116369865Y-80847516D01*
X116273733Y-81053672D01*
X116214858Y-81273397D01*
X116195033Y-81499999D01*
X107305047Y-81499999D01*
X107284886Y-81230973D01*
X107224853Y-80967950D01*
X107126291Y-80716821D01*
X106991398Y-80483178D01*
X106941792Y-80420973D01*
X116774526Y-80420973D01*
X117500000Y-81146446D01*
X117500001Y-81146446D01*
X118225472Y-80420974D01*
X118225471Y-80420972D01*
X118152484Y-80369866D01*
X117946326Y-80273733D01*
X117726602Y-80214858D01*
X117500000Y-80195033D01*
X117273397Y-80214858D01*
X117053672Y-80273733D01*
X116847516Y-80369865D01*
X116774527Y-80420973D01*
X116774526Y-80420973D01*
X106941792Y-80420973D01*
X106937704Y-80415847D01*
X105853553Y-81500000D01*
X105146447Y-81500000D01*
X104062295Y-80415848D01*
X104008598Y-80483182D01*
X103873708Y-80716821D01*
X103775146Y-80967950D01*
X103715113Y-81230973D01*
X103694952Y-81499999D01*
X100000500Y-81499999D01*
X100000500Y-80061296D01*
X104414848Y-80061296D01*
X105500000Y-81146447D01*
X105500001Y-81146447D01*
X106585150Y-80061296D01*
X106402519Y-79936780D01*
X106159460Y-79819729D01*
X105901660Y-79740208D01*
X105634891Y-79700000D01*
X105365109Y-79700000D01*
X105098339Y-79740208D01*
X104840542Y-79819729D01*
X104597476Y-79936783D01*
X104414848Y-80061296D01*
X100000500Y-80061296D01*
X100000500Y-50400000D01*
X102424500Y-50400000D01*
X102424500Y-51728107D01*
G37*
%TD.AperFunction*%
%TD*%
M02*
