%TF.GenerationSoftware,KiCad,Pcbnew,7.0.1*%
%TF.CreationDate,2024-02-06T22:48:23-07:00*%
%TF.ProjectId,Portal Gun PiHAT Mk2,506f7274-616c-4204-9775-6e2050694841,rev?*%
%TF.SameCoordinates,Original*%
%TF.FileFunction,Legend,Top*%
%TF.FilePolarity,Positive*%
%FSLAX46Y46*%
G04 Gerber Fmt 4.6, Leading zero omitted, Abs format (unit mm)*
G04 Created by KiCad (PCBNEW 7.0.1) date 2024-02-06 22:48:23*
%MOMM*%
%LPD*%
G01*
G04 APERTURE LIST*
%ADD10C,0.120000*%
%ADD11C,0.150000*%
%ADD12C,0.200000*%
G04 APERTURE END LIST*
D10*
X107040000Y-50100000D02*
X107040000Y-48770000D01*
X107040000Y-50100000D02*
X108370000Y-50100000D01*
D11*
X132417000Y-70172000D02*
X139783000Y-70172000D01*
X139783000Y-71950000D01*
X132417000Y-71950000D01*
X132417000Y-70172000D01*
G36*
X132417000Y-70172000D02*
G01*
X139783000Y-70172000D01*
X139783000Y-71950000D01*
X132417000Y-71950000D01*
X132417000Y-70172000D01*
G37*
D12*
X160977619Y-76990476D02*
X160977619Y-77466666D01*
X160977619Y-77466666D02*
X161453809Y-77514285D01*
X161453809Y-77514285D02*
X161406190Y-77466666D01*
X161406190Y-77466666D02*
X161358571Y-77371428D01*
X161358571Y-77371428D02*
X161358571Y-77133333D01*
X161358571Y-77133333D02*
X161406190Y-77038095D01*
X161406190Y-77038095D02*
X161453809Y-76990476D01*
X161453809Y-76990476D02*
X161549047Y-76942857D01*
X161549047Y-76942857D02*
X161787142Y-76942857D01*
X161787142Y-76942857D02*
X161882380Y-76990476D01*
X161882380Y-76990476D02*
X161930000Y-77038095D01*
X161930000Y-77038095D02*
X161977619Y-77133333D01*
X161977619Y-77133333D02*
X161977619Y-77371428D01*
X161977619Y-77371428D02*
X161930000Y-77466666D01*
X161930000Y-77466666D02*
X161882380Y-77514285D01*
X160977619Y-76657142D02*
X161977619Y-76323809D01*
X161977619Y-76323809D02*
X160977619Y-75990476D01*
X163525238Y-83552380D02*
X163477619Y-83647618D01*
X163477619Y-83647618D02*
X163477619Y-83790475D01*
X163477619Y-83790475D02*
X163525238Y-83933332D01*
X163525238Y-83933332D02*
X163620476Y-84028570D01*
X163620476Y-84028570D02*
X163715714Y-84076189D01*
X163715714Y-84076189D02*
X163906190Y-84123808D01*
X163906190Y-84123808D02*
X164049047Y-84123808D01*
X164049047Y-84123808D02*
X164239523Y-84076189D01*
X164239523Y-84076189D02*
X164334761Y-84028570D01*
X164334761Y-84028570D02*
X164430000Y-83933332D01*
X164430000Y-83933332D02*
X164477619Y-83790475D01*
X164477619Y-83790475D02*
X164477619Y-83695237D01*
X164477619Y-83695237D02*
X164430000Y-83552380D01*
X164430000Y-83552380D02*
X164382380Y-83504761D01*
X164382380Y-83504761D02*
X164049047Y-83504761D01*
X164049047Y-83504761D02*
X164049047Y-83695237D01*
X164477619Y-83076189D02*
X163477619Y-83076189D01*
X163477619Y-83076189D02*
X163477619Y-82695237D01*
X163477619Y-82695237D02*
X163525238Y-82599999D01*
X163525238Y-82599999D02*
X163572857Y-82552380D01*
X163572857Y-82552380D02*
X163668095Y-82504761D01*
X163668095Y-82504761D02*
X163810952Y-82504761D01*
X163810952Y-82504761D02*
X163906190Y-82552380D01*
X163906190Y-82552380D02*
X163953809Y-82599999D01*
X163953809Y-82599999D02*
X164001428Y-82695237D01*
X164001428Y-82695237D02*
X164001428Y-83076189D01*
X164477619Y-82076189D02*
X163477619Y-82076189D01*
X163477619Y-81409523D02*
X163477619Y-81219047D01*
X163477619Y-81219047D02*
X163525238Y-81123809D01*
X163525238Y-81123809D02*
X163620476Y-81028571D01*
X163620476Y-81028571D02*
X163810952Y-80980952D01*
X163810952Y-80980952D02*
X164144285Y-80980952D01*
X164144285Y-80980952D02*
X164334761Y-81028571D01*
X164334761Y-81028571D02*
X164430000Y-81123809D01*
X164430000Y-81123809D02*
X164477619Y-81219047D01*
X164477619Y-81219047D02*
X164477619Y-81409523D01*
X164477619Y-81409523D02*
X164430000Y-81504761D01*
X164430000Y-81504761D02*
X164334761Y-81599999D01*
X164334761Y-81599999D02*
X164144285Y-81647618D01*
X164144285Y-81647618D02*
X163810952Y-81647618D01*
X163810952Y-81647618D02*
X163620476Y-81599999D01*
X163620476Y-81599999D02*
X163525238Y-81504761D01*
X163525238Y-81504761D02*
X163477619Y-81409523D01*
X164477619Y-80028571D02*
X164477619Y-80599999D01*
X164477619Y-80314285D02*
X163477619Y-80314285D01*
X163477619Y-80314285D02*
X163620476Y-80409523D01*
X163620476Y-80409523D02*
X163715714Y-80504761D01*
X163715714Y-80504761D02*
X163763333Y-80599999D01*
X163906190Y-79457142D02*
X163858571Y-79552380D01*
X163858571Y-79552380D02*
X163810952Y-79599999D01*
X163810952Y-79599999D02*
X163715714Y-79647618D01*
X163715714Y-79647618D02*
X163668095Y-79647618D01*
X163668095Y-79647618D02*
X163572857Y-79599999D01*
X163572857Y-79599999D02*
X163525238Y-79552380D01*
X163525238Y-79552380D02*
X163477619Y-79457142D01*
X163477619Y-79457142D02*
X163477619Y-79266666D01*
X163477619Y-79266666D02*
X163525238Y-79171428D01*
X163525238Y-79171428D02*
X163572857Y-79123809D01*
X163572857Y-79123809D02*
X163668095Y-79076190D01*
X163668095Y-79076190D02*
X163715714Y-79076190D01*
X163715714Y-79076190D02*
X163810952Y-79123809D01*
X163810952Y-79123809D02*
X163858571Y-79171428D01*
X163858571Y-79171428D02*
X163906190Y-79266666D01*
X163906190Y-79266666D02*
X163906190Y-79457142D01*
X163906190Y-79457142D02*
X163953809Y-79552380D01*
X163953809Y-79552380D02*
X164001428Y-79599999D01*
X164001428Y-79599999D02*
X164096666Y-79647618D01*
X164096666Y-79647618D02*
X164287142Y-79647618D01*
X164287142Y-79647618D02*
X164382380Y-79599999D01*
X164382380Y-79599999D02*
X164430000Y-79552380D01*
X164430000Y-79552380D02*
X164477619Y-79457142D01*
X164477619Y-79457142D02*
X164477619Y-79266666D01*
X164477619Y-79266666D02*
X164430000Y-79171428D01*
X164430000Y-79171428D02*
X164382380Y-79123809D01*
X164382380Y-79123809D02*
X164287142Y-79076190D01*
X164287142Y-79076190D02*
X164096666Y-79076190D01*
X164096666Y-79076190D02*
X164001428Y-79123809D01*
X164001428Y-79123809D02*
X163953809Y-79171428D01*
X163953809Y-79171428D02*
X163906190Y-79266666D01*
X152227619Y-82319047D02*
X151227619Y-82319047D01*
X151227619Y-82319047D02*
X152227619Y-81747619D01*
X152227619Y-81747619D02*
X151227619Y-81747619D01*
X152180000Y-80890476D02*
X152227619Y-80985714D01*
X152227619Y-80985714D02*
X152227619Y-81176190D01*
X152227619Y-81176190D02*
X152180000Y-81271428D01*
X152180000Y-81271428D02*
X152084761Y-81319047D01*
X152084761Y-81319047D02*
X151703809Y-81319047D01*
X151703809Y-81319047D02*
X151608571Y-81271428D01*
X151608571Y-81271428D02*
X151560952Y-81176190D01*
X151560952Y-81176190D02*
X151560952Y-80985714D01*
X151560952Y-80985714D02*
X151608571Y-80890476D01*
X151608571Y-80890476D02*
X151703809Y-80842857D01*
X151703809Y-80842857D02*
X151799047Y-80842857D01*
X151799047Y-80842857D02*
X151894285Y-81319047D01*
X152227619Y-80271428D02*
X152180000Y-80366666D01*
X152180000Y-80366666D02*
X152132380Y-80414285D01*
X152132380Y-80414285D02*
X152037142Y-80461904D01*
X152037142Y-80461904D02*
X151751428Y-80461904D01*
X151751428Y-80461904D02*
X151656190Y-80414285D01*
X151656190Y-80414285D02*
X151608571Y-80366666D01*
X151608571Y-80366666D02*
X151560952Y-80271428D01*
X151560952Y-80271428D02*
X151560952Y-80128571D01*
X151560952Y-80128571D02*
X151608571Y-80033333D01*
X151608571Y-80033333D02*
X151656190Y-79985714D01*
X151656190Y-79985714D02*
X151751428Y-79938095D01*
X151751428Y-79938095D02*
X152037142Y-79938095D01*
X152037142Y-79938095D02*
X152132380Y-79985714D01*
X152132380Y-79985714D02*
X152180000Y-80033333D01*
X152180000Y-80033333D02*
X152227619Y-80128571D01*
X152227619Y-80128571D02*
X152227619Y-80271428D01*
X152227619Y-79509523D02*
X151227619Y-79509523D01*
X151227619Y-79509523D02*
X151227619Y-79128571D01*
X151227619Y-79128571D02*
X151275238Y-79033333D01*
X151275238Y-79033333D02*
X151322857Y-78985714D01*
X151322857Y-78985714D02*
X151418095Y-78938095D01*
X151418095Y-78938095D02*
X151560952Y-78938095D01*
X151560952Y-78938095D02*
X151656190Y-78985714D01*
X151656190Y-78985714D02*
X151703809Y-79033333D01*
X151703809Y-79033333D02*
X151751428Y-79128571D01*
X151751428Y-79128571D02*
X151751428Y-79509523D01*
X152227619Y-78509523D02*
X151560952Y-78509523D01*
X151227619Y-78509523D02*
X151275238Y-78557142D01*
X151275238Y-78557142D02*
X151322857Y-78509523D01*
X151322857Y-78509523D02*
X151275238Y-78461904D01*
X151275238Y-78461904D02*
X151227619Y-78509523D01*
X151227619Y-78509523D02*
X151322857Y-78509523D01*
X152227619Y-78128571D02*
X151560952Y-77604762D01*
X151560952Y-78128571D02*
X152227619Y-77604762D01*
X152180000Y-76842857D02*
X152227619Y-76938095D01*
X152227619Y-76938095D02*
X152227619Y-77128571D01*
X152227619Y-77128571D02*
X152180000Y-77223809D01*
X152180000Y-77223809D02*
X152084761Y-77271428D01*
X152084761Y-77271428D02*
X151703809Y-77271428D01*
X151703809Y-77271428D02*
X151608571Y-77223809D01*
X151608571Y-77223809D02*
X151560952Y-77128571D01*
X151560952Y-77128571D02*
X151560952Y-76938095D01*
X151560952Y-76938095D02*
X151608571Y-76842857D01*
X151608571Y-76842857D02*
X151703809Y-76795238D01*
X151703809Y-76795238D02*
X151799047Y-76795238D01*
X151799047Y-76795238D02*
X151894285Y-77271428D01*
X152227619Y-76223809D02*
X152180000Y-76319047D01*
X152180000Y-76319047D02*
X152084761Y-76366666D01*
X152084761Y-76366666D02*
X151227619Y-76366666D01*
X151941904Y-75128570D02*
X151941904Y-74652380D01*
X152227619Y-75223808D02*
X151227619Y-74890475D01*
X151227619Y-74890475D02*
X152227619Y-74557142D01*
X151703809Y-73890475D02*
X151703809Y-74223808D01*
X152227619Y-74223808D02*
X151227619Y-74223808D01*
X151227619Y-74223808D02*
X151227619Y-73747618D01*
X151227619Y-73509522D02*
X151227619Y-72938094D01*
X152227619Y-73223808D02*
X151227619Y-73223808D01*
X107961905Y-62477619D02*
X108580952Y-62477619D01*
X108580952Y-62477619D02*
X108247619Y-62858571D01*
X108247619Y-62858571D02*
X108390476Y-62858571D01*
X108390476Y-62858571D02*
X108485714Y-62906190D01*
X108485714Y-62906190D02*
X108533333Y-62953809D01*
X108533333Y-62953809D02*
X108580952Y-63049047D01*
X108580952Y-63049047D02*
X108580952Y-63287142D01*
X108580952Y-63287142D02*
X108533333Y-63382380D01*
X108533333Y-63382380D02*
X108485714Y-63430000D01*
X108485714Y-63430000D02*
X108390476Y-63477619D01*
X108390476Y-63477619D02*
X108104762Y-63477619D01*
X108104762Y-63477619D02*
X108009524Y-63430000D01*
X108009524Y-63430000D02*
X107961905Y-63382380D01*
X108866667Y-62477619D02*
X109200000Y-63477619D01*
X109200000Y-63477619D02*
X109533333Y-62477619D01*
X109771429Y-62477619D02*
X110390476Y-62477619D01*
X110390476Y-62477619D02*
X110057143Y-62858571D01*
X110057143Y-62858571D02*
X110200000Y-62858571D01*
X110200000Y-62858571D02*
X110295238Y-62906190D01*
X110295238Y-62906190D02*
X110342857Y-62953809D01*
X110342857Y-62953809D02*
X110390476Y-63049047D01*
X110390476Y-63049047D02*
X110390476Y-63287142D01*
X110390476Y-63287142D02*
X110342857Y-63382380D01*
X110342857Y-63382380D02*
X110295238Y-63430000D01*
X110295238Y-63430000D02*
X110200000Y-63477619D01*
X110200000Y-63477619D02*
X109914286Y-63477619D01*
X109914286Y-63477619D02*
X109819048Y-63430000D01*
X109819048Y-63430000D02*
X109771429Y-63382380D01*
X154827619Y-64180952D02*
X153827619Y-64180952D01*
X153827619Y-64180952D02*
X154827619Y-63609524D01*
X154827619Y-63609524D02*
X153827619Y-63609524D01*
X154780000Y-62752381D02*
X154827619Y-62847619D01*
X154827619Y-62847619D02*
X154827619Y-63038095D01*
X154827619Y-63038095D02*
X154780000Y-63133333D01*
X154780000Y-63133333D02*
X154684761Y-63180952D01*
X154684761Y-63180952D02*
X154303809Y-63180952D01*
X154303809Y-63180952D02*
X154208571Y-63133333D01*
X154208571Y-63133333D02*
X154160952Y-63038095D01*
X154160952Y-63038095D02*
X154160952Y-62847619D01*
X154160952Y-62847619D02*
X154208571Y-62752381D01*
X154208571Y-62752381D02*
X154303809Y-62704762D01*
X154303809Y-62704762D02*
X154399047Y-62704762D01*
X154399047Y-62704762D02*
X154494285Y-63180952D01*
X154827619Y-62133333D02*
X154780000Y-62228571D01*
X154780000Y-62228571D02*
X154732380Y-62276190D01*
X154732380Y-62276190D02*
X154637142Y-62323809D01*
X154637142Y-62323809D02*
X154351428Y-62323809D01*
X154351428Y-62323809D02*
X154256190Y-62276190D01*
X154256190Y-62276190D02*
X154208571Y-62228571D01*
X154208571Y-62228571D02*
X154160952Y-62133333D01*
X154160952Y-62133333D02*
X154160952Y-61990476D01*
X154160952Y-61990476D02*
X154208571Y-61895238D01*
X154208571Y-61895238D02*
X154256190Y-61847619D01*
X154256190Y-61847619D02*
X154351428Y-61800000D01*
X154351428Y-61800000D02*
X154637142Y-61800000D01*
X154637142Y-61800000D02*
X154732380Y-61847619D01*
X154732380Y-61847619D02*
X154780000Y-61895238D01*
X154780000Y-61895238D02*
X154827619Y-61990476D01*
X154827619Y-61990476D02*
X154827619Y-62133333D01*
X154827619Y-61371428D02*
X153827619Y-61371428D01*
X153827619Y-61371428D02*
X153827619Y-60990476D01*
X153827619Y-60990476D02*
X153875238Y-60895238D01*
X153875238Y-60895238D02*
X153922857Y-60847619D01*
X153922857Y-60847619D02*
X154018095Y-60800000D01*
X154018095Y-60800000D02*
X154160952Y-60800000D01*
X154160952Y-60800000D02*
X154256190Y-60847619D01*
X154256190Y-60847619D02*
X154303809Y-60895238D01*
X154303809Y-60895238D02*
X154351428Y-60990476D01*
X154351428Y-60990476D02*
X154351428Y-61371428D01*
X154827619Y-60371428D02*
X154160952Y-60371428D01*
X153827619Y-60371428D02*
X153875238Y-60419047D01*
X153875238Y-60419047D02*
X153922857Y-60371428D01*
X153922857Y-60371428D02*
X153875238Y-60323809D01*
X153875238Y-60323809D02*
X153827619Y-60371428D01*
X153827619Y-60371428D02*
X153922857Y-60371428D01*
X154827619Y-59990476D02*
X154160952Y-59466667D01*
X154160952Y-59990476D02*
X154827619Y-59466667D01*
X154780000Y-58704762D02*
X154827619Y-58800000D01*
X154827619Y-58800000D02*
X154827619Y-58990476D01*
X154827619Y-58990476D02*
X154780000Y-59085714D01*
X154780000Y-59085714D02*
X154684761Y-59133333D01*
X154684761Y-59133333D02*
X154303809Y-59133333D01*
X154303809Y-59133333D02*
X154208571Y-59085714D01*
X154208571Y-59085714D02*
X154160952Y-58990476D01*
X154160952Y-58990476D02*
X154160952Y-58800000D01*
X154160952Y-58800000D02*
X154208571Y-58704762D01*
X154208571Y-58704762D02*
X154303809Y-58657143D01*
X154303809Y-58657143D02*
X154399047Y-58657143D01*
X154399047Y-58657143D02*
X154494285Y-59133333D01*
X154827619Y-58085714D02*
X154780000Y-58180952D01*
X154780000Y-58180952D02*
X154684761Y-58228571D01*
X154684761Y-58228571D02*
X153827619Y-58228571D01*
X154303809Y-56609523D02*
X154303809Y-56942856D01*
X154827619Y-56942856D02*
X153827619Y-56942856D01*
X153827619Y-56942856D02*
X153827619Y-56466666D01*
X153827619Y-56180951D02*
X154827619Y-55942856D01*
X154827619Y-55942856D02*
X154113333Y-55752380D01*
X154113333Y-55752380D02*
X154827619Y-55561904D01*
X154827619Y-55561904D02*
X153827619Y-55323809D01*
X154827619Y-54942856D02*
X153827619Y-54942856D01*
X153827619Y-54942856D02*
X153827619Y-54704761D01*
X153827619Y-54704761D02*
X153875238Y-54561904D01*
X153875238Y-54561904D02*
X153970476Y-54466666D01*
X153970476Y-54466666D02*
X154065714Y-54419047D01*
X154065714Y-54419047D02*
X154256190Y-54371428D01*
X154256190Y-54371428D02*
X154399047Y-54371428D01*
X154399047Y-54371428D02*
X154589523Y-54419047D01*
X154589523Y-54419047D02*
X154684761Y-54466666D01*
X154684761Y-54466666D02*
X154780000Y-54561904D01*
X154780000Y-54561904D02*
X154827619Y-54704761D01*
X154827619Y-54704761D02*
X154827619Y-54942856D01*
X104004762Y-69227619D02*
X104338095Y-70227619D01*
X104338095Y-70227619D02*
X104671428Y-69227619D01*
X105004762Y-70227619D02*
X105004762Y-69227619D01*
X105480952Y-70227619D02*
X105480952Y-69227619D01*
X105480952Y-69227619D02*
X106052380Y-70227619D01*
X106052380Y-70227619D02*
X106052380Y-69227619D01*
X147047619Y-95675238D02*
X146952381Y-95627619D01*
X146952381Y-95627619D02*
X146809524Y-95627619D01*
X146809524Y-95627619D02*
X146666667Y-95675238D01*
X146666667Y-95675238D02*
X146571429Y-95770476D01*
X146571429Y-95770476D02*
X146523810Y-95865714D01*
X146523810Y-95865714D02*
X146476191Y-96056190D01*
X146476191Y-96056190D02*
X146476191Y-96199047D01*
X146476191Y-96199047D02*
X146523810Y-96389523D01*
X146523810Y-96389523D02*
X146571429Y-96484761D01*
X146571429Y-96484761D02*
X146666667Y-96580000D01*
X146666667Y-96580000D02*
X146809524Y-96627619D01*
X146809524Y-96627619D02*
X146904762Y-96627619D01*
X146904762Y-96627619D02*
X147047619Y-96580000D01*
X147047619Y-96580000D02*
X147095238Y-96532380D01*
X147095238Y-96532380D02*
X147095238Y-96199047D01*
X147095238Y-96199047D02*
X146904762Y-96199047D01*
X147523810Y-96627619D02*
X147523810Y-95627619D01*
X147523810Y-95627619D02*
X147904762Y-95627619D01*
X147904762Y-95627619D02*
X148000000Y-95675238D01*
X148000000Y-95675238D02*
X148047619Y-95722857D01*
X148047619Y-95722857D02*
X148095238Y-95818095D01*
X148095238Y-95818095D02*
X148095238Y-95960952D01*
X148095238Y-95960952D02*
X148047619Y-96056190D01*
X148047619Y-96056190D02*
X148000000Y-96103809D01*
X148000000Y-96103809D02*
X147904762Y-96151428D01*
X147904762Y-96151428D02*
X147523810Y-96151428D01*
X148523810Y-96627619D02*
X148523810Y-95627619D01*
X149190476Y-95627619D02*
X149380952Y-95627619D01*
X149380952Y-95627619D02*
X149476190Y-95675238D01*
X149476190Y-95675238D02*
X149571428Y-95770476D01*
X149571428Y-95770476D02*
X149619047Y-95960952D01*
X149619047Y-95960952D02*
X149619047Y-96294285D01*
X149619047Y-96294285D02*
X149571428Y-96484761D01*
X149571428Y-96484761D02*
X149476190Y-96580000D01*
X149476190Y-96580000D02*
X149380952Y-96627619D01*
X149380952Y-96627619D02*
X149190476Y-96627619D01*
X149190476Y-96627619D02*
X149095238Y-96580000D01*
X149095238Y-96580000D02*
X149000000Y-96484761D01*
X149000000Y-96484761D02*
X148952381Y-96294285D01*
X148952381Y-96294285D02*
X148952381Y-95960952D01*
X148952381Y-95960952D02*
X149000000Y-95770476D01*
X149000000Y-95770476D02*
X149095238Y-95675238D01*
X149095238Y-95675238D02*
X149190476Y-95627619D01*
X150571428Y-96627619D02*
X150000000Y-96627619D01*
X150285714Y-96627619D02*
X150285714Y-95627619D01*
X150285714Y-95627619D02*
X150190476Y-95770476D01*
X150190476Y-95770476D02*
X150095238Y-95865714D01*
X150095238Y-95865714D02*
X150000000Y-95913333D01*
X150904762Y-95627619D02*
X151571428Y-95627619D01*
X151571428Y-95627619D02*
X151142857Y-96627619D01*
X117261904Y-54725238D02*
X117166666Y-54677619D01*
X117166666Y-54677619D02*
X117023809Y-54677619D01*
X117023809Y-54677619D02*
X116880952Y-54725238D01*
X116880952Y-54725238D02*
X116785714Y-54820476D01*
X116785714Y-54820476D02*
X116738095Y-54915714D01*
X116738095Y-54915714D02*
X116690476Y-55106190D01*
X116690476Y-55106190D02*
X116690476Y-55249047D01*
X116690476Y-55249047D02*
X116738095Y-55439523D01*
X116738095Y-55439523D02*
X116785714Y-55534761D01*
X116785714Y-55534761D02*
X116880952Y-55630000D01*
X116880952Y-55630000D02*
X117023809Y-55677619D01*
X117023809Y-55677619D02*
X117119047Y-55677619D01*
X117119047Y-55677619D02*
X117261904Y-55630000D01*
X117261904Y-55630000D02*
X117309523Y-55582380D01*
X117309523Y-55582380D02*
X117309523Y-55249047D01*
X117309523Y-55249047D02*
X117119047Y-55249047D01*
X154061904Y-95675238D02*
X153966666Y-95627619D01*
X153966666Y-95627619D02*
X153823809Y-95627619D01*
X153823809Y-95627619D02*
X153680952Y-95675238D01*
X153680952Y-95675238D02*
X153585714Y-95770476D01*
X153585714Y-95770476D02*
X153538095Y-95865714D01*
X153538095Y-95865714D02*
X153490476Y-96056190D01*
X153490476Y-96056190D02*
X153490476Y-96199047D01*
X153490476Y-96199047D02*
X153538095Y-96389523D01*
X153538095Y-96389523D02*
X153585714Y-96484761D01*
X153585714Y-96484761D02*
X153680952Y-96580000D01*
X153680952Y-96580000D02*
X153823809Y-96627619D01*
X153823809Y-96627619D02*
X153919047Y-96627619D01*
X153919047Y-96627619D02*
X154061904Y-96580000D01*
X154061904Y-96580000D02*
X154109523Y-96532380D01*
X154109523Y-96532380D02*
X154109523Y-96199047D01*
X154109523Y-96199047D02*
X153919047Y-96199047D01*
X116880952Y-59177619D02*
X116309524Y-59177619D01*
X116595238Y-59177619D02*
X116595238Y-58177619D01*
X116595238Y-58177619D02*
X116500000Y-58320476D01*
X116500000Y-58320476D02*
X116404762Y-58415714D01*
X116404762Y-58415714D02*
X116309524Y-58463333D01*
X117309524Y-59177619D02*
X117309524Y-58177619D01*
X117404762Y-58796666D02*
X117690476Y-59177619D01*
X117690476Y-58510952D02*
X117309524Y-58891904D01*
X137569047Y-99427619D02*
X137092857Y-99427619D01*
X137092857Y-99427619D02*
X137092857Y-98427619D01*
X137902381Y-98903809D02*
X138235714Y-98903809D01*
X138378571Y-99427619D02*
X137902381Y-99427619D01*
X137902381Y-99427619D02*
X137902381Y-98427619D01*
X137902381Y-98427619D02*
X138378571Y-98427619D01*
X138807143Y-99427619D02*
X138807143Y-98427619D01*
X138807143Y-98427619D02*
X139045238Y-98427619D01*
X139045238Y-98427619D02*
X139188095Y-98475238D01*
X139188095Y-98475238D02*
X139283333Y-98570476D01*
X139283333Y-98570476D02*
X139330952Y-98665714D01*
X139330952Y-98665714D02*
X139378571Y-98856190D01*
X139378571Y-98856190D02*
X139378571Y-98999047D01*
X139378571Y-98999047D02*
X139330952Y-99189523D01*
X139330952Y-99189523D02*
X139283333Y-99284761D01*
X139283333Y-99284761D02*
X139188095Y-99380000D01*
X139188095Y-99380000D02*
X139045238Y-99427619D01*
X139045238Y-99427619D02*
X138807143Y-99427619D01*
X139854762Y-99380000D02*
X139854762Y-99427619D01*
X139854762Y-99427619D02*
X139807143Y-99522857D01*
X139807143Y-99522857D02*
X139759524Y-99570476D01*
X140854761Y-99427619D02*
X140521428Y-98951428D01*
X140283333Y-99427619D02*
X140283333Y-98427619D01*
X140283333Y-98427619D02*
X140664285Y-98427619D01*
X140664285Y-98427619D02*
X140759523Y-98475238D01*
X140759523Y-98475238D02*
X140807142Y-98522857D01*
X140807142Y-98522857D02*
X140854761Y-98618095D01*
X140854761Y-98618095D02*
X140854761Y-98760952D01*
X140854761Y-98760952D02*
X140807142Y-98856190D01*
X140807142Y-98856190D02*
X140759523Y-98903809D01*
X140759523Y-98903809D02*
X140664285Y-98951428D01*
X140664285Y-98951428D02*
X140283333Y-98951428D01*
X129185714Y-53077619D02*
X129185714Y-52077619D01*
X129185714Y-52077619D02*
X129566666Y-52077619D01*
X129566666Y-52077619D02*
X129661904Y-52125238D01*
X129661904Y-52125238D02*
X129709523Y-52172857D01*
X129709523Y-52172857D02*
X129757142Y-52268095D01*
X129757142Y-52268095D02*
X129757142Y-52410952D01*
X129757142Y-52410952D02*
X129709523Y-52506190D01*
X129709523Y-52506190D02*
X129661904Y-52553809D01*
X129661904Y-52553809D02*
X129566666Y-52601428D01*
X129566666Y-52601428D02*
X129185714Y-52601428D01*
X130138095Y-52172857D02*
X130185714Y-52125238D01*
X130185714Y-52125238D02*
X130280952Y-52077619D01*
X130280952Y-52077619D02*
X130519047Y-52077619D01*
X130519047Y-52077619D02*
X130614285Y-52125238D01*
X130614285Y-52125238D02*
X130661904Y-52172857D01*
X130661904Y-52172857D02*
X130709523Y-52268095D01*
X130709523Y-52268095D02*
X130709523Y-52363333D01*
X130709523Y-52363333D02*
X130661904Y-52506190D01*
X130661904Y-52506190D02*
X130090476Y-53077619D01*
X130090476Y-53077619D02*
X130709523Y-53077619D01*
X131042857Y-52077619D02*
X131709523Y-52077619D01*
X131709523Y-52077619D02*
X131280952Y-53077619D01*
X144709523Y-55477619D02*
X144233333Y-55477619D01*
X144233333Y-55477619D02*
X144185714Y-55953809D01*
X144185714Y-55953809D02*
X144233333Y-55906190D01*
X144233333Y-55906190D02*
X144328571Y-55858571D01*
X144328571Y-55858571D02*
X144566666Y-55858571D01*
X144566666Y-55858571D02*
X144661904Y-55906190D01*
X144661904Y-55906190D02*
X144709523Y-55953809D01*
X144709523Y-55953809D02*
X144757142Y-56049047D01*
X144757142Y-56049047D02*
X144757142Y-56287142D01*
X144757142Y-56287142D02*
X144709523Y-56382380D01*
X144709523Y-56382380D02*
X144661904Y-56430000D01*
X144661904Y-56430000D02*
X144566666Y-56477619D01*
X144566666Y-56477619D02*
X144328571Y-56477619D01*
X144328571Y-56477619D02*
X144233333Y-56430000D01*
X144233333Y-56430000D02*
X144185714Y-56382380D01*
X145042857Y-55477619D02*
X145376190Y-56477619D01*
X145376190Y-56477619D02*
X145709523Y-55477619D01*
X117359523Y-95727619D02*
X116883333Y-95727619D01*
X116883333Y-95727619D02*
X116835714Y-96203809D01*
X116835714Y-96203809D02*
X116883333Y-96156190D01*
X116883333Y-96156190D02*
X116978571Y-96108571D01*
X116978571Y-96108571D02*
X117216666Y-96108571D01*
X117216666Y-96108571D02*
X117311904Y-96156190D01*
X117311904Y-96156190D02*
X117359523Y-96203809D01*
X117359523Y-96203809D02*
X117407142Y-96299047D01*
X117407142Y-96299047D02*
X117407142Y-96537142D01*
X117407142Y-96537142D02*
X117359523Y-96632380D01*
X117359523Y-96632380D02*
X117311904Y-96680000D01*
X117311904Y-96680000D02*
X117216666Y-96727619D01*
X117216666Y-96727619D02*
X116978571Y-96727619D01*
X116978571Y-96727619D02*
X116883333Y-96680000D01*
X116883333Y-96680000D02*
X116835714Y-96632380D01*
X117692857Y-95727619D02*
X118026190Y-96727619D01*
X118026190Y-96727619D02*
X118359523Y-95727619D01*
X100803333Y-72269048D02*
X100803333Y-73030953D01*
X100422380Y-72650000D02*
X101184285Y-72650000D01*
X113704762Y-70977619D02*
X114038095Y-71977619D01*
X114038095Y-71977619D02*
X114371428Y-70977619D01*
X114704762Y-71977619D02*
X114704762Y-70977619D01*
X115180952Y-71977619D02*
X115180952Y-70977619D01*
X115180952Y-70977619D02*
X115752380Y-71977619D01*
X115752380Y-71977619D02*
X115752380Y-70977619D01*
X129338095Y-60725238D02*
X129242857Y-60677619D01*
X129242857Y-60677619D02*
X129100000Y-60677619D01*
X129100000Y-60677619D02*
X128957143Y-60725238D01*
X128957143Y-60725238D02*
X128861905Y-60820476D01*
X128861905Y-60820476D02*
X128814286Y-60915714D01*
X128814286Y-60915714D02*
X128766667Y-61106190D01*
X128766667Y-61106190D02*
X128766667Y-61249047D01*
X128766667Y-61249047D02*
X128814286Y-61439523D01*
X128814286Y-61439523D02*
X128861905Y-61534761D01*
X128861905Y-61534761D02*
X128957143Y-61630000D01*
X128957143Y-61630000D02*
X129100000Y-61677619D01*
X129100000Y-61677619D02*
X129195238Y-61677619D01*
X129195238Y-61677619D02*
X129338095Y-61630000D01*
X129338095Y-61630000D02*
X129385714Y-61582380D01*
X129385714Y-61582380D02*
X129385714Y-61249047D01*
X129385714Y-61249047D02*
X129195238Y-61249047D01*
X129814286Y-61677619D02*
X129814286Y-60677619D01*
X129814286Y-60677619D02*
X130385714Y-61677619D01*
X130385714Y-61677619D02*
X130385714Y-60677619D01*
X130861905Y-61677619D02*
X130861905Y-60677619D01*
X130861905Y-60677619D02*
X131100000Y-60677619D01*
X131100000Y-60677619D02*
X131242857Y-60725238D01*
X131242857Y-60725238D02*
X131338095Y-60820476D01*
X131338095Y-60820476D02*
X131385714Y-60915714D01*
X131385714Y-60915714D02*
X131433333Y-61106190D01*
X131433333Y-61106190D02*
X131433333Y-61249047D01*
X131433333Y-61249047D02*
X131385714Y-61439523D01*
X131385714Y-61439523D02*
X131338095Y-61534761D01*
X131338095Y-61534761D02*
X131242857Y-61630000D01*
X131242857Y-61630000D02*
X131100000Y-61677619D01*
X131100000Y-61677619D02*
X130861905Y-61677619D01*
X138759523Y-95627619D02*
X138283333Y-95627619D01*
X138283333Y-95627619D02*
X138235714Y-96103809D01*
X138235714Y-96103809D02*
X138283333Y-96056190D01*
X138283333Y-96056190D02*
X138378571Y-96008571D01*
X138378571Y-96008571D02*
X138616666Y-96008571D01*
X138616666Y-96008571D02*
X138711904Y-96056190D01*
X138711904Y-96056190D02*
X138759523Y-96103809D01*
X138759523Y-96103809D02*
X138807142Y-96199047D01*
X138807142Y-96199047D02*
X138807142Y-96437142D01*
X138807142Y-96437142D02*
X138759523Y-96532380D01*
X138759523Y-96532380D02*
X138711904Y-96580000D01*
X138711904Y-96580000D02*
X138616666Y-96627619D01*
X138616666Y-96627619D02*
X138378571Y-96627619D01*
X138378571Y-96627619D02*
X138283333Y-96580000D01*
X138283333Y-96580000D02*
X138235714Y-96532380D01*
X139092857Y-95627619D02*
X139426190Y-96627619D01*
X139426190Y-96627619D02*
X139759523Y-95627619D01*
X119253333Y-75619048D02*
X119253333Y-76380953D01*
X118872380Y-76000000D02*
X119634285Y-76000000D01*
X140309522Y-86353809D02*
X140452379Y-86401428D01*
X140452379Y-86401428D02*
X140499998Y-86449047D01*
X140499998Y-86449047D02*
X140547617Y-86544285D01*
X140547617Y-86544285D02*
X140547617Y-86687142D01*
X140547617Y-86687142D02*
X140499998Y-86782380D01*
X140499998Y-86782380D02*
X140452379Y-86830000D01*
X140452379Y-86830000D02*
X140357141Y-86877619D01*
X140357141Y-86877619D02*
X139976189Y-86877619D01*
X139976189Y-86877619D02*
X139976189Y-85877619D01*
X139976189Y-85877619D02*
X140309522Y-85877619D01*
X140309522Y-85877619D02*
X140404760Y-85925238D01*
X140404760Y-85925238D02*
X140452379Y-85972857D01*
X140452379Y-85972857D02*
X140499998Y-86068095D01*
X140499998Y-86068095D02*
X140499998Y-86163333D01*
X140499998Y-86163333D02*
X140452379Y-86258571D01*
X140452379Y-86258571D02*
X140404760Y-86306190D01*
X140404760Y-86306190D02*
X140309522Y-86353809D01*
X140309522Y-86353809D02*
X139976189Y-86353809D01*
X141119046Y-86877619D02*
X141023808Y-86830000D01*
X141023808Y-86830000D02*
X140976189Y-86734761D01*
X140976189Y-86734761D02*
X140976189Y-85877619D01*
X141928570Y-86210952D02*
X141928570Y-86877619D01*
X141499999Y-86210952D02*
X141499999Y-86734761D01*
X141499999Y-86734761D02*
X141547618Y-86830000D01*
X141547618Y-86830000D02*
X141642856Y-86877619D01*
X141642856Y-86877619D02*
X141785713Y-86877619D01*
X141785713Y-86877619D02*
X141880951Y-86830000D01*
X141880951Y-86830000D02*
X141928570Y-86782380D01*
X142785713Y-86830000D02*
X142690475Y-86877619D01*
X142690475Y-86877619D02*
X142499999Y-86877619D01*
X142499999Y-86877619D02*
X142404761Y-86830000D01*
X142404761Y-86830000D02*
X142357142Y-86734761D01*
X142357142Y-86734761D02*
X142357142Y-86353809D01*
X142357142Y-86353809D02*
X142404761Y-86258571D01*
X142404761Y-86258571D02*
X142499999Y-86210952D01*
X142499999Y-86210952D02*
X142690475Y-86210952D01*
X142690475Y-86210952D02*
X142785713Y-86258571D01*
X142785713Y-86258571D02*
X142833332Y-86353809D01*
X142833332Y-86353809D02*
X142833332Y-86449047D01*
X142833332Y-86449047D02*
X142357142Y-86544285D01*
X144023809Y-86877619D02*
X144023809Y-85877619D01*
X144023809Y-85877619D02*
X144404761Y-85877619D01*
X144404761Y-85877619D02*
X144499999Y-85925238D01*
X144499999Y-85925238D02*
X144547618Y-85972857D01*
X144547618Y-85972857D02*
X144595237Y-86068095D01*
X144595237Y-86068095D02*
X144595237Y-86210952D01*
X144595237Y-86210952D02*
X144547618Y-86306190D01*
X144547618Y-86306190D02*
X144499999Y-86353809D01*
X144499999Y-86353809D02*
X144404761Y-86401428D01*
X144404761Y-86401428D02*
X144023809Y-86401428D01*
X145452380Y-86210952D02*
X145452380Y-86877619D01*
X145023809Y-86210952D02*
X145023809Y-86734761D01*
X145023809Y-86734761D02*
X145071428Y-86830000D01*
X145071428Y-86830000D02*
X145166666Y-86877619D01*
X145166666Y-86877619D02*
X145309523Y-86877619D01*
X145309523Y-86877619D02*
X145404761Y-86830000D01*
X145404761Y-86830000D02*
X145452380Y-86782380D01*
X145880952Y-86830000D02*
X145976190Y-86877619D01*
X145976190Y-86877619D02*
X146166666Y-86877619D01*
X146166666Y-86877619D02*
X146261904Y-86830000D01*
X146261904Y-86830000D02*
X146309523Y-86734761D01*
X146309523Y-86734761D02*
X146309523Y-86687142D01*
X146309523Y-86687142D02*
X146261904Y-86591904D01*
X146261904Y-86591904D02*
X146166666Y-86544285D01*
X146166666Y-86544285D02*
X146023809Y-86544285D01*
X146023809Y-86544285D02*
X145928571Y-86496666D01*
X145928571Y-86496666D02*
X145880952Y-86401428D01*
X145880952Y-86401428D02*
X145880952Y-86353809D01*
X145880952Y-86353809D02*
X145928571Y-86258571D01*
X145928571Y-86258571D02*
X146023809Y-86210952D01*
X146023809Y-86210952D02*
X146166666Y-86210952D01*
X146166666Y-86210952D02*
X146261904Y-86258571D01*
X146738095Y-86877619D02*
X146738095Y-85877619D01*
X147166666Y-86877619D02*
X147166666Y-86353809D01*
X147166666Y-86353809D02*
X147119047Y-86258571D01*
X147119047Y-86258571D02*
X147023809Y-86210952D01*
X147023809Y-86210952D02*
X146880952Y-86210952D01*
X146880952Y-86210952D02*
X146785714Y-86258571D01*
X146785714Y-86258571D02*
X146738095Y-86306190D01*
X147976190Y-86353809D02*
X148119047Y-86401428D01*
X148119047Y-86401428D02*
X148166666Y-86449047D01*
X148166666Y-86449047D02*
X148214285Y-86544285D01*
X148214285Y-86544285D02*
X148214285Y-86687142D01*
X148214285Y-86687142D02*
X148166666Y-86782380D01*
X148166666Y-86782380D02*
X148119047Y-86830000D01*
X148119047Y-86830000D02*
X148023809Y-86877619D01*
X148023809Y-86877619D02*
X147642857Y-86877619D01*
X147642857Y-86877619D02*
X147642857Y-85877619D01*
X147642857Y-85877619D02*
X147976190Y-85877619D01*
X147976190Y-85877619D02*
X148071428Y-85925238D01*
X148071428Y-85925238D02*
X148119047Y-85972857D01*
X148119047Y-85972857D02*
X148166666Y-86068095D01*
X148166666Y-86068095D02*
X148166666Y-86163333D01*
X148166666Y-86163333D02*
X148119047Y-86258571D01*
X148119047Y-86258571D02*
X148071428Y-86306190D01*
X148071428Y-86306190D02*
X147976190Y-86353809D01*
X147976190Y-86353809D02*
X147642857Y-86353809D01*
X149071428Y-86210952D02*
X149071428Y-86877619D01*
X148642857Y-86210952D02*
X148642857Y-86734761D01*
X148642857Y-86734761D02*
X148690476Y-86830000D01*
X148690476Y-86830000D02*
X148785714Y-86877619D01*
X148785714Y-86877619D02*
X148928571Y-86877619D01*
X148928571Y-86877619D02*
X149023809Y-86830000D01*
X149023809Y-86830000D02*
X149071428Y-86782380D01*
X149404762Y-86210952D02*
X149785714Y-86210952D01*
X149547619Y-85877619D02*
X149547619Y-86734761D01*
X149547619Y-86734761D02*
X149595238Y-86830000D01*
X149595238Y-86830000D02*
X149690476Y-86877619D01*
X149690476Y-86877619D02*
X149785714Y-86877619D01*
X149976191Y-86210952D02*
X150357143Y-86210952D01*
X150119048Y-85877619D02*
X150119048Y-86734761D01*
X150119048Y-86734761D02*
X150166667Y-86830000D01*
X150166667Y-86830000D02*
X150261905Y-86877619D01*
X150261905Y-86877619D02*
X150357143Y-86877619D01*
X150833334Y-86877619D02*
X150738096Y-86830000D01*
X150738096Y-86830000D02*
X150690477Y-86782380D01*
X150690477Y-86782380D02*
X150642858Y-86687142D01*
X150642858Y-86687142D02*
X150642858Y-86401428D01*
X150642858Y-86401428D02*
X150690477Y-86306190D01*
X150690477Y-86306190D02*
X150738096Y-86258571D01*
X150738096Y-86258571D02*
X150833334Y-86210952D01*
X150833334Y-86210952D02*
X150976191Y-86210952D01*
X150976191Y-86210952D02*
X151071429Y-86258571D01*
X151071429Y-86258571D02*
X151119048Y-86306190D01*
X151119048Y-86306190D02*
X151166667Y-86401428D01*
X151166667Y-86401428D02*
X151166667Y-86687142D01*
X151166667Y-86687142D02*
X151119048Y-86782380D01*
X151119048Y-86782380D02*
X151071429Y-86830000D01*
X151071429Y-86830000D02*
X150976191Y-86877619D01*
X150976191Y-86877619D02*
X150833334Y-86877619D01*
X151595239Y-86210952D02*
X151595239Y-86877619D01*
X151595239Y-86306190D02*
X151642858Y-86258571D01*
X151642858Y-86258571D02*
X151738096Y-86210952D01*
X151738096Y-86210952D02*
X151880953Y-86210952D01*
X151880953Y-86210952D02*
X151976191Y-86258571D01*
X151976191Y-86258571D02*
X152023810Y-86353809D01*
X152023810Y-86353809D02*
X152023810Y-86877619D01*
X101200000Y-55553809D02*
X100866667Y-55553809D01*
X100866667Y-56077619D02*
X100866667Y-55077619D01*
X100866667Y-55077619D02*
X101342857Y-55077619D01*
X101676191Y-55791904D02*
X102152381Y-55791904D01*
X101580953Y-56077619D02*
X101914286Y-55077619D01*
X101914286Y-55077619D02*
X102247619Y-56077619D01*
X102580953Y-56077619D02*
X102580953Y-55077619D01*
X102580953Y-55077619D02*
X103152381Y-56077619D01*
X103152381Y-56077619D02*
X103152381Y-55077619D01*
X103628572Y-55696666D02*
X104390477Y-55696666D01*
X104866667Y-56077619D02*
X104866667Y-55077619D01*
X104866667Y-55077619D02*
X105247619Y-55077619D01*
X105247619Y-55077619D02*
X105342857Y-55125238D01*
X105342857Y-55125238D02*
X105390476Y-55172857D01*
X105390476Y-55172857D02*
X105438095Y-55268095D01*
X105438095Y-55268095D02*
X105438095Y-55410952D01*
X105438095Y-55410952D02*
X105390476Y-55506190D01*
X105390476Y-55506190D02*
X105342857Y-55553809D01*
X105342857Y-55553809D02*
X105247619Y-55601428D01*
X105247619Y-55601428D02*
X104866667Y-55601428D01*
X105771429Y-55077619D02*
X106009524Y-56077619D01*
X106009524Y-56077619D02*
X106200000Y-55363333D01*
X106200000Y-55363333D02*
X106390476Y-56077619D01*
X106390476Y-56077619D02*
X106628572Y-55077619D01*
X107580952Y-56077619D02*
X107247619Y-55601428D01*
X107009524Y-56077619D02*
X107009524Y-55077619D01*
X107009524Y-55077619D02*
X107390476Y-55077619D01*
X107390476Y-55077619D02*
X107485714Y-55125238D01*
X107485714Y-55125238D02*
X107533333Y-55172857D01*
X107533333Y-55172857D02*
X107580952Y-55268095D01*
X107580952Y-55268095D02*
X107580952Y-55410952D01*
X107580952Y-55410952D02*
X107533333Y-55506190D01*
X107533333Y-55506190D02*
X107485714Y-55553809D01*
X107485714Y-55553809D02*
X107390476Y-55601428D01*
X107390476Y-55601428D02*
X107009524Y-55601428D01*
X125647619Y-95775238D02*
X125552381Y-95727619D01*
X125552381Y-95727619D02*
X125409524Y-95727619D01*
X125409524Y-95727619D02*
X125266667Y-95775238D01*
X125266667Y-95775238D02*
X125171429Y-95870476D01*
X125171429Y-95870476D02*
X125123810Y-95965714D01*
X125123810Y-95965714D02*
X125076191Y-96156190D01*
X125076191Y-96156190D02*
X125076191Y-96299047D01*
X125076191Y-96299047D02*
X125123810Y-96489523D01*
X125123810Y-96489523D02*
X125171429Y-96584761D01*
X125171429Y-96584761D02*
X125266667Y-96680000D01*
X125266667Y-96680000D02*
X125409524Y-96727619D01*
X125409524Y-96727619D02*
X125504762Y-96727619D01*
X125504762Y-96727619D02*
X125647619Y-96680000D01*
X125647619Y-96680000D02*
X125695238Y-96632380D01*
X125695238Y-96632380D02*
X125695238Y-96299047D01*
X125695238Y-96299047D02*
X125504762Y-96299047D01*
X126123810Y-96727619D02*
X126123810Y-95727619D01*
X126123810Y-95727619D02*
X126504762Y-95727619D01*
X126504762Y-95727619D02*
X126600000Y-95775238D01*
X126600000Y-95775238D02*
X126647619Y-95822857D01*
X126647619Y-95822857D02*
X126695238Y-95918095D01*
X126695238Y-95918095D02*
X126695238Y-96060952D01*
X126695238Y-96060952D02*
X126647619Y-96156190D01*
X126647619Y-96156190D02*
X126600000Y-96203809D01*
X126600000Y-96203809D02*
X126504762Y-96251428D01*
X126504762Y-96251428D02*
X126123810Y-96251428D01*
X127123810Y-96727619D02*
X127123810Y-95727619D01*
X127790476Y-95727619D02*
X127980952Y-95727619D01*
X127980952Y-95727619D02*
X128076190Y-95775238D01*
X128076190Y-95775238D02*
X128171428Y-95870476D01*
X128171428Y-95870476D02*
X128219047Y-96060952D01*
X128219047Y-96060952D02*
X128219047Y-96394285D01*
X128219047Y-96394285D02*
X128171428Y-96584761D01*
X128171428Y-96584761D02*
X128076190Y-96680000D01*
X128076190Y-96680000D02*
X127980952Y-96727619D01*
X127980952Y-96727619D02*
X127790476Y-96727619D01*
X127790476Y-96727619D02*
X127695238Y-96680000D01*
X127695238Y-96680000D02*
X127600000Y-96584761D01*
X127600000Y-96584761D02*
X127552381Y-96394285D01*
X127552381Y-96394285D02*
X127552381Y-96060952D01*
X127552381Y-96060952D02*
X127600000Y-95870476D01*
X127600000Y-95870476D02*
X127695238Y-95775238D01*
X127695238Y-95775238D02*
X127790476Y-95727619D01*
X129171428Y-96727619D02*
X128600000Y-96727619D01*
X128885714Y-96727619D02*
X128885714Y-95727619D01*
X128885714Y-95727619D02*
X128790476Y-95870476D01*
X128790476Y-95870476D02*
X128695238Y-95965714D01*
X128695238Y-95965714D02*
X128600000Y-96013333D01*
X130076190Y-95727619D02*
X129600000Y-95727619D01*
X129600000Y-95727619D02*
X129552381Y-96203809D01*
X129552381Y-96203809D02*
X129600000Y-96156190D01*
X129600000Y-96156190D02*
X129695238Y-96108571D01*
X129695238Y-96108571D02*
X129933333Y-96108571D01*
X129933333Y-96108571D02*
X130028571Y-96156190D01*
X130028571Y-96156190D02*
X130076190Y-96203809D01*
X130076190Y-96203809D02*
X130123809Y-96299047D01*
X130123809Y-96299047D02*
X130123809Y-96537142D01*
X130123809Y-96537142D02*
X130076190Y-96632380D01*
X130076190Y-96632380D02*
X130028571Y-96680000D01*
X130028571Y-96680000D02*
X129933333Y-96727619D01*
X129933333Y-96727619D02*
X129695238Y-96727619D01*
X129695238Y-96727619D02*
X129600000Y-96680000D01*
X129600000Y-96680000D02*
X129552381Y-96632380D01*
X116985714Y-62877619D02*
X116985714Y-61877619D01*
X116985714Y-61877619D02*
X117366666Y-61877619D01*
X117366666Y-61877619D02*
X117461904Y-61925238D01*
X117461904Y-61925238D02*
X117509523Y-61972857D01*
X117509523Y-61972857D02*
X117557142Y-62068095D01*
X117557142Y-62068095D02*
X117557142Y-62210952D01*
X117557142Y-62210952D02*
X117509523Y-62306190D01*
X117509523Y-62306190D02*
X117461904Y-62353809D01*
X117461904Y-62353809D02*
X117366666Y-62401428D01*
X117366666Y-62401428D02*
X116985714Y-62401428D01*
X118509523Y-62877619D02*
X117938095Y-62877619D01*
X118223809Y-62877619D02*
X118223809Y-61877619D01*
X118223809Y-61877619D02*
X118128571Y-62020476D01*
X118128571Y-62020476D02*
X118033333Y-62115714D01*
X118033333Y-62115714D02*
X117938095Y-62163333D01*
X119414285Y-61877619D02*
X118938095Y-61877619D01*
X118938095Y-61877619D02*
X118890476Y-62353809D01*
X118890476Y-62353809D02*
X118938095Y-62306190D01*
X118938095Y-62306190D02*
X119033333Y-62258571D01*
X119033333Y-62258571D02*
X119271428Y-62258571D01*
X119271428Y-62258571D02*
X119366666Y-62306190D01*
X119366666Y-62306190D02*
X119414285Y-62353809D01*
X119414285Y-62353809D02*
X119461904Y-62449047D01*
X119461904Y-62449047D02*
X119461904Y-62687142D01*
X119461904Y-62687142D02*
X119414285Y-62782380D01*
X119414285Y-62782380D02*
X119366666Y-62830000D01*
X119366666Y-62830000D02*
X119271428Y-62877619D01*
X119271428Y-62877619D02*
X119033333Y-62877619D01*
X119033333Y-62877619D02*
X118938095Y-62830000D01*
X118938095Y-62830000D02*
X118890476Y-62782380D01*
X161075238Y-54988095D02*
X161027619Y-55083333D01*
X161027619Y-55083333D02*
X161027619Y-55226190D01*
X161027619Y-55226190D02*
X161075238Y-55369047D01*
X161075238Y-55369047D02*
X161170476Y-55464285D01*
X161170476Y-55464285D02*
X161265714Y-55511904D01*
X161265714Y-55511904D02*
X161456190Y-55559523D01*
X161456190Y-55559523D02*
X161599047Y-55559523D01*
X161599047Y-55559523D02*
X161789523Y-55511904D01*
X161789523Y-55511904D02*
X161884761Y-55464285D01*
X161884761Y-55464285D02*
X161980000Y-55369047D01*
X161980000Y-55369047D02*
X162027619Y-55226190D01*
X162027619Y-55226190D02*
X162027619Y-55130952D01*
X162027619Y-55130952D02*
X161980000Y-54988095D01*
X161980000Y-54988095D02*
X161932380Y-54940476D01*
X161932380Y-54940476D02*
X161599047Y-54940476D01*
X161599047Y-54940476D02*
X161599047Y-55130952D01*
X147290476Y-98475238D02*
X147195238Y-98427619D01*
X147195238Y-98427619D02*
X147052381Y-98427619D01*
X147052381Y-98427619D02*
X146909524Y-98475238D01*
X146909524Y-98475238D02*
X146814286Y-98570476D01*
X146814286Y-98570476D02*
X146766667Y-98665714D01*
X146766667Y-98665714D02*
X146719048Y-98856190D01*
X146719048Y-98856190D02*
X146719048Y-98999047D01*
X146719048Y-98999047D02*
X146766667Y-99189523D01*
X146766667Y-99189523D02*
X146814286Y-99284761D01*
X146814286Y-99284761D02*
X146909524Y-99380000D01*
X146909524Y-99380000D02*
X147052381Y-99427619D01*
X147052381Y-99427619D02*
X147147619Y-99427619D01*
X147147619Y-99427619D02*
X147290476Y-99380000D01*
X147290476Y-99380000D02*
X147338095Y-99332380D01*
X147338095Y-99332380D02*
X147338095Y-98999047D01*
X147338095Y-98999047D02*
X147147619Y-98999047D01*
X147766667Y-99427619D02*
X147766667Y-98427619D01*
X147766667Y-98427619D02*
X148147619Y-98427619D01*
X148147619Y-98427619D02*
X148242857Y-98475238D01*
X148242857Y-98475238D02*
X148290476Y-98522857D01*
X148290476Y-98522857D02*
X148338095Y-98618095D01*
X148338095Y-98618095D02*
X148338095Y-98760952D01*
X148338095Y-98760952D02*
X148290476Y-98856190D01*
X148290476Y-98856190D02*
X148242857Y-98903809D01*
X148242857Y-98903809D02*
X148147619Y-98951428D01*
X148147619Y-98951428D02*
X147766667Y-98951428D01*
X148766667Y-99427619D02*
X148766667Y-98427619D01*
X149433333Y-98427619D02*
X149623809Y-98427619D01*
X149623809Y-98427619D02*
X149719047Y-98475238D01*
X149719047Y-98475238D02*
X149814285Y-98570476D01*
X149814285Y-98570476D02*
X149861904Y-98760952D01*
X149861904Y-98760952D02*
X149861904Y-99094285D01*
X149861904Y-99094285D02*
X149814285Y-99284761D01*
X149814285Y-99284761D02*
X149719047Y-99380000D01*
X149719047Y-99380000D02*
X149623809Y-99427619D01*
X149623809Y-99427619D02*
X149433333Y-99427619D01*
X149433333Y-99427619D02*
X149338095Y-99380000D01*
X149338095Y-99380000D02*
X149242857Y-99284761D01*
X149242857Y-99284761D02*
X149195238Y-99094285D01*
X149195238Y-99094285D02*
X149195238Y-98760952D01*
X149195238Y-98760952D02*
X149242857Y-98570476D01*
X149242857Y-98570476D02*
X149338095Y-98475238D01*
X149338095Y-98475238D02*
X149433333Y-98427619D01*
X150338095Y-99380000D02*
X150338095Y-99427619D01*
X150338095Y-99427619D02*
X150290476Y-99522857D01*
X150290476Y-99522857D02*
X150242857Y-99570476D01*
X150671428Y-98427619D02*
X150909523Y-99427619D01*
X150909523Y-99427619D02*
X151099999Y-98713333D01*
X151099999Y-98713333D02*
X151290475Y-99427619D01*
X151290475Y-99427619D02*
X151528571Y-98427619D01*
X100703333Y-84819048D02*
X100703333Y-85580953D01*
X131973809Y-98525238D02*
X131878571Y-98477619D01*
X131878571Y-98477619D02*
X131735714Y-98477619D01*
X131735714Y-98477619D02*
X131592857Y-98525238D01*
X131592857Y-98525238D02*
X131497619Y-98620476D01*
X131497619Y-98620476D02*
X131450000Y-98715714D01*
X131450000Y-98715714D02*
X131402381Y-98906190D01*
X131402381Y-98906190D02*
X131402381Y-99049047D01*
X131402381Y-99049047D02*
X131450000Y-99239523D01*
X131450000Y-99239523D02*
X131497619Y-99334761D01*
X131497619Y-99334761D02*
X131592857Y-99430000D01*
X131592857Y-99430000D02*
X131735714Y-99477619D01*
X131735714Y-99477619D02*
X131830952Y-99477619D01*
X131830952Y-99477619D02*
X131973809Y-99430000D01*
X131973809Y-99430000D02*
X132021428Y-99382380D01*
X132021428Y-99382380D02*
X132021428Y-99049047D01*
X132021428Y-99049047D02*
X131830952Y-99049047D01*
X132497619Y-99430000D02*
X132497619Y-99477619D01*
X132497619Y-99477619D02*
X132450000Y-99572857D01*
X132450000Y-99572857D02*
X132402381Y-99620476D01*
X133259523Y-98953809D02*
X133402380Y-99001428D01*
X133402380Y-99001428D02*
X133449999Y-99049047D01*
X133449999Y-99049047D02*
X133497618Y-99144285D01*
X133497618Y-99144285D02*
X133497618Y-99287142D01*
X133497618Y-99287142D02*
X133449999Y-99382380D01*
X133449999Y-99382380D02*
X133402380Y-99430000D01*
X133402380Y-99430000D02*
X133307142Y-99477619D01*
X133307142Y-99477619D02*
X132926190Y-99477619D01*
X132926190Y-99477619D02*
X132926190Y-98477619D01*
X132926190Y-98477619D02*
X133259523Y-98477619D01*
X133259523Y-98477619D02*
X133354761Y-98525238D01*
X133354761Y-98525238D02*
X133402380Y-98572857D01*
X133402380Y-98572857D02*
X133449999Y-98668095D01*
X133449999Y-98668095D02*
X133449999Y-98763333D01*
X133449999Y-98763333D02*
X133402380Y-98858571D01*
X133402380Y-98858571D02*
X133354761Y-98906190D01*
X133354761Y-98906190D02*
X133259523Y-98953809D01*
X133259523Y-98953809D02*
X132926190Y-98953809D01*
X161075238Y-71738095D02*
X161027619Y-71833333D01*
X161027619Y-71833333D02*
X161027619Y-71976190D01*
X161027619Y-71976190D02*
X161075238Y-72119047D01*
X161075238Y-72119047D02*
X161170476Y-72214285D01*
X161170476Y-72214285D02*
X161265714Y-72261904D01*
X161265714Y-72261904D02*
X161456190Y-72309523D01*
X161456190Y-72309523D02*
X161599047Y-72309523D01*
X161599047Y-72309523D02*
X161789523Y-72261904D01*
X161789523Y-72261904D02*
X161884761Y-72214285D01*
X161884761Y-72214285D02*
X161980000Y-72119047D01*
X161980000Y-72119047D02*
X162027619Y-71976190D01*
X162027619Y-71976190D02*
X162027619Y-71880952D01*
X162027619Y-71880952D02*
X161980000Y-71738095D01*
X161980000Y-71738095D02*
X161932380Y-71690476D01*
X161932380Y-71690476D02*
X161599047Y-71690476D01*
X161599047Y-71690476D02*
X161599047Y-71880952D01*
X102738095Y-88377619D02*
X103357142Y-88377619D01*
X103357142Y-88377619D02*
X103023809Y-88758571D01*
X103023809Y-88758571D02*
X103166666Y-88758571D01*
X103166666Y-88758571D02*
X103261904Y-88806190D01*
X103261904Y-88806190D02*
X103309523Y-88853809D01*
X103309523Y-88853809D02*
X103357142Y-88949047D01*
X103357142Y-88949047D02*
X103357142Y-89187142D01*
X103357142Y-89187142D02*
X103309523Y-89282380D01*
X103309523Y-89282380D02*
X103261904Y-89330000D01*
X103261904Y-89330000D02*
X103166666Y-89377619D01*
X103166666Y-89377619D02*
X102880952Y-89377619D01*
X102880952Y-89377619D02*
X102785714Y-89330000D01*
X102785714Y-89330000D02*
X102738095Y-89282380D01*
X103642857Y-88377619D02*
X103976190Y-89377619D01*
X103976190Y-89377619D02*
X104309523Y-88377619D01*
X112061904Y-62525238D02*
X111966666Y-62477619D01*
X111966666Y-62477619D02*
X111823809Y-62477619D01*
X111823809Y-62477619D02*
X111680952Y-62525238D01*
X111680952Y-62525238D02*
X111585714Y-62620476D01*
X111585714Y-62620476D02*
X111538095Y-62715714D01*
X111538095Y-62715714D02*
X111490476Y-62906190D01*
X111490476Y-62906190D02*
X111490476Y-63049047D01*
X111490476Y-63049047D02*
X111538095Y-63239523D01*
X111538095Y-63239523D02*
X111585714Y-63334761D01*
X111585714Y-63334761D02*
X111680952Y-63430000D01*
X111680952Y-63430000D02*
X111823809Y-63477619D01*
X111823809Y-63477619D02*
X111919047Y-63477619D01*
X111919047Y-63477619D02*
X112061904Y-63430000D01*
X112061904Y-63430000D02*
X112109523Y-63382380D01*
X112109523Y-63382380D02*
X112109523Y-63049047D01*
X112109523Y-63049047D02*
X111919047Y-63049047D01*
X132661904Y-95775238D02*
X132566666Y-95727619D01*
X132566666Y-95727619D02*
X132423809Y-95727619D01*
X132423809Y-95727619D02*
X132280952Y-95775238D01*
X132280952Y-95775238D02*
X132185714Y-95870476D01*
X132185714Y-95870476D02*
X132138095Y-95965714D01*
X132138095Y-95965714D02*
X132090476Y-96156190D01*
X132090476Y-96156190D02*
X132090476Y-96299047D01*
X132090476Y-96299047D02*
X132138095Y-96489523D01*
X132138095Y-96489523D02*
X132185714Y-96584761D01*
X132185714Y-96584761D02*
X132280952Y-96680000D01*
X132280952Y-96680000D02*
X132423809Y-96727619D01*
X132423809Y-96727619D02*
X132519047Y-96727619D01*
X132519047Y-96727619D02*
X132661904Y-96680000D01*
X132661904Y-96680000D02*
X132709523Y-96632380D01*
X132709523Y-96632380D02*
X132709523Y-96299047D01*
X132709523Y-96299047D02*
X132519047Y-96299047D01*
X125790476Y-98475238D02*
X125695238Y-98427619D01*
X125695238Y-98427619D02*
X125552381Y-98427619D01*
X125552381Y-98427619D02*
X125409524Y-98475238D01*
X125409524Y-98475238D02*
X125314286Y-98570476D01*
X125314286Y-98570476D02*
X125266667Y-98665714D01*
X125266667Y-98665714D02*
X125219048Y-98856190D01*
X125219048Y-98856190D02*
X125219048Y-98999047D01*
X125219048Y-98999047D02*
X125266667Y-99189523D01*
X125266667Y-99189523D02*
X125314286Y-99284761D01*
X125314286Y-99284761D02*
X125409524Y-99380000D01*
X125409524Y-99380000D02*
X125552381Y-99427619D01*
X125552381Y-99427619D02*
X125647619Y-99427619D01*
X125647619Y-99427619D02*
X125790476Y-99380000D01*
X125790476Y-99380000D02*
X125838095Y-99332380D01*
X125838095Y-99332380D02*
X125838095Y-98999047D01*
X125838095Y-98999047D02*
X125647619Y-98999047D01*
X126266667Y-99427619D02*
X126266667Y-98427619D01*
X126266667Y-98427619D02*
X126647619Y-98427619D01*
X126647619Y-98427619D02*
X126742857Y-98475238D01*
X126742857Y-98475238D02*
X126790476Y-98522857D01*
X126790476Y-98522857D02*
X126838095Y-98618095D01*
X126838095Y-98618095D02*
X126838095Y-98760952D01*
X126838095Y-98760952D02*
X126790476Y-98856190D01*
X126790476Y-98856190D02*
X126742857Y-98903809D01*
X126742857Y-98903809D02*
X126647619Y-98951428D01*
X126647619Y-98951428D02*
X126266667Y-98951428D01*
X127266667Y-99427619D02*
X127266667Y-98427619D01*
X127933333Y-98427619D02*
X128123809Y-98427619D01*
X128123809Y-98427619D02*
X128219047Y-98475238D01*
X128219047Y-98475238D02*
X128314285Y-98570476D01*
X128314285Y-98570476D02*
X128361904Y-98760952D01*
X128361904Y-98760952D02*
X128361904Y-99094285D01*
X128361904Y-99094285D02*
X128314285Y-99284761D01*
X128314285Y-99284761D02*
X128219047Y-99380000D01*
X128219047Y-99380000D02*
X128123809Y-99427619D01*
X128123809Y-99427619D02*
X127933333Y-99427619D01*
X127933333Y-99427619D02*
X127838095Y-99380000D01*
X127838095Y-99380000D02*
X127742857Y-99284761D01*
X127742857Y-99284761D02*
X127695238Y-99094285D01*
X127695238Y-99094285D02*
X127695238Y-98760952D01*
X127695238Y-98760952D02*
X127742857Y-98570476D01*
X127742857Y-98570476D02*
X127838095Y-98475238D01*
X127838095Y-98475238D02*
X127933333Y-98427619D01*
X128838095Y-99380000D02*
X128838095Y-99427619D01*
X128838095Y-99427619D02*
X128790476Y-99522857D01*
X128790476Y-99522857D02*
X128742857Y-99570476D01*
X129171428Y-98427619D02*
X129409523Y-99427619D01*
X129409523Y-99427619D02*
X129599999Y-98713333D01*
X129599999Y-98713333D02*
X129790475Y-99427619D01*
X129790475Y-99427619D02*
X130028571Y-98427619D01*
X117790475Y-85577619D02*
X117980951Y-85577619D01*
X117980951Y-85577619D02*
X118076189Y-85625238D01*
X118076189Y-85625238D02*
X118171427Y-85720476D01*
X118171427Y-85720476D02*
X118219046Y-85910952D01*
X118219046Y-85910952D02*
X118219046Y-86244285D01*
X118219046Y-86244285D02*
X118171427Y-86434761D01*
X118171427Y-86434761D02*
X118076189Y-86530000D01*
X118076189Y-86530000D02*
X117980951Y-86577619D01*
X117980951Y-86577619D02*
X117790475Y-86577619D01*
X117790475Y-86577619D02*
X117695237Y-86530000D01*
X117695237Y-86530000D02*
X117599999Y-86434761D01*
X117599999Y-86434761D02*
X117552380Y-86244285D01*
X117552380Y-86244285D02*
X117552380Y-85910952D01*
X117552380Y-85910952D02*
X117599999Y-85720476D01*
X117599999Y-85720476D02*
X117695237Y-85625238D01*
X117695237Y-85625238D02*
X117790475Y-85577619D01*
X118647618Y-86577619D02*
X118647618Y-85910952D01*
X118647618Y-86101428D02*
X118695237Y-86006190D01*
X118695237Y-86006190D02*
X118742856Y-85958571D01*
X118742856Y-85958571D02*
X118838094Y-85910952D01*
X118838094Y-85910952D02*
X118933332Y-85910952D01*
X119695237Y-86577619D02*
X119695237Y-86053809D01*
X119695237Y-86053809D02*
X119647618Y-85958571D01*
X119647618Y-85958571D02*
X119552380Y-85910952D01*
X119552380Y-85910952D02*
X119361904Y-85910952D01*
X119361904Y-85910952D02*
X119266666Y-85958571D01*
X119695237Y-86530000D02*
X119599999Y-86577619D01*
X119599999Y-86577619D02*
X119361904Y-86577619D01*
X119361904Y-86577619D02*
X119266666Y-86530000D01*
X119266666Y-86530000D02*
X119219047Y-86434761D01*
X119219047Y-86434761D02*
X119219047Y-86339523D01*
X119219047Y-86339523D02*
X119266666Y-86244285D01*
X119266666Y-86244285D02*
X119361904Y-86196666D01*
X119361904Y-86196666D02*
X119599999Y-86196666D01*
X119599999Y-86196666D02*
X119695237Y-86149047D01*
X120171428Y-85910952D02*
X120171428Y-86577619D01*
X120171428Y-86006190D02*
X120219047Y-85958571D01*
X120219047Y-85958571D02*
X120314285Y-85910952D01*
X120314285Y-85910952D02*
X120457142Y-85910952D01*
X120457142Y-85910952D02*
X120552380Y-85958571D01*
X120552380Y-85958571D02*
X120599999Y-86053809D01*
X120599999Y-86053809D02*
X120599999Y-86577619D01*
X121504761Y-85910952D02*
X121504761Y-86720476D01*
X121504761Y-86720476D02*
X121457142Y-86815714D01*
X121457142Y-86815714D02*
X121409523Y-86863333D01*
X121409523Y-86863333D02*
X121314285Y-86910952D01*
X121314285Y-86910952D02*
X121171428Y-86910952D01*
X121171428Y-86910952D02*
X121076190Y-86863333D01*
X121504761Y-86530000D02*
X121409523Y-86577619D01*
X121409523Y-86577619D02*
X121219047Y-86577619D01*
X121219047Y-86577619D02*
X121123809Y-86530000D01*
X121123809Y-86530000D02*
X121076190Y-86482380D01*
X121076190Y-86482380D02*
X121028571Y-86387142D01*
X121028571Y-86387142D02*
X121028571Y-86101428D01*
X121028571Y-86101428D02*
X121076190Y-86006190D01*
X121076190Y-86006190D02*
X121123809Y-85958571D01*
X121123809Y-85958571D02*
X121219047Y-85910952D01*
X121219047Y-85910952D02*
X121409523Y-85910952D01*
X121409523Y-85910952D02*
X121504761Y-85958571D01*
X122361904Y-86530000D02*
X122266666Y-86577619D01*
X122266666Y-86577619D02*
X122076190Y-86577619D01*
X122076190Y-86577619D02*
X121980952Y-86530000D01*
X121980952Y-86530000D02*
X121933333Y-86434761D01*
X121933333Y-86434761D02*
X121933333Y-86053809D01*
X121933333Y-86053809D02*
X121980952Y-85958571D01*
X121980952Y-85958571D02*
X122076190Y-85910952D01*
X122076190Y-85910952D02*
X122266666Y-85910952D01*
X122266666Y-85910952D02*
X122361904Y-85958571D01*
X122361904Y-85958571D02*
X122409523Y-86053809D01*
X122409523Y-86053809D02*
X122409523Y-86149047D01*
X122409523Y-86149047D02*
X121933333Y-86244285D01*
X123600000Y-86577619D02*
X123600000Y-85577619D01*
X123600000Y-85577619D02*
X123980952Y-85577619D01*
X123980952Y-85577619D02*
X124076190Y-85625238D01*
X124076190Y-85625238D02*
X124123809Y-85672857D01*
X124123809Y-85672857D02*
X124171428Y-85768095D01*
X124171428Y-85768095D02*
X124171428Y-85910952D01*
X124171428Y-85910952D02*
X124123809Y-86006190D01*
X124123809Y-86006190D02*
X124076190Y-86053809D01*
X124076190Y-86053809D02*
X123980952Y-86101428D01*
X123980952Y-86101428D02*
X123600000Y-86101428D01*
X125028571Y-85910952D02*
X125028571Y-86577619D01*
X124600000Y-85910952D02*
X124600000Y-86434761D01*
X124600000Y-86434761D02*
X124647619Y-86530000D01*
X124647619Y-86530000D02*
X124742857Y-86577619D01*
X124742857Y-86577619D02*
X124885714Y-86577619D01*
X124885714Y-86577619D02*
X124980952Y-86530000D01*
X124980952Y-86530000D02*
X125028571Y-86482380D01*
X125457143Y-86530000D02*
X125552381Y-86577619D01*
X125552381Y-86577619D02*
X125742857Y-86577619D01*
X125742857Y-86577619D02*
X125838095Y-86530000D01*
X125838095Y-86530000D02*
X125885714Y-86434761D01*
X125885714Y-86434761D02*
X125885714Y-86387142D01*
X125885714Y-86387142D02*
X125838095Y-86291904D01*
X125838095Y-86291904D02*
X125742857Y-86244285D01*
X125742857Y-86244285D02*
X125600000Y-86244285D01*
X125600000Y-86244285D02*
X125504762Y-86196666D01*
X125504762Y-86196666D02*
X125457143Y-86101428D01*
X125457143Y-86101428D02*
X125457143Y-86053809D01*
X125457143Y-86053809D02*
X125504762Y-85958571D01*
X125504762Y-85958571D02*
X125600000Y-85910952D01*
X125600000Y-85910952D02*
X125742857Y-85910952D01*
X125742857Y-85910952D02*
X125838095Y-85958571D01*
X126314286Y-86577619D02*
X126314286Y-85577619D01*
X126742857Y-86577619D02*
X126742857Y-86053809D01*
X126742857Y-86053809D02*
X126695238Y-85958571D01*
X126695238Y-85958571D02*
X126600000Y-85910952D01*
X126600000Y-85910952D02*
X126457143Y-85910952D01*
X126457143Y-85910952D02*
X126361905Y-85958571D01*
X126361905Y-85958571D02*
X126314286Y-86006190D01*
X127552381Y-86053809D02*
X127695238Y-86101428D01*
X127695238Y-86101428D02*
X127742857Y-86149047D01*
X127742857Y-86149047D02*
X127790476Y-86244285D01*
X127790476Y-86244285D02*
X127790476Y-86387142D01*
X127790476Y-86387142D02*
X127742857Y-86482380D01*
X127742857Y-86482380D02*
X127695238Y-86530000D01*
X127695238Y-86530000D02*
X127600000Y-86577619D01*
X127600000Y-86577619D02*
X127219048Y-86577619D01*
X127219048Y-86577619D02*
X127219048Y-85577619D01*
X127219048Y-85577619D02*
X127552381Y-85577619D01*
X127552381Y-85577619D02*
X127647619Y-85625238D01*
X127647619Y-85625238D02*
X127695238Y-85672857D01*
X127695238Y-85672857D02*
X127742857Y-85768095D01*
X127742857Y-85768095D02*
X127742857Y-85863333D01*
X127742857Y-85863333D02*
X127695238Y-85958571D01*
X127695238Y-85958571D02*
X127647619Y-86006190D01*
X127647619Y-86006190D02*
X127552381Y-86053809D01*
X127552381Y-86053809D02*
X127219048Y-86053809D01*
X128647619Y-85910952D02*
X128647619Y-86577619D01*
X128219048Y-85910952D02*
X128219048Y-86434761D01*
X128219048Y-86434761D02*
X128266667Y-86530000D01*
X128266667Y-86530000D02*
X128361905Y-86577619D01*
X128361905Y-86577619D02*
X128504762Y-86577619D01*
X128504762Y-86577619D02*
X128600000Y-86530000D01*
X128600000Y-86530000D02*
X128647619Y-86482380D01*
X128980953Y-85910952D02*
X129361905Y-85910952D01*
X129123810Y-85577619D02*
X129123810Y-86434761D01*
X129123810Y-86434761D02*
X129171429Y-86530000D01*
X129171429Y-86530000D02*
X129266667Y-86577619D01*
X129266667Y-86577619D02*
X129361905Y-86577619D01*
X129552382Y-85910952D02*
X129933334Y-85910952D01*
X129695239Y-85577619D02*
X129695239Y-86434761D01*
X129695239Y-86434761D02*
X129742858Y-86530000D01*
X129742858Y-86530000D02*
X129838096Y-86577619D01*
X129838096Y-86577619D02*
X129933334Y-86577619D01*
X130409525Y-86577619D02*
X130314287Y-86530000D01*
X130314287Y-86530000D02*
X130266668Y-86482380D01*
X130266668Y-86482380D02*
X130219049Y-86387142D01*
X130219049Y-86387142D02*
X130219049Y-86101428D01*
X130219049Y-86101428D02*
X130266668Y-86006190D01*
X130266668Y-86006190D02*
X130314287Y-85958571D01*
X130314287Y-85958571D02*
X130409525Y-85910952D01*
X130409525Y-85910952D02*
X130552382Y-85910952D01*
X130552382Y-85910952D02*
X130647620Y-85958571D01*
X130647620Y-85958571D02*
X130695239Y-86006190D01*
X130695239Y-86006190D02*
X130742858Y-86101428D01*
X130742858Y-86101428D02*
X130742858Y-86387142D01*
X130742858Y-86387142D02*
X130695239Y-86482380D01*
X130695239Y-86482380D02*
X130647620Y-86530000D01*
X130647620Y-86530000D02*
X130552382Y-86577619D01*
X130552382Y-86577619D02*
X130409525Y-86577619D01*
X131171430Y-85910952D02*
X131171430Y-86577619D01*
X131171430Y-86006190D02*
X131219049Y-85958571D01*
X131219049Y-85958571D02*
X131314287Y-85910952D01*
X131314287Y-85910952D02*
X131457144Y-85910952D01*
X131457144Y-85910952D02*
X131552382Y-85958571D01*
X131552382Y-85958571D02*
X131600001Y-86053809D01*
X131600001Y-86053809D02*
X131600001Y-86577619D01*
X143138095Y-95577619D02*
X143757142Y-95577619D01*
X143757142Y-95577619D02*
X143423809Y-95958571D01*
X143423809Y-95958571D02*
X143566666Y-95958571D01*
X143566666Y-95958571D02*
X143661904Y-96006190D01*
X143661904Y-96006190D02*
X143709523Y-96053809D01*
X143709523Y-96053809D02*
X143757142Y-96149047D01*
X143757142Y-96149047D02*
X143757142Y-96387142D01*
X143757142Y-96387142D02*
X143709523Y-96482380D01*
X143709523Y-96482380D02*
X143661904Y-96530000D01*
X143661904Y-96530000D02*
X143566666Y-96577619D01*
X143566666Y-96577619D02*
X143280952Y-96577619D01*
X143280952Y-96577619D02*
X143185714Y-96530000D01*
X143185714Y-96530000D02*
X143138095Y-96482380D01*
X144042857Y-95577619D02*
X144376190Y-96577619D01*
X144376190Y-96577619D02*
X144709523Y-95577619D01*
X127956095Y-64712619D02*
X127956095Y-63712619D01*
X127956095Y-63712619D02*
X128337047Y-63712619D01*
X128337047Y-63712619D02*
X128432285Y-63760238D01*
X128432285Y-63760238D02*
X128479904Y-63807857D01*
X128479904Y-63807857D02*
X128527523Y-63903095D01*
X128527523Y-63903095D02*
X128527523Y-64045952D01*
X128527523Y-64045952D02*
X128479904Y-64141190D01*
X128479904Y-64141190D02*
X128432285Y-64188809D01*
X128432285Y-64188809D02*
X128337047Y-64236428D01*
X128337047Y-64236428D02*
X127956095Y-64236428D01*
X129098952Y-64712619D02*
X129003714Y-64665000D01*
X129003714Y-64665000D02*
X128956095Y-64617380D01*
X128956095Y-64617380D02*
X128908476Y-64522142D01*
X128908476Y-64522142D02*
X128908476Y-64236428D01*
X128908476Y-64236428D02*
X128956095Y-64141190D01*
X128956095Y-64141190D02*
X129003714Y-64093571D01*
X129003714Y-64093571D02*
X129098952Y-64045952D01*
X129098952Y-64045952D02*
X129241809Y-64045952D01*
X129241809Y-64045952D02*
X129337047Y-64093571D01*
X129337047Y-64093571D02*
X129384666Y-64141190D01*
X129384666Y-64141190D02*
X129432285Y-64236428D01*
X129432285Y-64236428D02*
X129432285Y-64522142D01*
X129432285Y-64522142D02*
X129384666Y-64617380D01*
X129384666Y-64617380D02*
X129337047Y-64665000D01*
X129337047Y-64665000D02*
X129241809Y-64712619D01*
X129241809Y-64712619D02*
X129098952Y-64712619D01*
X129860857Y-64712619D02*
X129860857Y-64045952D01*
X129860857Y-64236428D02*
X129908476Y-64141190D01*
X129908476Y-64141190D02*
X129956095Y-64093571D01*
X129956095Y-64093571D02*
X130051333Y-64045952D01*
X130051333Y-64045952D02*
X130146571Y-64045952D01*
X130337048Y-64045952D02*
X130718000Y-64045952D01*
X130479905Y-63712619D02*
X130479905Y-64569761D01*
X130479905Y-64569761D02*
X130527524Y-64665000D01*
X130527524Y-64665000D02*
X130622762Y-64712619D01*
X130622762Y-64712619D02*
X130718000Y-64712619D01*
X131479905Y-64712619D02*
X131479905Y-64188809D01*
X131479905Y-64188809D02*
X131432286Y-64093571D01*
X131432286Y-64093571D02*
X131337048Y-64045952D01*
X131337048Y-64045952D02*
X131146572Y-64045952D01*
X131146572Y-64045952D02*
X131051334Y-64093571D01*
X131479905Y-64665000D02*
X131384667Y-64712619D01*
X131384667Y-64712619D02*
X131146572Y-64712619D01*
X131146572Y-64712619D02*
X131051334Y-64665000D01*
X131051334Y-64665000D02*
X131003715Y-64569761D01*
X131003715Y-64569761D02*
X131003715Y-64474523D01*
X131003715Y-64474523D02*
X131051334Y-64379285D01*
X131051334Y-64379285D02*
X131146572Y-64331666D01*
X131146572Y-64331666D02*
X131384667Y-64331666D01*
X131384667Y-64331666D02*
X131479905Y-64284047D01*
X132098953Y-64712619D02*
X132003715Y-64665000D01*
X132003715Y-64665000D02*
X131956096Y-64569761D01*
X131956096Y-64569761D02*
X131956096Y-63712619D01*
X133765620Y-63760238D02*
X133670382Y-63712619D01*
X133670382Y-63712619D02*
X133527525Y-63712619D01*
X133527525Y-63712619D02*
X133384668Y-63760238D01*
X133384668Y-63760238D02*
X133289430Y-63855476D01*
X133289430Y-63855476D02*
X133241811Y-63950714D01*
X133241811Y-63950714D02*
X133194192Y-64141190D01*
X133194192Y-64141190D02*
X133194192Y-64284047D01*
X133194192Y-64284047D02*
X133241811Y-64474523D01*
X133241811Y-64474523D02*
X133289430Y-64569761D01*
X133289430Y-64569761D02*
X133384668Y-64665000D01*
X133384668Y-64665000D02*
X133527525Y-64712619D01*
X133527525Y-64712619D02*
X133622763Y-64712619D01*
X133622763Y-64712619D02*
X133765620Y-64665000D01*
X133765620Y-64665000D02*
X133813239Y-64617380D01*
X133813239Y-64617380D02*
X133813239Y-64284047D01*
X133813239Y-64284047D02*
X133622763Y-64284047D01*
X134670382Y-64045952D02*
X134670382Y-64712619D01*
X134241811Y-64045952D02*
X134241811Y-64569761D01*
X134241811Y-64569761D02*
X134289430Y-64665000D01*
X134289430Y-64665000D02*
X134384668Y-64712619D01*
X134384668Y-64712619D02*
X134527525Y-64712619D01*
X134527525Y-64712619D02*
X134622763Y-64665000D01*
X134622763Y-64665000D02*
X134670382Y-64617380D01*
X135146573Y-64045952D02*
X135146573Y-64712619D01*
X135146573Y-64141190D02*
X135194192Y-64093571D01*
X135194192Y-64093571D02*
X135289430Y-64045952D01*
X135289430Y-64045952D02*
X135432287Y-64045952D01*
X135432287Y-64045952D02*
X135527525Y-64093571D01*
X135527525Y-64093571D02*
X135575144Y-64188809D01*
X135575144Y-64188809D02*
X135575144Y-64712619D01*
X136813240Y-64712619D02*
X136813240Y-63712619D01*
X136813240Y-63712619D02*
X137194192Y-63712619D01*
X137194192Y-63712619D02*
X137289430Y-63760238D01*
X137289430Y-63760238D02*
X137337049Y-63807857D01*
X137337049Y-63807857D02*
X137384668Y-63903095D01*
X137384668Y-63903095D02*
X137384668Y-64045952D01*
X137384668Y-64045952D02*
X137337049Y-64141190D01*
X137337049Y-64141190D02*
X137289430Y-64188809D01*
X137289430Y-64188809D02*
X137194192Y-64236428D01*
X137194192Y-64236428D02*
X136813240Y-64236428D01*
X137813240Y-64712619D02*
X137813240Y-64045952D01*
X137813240Y-64236428D02*
X137860859Y-64141190D01*
X137860859Y-64141190D02*
X137908478Y-64093571D01*
X137908478Y-64093571D02*
X138003716Y-64045952D01*
X138003716Y-64045952D02*
X138098954Y-64045952D01*
X138575145Y-64712619D02*
X138479907Y-64665000D01*
X138479907Y-64665000D02*
X138432288Y-64617380D01*
X138432288Y-64617380D02*
X138384669Y-64522142D01*
X138384669Y-64522142D02*
X138384669Y-64236428D01*
X138384669Y-64236428D02*
X138432288Y-64141190D01*
X138432288Y-64141190D02*
X138479907Y-64093571D01*
X138479907Y-64093571D02*
X138575145Y-64045952D01*
X138575145Y-64045952D02*
X138718002Y-64045952D01*
X138718002Y-64045952D02*
X138813240Y-64093571D01*
X138813240Y-64093571D02*
X138860859Y-64141190D01*
X138860859Y-64141190D02*
X138908478Y-64236428D01*
X138908478Y-64236428D02*
X138908478Y-64522142D01*
X138908478Y-64522142D02*
X138860859Y-64617380D01*
X138860859Y-64617380D02*
X138813240Y-64665000D01*
X138813240Y-64665000D02*
X138718002Y-64712619D01*
X138718002Y-64712619D02*
X138575145Y-64712619D01*
X139337050Y-64045952D02*
X139337050Y-64903095D01*
X139337050Y-64903095D02*
X139289431Y-64998333D01*
X139289431Y-64998333D02*
X139194193Y-65045952D01*
X139194193Y-65045952D02*
X139146574Y-65045952D01*
X139337050Y-63712619D02*
X139289431Y-63760238D01*
X139289431Y-63760238D02*
X139337050Y-63807857D01*
X139337050Y-63807857D02*
X139384669Y-63760238D01*
X139384669Y-63760238D02*
X139337050Y-63712619D01*
X139337050Y-63712619D02*
X139337050Y-63807857D01*
X140194192Y-64665000D02*
X140098954Y-64712619D01*
X140098954Y-64712619D02*
X139908478Y-64712619D01*
X139908478Y-64712619D02*
X139813240Y-64665000D01*
X139813240Y-64665000D02*
X139765621Y-64569761D01*
X139765621Y-64569761D02*
X139765621Y-64188809D01*
X139765621Y-64188809D02*
X139813240Y-64093571D01*
X139813240Y-64093571D02*
X139908478Y-64045952D01*
X139908478Y-64045952D02*
X140098954Y-64045952D01*
X140098954Y-64045952D02*
X140194192Y-64093571D01*
X140194192Y-64093571D02*
X140241811Y-64188809D01*
X140241811Y-64188809D02*
X140241811Y-64284047D01*
X140241811Y-64284047D02*
X139765621Y-64379285D01*
X141098954Y-64665000D02*
X141003716Y-64712619D01*
X141003716Y-64712619D02*
X140813240Y-64712619D01*
X140813240Y-64712619D02*
X140718002Y-64665000D01*
X140718002Y-64665000D02*
X140670383Y-64617380D01*
X140670383Y-64617380D02*
X140622764Y-64522142D01*
X140622764Y-64522142D02*
X140622764Y-64236428D01*
X140622764Y-64236428D02*
X140670383Y-64141190D01*
X140670383Y-64141190D02*
X140718002Y-64093571D01*
X140718002Y-64093571D02*
X140813240Y-64045952D01*
X140813240Y-64045952D02*
X141003716Y-64045952D01*
X141003716Y-64045952D02*
X141098954Y-64093571D01*
X141384669Y-64045952D02*
X141765621Y-64045952D01*
X141527526Y-63712619D02*
X141527526Y-64569761D01*
X141527526Y-64569761D02*
X141575145Y-64665000D01*
X141575145Y-64665000D02*
X141670383Y-64712619D01*
X141670383Y-64712619D02*
X141765621Y-64712619D01*
X142241812Y-64712619D02*
X142146574Y-64665000D01*
X142146574Y-64665000D02*
X142098955Y-64617380D01*
X142098955Y-64617380D02*
X142051336Y-64522142D01*
X142051336Y-64522142D02*
X142051336Y-64236428D01*
X142051336Y-64236428D02*
X142098955Y-64141190D01*
X142098955Y-64141190D02*
X142146574Y-64093571D01*
X142146574Y-64093571D02*
X142241812Y-64045952D01*
X142241812Y-64045952D02*
X142384669Y-64045952D01*
X142384669Y-64045952D02*
X142479907Y-64093571D01*
X142479907Y-64093571D02*
X142527526Y-64141190D01*
X142527526Y-64141190D02*
X142575145Y-64236428D01*
X142575145Y-64236428D02*
X142575145Y-64522142D01*
X142575145Y-64522142D02*
X142527526Y-64617380D01*
X142527526Y-64617380D02*
X142479907Y-64665000D01*
X142479907Y-64665000D02*
X142384669Y-64712619D01*
X142384669Y-64712619D02*
X142241812Y-64712619D01*
X143003717Y-64712619D02*
X143003717Y-64045952D01*
X143003717Y-64236428D02*
X143051336Y-64141190D01*
X143051336Y-64141190D02*
X143098955Y-64093571D01*
X143098955Y-64093571D02*
X143194193Y-64045952D01*
X143194193Y-64045952D02*
X143289431Y-64045952D01*
X144384670Y-64712619D02*
X144384670Y-63712619D01*
X144384670Y-63712619D02*
X144765622Y-63712619D01*
X144765622Y-63712619D02*
X144860860Y-63760238D01*
X144860860Y-63760238D02*
X144908479Y-63807857D01*
X144908479Y-63807857D02*
X144956098Y-63903095D01*
X144956098Y-63903095D02*
X144956098Y-64045952D01*
X144956098Y-64045952D02*
X144908479Y-64141190D01*
X144908479Y-64141190D02*
X144860860Y-64188809D01*
X144860860Y-64188809D02*
X144765622Y-64236428D01*
X144765622Y-64236428D02*
X144384670Y-64236428D01*
X145384670Y-64712619D02*
X145384670Y-64045952D01*
X145384670Y-63712619D02*
X145337051Y-63760238D01*
X145337051Y-63760238D02*
X145384670Y-63807857D01*
X145384670Y-63807857D02*
X145432289Y-63760238D01*
X145432289Y-63760238D02*
X145384670Y-63712619D01*
X145384670Y-63712619D02*
X145384670Y-63807857D01*
X145860860Y-64712619D02*
X145860860Y-63712619D01*
X145860860Y-64188809D02*
X146432288Y-64188809D01*
X146432288Y-64712619D02*
X146432288Y-63712619D01*
X147337050Y-64712619D02*
X147337050Y-64188809D01*
X147337050Y-64188809D02*
X147289431Y-64093571D01*
X147289431Y-64093571D02*
X147194193Y-64045952D01*
X147194193Y-64045952D02*
X147003717Y-64045952D01*
X147003717Y-64045952D02*
X146908479Y-64093571D01*
X147337050Y-64665000D02*
X147241812Y-64712619D01*
X147241812Y-64712619D02*
X147003717Y-64712619D01*
X147003717Y-64712619D02*
X146908479Y-64665000D01*
X146908479Y-64665000D02*
X146860860Y-64569761D01*
X146860860Y-64569761D02*
X146860860Y-64474523D01*
X146860860Y-64474523D02*
X146908479Y-64379285D01*
X146908479Y-64379285D02*
X147003717Y-64331666D01*
X147003717Y-64331666D02*
X147241812Y-64331666D01*
X147241812Y-64331666D02*
X147337050Y-64284047D01*
X147670384Y-64045952D02*
X148051336Y-64045952D01*
X147813241Y-63712619D02*
X147813241Y-64569761D01*
X147813241Y-64569761D02*
X147860860Y-64665000D01*
X147860860Y-64665000D02*
X147956098Y-64712619D01*
X147956098Y-64712619D02*
X148051336Y-64712619D01*
X128527523Y-66332619D02*
X128194190Y-65856428D01*
X127956095Y-66332619D02*
X127956095Y-65332619D01*
X127956095Y-65332619D02*
X128337047Y-65332619D01*
X128337047Y-65332619D02*
X128432285Y-65380238D01*
X128432285Y-65380238D02*
X128479904Y-65427857D01*
X128479904Y-65427857D02*
X128527523Y-65523095D01*
X128527523Y-65523095D02*
X128527523Y-65665952D01*
X128527523Y-65665952D02*
X128479904Y-65761190D01*
X128479904Y-65761190D02*
X128432285Y-65808809D01*
X128432285Y-65808809D02*
X128337047Y-65856428D01*
X128337047Y-65856428D02*
X127956095Y-65856428D01*
X128956095Y-65808809D02*
X129289428Y-65808809D01*
X129432285Y-66332619D02*
X128956095Y-66332619D01*
X128956095Y-66332619D02*
X128956095Y-65332619D01*
X128956095Y-65332619D02*
X129432285Y-65332619D01*
X129718000Y-65332619D02*
X130051333Y-66332619D01*
X130051333Y-66332619D02*
X130384666Y-65332619D01*
X130718000Y-66237380D02*
X130765619Y-66285000D01*
X130765619Y-66285000D02*
X130718000Y-66332619D01*
X130718000Y-66332619D02*
X130670381Y-66285000D01*
X130670381Y-66285000D02*
X130718000Y-66237380D01*
X130718000Y-66237380D02*
X130718000Y-66332619D01*
X130718000Y-65713571D02*
X130765619Y-65761190D01*
X130765619Y-65761190D02*
X130718000Y-65808809D01*
X130718000Y-65808809D02*
X130670381Y-65761190D01*
X130670381Y-65761190D02*
X130718000Y-65713571D01*
X130718000Y-65713571D02*
X130718000Y-65808809D01*
X132146571Y-65332619D02*
X132241809Y-65332619D01*
X132241809Y-65332619D02*
X132337047Y-65380238D01*
X132337047Y-65380238D02*
X132384666Y-65427857D01*
X132384666Y-65427857D02*
X132432285Y-65523095D01*
X132432285Y-65523095D02*
X132479904Y-65713571D01*
X132479904Y-65713571D02*
X132479904Y-65951666D01*
X132479904Y-65951666D02*
X132432285Y-66142142D01*
X132432285Y-66142142D02*
X132384666Y-66237380D01*
X132384666Y-66237380D02*
X132337047Y-66285000D01*
X132337047Y-66285000D02*
X132241809Y-66332619D01*
X132241809Y-66332619D02*
X132146571Y-66332619D01*
X132146571Y-66332619D02*
X132051333Y-66285000D01*
X132051333Y-66285000D02*
X132003714Y-66237380D01*
X132003714Y-66237380D02*
X131956095Y-66142142D01*
X131956095Y-66142142D02*
X131908476Y-65951666D01*
X131908476Y-65951666D02*
X131908476Y-65713571D01*
X131908476Y-65713571D02*
X131956095Y-65523095D01*
X131956095Y-65523095D02*
X132003714Y-65427857D01*
X132003714Y-65427857D02*
X132051333Y-65380238D01*
X132051333Y-65380238D02*
X132146571Y-65332619D01*
X132908476Y-66237380D02*
X132956095Y-66285000D01*
X132956095Y-66285000D02*
X132908476Y-66332619D01*
X132908476Y-66332619D02*
X132860857Y-66285000D01*
X132860857Y-66285000D02*
X132908476Y-66237380D01*
X132908476Y-66237380D02*
X132908476Y-66332619D01*
X133337047Y-65427857D02*
X133384666Y-65380238D01*
X133384666Y-65380238D02*
X133479904Y-65332619D01*
X133479904Y-65332619D02*
X133717999Y-65332619D01*
X133717999Y-65332619D02*
X133813237Y-65380238D01*
X133813237Y-65380238D02*
X133860856Y-65427857D01*
X133860856Y-65427857D02*
X133908475Y-65523095D01*
X133908475Y-65523095D02*
X133908475Y-65618333D01*
X133908475Y-65618333D02*
X133860856Y-65761190D01*
X133860856Y-65761190D02*
X133289428Y-66332619D01*
X133289428Y-66332619D02*
X133908475Y-66332619D01*
X127956095Y-67952619D02*
X127956095Y-66952619D01*
X127956095Y-66952619D02*
X128527523Y-67952619D01*
X128527523Y-67952619D02*
X128527523Y-66952619D01*
X129432285Y-67952619D02*
X129432285Y-67428809D01*
X129432285Y-67428809D02*
X129384666Y-67333571D01*
X129384666Y-67333571D02*
X129289428Y-67285952D01*
X129289428Y-67285952D02*
X129098952Y-67285952D01*
X129098952Y-67285952D02*
X129003714Y-67333571D01*
X129432285Y-67905000D02*
X129337047Y-67952619D01*
X129337047Y-67952619D02*
X129098952Y-67952619D01*
X129098952Y-67952619D02*
X129003714Y-67905000D01*
X129003714Y-67905000D02*
X128956095Y-67809761D01*
X128956095Y-67809761D02*
X128956095Y-67714523D01*
X128956095Y-67714523D02*
X129003714Y-67619285D01*
X129003714Y-67619285D02*
X129098952Y-67571666D01*
X129098952Y-67571666D02*
X129337047Y-67571666D01*
X129337047Y-67571666D02*
X129432285Y-67524047D01*
X129908476Y-67952619D02*
X129908476Y-67285952D01*
X129908476Y-67381190D02*
X129956095Y-67333571D01*
X129956095Y-67333571D02*
X130051333Y-67285952D01*
X130051333Y-67285952D02*
X130194190Y-67285952D01*
X130194190Y-67285952D02*
X130289428Y-67333571D01*
X130289428Y-67333571D02*
X130337047Y-67428809D01*
X130337047Y-67428809D02*
X130337047Y-67952619D01*
X130337047Y-67428809D02*
X130384666Y-67333571D01*
X130384666Y-67333571D02*
X130479904Y-67285952D01*
X130479904Y-67285952D02*
X130622761Y-67285952D01*
X130622761Y-67285952D02*
X130718000Y-67333571D01*
X130718000Y-67333571D02*
X130765619Y-67428809D01*
X130765619Y-67428809D02*
X130765619Y-67952619D01*
X131622761Y-67905000D02*
X131527523Y-67952619D01*
X131527523Y-67952619D02*
X131337047Y-67952619D01*
X131337047Y-67952619D02*
X131241809Y-67905000D01*
X131241809Y-67905000D02*
X131194190Y-67809761D01*
X131194190Y-67809761D02*
X131194190Y-67428809D01*
X131194190Y-67428809D02*
X131241809Y-67333571D01*
X131241809Y-67333571D02*
X131337047Y-67285952D01*
X131337047Y-67285952D02*
X131527523Y-67285952D01*
X131527523Y-67285952D02*
X131622761Y-67333571D01*
X131622761Y-67333571D02*
X131670380Y-67428809D01*
X131670380Y-67428809D02*
X131670380Y-67524047D01*
X131670380Y-67524047D02*
X131194190Y-67619285D01*
X132098952Y-67857380D02*
X132146571Y-67905000D01*
X132146571Y-67905000D02*
X132098952Y-67952619D01*
X132098952Y-67952619D02*
X132051333Y-67905000D01*
X132051333Y-67905000D02*
X132098952Y-67857380D01*
X132098952Y-67857380D02*
X132098952Y-67952619D01*
X132098952Y-67333571D02*
X132146571Y-67381190D01*
X132146571Y-67381190D02*
X132098952Y-67428809D01*
X132098952Y-67428809D02*
X132051333Y-67381190D01*
X132051333Y-67381190D02*
X132098952Y-67333571D01*
X132098952Y-67333571D02*
X132098952Y-67428809D01*
X133908475Y-67952619D02*
X133575142Y-67476428D01*
X133337047Y-67952619D02*
X133337047Y-66952619D01*
X133337047Y-66952619D02*
X133717999Y-66952619D01*
X133717999Y-66952619D02*
X133813237Y-67000238D01*
X133813237Y-67000238D02*
X133860856Y-67047857D01*
X133860856Y-67047857D02*
X133908475Y-67143095D01*
X133908475Y-67143095D02*
X133908475Y-67285952D01*
X133908475Y-67285952D02*
X133860856Y-67381190D01*
X133860856Y-67381190D02*
X133813237Y-67428809D01*
X133813237Y-67428809D02*
X133717999Y-67476428D01*
X133717999Y-67476428D02*
X133337047Y-67476428D01*
X134765618Y-67952619D02*
X134765618Y-67428809D01*
X134765618Y-67428809D02*
X134717999Y-67333571D01*
X134717999Y-67333571D02*
X134622761Y-67285952D01*
X134622761Y-67285952D02*
X134432285Y-67285952D01*
X134432285Y-67285952D02*
X134337047Y-67333571D01*
X134765618Y-67905000D02*
X134670380Y-67952619D01*
X134670380Y-67952619D02*
X134432285Y-67952619D01*
X134432285Y-67952619D02*
X134337047Y-67905000D01*
X134337047Y-67905000D02*
X134289428Y-67809761D01*
X134289428Y-67809761D02*
X134289428Y-67714523D01*
X134289428Y-67714523D02*
X134337047Y-67619285D01*
X134337047Y-67619285D02*
X134432285Y-67571666D01*
X134432285Y-67571666D02*
X134670380Y-67571666D01*
X134670380Y-67571666D02*
X134765618Y-67524047D01*
X135241809Y-67285952D02*
X135241809Y-67952619D01*
X135241809Y-67381190D02*
X135289428Y-67333571D01*
X135289428Y-67333571D02*
X135384666Y-67285952D01*
X135384666Y-67285952D02*
X135527523Y-67285952D01*
X135527523Y-67285952D02*
X135622761Y-67333571D01*
X135622761Y-67333571D02*
X135670380Y-67428809D01*
X135670380Y-67428809D02*
X135670380Y-67952619D01*
X136146571Y-67952619D02*
X136146571Y-67285952D01*
X136146571Y-66952619D02*
X136098952Y-67000238D01*
X136098952Y-67000238D02*
X136146571Y-67047857D01*
X136146571Y-67047857D02*
X136194190Y-67000238D01*
X136194190Y-67000238D02*
X136146571Y-66952619D01*
X136146571Y-66952619D02*
X136146571Y-67047857D01*
X136765618Y-67952619D02*
X136670380Y-67905000D01*
X136670380Y-67905000D02*
X136622761Y-67809761D01*
X136622761Y-67809761D02*
X136622761Y-66952619D01*
X138432285Y-67000238D02*
X138337047Y-66952619D01*
X138337047Y-66952619D02*
X138194190Y-66952619D01*
X138194190Y-66952619D02*
X138051333Y-67000238D01*
X138051333Y-67000238D02*
X137956095Y-67095476D01*
X137956095Y-67095476D02*
X137908476Y-67190714D01*
X137908476Y-67190714D02*
X137860857Y-67381190D01*
X137860857Y-67381190D02*
X137860857Y-67524047D01*
X137860857Y-67524047D02*
X137908476Y-67714523D01*
X137908476Y-67714523D02*
X137956095Y-67809761D01*
X137956095Y-67809761D02*
X138051333Y-67905000D01*
X138051333Y-67905000D02*
X138194190Y-67952619D01*
X138194190Y-67952619D02*
X138289428Y-67952619D01*
X138289428Y-67952619D02*
X138432285Y-67905000D01*
X138432285Y-67905000D02*
X138479904Y-67857380D01*
X138479904Y-67857380D02*
X138479904Y-67524047D01*
X138479904Y-67524047D02*
X138289428Y-67524047D01*
X139337047Y-67952619D02*
X139337047Y-67428809D01*
X139337047Y-67428809D02*
X139289428Y-67333571D01*
X139289428Y-67333571D02*
X139194190Y-67285952D01*
X139194190Y-67285952D02*
X139003714Y-67285952D01*
X139003714Y-67285952D02*
X138908476Y-67333571D01*
X139337047Y-67905000D02*
X139241809Y-67952619D01*
X139241809Y-67952619D02*
X139003714Y-67952619D01*
X139003714Y-67952619D02*
X138908476Y-67905000D01*
X138908476Y-67905000D02*
X138860857Y-67809761D01*
X138860857Y-67809761D02*
X138860857Y-67714523D01*
X138860857Y-67714523D02*
X138908476Y-67619285D01*
X138908476Y-67619285D02*
X139003714Y-67571666D01*
X139003714Y-67571666D02*
X139241809Y-67571666D01*
X139241809Y-67571666D02*
X139337047Y-67524047D01*
X139813238Y-67285952D02*
X139813238Y-67952619D01*
X139813238Y-67381190D02*
X139860857Y-67333571D01*
X139860857Y-67333571D02*
X139956095Y-67285952D01*
X139956095Y-67285952D02*
X140098952Y-67285952D01*
X140098952Y-67285952D02*
X140194190Y-67333571D01*
X140194190Y-67333571D02*
X140241809Y-67428809D01*
X140241809Y-67428809D02*
X140241809Y-67952619D01*
X140860857Y-67952619D02*
X140765619Y-67905000D01*
X140765619Y-67905000D02*
X140718000Y-67809761D01*
X140718000Y-67809761D02*
X140718000Y-66952619D01*
X141670381Y-67952619D02*
X141670381Y-67428809D01*
X141670381Y-67428809D02*
X141622762Y-67333571D01*
X141622762Y-67333571D02*
X141527524Y-67285952D01*
X141527524Y-67285952D02*
X141337048Y-67285952D01*
X141337048Y-67285952D02*
X141241810Y-67333571D01*
X141670381Y-67905000D02*
X141575143Y-67952619D01*
X141575143Y-67952619D02*
X141337048Y-67952619D01*
X141337048Y-67952619D02*
X141241810Y-67905000D01*
X141241810Y-67905000D02*
X141194191Y-67809761D01*
X141194191Y-67809761D02*
X141194191Y-67714523D01*
X141194191Y-67714523D02*
X141241810Y-67619285D01*
X141241810Y-67619285D02*
X141337048Y-67571666D01*
X141337048Y-67571666D02*
X141575143Y-67571666D01*
X141575143Y-67571666D02*
X141670381Y-67524047D01*
X142003715Y-67285952D02*
X142384667Y-67285952D01*
X142146572Y-66952619D02*
X142146572Y-67809761D01*
X142146572Y-67809761D02*
X142194191Y-67905000D01*
X142194191Y-67905000D02*
X142289429Y-67952619D01*
X142289429Y-67952619D02*
X142384667Y-67952619D01*
X142718001Y-67952619D02*
X142718001Y-66952619D01*
X143146572Y-67952619D02*
X143146572Y-67428809D01*
X143146572Y-67428809D02*
X143098953Y-67333571D01*
X143098953Y-67333571D02*
X143003715Y-67285952D01*
X143003715Y-67285952D02*
X142860858Y-67285952D01*
X142860858Y-67285952D02*
X142765620Y-67333571D01*
X142765620Y-67333571D02*
X142718001Y-67381190D01*
X127956095Y-69572619D02*
X127956095Y-68572619D01*
X127956095Y-68572619D02*
X128194190Y-68572619D01*
X128194190Y-68572619D02*
X128337047Y-68620238D01*
X128337047Y-68620238D02*
X128432285Y-68715476D01*
X128432285Y-68715476D02*
X128479904Y-68810714D01*
X128479904Y-68810714D02*
X128527523Y-69001190D01*
X128527523Y-69001190D02*
X128527523Y-69144047D01*
X128527523Y-69144047D02*
X128479904Y-69334523D01*
X128479904Y-69334523D02*
X128432285Y-69429761D01*
X128432285Y-69429761D02*
X128337047Y-69525000D01*
X128337047Y-69525000D02*
X128194190Y-69572619D01*
X128194190Y-69572619D02*
X127956095Y-69572619D01*
X129384666Y-69572619D02*
X129384666Y-69048809D01*
X129384666Y-69048809D02*
X129337047Y-68953571D01*
X129337047Y-68953571D02*
X129241809Y-68905952D01*
X129241809Y-68905952D02*
X129051333Y-68905952D01*
X129051333Y-68905952D02*
X128956095Y-68953571D01*
X129384666Y-69525000D02*
X129289428Y-69572619D01*
X129289428Y-69572619D02*
X129051333Y-69572619D01*
X129051333Y-69572619D02*
X128956095Y-69525000D01*
X128956095Y-69525000D02*
X128908476Y-69429761D01*
X128908476Y-69429761D02*
X128908476Y-69334523D01*
X128908476Y-69334523D02*
X128956095Y-69239285D01*
X128956095Y-69239285D02*
X129051333Y-69191666D01*
X129051333Y-69191666D02*
X129289428Y-69191666D01*
X129289428Y-69191666D02*
X129384666Y-69144047D01*
X129718000Y-68905952D02*
X130098952Y-68905952D01*
X129860857Y-68572619D02*
X129860857Y-69429761D01*
X129860857Y-69429761D02*
X129908476Y-69525000D01*
X129908476Y-69525000D02*
X130003714Y-69572619D01*
X130003714Y-69572619D02*
X130098952Y-69572619D01*
X130813238Y-69525000D02*
X130718000Y-69572619D01*
X130718000Y-69572619D02*
X130527524Y-69572619D01*
X130527524Y-69572619D02*
X130432286Y-69525000D01*
X130432286Y-69525000D02*
X130384667Y-69429761D01*
X130384667Y-69429761D02*
X130384667Y-69048809D01*
X130384667Y-69048809D02*
X130432286Y-68953571D01*
X130432286Y-68953571D02*
X130527524Y-68905952D01*
X130527524Y-68905952D02*
X130718000Y-68905952D01*
X130718000Y-68905952D02*
X130813238Y-68953571D01*
X130813238Y-68953571D02*
X130860857Y-69048809D01*
X130860857Y-69048809D02*
X130860857Y-69144047D01*
X130860857Y-69144047D02*
X130384667Y-69239285D01*
X131289429Y-69477380D02*
X131337048Y-69525000D01*
X131337048Y-69525000D02*
X131289429Y-69572619D01*
X131289429Y-69572619D02*
X131241810Y-69525000D01*
X131241810Y-69525000D02*
X131289429Y-69477380D01*
X131289429Y-69477380D02*
X131289429Y-69572619D01*
X131289429Y-68953571D02*
X131337048Y-69001190D01*
X131337048Y-69001190D02*
X131289429Y-69048809D01*
X131289429Y-69048809D02*
X131241810Y-69001190D01*
X131241810Y-69001190D02*
X131289429Y-68953571D01*
X131289429Y-68953571D02*
X131289429Y-69048809D01*
X132718000Y-68572619D02*
X132813238Y-68572619D01*
X132813238Y-68572619D02*
X132908476Y-68620238D01*
X132908476Y-68620238D02*
X132956095Y-68667857D01*
X132956095Y-68667857D02*
X133003714Y-68763095D01*
X133003714Y-68763095D02*
X133051333Y-68953571D01*
X133051333Y-68953571D02*
X133051333Y-69191666D01*
X133051333Y-69191666D02*
X133003714Y-69382142D01*
X133003714Y-69382142D02*
X132956095Y-69477380D01*
X132956095Y-69477380D02*
X132908476Y-69525000D01*
X132908476Y-69525000D02*
X132813238Y-69572619D01*
X132813238Y-69572619D02*
X132718000Y-69572619D01*
X132718000Y-69572619D02*
X132622762Y-69525000D01*
X132622762Y-69525000D02*
X132575143Y-69477380D01*
X132575143Y-69477380D02*
X132527524Y-69382142D01*
X132527524Y-69382142D02*
X132479905Y-69191666D01*
X132479905Y-69191666D02*
X132479905Y-68953571D01*
X132479905Y-68953571D02*
X132527524Y-68763095D01*
X132527524Y-68763095D02*
X132575143Y-68667857D01*
X132575143Y-68667857D02*
X132622762Y-68620238D01*
X132622762Y-68620238D02*
X132718000Y-68572619D01*
X133432286Y-68667857D02*
X133479905Y-68620238D01*
X133479905Y-68620238D02*
X133575143Y-68572619D01*
X133575143Y-68572619D02*
X133813238Y-68572619D01*
X133813238Y-68572619D02*
X133908476Y-68620238D01*
X133908476Y-68620238D02*
X133956095Y-68667857D01*
X133956095Y-68667857D02*
X134003714Y-68763095D01*
X134003714Y-68763095D02*
X134003714Y-68858333D01*
X134003714Y-68858333D02*
X133956095Y-69001190D01*
X133956095Y-69001190D02*
X133384667Y-69572619D01*
X133384667Y-69572619D02*
X134003714Y-69572619D01*
X134432286Y-69191666D02*
X135194191Y-69191666D01*
X135860857Y-68572619D02*
X135956095Y-68572619D01*
X135956095Y-68572619D02*
X136051333Y-68620238D01*
X136051333Y-68620238D02*
X136098952Y-68667857D01*
X136098952Y-68667857D02*
X136146571Y-68763095D01*
X136146571Y-68763095D02*
X136194190Y-68953571D01*
X136194190Y-68953571D02*
X136194190Y-69191666D01*
X136194190Y-69191666D02*
X136146571Y-69382142D01*
X136146571Y-69382142D02*
X136098952Y-69477380D01*
X136098952Y-69477380D02*
X136051333Y-69525000D01*
X136051333Y-69525000D02*
X135956095Y-69572619D01*
X135956095Y-69572619D02*
X135860857Y-69572619D01*
X135860857Y-69572619D02*
X135765619Y-69525000D01*
X135765619Y-69525000D02*
X135718000Y-69477380D01*
X135718000Y-69477380D02*
X135670381Y-69382142D01*
X135670381Y-69382142D02*
X135622762Y-69191666D01*
X135622762Y-69191666D02*
X135622762Y-68953571D01*
X135622762Y-68953571D02*
X135670381Y-68763095D01*
X135670381Y-68763095D02*
X135718000Y-68667857D01*
X135718000Y-68667857D02*
X135765619Y-68620238D01*
X135765619Y-68620238D02*
X135860857Y-68572619D01*
X137051333Y-68572619D02*
X136860857Y-68572619D01*
X136860857Y-68572619D02*
X136765619Y-68620238D01*
X136765619Y-68620238D02*
X136718000Y-68667857D01*
X136718000Y-68667857D02*
X136622762Y-68810714D01*
X136622762Y-68810714D02*
X136575143Y-69001190D01*
X136575143Y-69001190D02*
X136575143Y-69382142D01*
X136575143Y-69382142D02*
X136622762Y-69477380D01*
X136622762Y-69477380D02*
X136670381Y-69525000D01*
X136670381Y-69525000D02*
X136765619Y-69572619D01*
X136765619Y-69572619D02*
X136956095Y-69572619D01*
X136956095Y-69572619D02*
X137051333Y-69525000D01*
X137051333Y-69525000D02*
X137098952Y-69477380D01*
X137098952Y-69477380D02*
X137146571Y-69382142D01*
X137146571Y-69382142D02*
X137146571Y-69144047D01*
X137146571Y-69144047D02*
X137098952Y-69048809D01*
X137098952Y-69048809D02*
X137051333Y-69001190D01*
X137051333Y-69001190D02*
X136956095Y-68953571D01*
X136956095Y-68953571D02*
X136765619Y-68953571D01*
X136765619Y-68953571D02*
X136670381Y-69001190D01*
X136670381Y-69001190D02*
X136622762Y-69048809D01*
X136622762Y-69048809D02*
X136575143Y-69144047D01*
X137575143Y-69191666D02*
X138337048Y-69191666D01*
X138765619Y-68667857D02*
X138813238Y-68620238D01*
X138813238Y-68620238D02*
X138908476Y-68572619D01*
X138908476Y-68572619D02*
X139146571Y-68572619D01*
X139146571Y-68572619D02*
X139241809Y-68620238D01*
X139241809Y-68620238D02*
X139289428Y-68667857D01*
X139289428Y-68667857D02*
X139337047Y-68763095D01*
X139337047Y-68763095D02*
X139337047Y-68858333D01*
X139337047Y-68858333D02*
X139289428Y-69001190D01*
X139289428Y-69001190D02*
X138718000Y-69572619D01*
X138718000Y-69572619D02*
X139337047Y-69572619D01*
X139956095Y-68572619D02*
X140051333Y-68572619D01*
X140051333Y-68572619D02*
X140146571Y-68620238D01*
X140146571Y-68620238D02*
X140194190Y-68667857D01*
X140194190Y-68667857D02*
X140241809Y-68763095D01*
X140241809Y-68763095D02*
X140289428Y-68953571D01*
X140289428Y-68953571D02*
X140289428Y-69191666D01*
X140289428Y-69191666D02*
X140241809Y-69382142D01*
X140241809Y-69382142D02*
X140194190Y-69477380D01*
X140194190Y-69477380D02*
X140146571Y-69525000D01*
X140146571Y-69525000D02*
X140051333Y-69572619D01*
X140051333Y-69572619D02*
X139956095Y-69572619D01*
X139956095Y-69572619D02*
X139860857Y-69525000D01*
X139860857Y-69525000D02*
X139813238Y-69477380D01*
X139813238Y-69477380D02*
X139765619Y-69382142D01*
X139765619Y-69382142D02*
X139718000Y-69191666D01*
X139718000Y-69191666D02*
X139718000Y-68953571D01*
X139718000Y-68953571D02*
X139765619Y-68763095D01*
X139765619Y-68763095D02*
X139813238Y-68667857D01*
X139813238Y-68667857D02*
X139860857Y-68620238D01*
X139860857Y-68620238D02*
X139956095Y-68572619D01*
X140670381Y-68667857D02*
X140718000Y-68620238D01*
X140718000Y-68620238D02*
X140813238Y-68572619D01*
X140813238Y-68572619D02*
X141051333Y-68572619D01*
X141051333Y-68572619D02*
X141146571Y-68620238D01*
X141146571Y-68620238D02*
X141194190Y-68667857D01*
X141194190Y-68667857D02*
X141241809Y-68763095D01*
X141241809Y-68763095D02*
X141241809Y-68858333D01*
X141241809Y-68858333D02*
X141194190Y-69001190D01*
X141194190Y-69001190D02*
X140622762Y-69572619D01*
X140622762Y-69572619D02*
X141241809Y-69572619D01*
X142098952Y-68905952D02*
X142098952Y-69572619D01*
X141860857Y-68525000D02*
X141622762Y-69239285D01*
X141622762Y-69239285D02*
X142241809Y-69239285D01*
X127908476Y-71145000D02*
X128051333Y-71192619D01*
X128051333Y-71192619D02*
X128289428Y-71192619D01*
X128289428Y-71192619D02*
X128384666Y-71145000D01*
X128384666Y-71145000D02*
X128432285Y-71097380D01*
X128432285Y-71097380D02*
X128479904Y-71002142D01*
X128479904Y-71002142D02*
X128479904Y-70906904D01*
X128479904Y-70906904D02*
X128432285Y-70811666D01*
X128432285Y-70811666D02*
X128384666Y-70764047D01*
X128384666Y-70764047D02*
X128289428Y-70716428D01*
X128289428Y-70716428D02*
X128098952Y-70668809D01*
X128098952Y-70668809D02*
X128003714Y-70621190D01*
X128003714Y-70621190D02*
X127956095Y-70573571D01*
X127956095Y-70573571D02*
X127908476Y-70478333D01*
X127908476Y-70478333D02*
X127908476Y-70383095D01*
X127908476Y-70383095D02*
X127956095Y-70287857D01*
X127956095Y-70287857D02*
X128003714Y-70240238D01*
X128003714Y-70240238D02*
X128098952Y-70192619D01*
X128098952Y-70192619D02*
X128337047Y-70192619D01*
X128337047Y-70192619D02*
X128479904Y-70240238D01*
X129622761Y-70145000D02*
X128765619Y-71430714D01*
X129956095Y-71192619D02*
X129956095Y-70192619D01*
X129956095Y-70192619D02*
X130527523Y-71192619D01*
X130527523Y-71192619D02*
X130527523Y-70192619D01*
X131003714Y-71097380D02*
X131051333Y-71145000D01*
X131051333Y-71145000D02*
X131003714Y-71192619D01*
X131003714Y-71192619D02*
X130956095Y-71145000D01*
X130956095Y-71145000D02*
X131003714Y-71097380D01*
X131003714Y-71097380D02*
X131003714Y-71192619D01*
X131003714Y-70573571D02*
X131051333Y-70621190D01*
X131051333Y-70621190D02*
X131003714Y-70668809D01*
X131003714Y-70668809D02*
X130956095Y-70621190D01*
X130956095Y-70621190D02*
X131003714Y-70573571D01*
X131003714Y-70573571D02*
X131003714Y-70668809D01*
X122985714Y-62877619D02*
X122985714Y-61877619D01*
X122985714Y-61877619D02*
X123366666Y-61877619D01*
X123366666Y-61877619D02*
X123461904Y-61925238D01*
X123461904Y-61925238D02*
X123509523Y-61972857D01*
X123509523Y-61972857D02*
X123557142Y-62068095D01*
X123557142Y-62068095D02*
X123557142Y-62210952D01*
X123557142Y-62210952D02*
X123509523Y-62306190D01*
X123509523Y-62306190D02*
X123461904Y-62353809D01*
X123461904Y-62353809D02*
X123366666Y-62401428D01*
X123366666Y-62401428D02*
X122985714Y-62401428D01*
X124509523Y-62877619D02*
X123938095Y-62877619D01*
X124223809Y-62877619D02*
X124223809Y-61877619D01*
X124223809Y-61877619D02*
X124128571Y-62020476D01*
X124128571Y-62020476D02*
X124033333Y-62115714D01*
X124033333Y-62115714D02*
X123938095Y-62163333D01*
X124842857Y-61877619D02*
X125509523Y-61877619D01*
X125509523Y-61877619D02*
X125080952Y-62877619D01*
X161025238Y-83552380D02*
X160977619Y-83647618D01*
X160977619Y-83647618D02*
X160977619Y-83790475D01*
X160977619Y-83790475D02*
X161025238Y-83933332D01*
X161025238Y-83933332D02*
X161120476Y-84028570D01*
X161120476Y-84028570D02*
X161215714Y-84076189D01*
X161215714Y-84076189D02*
X161406190Y-84123808D01*
X161406190Y-84123808D02*
X161549047Y-84123808D01*
X161549047Y-84123808D02*
X161739523Y-84076189D01*
X161739523Y-84076189D02*
X161834761Y-84028570D01*
X161834761Y-84028570D02*
X161930000Y-83933332D01*
X161930000Y-83933332D02*
X161977619Y-83790475D01*
X161977619Y-83790475D02*
X161977619Y-83695237D01*
X161977619Y-83695237D02*
X161930000Y-83552380D01*
X161930000Y-83552380D02*
X161882380Y-83504761D01*
X161882380Y-83504761D02*
X161549047Y-83504761D01*
X161549047Y-83504761D02*
X161549047Y-83695237D01*
X161977619Y-83076189D02*
X160977619Y-83076189D01*
X160977619Y-83076189D02*
X160977619Y-82695237D01*
X160977619Y-82695237D02*
X161025238Y-82599999D01*
X161025238Y-82599999D02*
X161072857Y-82552380D01*
X161072857Y-82552380D02*
X161168095Y-82504761D01*
X161168095Y-82504761D02*
X161310952Y-82504761D01*
X161310952Y-82504761D02*
X161406190Y-82552380D01*
X161406190Y-82552380D02*
X161453809Y-82599999D01*
X161453809Y-82599999D02*
X161501428Y-82695237D01*
X161501428Y-82695237D02*
X161501428Y-83076189D01*
X161977619Y-82076189D02*
X160977619Y-82076189D01*
X160977619Y-81409523D02*
X160977619Y-81219047D01*
X160977619Y-81219047D02*
X161025238Y-81123809D01*
X161025238Y-81123809D02*
X161120476Y-81028571D01*
X161120476Y-81028571D02*
X161310952Y-80980952D01*
X161310952Y-80980952D02*
X161644285Y-80980952D01*
X161644285Y-80980952D02*
X161834761Y-81028571D01*
X161834761Y-81028571D02*
X161930000Y-81123809D01*
X161930000Y-81123809D02*
X161977619Y-81219047D01*
X161977619Y-81219047D02*
X161977619Y-81409523D01*
X161977619Y-81409523D02*
X161930000Y-81504761D01*
X161930000Y-81504761D02*
X161834761Y-81599999D01*
X161834761Y-81599999D02*
X161644285Y-81647618D01*
X161644285Y-81647618D02*
X161310952Y-81647618D01*
X161310952Y-81647618D02*
X161120476Y-81599999D01*
X161120476Y-81599999D02*
X161025238Y-81504761D01*
X161025238Y-81504761D02*
X160977619Y-81409523D01*
X161977619Y-80028571D02*
X161977619Y-80599999D01*
X161977619Y-80314285D02*
X160977619Y-80314285D01*
X160977619Y-80314285D02*
X161120476Y-80409523D01*
X161120476Y-80409523D02*
X161215714Y-80504761D01*
X161215714Y-80504761D02*
X161263333Y-80599999D01*
X161406190Y-79457142D02*
X161358571Y-79552380D01*
X161358571Y-79552380D02*
X161310952Y-79599999D01*
X161310952Y-79599999D02*
X161215714Y-79647618D01*
X161215714Y-79647618D02*
X161168095Y-79647618D01*
X161168095Y-79647618D02*
X161072857Y-79599999D01*
X161072857Y-79599999D02*
X161025238Y-79552380D01*
X161025238Y-79552380D02*
X160977619Y-79457142D01*
X160977619Y-79457142D02*
X160977619Y-79266666D01*
X160977619Y-79266666D02*
X161025238Y-79171428D01*
X161025238Y-79171428D02*
X161072857Y-79123809D01*
X161072857Y-79123809D02*
X161168095Y-79076190D01*
X161168095Y-79076190D02*
X161215714Y-79076190D01*
X161215714Y-79076190D02*
X161310952Y-79123809D01*
X161310952Y-79123809D02*
X161358571Y-79171428D01*
X161358571Y-79171428D02*
X161406190Y-79266666D01*
X161406190Y-79266666D02*
X161406190Y-79457142D01*
X161406190Y-79457142D02*
X161453809Y-79552380D01*
X161453809Y-79552380D02*
X161501428Y-79599999D01*
X161501428Y-79599999D02*
X161596666Y-79647618D01*
X161596666Y-79647618D02*
X161787142Y-79647618D01*
X161787142Y-79647618D02*
X161882380Y-79599999D01*
X161882380Y-79599999D02*
X161930000Y-79552380D01*
X161930000Y-79552380D02*
X161977619Y-79457142D01*
X161977619Y-79457142D02*
X161977619Y-79266666D01*
X161977619Y-79266666D02*
X161930000Y-79171428D01*
X161930000Y-79171428D02*
X161882380Y-79123809D01*
X161882380Y-79123809D02*
X161787142Y-79076190D01*
X161787142Y-79076190D02*
X161596666Y-79076190D01*
X161596666Y-79076190D02*
X161501428Y-79123809D01*
X161501428Y-79123809D02*
X161453809Y-79171428D01*
X161453809Y-79171428D02*
X161406190Y-79266666D01*
X123480952Y-57277619D02*
X122909524Y-57277619D01*
X123195238Y-57277619D02*
X123195238Y-56277619D01*
X123195238Y-56277619D02*
X123100000Y-56420476D01*
X123100000Y-56420476D02*
X123004762Y-56515714D01*
X123004762Y-56515714D02*
X122909524Y-56563333D01*
X123909524Y-57277619D02*
X123909524Y-56277619D01*
X124004762Y-56896666D02*
X124290476Y-57277619D01*
X124290476Y-56610952D02*
X123909524Y-56991904D01*
X102053333Y-81169048D02*
X102053333Y-81930953D01*
X121461904Y-61925238D02*
X121366666Y-61877619D01*
X121366666Y-61877619D02*
X121223809Y-61877619D01*
X121223809Y-61877619D02*
X121080952Y-61925238D01*
X121080952Y-61925238D02*
X120985714Y-62020476D01*
X120985714Y-62020476D02*
X120938095Y-62115714D01*
X120938095Y-62115714D02*
X120890476Y-62306190D01*
X120890476Y-62306190D02*
X120890476Y-62449047D01*
X120890476Y-62449047D02*
X120938095Y-62639523D01*
X120938095Y-62639523D02*
X120985714Y-62734761D01*
X120985714Y-62734761D02*
X121080952Y-62830000D01*
X121080952Y-62830000D02*
X121223809Y-62877619D01*
X121223809Y-62877619D02*
X121319047Y-62877619D01*
X121319047Y-62877619D02*
X121461904Y-62830000D01*
X121461904Y-62830000D02*
X121509523Y-62782380D01*
X121509523Y-62782380D02*
X121509523Y-62449047D01*
X121509523Y-62449047D02*
X121319047Y-62449047D01*
X163477619Y-76990476D02*
X163477619Y-77466666D01*
X163477619Y-77466666D02*
X163953809Y-77514285D01*
X163953809Y-77514285D02*
X163906190Y-77466666D01*
X163906190Y-77466666D02*
X163858571Y-77371428D01*
X163858571Y-77371428D02*
X163858571Y-77133333D01*
X163858571Y-77133333D02*
X163906190Y-77038095D01*
X163906190Y-77038095D02*
X163953809Y-76990476D01*
X163953809Y-76990476D02*
X164049047Y-76942857D01*
X164049047Y-76942857D02*
X164287142Y-76942857D01*
X164287142Y-76942857D02*
X164382380Y-76990476D01*
X164382380Y-76990476D02*
X164430000Y-77038095D01*
X164430000Y-77038095D02*
X164477619Y-77133333D01*
X164477619Y-77133333D02*
X164477619Y-77371428D01*
X164477619Y-77371428D02*
X164430000Y-77466666D01*
X164430000Y-77466666D02*
X164382380Y-77514285D01*
X163477619Y-76657142D02*
X164477619Y-76323809D01*
X164477619Y-76323809D02*
X163477619Y-75990476D01*
X109722380Y-76547618D02*
X109722380Y-76071428D01*
X109722380Y-76071428D02*
X109246190Y-76023809D01*
X109246190Y-76023809D02*
X109293809Y-76071428D01*
X109293809Y-76071428D02*
X109341428Y-76166666D01*
X109341428Y-76166666D02*
X109341428Y-76404761D01*
X109341428Y-76404761D02*
X109293809Y-76499999D01*
X109293809Y-76499999D02*
X109246190Y-76547618D01*
X109246190Y-76547618D02*
X109150952Y-76595237D01*
X109150952Y-76595237D02*
X108912857Y-76595237D01*
X108912857Y-76595237D02*
X108817619Y-76547618D01*
X108817619Y-76547618D02*
X108770000Y-76499999D01*
X108770000Y-76499999D02*
X108722380Y-76404761D01*
X108722380Y-76404761D02*
X108722380Y-76166666D01*
X108722380Y-76166666D02*
X108770000Y-76071428D01*
X108770000Y-76071428D02*
X108817619Y-76023809D01*
X109722380Y-76880952D02*
X108722380Y-77214285D01*
X108722380Y-77214285D02*
X109722380Y-77547618D01*
X108722380Y-78642857D02*
X109722380Y-78642857D01*
X109389047Y-79119047D02*
X108722380Y-79119047D01*
X109293809Y-79119047D02*
X109341428Y-79166666D01*
X109341428Y-79166666D02*
X109389047Y-79261904D01*
X109389047Y-79261904D02*
X109389047Y-79404761D01*
X109389047Y-79404761D02*
X109341428Y-79499999D01*
X109341428Y-79499999D02*
X109246190Y-79547618D01*
X109246190Y-79547618D02*
X108722380Y-79547618D01*
X109389047Y-80023809D02*
X108389047Y-80023809D01*
X109341428Y-80023809D02*
X109389047Y-80119047D01*
X109389047Y-80119047D02*
X109389047Y-80309523D01*
X109389047Y-80309523D02*
X109341428Y-80404761D01*
X109341428Y-80404761D02*
X109293809Y-80452380D01*
X109293809Y-80452380D02*
X109198571Y-80499999D01*
X109198571Y-80499999D02*
X108912857Y-80499999D01*
X108912857Y-80499999D02*
X108817619Y-80452380D01*
X108817619Y-80452380D02*
X108770000Y-80404761D01*
X108770000Y-80404761D02*
X108722380Y-80309523D01*
X108722380Y-80309523D02*
X108722380Y-80119047D01*
X108722380Y-80119047D02*
X108770000Y-80023809D01*
X109389047Y-81357142D02*
X108722380Y-81357142D01*
X109389047Y-80928571D02*
X108865238Y-80928571D01*
X108865238Y-80928571D02*
X108770000Y-80976190D01*
X108770000Y-80976190D02*
X108722380Y-81071428D01*
X108722380Y-81071428D02*
X108722380Y-81214285D01*
X108722380Y-81214285D02*
X108770000Y-81309523D01*
X108770000Y-81309523D02*
X108817619Y-81357142D01*
X109389047Y-81690476D02*
X109389047Y-82071428D01*
X109722380Y-81833333D02*
X108865238Y-81833333D01*
X108865238Y-81833333D02*
X108770000Y-81880952D01*
X108770000Y-81880952D02*
X108722380Y-81976190D01*
X108722380Y-81976190D02*
X108722380Y-82071428D01*
X115261904Y-61925238D02*
X115166666Y-61877619D01*
X115166666Y-61877619D02*
X115023809Y-61877619D01*
X115023809Y-61877619D02*
X114880952Y-61925238D01*
X114880952Y-61925238D02*
X114785714Y-62020476D01*
X114785714Y-62020476D02*
X114738095Y-62115714D01*
X114738095Y-62115714D02*
X114690476Y-62306190D01*
X114690476Y-62306190D02*
X114690476Y-62449047D01*
X114690476Y-62449047D02*
X114738095Y-62639523D01*
X114738095Y-62639523D02*
X114785714Y-62734761D01*
X114785714Y-62734761D02*
X114880952Y-62830000D01*
X114880952Y-62830000D02*
X115023809Y-62877619D01*
X115023809Y-62877619D02*
X115119047Y-62877619D01*
X115119047Y-62877619D02*
X115261904Y-62830000D01*
X115261904Y-62830000D02*
X115309523Y-62782380D01*
X115309523Y-62782380D02*
X115309523Y-62449047D01*
X115309523Y-62449047D02*
X115119047Y-62449047D01*
X141147619Y-53025238D02*
X141052381Y-52977619D01*
X141052381Y-52977619D02*
X140909524Y-52977619D01*
X140909524Y-52977619D02*
X140766667Y-53025238D01*
X140766667Y-53025238D02*
X140671429Y-53120476D01*
X140671429Y-53120476D02*
X140623810Y-53215714D01*
X140623810Y-53215714D02*
X140576191Y-53406190D01*
X140576191Y-53406190D02*
X140576191Y-53549047D01*
X140576191Y-53549047D02*
X140623810Y-53739523D01*
X140623810Y-53739523D02*
X140671429Y-53834761D01*
X140671429Y-53834761D02*
X140766667Y-53930000D01*
X140766667Y-53930000D02*
X140909524Y-53977619D01*
X140909524Y-53977619D02*
X141004762Y-53977619D01*
X141004762Y-53977619D02*
X141147619Y-53930000D01*
X141147619Y-53930000D02*
X141195238Y-53882380D01*
X141195238Y-53882380D02*
X141195238Y-53549047D01*
X141195238Y-53549047D02*
X141004762Y-53549047D01*
X141623810Y-53977619D02*
X141623810Y-52977619D01*
X141623810Y-52977619D02*
X142004762Y-52977619D01*
X142004762Y-52977619D02*
X142100000Y-53025238D01*
X142100000Y-53025238D02*
X142147619Y-53072857D01*
X142147619Y-53072857D02*
X142195238Y-53168095D01*
X142195238Y-53168095D02*
X142195238Y-53310952D01*
X142195238Y-53310952D02*
X142147619Y-53406190D01*
X142147619Y-53406190D02*
X142100000Y-53453809D01*
X142100000Y-53453809D02*
X142004762Y-53501428D01*
X142004762Y-53501428D02*
X141623810Y-53501428D01*
X142623810Y-53977619D02*
X142623810Y-52977619D01*
X143290476Y-52977619D02*
X143480952Y-52977619D01*
X143480952Y-52977619D02*
X143576190Y-53025238D01*
X143576190Y-53025238D02*
X143671428Y-53120476D01*
X143671428Y-53120476D02*
X143719047Y-53310952D01*
X143719047Y-53310952D02*
X143719047Y-53644285D01*
X143719047Y-53644285D02*
X143671428Y-53834761D01*
X143671428Y-53834761D02*
X143576190Y-53930000D01*
X143576190Y-53930000D02*
X143480952Y-53977619D01*
X143480952Y-53977619D02*
X143290476Y-53977619D01*
X143290476Y-53977619D02*
X143195238Y-53930000D01*
X143195238Y-53930000D02*
X143100000Y-53834761D01*
X143100000Y-53834761D02*
X143052381Y-53644285D01*
X143052381Y-53644285D02*
X143052381Y-53310952D01*
X143052381Y-53310952D02*
X143100000Y-53120476D01*
X143100000Y-53120476D02*
X143195238Y-53025238D01*
X143195238Y-53025238D02*
X143290476Y-52977619D01*
X144671428Y-53977619D02*
X144100000Y-53977619D01*
X144385714Y-53977619D02*
X144385714Y-52977619D01*
X144385714Y-52977619D02*
X144290476Y-53120476D01*
X144290476Y-53120476D02*
X144195238Y-53215714D01*
X144195238Y-53215714D02*
X144100000Y-53263333D01*
X145052381Y-53072857D02*
X145100000Y-53025238D01*
X145100000Y-53025238D02*
X145195238Y-52977619D01*
X145195238Y-52977619D02*
X145433333Y-52977619D01*
X145433333Y-52977619D02*
X145528571Y-53025238D01*
X145528571Y-53025238D02*
X145576190Y-53072857D01*
X145576190Y-53072857D02*
X145623809Y-53168095D01*
X145623809Y-53168095D02*
X145623809Y-53263333D01*
X145623809Y-53263333D02*
X145576190Y-53406190D01*
X145576190Y-53406190D02*
X145004762Y-53977619D01*
X145004762Y-53977619D02*
X145623809Y-53977619D01*
X122330952Y-59127619D02*
X121759524Y-59127619D01*
X122045238Y-59127619D02*
X122045238Y-58127619D01*
X122045238Y-58127619D02*
X121950000Y-58270476D01*
X121950000Y-58270476D02*
X121854762Y-58365714D01*
X121854762Y-58365714D02*
X121759524Y-58413333D01*
X122759524Y-59127619D02*
X122759524Y-58127619D01*
X122854762Y-58746666D02*
X123140476Y-59127619D01*
X123140476Y-58460952D02*
X122759524Y-58841904D01*
X109211905Y-92197857D02*
X109259524Y-92150238D01*
X109259524Y-92150238D02*
X109354762Y-92102619D01*
X109354762Y-92102619D02*
X109592857Y-92102619D01*
X109592857Y-92102619D02*
X109688095Y-92150238D01*
X109688095Y-92150238D02*
X109735714Y-92197857D01*
X109735714Y-92197857D02*
X109783333Y-92293095D01*
X109783333Y-92293095D02*
X109783333Y-92388333D01*
X109783333Y-92388333D02*
X109735714Y-92531190D01*
X109735714Y-92531190D02*
X109164286Y-93102619D01*
X109164286Y-93102619D02*
X109783333Y-93102619D01*
X110402381Y-92102619D02*
X110497619Y-92102619D01*
X110497619Y-92102619D02*
X110592857Y-92150238D01*
X110592857Y-92150238D02*
X110640476Y-92197857D01*
X110640476Y-92197857D02*
X110688095Y-92293095D01*
X110688095Y-92293095D02*
X110735714Y-92483571D01*
X110735714Y-92483571D02*
X110735714Y-92721666D01*
X110735714Y-92721666D02*
X110688095Y-92912142D01*
X110688095Y-92912142D02*
X110640476Y-93007380D01*
X110640476Y-93007380D02*
X110592857Y-93055000D01*
X110592857Y-93055000D02*
X110497619Y-93102619D01*
X110497619Y-93102619D02*
X110402381Y-93102619D01*
X110402381Y-93102619D02*
X110307143Y-93055000D01*
X110307143Y-93055000D02*
X110259524Y-93007380D01*
X110259524Y-93007380D02*
X110211905Y-92912142D01*
X110211905Y-92912142D02*
X110164286Y-92721666D01*
X110164286Y-92721666D02*
X110164286Y-92483571D01*
X110164286Y-92483571D02*
X110211905Y-92293095D01*
X110211905Y-92293095D02*
X110259524Y-92197857D01*
X110259524Y-92197857D02*
X110307143Y-92150238D01*
X110307143Y-92150238D02*
X110402381Y-92102619D01*
X111354762Y-92102619D02*
X111450000Y-92102619D01*
X111450000Y-92102619D02*
X111545238Y-92150238D01*
X111545238Y-92150238D02*
X111592857Y-92197857D01*
X111592857Y-92197857D02*
X111640476Y-92293095D01*
X111640476Y-92293095D02*
X111688095Y-92483571D01*
X111688095Y-92483571D02*
X111688095Y-92721666D01*
X111688095Y-92721666D02*
X111640476Y-92912142D01*
X111640476Y-92912142D02*
X111592857Y-93007380D01*
X111592857Y-93007380D02*
X111545238Y-93055000D01*
X111545238Y-93055000D02*
X111450000Y-93102619D01*
X111450000Y-93102619D02*
X111354762Y-93102619D01*
X111354762Y-93102619D02*
X111259524Y-93055000D01*
X111259524Y-93055000D02*
X111211905Y-93007380D01*
X111211905Y-93007380D02*
X111164286Y-92912142D01*
X111164286Y-92912142D02*
X111116667Y-92721666D01*
X111116667Y-92721666D02*
X111116667Y-92483571D01*
X111116667Y-92483571D02*
X111164286Y-92293095D01*
X111164286Y-92293095D02*
X111211905Y-92197857D01*
X111211905Y-92197857D02*
X111259524Y-92150238D01*
X111259524Y-92150238D02*
X111354762Y-92102619D01*
X109809523Y-88377619D02*
X109333333Y-88377619D01*
X109333333Y-88377619D02*
X109285714Y-88853809D01*
X109285714Y-88853809D02*
X109333333Y-88806190D01*
X109333333Y-88806190D02*
X109428571Y-88758571D01*
X109428571Y-88758571D02*
X109666666Y-88758571D01*
X109666666Y-88758571D02*
X109761904Y-88806190D01*
X109761904Y-88806190D02*
X109809523Y-88853809D01*
X109809523Y-88853809D02*
X109857142Y-88949047D01*
X109857142Y-88949047D02*
X109857142Y-89187142D01*
X109857142Y-89187142D02*
X109809523Y-89282380D01*
X109809523Y-89282380D02*
X109761904Y-89330000D01*
X109761904Y-89330000D02*
X109666666Y-89377619D01*
X109666666Y-89377619D02*
X109428571Y-89377619D01*
X109428571Y-89377619D02*
X109333333Y-89330000D01*
X109333333Y-89330000D02*
X109285714Y-89282380D01*
X110142857Y-88377619D02*
X110476190Y-89377619D01*
X110476190Y-89377619D02*
X110809523Y-88377619D01*
X120997619Y-99332380D02*
X120950000Y-99380000D01*
X120950000Y-99380000D02*
X120807143Y-99427619D01*
X120807143Y-99427619D02*
X120711905Y-99427619D01*
X120711905Y-99427619D02*
X120569048Y-99380000D01*
X120569048Y-99380000D02*
X120473810Y-99284761D01*
X120473810Y-99284761D02*
X120426191Y-99189523D01*
X120426191Y-99189523D02*
X120378572Y-98999047D01*
X120378572Y-98999047D02*
X120378572Y-98856190D01*
X120378572Y-98856190D02*
X120426191Y-98665714D01*
X120426191Y-98665714D02*
X120473810Y-98570476D01*
X120473810Y-98570476D02*
X120569048Y-98475238D01*
X120569048Y-98475238D02*
X120711905Y-98427619D01*
X120711905Y-98427619D02*
X120807143Y-98427619D01*
X120807143Y-98427619D02*
X120950000Y-98475238D01*
X120950000Y-98475238D02*
X120997619Y-98522857D01*
X121616667Y-98427619D02*
X121807143Y-98427619D01*
X121807143Y-98427619D02*
X121902381Y-98475238D01*
X121902381Y-98475238D02*
X121997619Y-98570476D01*
X121997619Y-98570476D02*
X122045238Y-98760952D01*
X122045238Y-98760952D02*
X122045238Y-99094285D01*
X122045238Y-99094285D02*
X121997619Y-99284761D01*
X121997619Y-99284761D02*
X121902381Y-99380000D01*
X121902381Y-99380000D02*
X121807143Y-99427619D01*
X121807143Y-99427619D02*
X121616667Y-99427619D01*
X121616667Y-99427619D02*
X121521429Y-99380000D01*
X121521429Y-99380000D02*
X121426191Y-99284761D01*
X121426191Y-99284761D02*
X121378572Y-99094285D01*
X121378572Y-99094285D02*
X121378572Y-98760952D01*
X121378572Y-98760952D02*
X121426191Y-98570476D01*
X121426191Y-98570476D02*
X121521429Y-98475238D01*
X121521429Y-98475238D02*
X121616667Y-98427619D01*
X122473810Y-99427619D02*
X122473810Y-98427619D01*
X122473810Y-98427619D02*
X122807143Y-99141904D01*
X122807143Y-99141904D02*
X123140476Y-98427619D01*
X123140476Y-98427619D02*
X123140476Y-99427619D01*
X123664286Y-99380000D02*
X123664286Y-99427619D01*
X123664286Y-99427619D02*
X123616667Y-99522857D01*
X123616667Y-99522857D02*
X123569048Y-99570476D01*
X124283333Y-98951428D02*
X124283333Y-99427619D01*
X123950000Y-98427619D02*
X124283333Y-98951428D01*
X124283333Y-98951428D02*
X124616666Y-98427619D01*
X121738095Y-95677619D02*
X122357142Y-95677619D01*
X122357142Y-95677619D02*
X122023809Y-96058571D01*
X122023809Y-96058571D02*
X122166666Y-96058571D01*
X122166666Y-96058571D02*
X122261904Y-96106190D01*
X122261904Y-96106190D02*
X122309523Y-96153809D01*
X122309523Y-96153809D02*
X122357142Y-96249047D01*
X122357142Y-96249047D02*
X122357142Y-96487142D01*
X122357142Y-96487142D02*
X122309523Y-96582380D01*
X122309523Y-96582380D02*
X122261904Y-96630000D01*
X122261904Y-96630000D02*
X122166666Y-96677619D01*
X122166666Y-96677619D02*
X121880952Y-96677619D01*
X121880952Y-96677619D02*
X121785714Y-96630000D01*
X121785714Y-96630000D02*
X121738095Y-96582380D01*
X122642857Y-95677619D02*
X122976190Y-96677619D01*
X122976190Y-96677619D02*
X123309523Y-95677619D01*
X160977619Y-60240476D02*
X160977619Y-60716666D01*
X160977619Y-60716666D02*
X161453809Y-60764285D01*
X161453809Y-60764285D02*
X161406190Y-60716666D01*
X161406190Y-60716666D02*
X161358571Y-60621428D01*
X161358571Y-60621428D02*
X161358571Y-60383333D01*
X161358571Y-60383333D02*
X161406190Y-60288095D01*
X161406190Y-60288095D02*
X161453809Y-60240476D01*
X161453809Y-60240476D02*
X161549047Y-60192857D01*
X161549047Y-60192857D02*
X161787142Y-60192857D01*
X161787142Y-60192857D02*
X161882380Y-60240476D01*
X161882380Y-60240476D02*
X161930000Y-60288095D01*
X161930000Y-60288095D02*
X161977619Y-60383333D01*
X161977619Y-60383333D02*
X161977619Y-60621428D01*
X161977619Y-60621428D02*
X161930000Y-60716666D01*
X161930000Y-60716666D02*
X161882380Y-60764285D01*
X160977619Y-59907142D02*
X161977619Y-59573809D01*
X161977619Y-59573809D02*
X160977619Y-59240476D01*
X105461904Y-62525238D02*
X105366666Y-62477619D01*
X105366666Y-62477619D02*
X105223809Y-62477619D01*
X105223809Y-62477619D02*
X105080952Y-62525238D01*
X105080952Y-62525238D02*
X104985714Y-62620476D01*
X104985714Y-62620476D02*
X104938095Y-62715714D01*
X104938095Y-62715714D02*
X104890476Y-62906190D01*
X104890476Y-62906190D02*
X104890476Y-63049047D01*
X104890476Y-63049047D02*
X104938095Y-63239523D01*
X104938095Y-63239523D02*
X104985714Y-63334761D01*
X104985714Y-63334761D02*
X105080952Y-63430000D01*
X105080952Y-63430000D02*
X105223809Y-63477619D01*
X105223809Y-63477619D02*
X105319047Y-63477619D01*
X105319047Y-63477619D02*
X105461904Y-63430000D01*
X105461904Y-63430000D02*
X105509523Y-63382380D01*
X105509523Y-63382380D02*
X105509523Y-63049047D01*
X105509523Y-63049047D02*
X105319047Y-63049047D01*
X110880952Y-57277619D02*
X110309524Y-57277619D01*
X110595238Y-57277619D02*
X110595238Y-56277619D01*
X110595238Y-56277619D02*
X110500000Y-56420476D01*
X110500000Y-56420476D02*
X110404762Y-56515714D01*
X110404762Y-56515714D02*
X110309524Y-56563333D01*
X111309524Y-57277619D02*
X111309524Y-56277619D01*
X111404762Y-56896666D02*
X111690476Y-57277619D01*
X111690476Y-56610952D02*
X111309524Y-56991904D01*
X155027619Y-81419047D02*
X154027619Y-81419047D01*
X154027619Y-81419047D02*
X155027619Y-80847619D01*
X155027619Y-80847619D02*
X154027619Y-80847619D01*
X154980000Y-79990476D02*
X155027619Y-80085714D01*
X155027619Y-80085714D02*
X155027619Y-80276190D01*
X155027619Y-80276190D02*
X154980000Y-80371428D01*
X154980000Y-80371428D02*
X154884761Y-80419047D01*
X154884761Y-80419047D02*
X154503809Y-80419047D01*
X154503809Y-80419047D02*
X154408571Y-80371428D01*
X154408571Y-80371428D02*
X154360952Y-80276190D01*
X154360952Y-80276190D02*
X154360952Y-80085714D01*
X154360952Y-80085714D02*
X154408571Y-79990476D01*
X154408571Y-79990476D02*
X154503809Y-79942857D01*
X154503809Y-79942857D02*
X154599047Y-79942857D01*
X154599047Y-79942857D02*
X154694285Y-80419047D01*
X155027619Y-79371428D02*
X154980000Y-79466666D01*
X154980000Y-79466666D02*
X154932380Y-79514285D01*
X154932380Y-79514285D02*
X154837142Y-79561904D01*
X154837142Y-79561904D02*
X154551428Y-79561904D01*
X154551428Y-79561904D02*
X154456190Y-79514285D01*
X154456190Y-79514285D02*
X154408571Y-79466666D01*
X154408571Y-79466666D02*
X154360952Y-79371428D01*
X154360952Y-79371428D02*
X154360952Y-79228571D01*
X154360952Y-79228571D02*
X154408571Y-79133333D01*
X154408571Y-79133333D02*
X154456190Y-79085714D01*
X154456190Y-79085714D02*
X154551428Y-79038095D01*
X154551428Y-79038095D02*
X154837142Y-79038095D01*
X154837142Y-79038095D02*
X154932380Y-79085714D01*
X154932380Y-79085714D02*
X154980000Y-79133333D01*
X154980000Y-79133333D02*
X155027619Y-79228571D01*
X155027619Y-79228571D02*
X155027619Y-79371428D01*
X155027619Y-78609523D02*
X154027619Y-78609523D01*
X154027619Y-78609523D02*
X154027619Y-78228571D01*
X154027619Y-78228571D02*
X154075238Y-78133333D01*
X154075238Y-78133333D02*
X154122857Y-78085714D01*
X154122857Y-78085714D02*
X154218095Y-78038095D01*
X154218095Y-78038095D02*
X154360952Y-78038095D01*
X154360952Y-78038095D02*
X154456190Y-78085714D01*
X154456190Y-78085714D02*
X154503809Y-78133333D01*
X154503809Y-78133333D02*
X154551428Y-78228571D01*
X154551428Y-78228571D02*
X154551428Y-78609523D01*
X155027619Y-77609523D02*
X154360952Y-77609523D01*
X154027619Y-77609523D02*
X154075238Y-77657142D01*
X154075238Y-77657142D02*
X154122857Y-77609523D01*
X154122857Y-77609523D02*
X154075238Y-77561904D01*
X154075238Y-77561904D02*
X154027619Y-77609523D01*
X154027619Y-77609523D02*
X154122857Y-77609523D01*
X155027619Y-77228571D02*
X154360952Y-76704762D01*
X154360952Y-77228571D02*
X155027619Y-76704762D01*
X154980000Y-75942857D02*
X155027619Y-76038095D01*
X155027619Y-76038095D02*
X155027619Y-76228571D01*
X155027619Y-76228571D02*
X154980000Y-76323809D01*
X154980000Y-76323809D02*
X154884761Y-76371428D01*
X154884761Y-76371428D02*
X154503809Y-76371428D01*
X154503809Y-76371428D02*
X154408571Y-76323809D01*
X154408571Y-76323809D02*
X154360952Y-76228571D01*
X154360952Y-76228571D02*
X154360952Y-76038095D01*
X154360952Y-76038095D02*
X154408571Y-75942857D01*
X154408571Y-75942857D02*
X154503809Y-75895238D01*
X154503809Y-75895238D02*
X154599047Y-75895238D01*
X154599047Y-75895238D02*
X154694285Y-76371428D01*
X155027619Y-75323809D02*
X154980000Y-75419047D01*
X154980000Y-75419047D02*
X154884761Y-75466666D01*
X154884761Y-75466666D02*
X154027619Y-75466666D01*
X154741904Y-74228570D02*
X154741904Y-73752380D01*
X155027619Y-74323808D02*
X154027619Y-73990475D01*
X154027619Y-73990475D02*
X155027619Y-73657142D01*
X154503809Y-72990475D02*
X154503809Y-73323808D01*
X155027619Y-73323808D02*
X154027619Y-73323808D01*
X154027619Y-73323808D02*
X154027619Y-72847618D01*
X154027619Y-72609522D02*
X154027619Y-72038094D01*
X155027619Y-72323808D02*
X154027619Y-72323808D01*
X153473809Y-98525238D02*
X153378571Y-98477619D01*
X153378571Y-98477619D02*
X153235714Y-98477619D01*
X153235714Y-98477619D02*
X153092857Y-98525238D01*
X153092857Y-98525238D02*
X152997619Y-98620476D01*
X152997619Y-98620476D02*
X152950000Y-98715714D01*
X152950000Y-98715714D02*
X152902381Y-98906190D01*
X152902381Y-98906190D02*
X152902381Y-99049047D01*
X152902381Y-99049047D02*
X152950000Y-99239523D01*
X152950000Y-99239523D02*
X152997619Y-99334761D01*
X152997619Y-99334761D02*
X153092857Y-99430000D01*
X153092857Y-99430000D02*
X153235714Y-99477619D01*
X153235714Y-99477619D02*
X153330952Y-99477619D01*
X153330952Y-99477619D02*
X153473809Y-99430000D01*
X153473809Y-99430000D02*
X153521428Y-99382380D01*
X153521428Y-99382380D02*
X153521428Y-99049047D01*
X153521428Y-99049047D02*
X153330952Y-99049047D01*
X153997619Y-99430000D02*
X153997619Y-99477619D01*
X153997619Y-99477619D02*
X153950000Y-99572857D01*
X153950000Y-99572857D02*
X153902381Y-99620476D01*
X154759523Y-98953809D02*
X154902380Y-99001428D01*
X154902380Y-99001428D02*
X154949999Y-99049047D01*
X154949999Y-99049047D02*
X154997618Y-99144285D01*
X154997618Y-99144285D02*
X154997618Y-99287142D01*
X154997618Y-99287142D02*
X154949999Y-99382380D01*
X154949999Y-99382380D02*
X154902380Y-99430000D01*
X154902380Y-99430000D02*
X154807142Y-99477619D01*
X154807142Y-99477619D02*
X154426190Y-99477619D01*
X154426190Y-99477619D02*
X154426190Y-98477619D01*
X154426190Y-98477619D02*
X154759523Y-98477619D01*
X154759523Y-98477619D02*
X154854761Y-98525238D01*
X154854761Y-98525238D02*
X154902380Y-98572857D01*
X154902380Y-98572857D02*
X154949999Y-98668095D01*
X154949999Y-98668095D02*
X154949999Y-98763333D01*
X154949999Y-98763333D02*
X154902380Y-98858571D01*
X154902380Y-98858571D02*
X154854761Y-98906190D01*
X154854761Y-98906190D02*
X154759523Y-98953809D01*
X154759523Y-98953809D02*
X154426190Y-98953809D01*
X116661905Y-53077619D02*
X116661905Y-52077619D01*
X116661905Y-52077619D02*
X117042857Y-52077619D01*
X117042857Y-52077619D02*
X117138095Y-52125238D01*
X117138095Y-52125238D02*
X117185714Y-52172857D01*
X117185714Y-52172857D02*
X117233333Y-52268095D01*
X117233333Y-52268095D02*
X117233333Y-52410952D01*
X117233333Y-52410952D02*
X117185714Y-52506190D01*
X117185714Y-52506190D02*
X117138095Y-52553809D01*
X117138095Y-52553809D02*
X117042857Y-52601428D01*
X117042857Y-52601428D02*
X116661905Y-52601428D01*
X117614286Y-52172857D02*
X117661905Y-52125238D01*
X117661905Y-52125238D02*
X117757143Y-52077619D01*
X117757143Y-52077619D02*
X117995238Y-52077619D01*
X117995238Y-52077619D02*
X118090476Y-52125238D01*
X118090476Y-52125238D02*
X118138095Y-52172857D01*
X118138095Y-52172857D02*
X118185714Y-52268095D01*
X118185714Y-52268095D02*
X118185714Y-52363333D01*
X118185714Y-52363333D02*
X118138095Y-52506190D01*
X118138095Y-52506190D02*
X117566667Y-53077619D01*
X117566667Y-53077619D02*
X118185714Y-53077619D01*
X134761905Y-54577619D02*
X135380952Y-54577619D01*
X135380952Y-54577619D02*
X135047619Y-54958571D01*
X135047619Y-54958571D02*
X135190476Y-54958571D01*
X135190476Y-54958571D02*
X135285714Y-55006190D01*
X135285714Y-55006190D02*
X135333333Y-55053809D01*
X135333333Y-55053809D02*
X135380952Y-55149047D01*
X135380952Y-55149047D02*
X135380952Y-55387142D01*
X135380952Y-55387142D02*
X135333333Y-55482380D01*
X135333333Y-55482380D02*
X135285714Y-55530000D01*
X135285714Y-55530000D02*
X135190476Y-55577619D01*
X135190476Y-55577619D02*
X134904762Y-55577619D01*
X134904762Y-55577619D02*
X134809524Y-55530000D01*
X134809524Y-55530000D02*
X134761905Y-55482380D01*
X135666667Y-54577619D02*
X136000000Y-55577619D01*
X136000000Y-55577619D02*
X136333333Y-54577619D01*
X136571429Y-54577619D02*
X137190476Y-54577619D01*
X137190476Y-54577619D02*
X136857143Y-54958571D01*
X136857143Y-54958571D02*
X137000000Y-54958571D01*
X137000000Y-54958571D02*
X137095238Y-55006190D01*
X137095238Y-55006190D02*
X137142857Y-55053809D01*
X137142857Y-55053809D02*
X137190476Y-55149047D01*
X137190476Y-55149047D02*
X137190476Y-55387142D01*
X137190476Y-55387142D02*
X137142857Y-55482380D01*
X137142857Y-55482380D02*
X137095238Y-55530000D01*
X137095238Y-55530000D02*
X137000000Y-55577619D01*
X137000000Y-55577619D02*
X136714286Y-55577619D01*
X136714286Y-55577619D02*
X136619048Y-55530000D01*
X136619048Y-55530000D02*
X136571429Y-55482380D01*
X102361905Y-92147857D02*
X102409524Y-92100238D01*
X102409524Y-92100238D02*
X102504762Y-92052619D01*
X102504762Y-92052619D02*
X102742857Y-92052619D01*
X102742857Y-92052619D02*
X102838095Y-92100238D01*
X102838095Y-92100238D02*
X102885714Y-92147857D01*
X102885714Y-92147857D02*
X102933333Y-92243095D01*
X102933333Y-92243095D02*
X102933333Y-92338333D01*
X102933333Y-92338333D02*
X102885714Y-92481190D01*
X102885714Y-92481190D02*
X102314286Y-93052619D01*
X102314286Y-93052619D02*
X102933333Y-93052619D01*
X103552381Y-92052619D02*
X103647619Y-92052619D01*
X103647619Y-92052619D02*
X103742857Y-92100238D01*
X103742857Y-92100238D02*
X103790476Y-92147857D01*
X103790476Y-92147857D02*
X103838095Y-92243095D01*
X103838095Y-92243095D02*
X103885714Y-92433571D01*
X103885714Y-92433571D02*
X103885714Y-92671666D01*
X103885714Y-92671666D02*
X103838095Y-92862142D01*
X103838095Y-92862142D02*
X103790476Y-92957380D01*
X103790476Y-92957380D02*
X103742857Y-93005000D01*
X103742857Y-93005000D02*
X103647619Y-93052619D01*
X103647619Y-93052619D02*
X103552381Y-93052619D01*
X103552381Y-93052619D02*
X103457143Y-93005000D01*
X103457143Y-93005000D02*
X103409524Y-92957380D01*
X103409524Y-92957380D02*
X103361905Y-92862142D01*
X103361905Y-92862142D02*
X103314286Y-92671666D01*
X103314286Y-92671666D02*
X103314286Y-92433571D01*
X103314286Y-92433571D02*
X103361905Y-92243095D01*
X103361905Y-92243095D02*
X103409524Y-92147857D01*
X103409524Y-92147857D02*
X103457143Y-92100238D01*
X103457143Y-92100238D02*
X103552381Y-92052619D01*
X104504762Y-92052619D02*
X104600000Y-92052619D01*
X104600000Y-92052619D02*
X104695238Y-92100238D01*
X104695238Y-92100238D02*
X104742857Y-92147857D01*
X104742857Y-92147857D02*
X104790476Y-92243095D01*
X104790476Y-92243095D02*
X104838095Y-92433571D01*
X104838095Y-92433571D02*
X104838095Y-92671666D01*
X104838095Y-92671666D02*
X104790476Y-92862142D01*
X104790476Y-92862142D02*
X104742857Y-92957380D01*
X104742857Y-92957380D02*
X104695238Y-93005000D01*
X104695238Y-93005000D02*
X104600000Y-93052619D01*
X104600000Y-93052619D02*
X104504762Y-93052619D01*
X104504762Y-93052619D02*
X104409524Y-93005000D01*
X104409524Y-93005000D02*
X104361905Y-92957380D01*
X104361905Y-92957380D02*
X104314286Y-92862142D01*
X104314286Y-92862142D02*
X104266667Y-92671666D01*
X104266667Y-92671666D02*
X104266667Y-92433571D01*
X104266667Y-92433571D02*
X104314286Y-92243095D01*
X104314286Y-92243095D02*
X104361905Y-92147857D01*
X104361905Y-92147857D02*
X104409524Y-92100238D01*
X104409524Y-92100238D02*
X104504762Y-92052619D01*
X102609523Y-62477619D02*
X102133333Y-62477619D01*
X102133333Y-62477619D02*
X102085714Y-62953809D01*
X102085714Y-62953809D02*
X102133333Y-62906190D01*
X102133333Y-62906190D02*
X102228571Y-62858571D01*
X102228571Y-62858571D02*
X102466666Y-62858571D01*
X102466666Y-62858571D02*
X102561904Y-62906190D01*
X102561904Y-62906190D02*
X102609523Y-62953809D01*
X102609523Y-62953809D02*
X102657142Y-63049047D01*
X102657142Y-63049047D02*
X102657142Y-63287142D01*
X102657142Y-63287142D02*
X102609523Y-63382380D01*
X102609523Y-63382380D02*
X102561904Y-63430000D01*
X102561904Y-63430000D02*
X102466666Y-63477619D01*
X102466666Y-63477619D02*
X102228571Y-63477619D01*
X102228571Y-63477619D02*
X102133333Y-63430000D01*
X102133333Y-63430000D02*
X102085714Y-63382380D01*
X102942857Y-62477619D02*
X103276190Y-63477619D01*
X103276190Y-63477619D02*
X103609523Y-62477619D01*
X163625238Y-66852380D02*
X163577619Y-66947618D01*
X163577619Y-66947618D02*
X163577619Y-67090475D01*
X163577619Y-67090475D02*
X163625238Y-67233332D01*
X163625238Y-67233332D02*
X163720476Y-67328570D01*
X163720476Y-67328570D02*
X163815714Y-67376189D01*
X163815714Y-67376189D02*
X164006190Y-67423808D01*
X164006190Y-67423808D02*
X164149047Y-67423808D01*
X164149047Y-67423808D02*
X164339523Y-67376189D01*
X164339523Y-67376189D02*
X164434761Y-67328570D01*
X164434761Y-67328570D02*
X164530000Y-67233332D01*
X164530000Y-67233332D02*
X164577619Y-67090475D01*
X164577619Y-67090475D02*
X164577619Y-66995237D01*
X164577619Y-66995237D02*
X164530000Y-66852380D01*
X164530000Y-66852380D02*
X164482380Y-66804761D01*
X164482380Y-66804761D02*
X164149047Y-66804761D01*
X164149047Y-66804761D02*
X164149047Y-66995237D01*
X164577619Y-66376189D02*
X163577619Y-66376189D01*
X163577619Y-66376189D02*
X163577619Y-65995237D01*
X163577619Y-65995237D02*
X163625238Y-65899999D01*
X163625238Y-65899999D02*
X163672857Y-65852380D01*
X163672857Y-65852380D02*
X163768095Y-65804761D01*
X163768095Y-65804761D02*
X163910952Y-65804761D01*
X163910952Y-65804761D02*
X164006190Y-65852380D01*
X164006190Y-65852380D02*
X164053809Y-65899999D01*
X164053809Y-65899999D02*
X164101428Y-65995237D01*
X164101428Y-65995237D02*
X164101428Y-66376189D01*
X164577619Y-65376189D02*
X163577619Y-65376189D01*
X163577619Y-64709523D02*
X163577619Y-64519047D01*
X163577619Y-64519047D02*
X163625238Y-64423809D01*
X163625238Y-64423809D02*
X163720476Y-64328571D01*
X163720476Y-64328571D02*
X163910952Y-64280952D01*
X163910952Y-64280952D02*
X164244285Y-64280952D01*
X164244285Y-64280952D02*
X164434761Y-64328571D01*
X164434761Y-64328571D02*
X164530000Y-64423809D01*
X164530000Y-64423809D02*
X164577619Y-64519047D01*
X164577619Y-64519047D02*
X164577619Y-64709523D01*
X164577619Y-64709523D02*
X164530000Y-64804761D01*
X164530000Y-64804761D02*
X164434761Y-64899999D01*
X164434761Y-64899999D02*
X164244285Y-64947618D01*
X164244285Y-64947618D02*
X163910952Y-64947618D01*
X163910952Y-64947618D02*
X163720476Y-64899999D01*
X163720476Y-64899999D02*
X163625238Y-64804761D01*
X163625238Y-64804761D02*
X163577619Y-64709523D01*
X163672857Y-63899999D02*
X163625238Y-63852380D01*
X163625238Y-63852380D02*
X163577619Y-63757142D01*
X163577619Y-63757142D02*
X163577619Y-63519047D01*
X163577619Y-63519047D02*
X163625238Y-63423809D01*
X163625238Y-63423809D02*
X163672857Y-63376190D01*
X163672857Y-63376190D02*
X163768095Y-63328571D01*
X163768095Y-63328571D02*
X163863333Y-63328571D01*
X163863333Y-63328571D02*
X164006190Y-63376190D01*
X164006190Y-63376190D02*
X164577619Y-63947618D01*
X164577619Y-63947618D02*
X164577619Y-63328571D01*
X164577619Y-62376190D02*
X164577619Y-62947618D01*
X164577619Y-62661904D02*
X163577619Y-62661904D01*
X163577619Y-62661904D02*
X163720476Y-62757142D01*
X163720476Y-62757142D02*
X163815714Y-62852380D01*
X163815714Y-62852380D02*
X163863333Y-62947618D01*
X163577619Y-60290476D02*
X163577619Y-60766666D01*
X163577619Y-60766666D02*
X164053809Y-60814285D01*
X164053809Y-60814285D02*
X164006190Y-60766666D01*
X164006190Y-60766666D02*
X163958571Y-60671428D01*
X163958571Y-60671428D02*
X163958571Y-60433333D01*
X163958571Y-60433333D02*
X164006190Y-60338095D01*
X164006190Y-60338095D02*
X164053809Y-60290476D01*
X164053809Y-60290476D02*
X164149047Y-60242857D01*
X164149047Y-60242857D02*
X164387142Y-60242857D01*
X164387142Y-60242857D02*
X164482380Y-60290476D01*
X164482380Y-60290476D02*
X164530000Y-60338095D01*
X164530000Y-60338095D02*
X164577619Y-60433333D01*
X164577619Y-60433333D02*
X164577619Y-60671428D01*
X164577619Y-60671428D02*
X164530000Y-60766666D01*
X164530000Y-60766666D02*
X164482380Y-60814285D01*
X163577619Y-59957142D02*
X164577619Y-59623809D01*
X164577619Y-59623809D02*
X163577619Y-59290476D01*
X116069047Y-99427619D02*
X115592857Y-99427619D01*
X115592857Y-99427619D02*
X115592857Y-98427619D01*
X116402381Y-98903809D02*
X116735714Y-98903809D01*
X116878571Y-99427619D02*
X116402381Y-99427619D01*
X116402381Y-99427619D02*
X116402381Y-98427619D01*
X116402381Y-98427619D02*
X116878571Y-98427619D01*
X117307143Y-99427619D02*
X117307143Y-98427619D01*
X117307143Y-98427619D02*
X117545238Y-98427619D01*
X117545238Y-98427619D02*
X117688095Y-98475238D01*
X117688095Y-98475238D02*
X117783333Y-98570476D01*
X117783333Y-98570476D02*
X117830952Y-98665714D01*
X117830952Y-98665714D02*
X117878571Y-98856190D01*
X117878571Y-98856190D02*
X117878571Y-98999047D01*
X117878571Y-98999047D02*
X117830952Y-99189523D01*
X117830952Y-99189523D02*
X117783333Y-99284761D01*
X117783333Y-99284761D02*
X117688095Y-99380000D01*
X117688095Y-99380000D02*
X117545238Y-99427619D01*
X117545238Y-99427619D02*
X117307143Y-99427619D01*
X118354762Y-99380000D02*
X118354762Y-99427619D01*
X118354762Y-99427619D02*
X118307143Y-99522857D01*
X118307143Y-99522857D02*
X118259524Y-99570476D01*
X119354761Y-99427619D02*
X119021428Y-98951428D01*
X118783333Y-99427619D02*
X118783333Y-98427619D01*
X118783333Y-98427619D02*
X119164285Y-98427619D01*
X119164285Y-98427619D02*
X119259523Y-98475238D01*
X119259523Y-98475238D02*
X119307142Y-98522857D01*
X119307142Y-98522857D02*
X119354761Y-98618095D01*
X119354761Y-98618095D02*
X119354761Y-98760952D01*
X119354761Y-98760952D02*
X119307142Y-98856190D01*
X119307142Y-98856190D02*
X119259523Y-98903809D01*
X119259523Y-98903809D02*
X119164285Y-98951428D01*
X119164285Y-98951428D02*
X118783333Y-98951428D01*
X102153333Y-76169048D02*
X102153333Y-76930953D01*
X101772380Y-76550000D02*
X102534285Y-76550000D01*
X107509523Y-64627619D02*
X107033333Y-64627619D01*
X107033333Y-64627619D02*
X106985714Y-65103809D01*
X106985714Y-65103809D02*
X107033333Y-65056190D01*
X107033333Y-65056190D02*
X107128571Y-65008571D01*
X107128571Y-65008571D02*
X107366666Y-65008571D01*
X107366666Y-65008571D02*
X107461904Y-65056190D01*
X107461904Y-65056190D02*
X107509523Y-65103809D01*
X107509523Y-65103809D02*
X107557142Y-65199047D01*
X107557142Y-65199047D02*
X107557142Y-65437142D01*
X107557142Y-65437142D02*
X107509523Y-65532380D01*
X107509523Y-65532380D02*
X107461904Y-65580000D01*
X107461904Y-65580000D02*
X107366666Y-65627619D01*
X107366666Y-65627619D02*
X107128571Y-65627619D01*
X107128571Y-65627619D02*
X107033333Y-65580000D01*
X107033333Y-65580000D02*
X106985714Y-65532380D01*
X107842857Y-64627619D02*
X108176190Y-65627619D01*
X108176190Y-65627619D02*
X108509523Y-64627619D01*
X129661904Y-54925238D02*
X129566666Y-54877619D01*
X129566666Y-54877619D02*
X129423809Y-54877619D01*
X129423809Y-54877619D02*
X129280952Y-54925238D01*
X129280952Y-54925238D02*
X129185714Y-55020476D01*
X129185714Y-55020476D02*
X129138095Y-55115714D01*
X129138095Y-55115714D02*
X129090476Y-55306190D01*
X129090476Y-55306190D02*
X129090476Y-55449047D01*
X129090476Y-55449047D02*
X129138095Y-55639523D01*
X129138095Y-55639523D02*
X129185714Y-55734761D01*
X129185714Y-55734761D02*
X129280952Y-55830000D01*
X129280952Y-55830000D02*
X129423809Y-55877619D01*
X129423809Y-55877619D02*
X129519047Y-55877619D01*
X129519047Y-55877619D02*
X129661904Y-55830000D01*
X129661904Y-55830000D02*
X129709523Y-55782380D01*
X129709523Y-55782380D02*
X129709523Y-55449047D01*
X129709523Y-55449047D02*
X129519047Y-55449047D01*
X152027619Y-65080952D02*
X151027619Y-65080952D01*
X151027619Y-65080952D02*
X152027619Y-64509524D01*
X152027619Y-64509524D02*
X151027619Y-64509524D01*
X151980000Y-63652381D02*
X152027619Y-63747619D01*
X152027619Y-63747619D02*
X152027619Y-63938095D01*
X152027619Y-63938095D02*
X151980000Y-64033333D01*
X151980000Y-64033333D02*
X151884761Y-64080952D01*
X151884761Y-64080952D02*
X151503809Y-64080952D01*
X151503809Y-64080952D02*
X151408571Y-64033333D01*
X151408571Y-64033333D02*
X151360952Y-63938095D01*
X151360952Y-63938095D02*
X151360952Y-63747619D01*
X151360952Y-63747619D02*
X151408571Y-63652381D01*
X151408571Y-63652381D02*
X151503809Y-63604762D01*
X151503809Y-63604762D02*
X151599047Y-63604762D01*
X151599047Y-63604762D02*
X151694285Y-64080952D01*
X152027619Y-63033333D02*
X151980000Y-63128571D01*
X151980000Y-63128571D02*
X151932380Y-63176190D01*
X151932380Y-63176190D02*
X151837142Y-63223809D01*
X151837142Y-63223809D02*
X151551428Y-63223809D01*
X151551428Y-63223809D02*
X151456190Y-63176190D01*
X151456190Y-63176190D02*
X151408571Y-63128571D01*
X151408571Y-63128571D02*
X151360952Y-63033333D01*
X151360952Y-63033333D02*
X151360952Y-62890476D01*
X151360952Y-62890476D02*
X151408571Y-62795238D01*
X151408571Y-62795238D02*
X151456190Y-62747619D01*
X151456190Y-62747619D02*
X151551428Y-62700000D01*
X151551428Y-62700000D02*
X151837142Y-62700000D01*
X151837142Y-62700000D02*
X151932380Y-62747619D01*
X151932380Y-62747619D02*
X151980000Y-62795238D01*
X151980000Y-62795238D02*
X152027619Y-62890476D01*
X152027619Y-62890476D02*
X152027619Y-63033333D01*
X152027619Y-62271428D02*
X151027619Y-62271428D01*
X151027619Y-62271428D02*
X151027619Y-61890476D01*
X151027619Y-61890476D02*
X151075238Y-61795238D01*
X151075238Y-61795238D02*
X151122857Y-61747619D01*
X151122857Y-61747619D02*
X151218095Y-61700000D01*
X151218095Y-61700000D02*
X151360952Y-61700000D01*
X151360952Y-61700000D02*
X151456190Y-61747619D01*
X151456190Y-61747619D02*
X151503809Y-61795238D01*
X151503809Y-61795238D02*
X151551428Y-61890476D01*
X151551428Y-61890476D02*
X151551428Y-62271428D01*
X152027619Y-61271428D02*
X151360952Y-61271428D01*
X151027619Y-61271428D02*
X151075238Y-61319047D01*
X151075238Y-61319047D02*
X151122857Y-61271428D01*
X151122857Y-61271428D02*
X151075238Y-61223809D01*
X151075238Y-61223809D02*
X151027619Y-61271428D01*
X151027619Y-61271428D02*
X151122857Y-61271428D01*
X152027619Y-60890476D02*
X151360952Y-60366667D01*
X151360952Y-60890476D02*
X152027619Y-60366667D01*
X151980000Y-59604762D02*
X152027619Y-59700000D01*
X152027619Y-59700000D02*
X152027619Y-59890476D01*
X152027619Y-59890476D02*
X151980000Y-59985714D01*
X151980000Y-59985714D02*
X151884761Y-60033333D01*
X151884761Y-60033333D02*
X151503809Y-60033333D01*
X151503809Y-60033333D02*
X151408571Y-59985714D01*
X151408571Y-59985714D02*
X151360952Y-59890476D01*
X151360952Y-59890476D02*
X151360952Y-59700000D01*
X151360952Y-59700000D02*
X151408571Y-59604762D01*
X151408571Y-59604762D02*
X151503809Y-59557143D01*
X151503809Y-59557143D02*
X151599047Y-59557143D01*
X151599047Y-59557143D02*
X151694285Y-60033333D01*
X152027619Y-58985714D02*
X151980000Y-59080952D01*
X151980000Y-59080952D02*
X151884761Y-59128571D01*
X151884761Y-59128571D02*
X151027619Y-59128571D01*
X151503809Y-57509523D02*
X151503809Y-57842856D01*
X152027619Y-57842856D02*
X151027619Y-57842856D01*
X151027619Y-57842856D02*
X151027619Y-57366666D01*
X151027619Y-57080951D02*
X152027619Y-56842856D01*
X152027619Y-56842856D02*
X151313333Y-56652380D01*
X151313333Y-56652380D02*
X152027619Y-56461904D01*
X152027619Y-56461904D02*
X151027619Y-56223809D01*
X152027619Y-55842856D02*
X151027619Y-55842856D01*
X151027619Y-55842856D02*
X151027619Y-55604761D01*
X151027619Y-55604761D02*
X151075238Y-55461904D01*
X151075238Y-55461904D02*
X151170476Y-55366666D01*
X151170476Y-55366666D02*
X151265714Y-55319047D01*
X151265714Y-55319047D02*
X151456190Y-55271428D01*
X151456190Y-55271428D02*
X151599047Y-55271428D01*
X151599047Y-55271428D02*
X151789523Y-55319047D01*
X151789523Y-55319047D02*
X151884761Y-55366666D01*
X151884761Y-55366666D02*
X151980000Y-55461904D01*
X151980000Y-55461904D02*
X152027619Y-55604761D01*
X152027619Y-55604761D02*
X152027619Y-55842856D01*
X163675238Y-55038095D02*
X163627619Y-55133333D01*
X163627619Y-55133333D02*
X163627619Y-55276190D01*
X163627619Y-55276190D02*
X163675238Y-55419047D01*
X163675238Y-55419047D02*
X163770476Y-55514285D01*
X163770476Y-55514285D02*
X163865714Y-55561904D01*
X163865714Y-55561904D02*
X164056190Y-55609523D01*
X164056190Y-55609523D02*
X164199047Y-55609523D01*
X164199047Y-55609523D02*
X164389523Y-55561904D01*
X164389523Y-55561904D02*
X164484761Y-55514285D01*
X164484761Y-55514285D02*
X164580000Y-55419047D01*
X164580000Y-55419047D02*
X164627619Y-55276190D01*
X164627619Y-55276190D02*
X164627619Y-55180952D01*
X164627619Y-55180952D02*
X164580000Y-55038095D01*
X164580000Y-55038095D02*
X164532380Y-54990476D01*
X164532380Y-54990476D02*
X164199047Y-54990476D01*
X164199047Y-54990476D02*
X164199047Y-55180952D01*
X145561904Y-58125238D02*
X145466666Y-58077619D01*
X145466666Y-58077619D02*
X145323809Y-58077619D01*
X145323809Y-58077619D02*
X145180952Y-58125238D01*
X145180952Y-58125238D02*
X145085714Y-58220476D01*
X145085714Y-58220476D02*
X145038095Y-58315714D01*
X145038095Y-58315714D02*
X144990476Y-58506190D01*
X144990476Y-58506190D02*
X144990476Y-58649047D01*
X144990476Y-58649047D02*
X145038095Y-58839523D01*
X145038095Y-58839523D02*
X145085714Y-58934761D01*
X145085714Y-58934761D02*
X145180952Y-59030000D01*
X145180952Y-59030000D02*
X145323809Y-59077619D01*
X145323809Y-59077619D02*
X145419047Y-59077619D01*
X145419047Y-59077619D02*
X145561904Y-59030000D01*
X145561904Y-59030000D02*
X145609523Y-58982380D01*
X145609523Y-58982380D02*
X145609523Y-58649047D01*
X145609523Y-58649047D02*
X145419047Y-58649047D01*
X161025238Y-66802380D02*
X160977619Y-66897618D01*
X160977619Y-66897618D02*
X160977619Y-67040475D01*
X160977619Y-67040475D02*
X161025238Y-67183332D01*
X161025238Y-67183332D02*
X161120476Y-67278570D01*
X161120476Y-67278570D02*
X161215714Y-67326189D01*
X161215714Y-67326189D02*
X161406190Y-67373808D01*
X161406190Y-67373808D02*
X161549047Y-67373808D01*
X161549047Y-67373808D02*
X161739523Y-67326189D01*
X161739523Y-67326189D02*
X161834761Y-67278570D01*
X161834761Y-67278570D02*
X161930000Y-67183332D01*
X161930000Y-67183332D02*
X161977619Y-67040475D01*
X161977619Y-67040475D02*
X161977619Y-66945237D01*
X161977619Y-66945237D02*
X161930000Y-66802380D01*
X161930000Y-66802380D02*
X161882380Y-66754761D01*
X161882380Y-66754761D02*
X161549047Y-66754761D01*
X161549047Y-66754761D02*
X161549047Y-66945237D01*
X161977619Y-66326189D02*
X160977619Y-66326189D01*
X160977619Y-66326189D02*
X160977619Y-65945237D01*
X160977619Y-65945237D02*
X161025238Y-65849999D01*
X161025238Y-65849999D02*
X161072857Y-65802380D01*
X161072857Y-65802380D02*
X161168095Y-65754761D01*
X161168095Y-65754761D02*
X161310952Y-65754761D01*
X161310952Y-65754761D02*
X161406190Y-65802380D01*
X161406190Y-65802380D02*
X161453809Y-65849999D01*
X161453809Y-65849999D02*
X161501428Y-65945237D01*
X161501428Y-65945237D02*
X161501428Y-66326189D01*
X161977619Y-65326189D02*
X160977619Y-65326189D01*
X160977619Y-64659523D02*
X160977619Y-64469047D01*
X160977619Y-64469047D02*
X161025238Y-64373809D01*
X161025238Y-64373809D02*
X161120476Y-64278571D01*
X161120476Y-64278571D02*
X161310952Y-64230952D01*
X161310952Y-64230952D02*
X161644285Y-64230952D01*
X161644285Y-64230952D02*
X161834761Y-64278571D01*
X161834761Y-64278571D02*
X161930000Y-64373809D01*
X161930000Y-64373809D02*
X161977619Y-64469047D01*
X161977619Y-64469047D02*
X161977619Y-64659523D01*
X161977619Y-64659523D02*
X161930000Y-64754761D01*
X161930000Y-64754761D02*
X161834761Y-64849999D01*
X161834761Y-64849999D02*
X161644285Y-64897618D01*
X161644285Y-64897618D02*
X161310952Y-64897618D01*
X161310952Y-64897618D02*
X161120476Y-64849999D01*
X161120476Y-64849999D02*
X161025238Y-64754761D01*
X161025238Y-64754761D02*
X160977619Y-64659523D01*
X161072857Y-63849999D02*
X161025238Y-63802380D01*
X161025238Y-63802380D02*
X160977619Y-63707142D01*
X160977619Y-63707142D02*
X160977619Y-63469047D01*
X160977619Y-63469047D02*
X161025238Y-63373809D01*
X161025238Y-63373809D02*
X161072857Y-63326190D01*
X161072857Y-63326190D02*
X161168095Y-63278571D01*
X161168095Y-63278571D02*
X161263333Y-63278571D01*
X161263333Y-63278571D02*
X161406190Y-63326190D01*
X161406190Y-63326190D02*
X161977619Y-63897618D01*
X161977619Y-63897618D02*
X161977619Y-63278571D01*
X161977619Y-62326190D02*
X161977619Y-62897618D01*
X161977619Y-62611904D02*
X160977619Y-62611904D01*
X160977619Y-62611904D02*
X161120476Y-62707142D01*
X161120476Y-62707142D02*
X161215714Y-62802380D01*
X161215714Y-62802380D02*
X161263333Y-62897618D01*
X119977619Y-81423809D02*
X119977619Y-81995237D01*
X119977619Y-81709523D02*
X118977619Y-81709523D01*
X118977619Y-81709523D02*
X119120476Y-81804761D01*
X119120476Y-81804761D02*
X119215714Y-81899999D01*
X119215714Y-81899999D02*
X119263333Y-81995237D01*
X118977619Y-80804761D02*
X118977619Y-80709523D01*
X118977619Y-80709523D02*
X119025238Y-80614285D01*
X119025238Y-80614285D02*
X119072857Y-80566666D01*
X119072857Y-80566666D02*
X119168095Y-80519047D01*
X119168095Y-80519047D02*
X119358571Y-80471428D01*
X119358571Y-80471428D02*
X119596666Y-80471428D01*
X119596666Y-80471428D02*
X119787142Y-80519047D01*
X119787142Y-80519047D02*
X119882380Y-80566666D01*
X119882380Y-80566666D02*
X119930000Y-80614285D01*
X119930000Y-80614285D02*
X119977619Y-80709523D01*
X119977619Y-80709523D02*
X119977619Y-80804761D01*
X119977619Y-80804761D02*
X119930000Y-80899999D01*
X119930000Y-80899999D02*
X119882380Y-80947618D01*
X119882380Y-80947618D02*
X119787142Y-80995237D01*
X119787142Y-80995237D02*
X119596666Y-81042856D01*
X119596666Y-81042856D02*
X119358571Y-81042856D01*
X119358571Y-81042856D02*
X119168095Y-80995237D01*
X119168095Y-80995237D02*
X119072857Y-80947618D01*
X119072857Y-80947618D02*
X119025238Y-80899999D01*
X119025238Y-80899999D02*
X118977619Y-80804761D01*
X118977619Y-79852380D02*
X118977619Y-79757142D01*
X118977619Y-79757142D02*
X119025238Y-79661904D01*
X119025238Y-79661904D02*
X119072857Y-79614285D01*
X119072857Y-79614285D02*
X119168095Y-79566666D01*
X119168095Y-79566666D02*
X119358571Y-79519047D01*
X119358571Y-79519047D02*
X119596666Y-79519047D01*
X119596666Y-79519047D02*
X119787142Y-79566666D01*
X119787142Y-79566666D02*
X119882380Y-79614285D01*
X119882380Y-79614285D02*
X119930000Y-79661904D01*
X119930000Y-79661904D02*
X119977619Y-79757142D01*
X119977619Y-79757142D02*
X119977619Y-79852380D01*
X119977619Y-79852380D02*
X119930000Y-79947618D01*
X119930000Y-79947618D02*
X119882380Y-79995237D01*
X119882380Y-79995237D02*
X119787142Y-80042856D01*
X119787142Y-80042856D02*
X119596666Y-80090475D01*
X119596666Y-80090475D02*
X119358571Y-80090475D01*
X119358571Y-80090475D02*
X119168095Y-80042856D01*
X119168095Y-80042856D02*
X119072857Y-79995237D01*
X119072857Y-79995237D02*
X119025238Y-79947618D01*
X119025238Y-79947618D02*
X118977619Y-79852380D01*
X118977619Y-78899999D02*
X118977619Y-78804761D01*
X118977619Y-78804761D02*
X119025238Y-78709523D01*
X119025238Y-78709523D02*
X119072857Y-78661904D01*
X119072857Y-78661904D02*
X119168095Y-78614285D01*
X119168095Y-78614285D02*
X119358571Y-78566666D01*
X119358571Y-78566666D02*
X119596666Y-78566666D01*
X119596666Y-78566666D02*
X119787142Y-78614285D01*
X119787142Y-78614285D02*
X119882380Y-78661904D01*
X119882380Y-78661904D02*
X119930000Y-78709523D01*
X119930000Y-78709523D02*
X119977619Y-78804761D01*
X119977619Y-78804761D02*
X119977619Y-78899999D01*
X119977619Y-78899999D02*
X119930000Y-78995237D01*
X119930000Y-78995237D02*
X119882380Y-79042856D01*
X119882380Y-79042856D02*
X119787142Y-79090475D01*
X119787142Y-79090475D02*
X119596666Y-79138094D01*
X119596666Y-79138094D02*
X119358571Y-79138094D01*
X119358571Y-79138094D02*
X119168095Y-79090475D01*
X119168095Y-79090475D02*
X119072857Y-79042856D01*
X119072857Y-79042856D02*
X119025238Y-78995237D01*
X119025238Y-78995237D02*
X118977619Y-78899999D01*
X119310952Y-77709523D02*
X119977619Y-77709523D01*
X119310952Y-78138094D02*
X119834761Y-78138094D01*
X119834761Y-78138094D02*
X119930000Y-78090475D01*
X119930000Y-78090475D02*
X119977619Y-77995237D01*
X119977619Y-77995237D02*
X119977619Y-77852380D01*
X119977619Y-77852380D02*
X119930000Y-77757142D01*
X119930000Y-77757142D02*
X119882380Y-77709523D01*
X119453809Y-76899999D02*
X119453809Y-77233332D01*
X119977619Y-77233332D02*
X118977619Y-77233332D01*
X118977619Y-77233332D02*
X118977619Y-76757142D01*
X104559523Y-67727619D02*
X104083333Y-67727619D01*
X104083333Y-67727619D02*
X104035714Y-68203809D01*
X104035714Y-68203809D02*
X104083333Y-68156190D01*
X104083333Y-68156190D02*
X104178571Y-68108571D01*
X104178571Y-68108571D02*
X104416666Y-68108571D01*
X104416666Y-68108571D02*
X104511904Y-68156190D01*
X104511904Y-68156190D02*
X104559523Y-68203809D01*
X104559523Y-68203809D02*
X104607142Y-68299047D01*
X104607142Y-68299047D02*
X104607142Y-68537142D01*
X104607142Y-68537142D02*
X104559523Y-68632380D01*
X104559523Y-68632380D02*
X104511904Y-68680000D01*
X104511904Y-68680000D02*
X104416666Y-68727619D01*
X104416666Y-68727619D02*
X104178571Y-68727619D01*
X104178571Y-68727619D02*
X104083333Y-68680000D01*
X104083333Y-68680000D02*
X104035714Y-68632380D01*
X104892857Y-67727619D02*
X105226190Y-68727619D01*
X105226190Y-68727619D02*
X105559523Y-67727619D01*
X163575238Y-71738095D02*
X163527619Y-71833333D01*
X163527619Y-71833333D02*
X163527619Y-71976190D01*
X163527619Y-71976190D02*
X163575238Y-72119047D01*
X163575238Y-72119047D02*
X163670476Y-72214285D01*
X163670476Y-72214285D02*
X163765714Y-72261904D01*
X163765714Y-72261904D02*
X163956190Y-72309523D01*
X163956190Y-72309523D02*
X164099047Y-72309523D01*
X164099047Y-72309523D02*
X164289523Y-72261904D01*
X164289523Y-72261904D02*
X164384761Y-72214285D01*
X164384761Y-72214285D02*
X164480000Y-72119047D01*
X164480000Y-72119047D02*
X164527619Y-71976190D01*
X164527619Y-71976190D02*
X164527619Y-71880952D01*
X164527619Y-71880952D02*
X164480000Y-71738095D01*
X164480000Y-71738095D02*
X164432380Y-71690476D01*
X164432380Y-71690476D02*
X164099047Y-71690476D01*
X164099047Y-71690476D02*
X164099047Y-71880952D01*
X164377619Y-91309523D02*
X164377619Y-91785713D01*
X164377619Y-91785713D02*
X163377619Y-91785713D01*
X163853809Y-90976189D02*
X163853809Y-90642856D01*
X164377619Y-90499999D02*
X164377619Y-90976189D01*
X164377619Y-90976189D02*
X163377619Y-90976189D01*
X163377619Y-90976189D02*
X163377619Y-90499999D01*
X164377619Y-90071427D02*
X163377619Y-90071427D01*
X163377619Y-90071427D02*
X163377619Y-89833332D01*
X163377619Y-89833332D02*
X163425238Y-89690475D01*
X163425238Y-89690475D02*
X163520476Y-89595237D01*
X163520476Y-89595237D02*
X163615714Y-89547618D01*
X163615714Y-89547618D02*
X163806190Y-89499999D01*
X163806190Y-89499999D02*
X163949047Y-89499999D01*
X163949047Y-89499999D02*
X164139523Y-89547618D01*
X164139523Y-89547618D02*
X164234761Y-89595237D01*
X164234761Y-89595237D02*
X164330000Y-89690475D01*
X164330000Y-89690475D02*
X164377619Y-89833332D01*
X164377619Y-89833332D02*
X164377619Y-90071427D01*
X163996666Y-89071427D02*
X163996666Y-88309523D01*
X164330000Y-87880951D02*
X164377619Y-87738094D01*
X164377619Y-87738094D02*
X164377619Y-87499999D01*
X164377619Y-87499999D02*
X164330000Y-87404761D01*
X164330000Y-87404761D02*
X164282380Y-87357142D01*
X164282380Y-87357142D02*
X164187142Y-87309523D01*
X164187142Y-87309523D02*
X164091904Y-87309523D01*
X164091904Y-87309523D02*
X163996666Y-87357142D01*
X163996666Y-87357142D02*
X163949047Y-87404761D01*
X163949047Y-87404761D02*
X163901428Y-87499999D01*
X163901428Y-87499999D02*
X163853809Y-87690475D01*
X163853809Y-87690475D02*
X163806190Y-87785713D01*
X163806190Y-87785713D02*
X163758571Y-87833332D01*
X163758571Y-87833332D02*
X163663333Y-87880951D01*
X163663333Y-87880951D02*
X163568095Y-87880951D01*
X163568095Y-87880951D02*
X163472857Y-87833332D01*
X163472857Y-87833332D02*
X163425238Y-87785713D01*
X163425238Y-87785713D02*
X163377619Y-87690475D01*
X163377619Y-87690475D02*
X163377619Y-87452380D01*
X163377619Y-87452380D02*
X163425238Y-87309523D01*
X163377619Y-86976189D02*
X164377619Y-86738094D01*
X164377619Y-86738094D02*
X163663333Y-86547618D01*
X163663333Y-86547618D02*
X164377619Y-86357142D01*
X164377619Y-86357142D02*
X163377619Y-86119047D01*
X142497619Y-99332380D02*
X142450000Y-99380000D01*
X142450000Y-99380000D02*
X142307143Y-99427619D01*
X142307143Y-99427619D02*
X142211905Y-99427619D01*
X142211905Y-99427619D02*
X142069048Y-99380000D01*
X142069048Y-99380000D02*
X141973810Y-99284761D01*
X141973810Y-99284761D02*
X141926191Y-99189523D01*
X141926191Y-99189523D02*
X141878572Y-98999047D01*
X141878572Y-98999047D02*
X141878572Y-98856190D01*
X141878572Y-98856190D02*
X141926191Y-98665714D01*
X141926191Y-98665714D02*
X141973810Y-98570476D01*
X141973810Y-98570476D02*
X142069048Y-98475238D01*
X142069048Y-98475238D02*
X142211905Y-98427619D01*
X142211905Y-98427619D02*
X142307143Y-98427619D01*
X142307143Y-98427619D02*
X142450000Y-98475238D01*
X142450000Y-98475238D02*
X142497619Y-98522857D01*
X143116667Y-98427619D02*
X143307143Y-98427619D01*
X143307143Y-98427619D02*
X143402381Y-98475238D01*
X143402381Y-98475238D02*
X143497619Y-98570476D01*
X143497619Y-98570476D02*
X143545238Y-98760952D01*
X143545238Y-98760952D02*
X143545238Y-99094285D01*
X143545238Y-99094285D02*
X143497619Y-99284761D01*
X143497619Y-99284761D02*
X143402381Y-99380000D01*
X143402381Y-99380000D02*
X143307143Y-99427619D01*
X143307143Y-99427619D02*
X143116667Y-99427619D01*
X143116667Y-99427619D02*
X143021429Y-99380000D01*
X143021429Y-99380000D02*
X142926191Y-99284761D01*
X142926191Y-99284761D02*
X142878572Y-99094285D01*
X142878572Y-99094285D02*
X142878572Y-98760952D01*
X142878572Y-98760952D02*
X142926191Y-98570476D01*
X142926191Y-98570476D02*
X143021429Y-98475238D01*
X143021429Y-98475238D02*
X143116667Y-98427619D01*
X143973810Y-99427619D02*
X143973810Y-98427619D01*
X143973810Y-98427619D02*
X144307143Y-99141904D01*
X144307143Y-99141904D02*
X144640476Y-98427619D01*
X144640476Y-98427619D02*
X144640476Y-99427619D01*
X145164286Y-99380000D02*
X145164286Y-99427619D01*
X145164286Y-99427619D02*
X145116667Y-99522857D01*
X145116667Y-99522857D02*
X145069048Y-99570476D01*
X145783333Y-98951428D02*
X145783333Y-99427619D01*
X145450000Y-98427619D02*
X145783333Y-98951428D01*
X145783333Y-98951428D02*
X146116666Y-98427619D01*
D10*
%TO.C,J1*%
X101395000Y-61830000D02*
X101395000Y-60500000D01*
X102725000Y-61830000D02*
X101395000Y-61830000D01*
X103995000Y-61830000D02*
X106595000Y-61830000D01*
X103995000Y-61830000D02*
X103995000Y-59170000D01*
X106595000Y-61830000D02*
X106595000Y-59170000D01*
X103995000Y-59170000D02*
X106595000Y-59170000D01*
%TO.C,SW2*%
X113170000Y-51395000D02*
X114500000Y-51395000D01*
X113170000Y-52725000D02*
X113170000Y-51395000D01*
X113170000Y-53995000D02*
X113170000Y-56595000D01*
X113170000Y-53995000D02*
X115830000Y-53995000D01*
X113170000Y-56595000D02*
X115830000Y-56595000D01*
X115830000Y-53995000D02*
X115830000Y-56595000D01*
%TO.C,JP1*%
X103550000Y-67450000D02*
X103550000Y-70250000D01*
X101550000Y-67450000D02*
X103550000Y-67450000D01*
X103550000Y-70250000D02*
X101550000Y-70250000D01*
X101550000Y-70250000D02*
X101550000Y-67450000D01*
%TO.C,D2*%
X100940000Y-85865000D02*
X100940000Y-88135000D01*
X100940000Y-88135000D02*
X105000000Y-88135000D01*
X105000000Y-85865000D02*
X100940000Y-85865000D01*
%TO.C,D1*%
X107540000Y-85865000D02*
X107540000Y-88135000D01*
X107540000Y-88135000D02*
X111600000Y-88135000D01*
X111600000Y-85865000D02*
X107540000Y-85865000D01*
%TO.C,J6*%
X162310000Y-68100000D02*
X163050000Y-68100000D01*
X163050000Y-68100000D02*
X163050000Y-67600000D01*
X152889000Y-67860000D02*
X162810000Y-67860000D01*
X152889000Y-67860000D02*
X152889000Y-52740000D01*
X155849000Y-67860000D02*
X155849000Y-52740000D01*
X160750000Y-67860000D02*
X160750000Y-52740000D01*
X162250000Y-67860000D02*
X162250000Y-52740000D01*
X162810000Y-67860000D02*
X162810000Y-52740000D01*
X159173000Y-61527000D02*
X159219000Y-61574000D01*
X159389000Y-61334000D02*
X159424000Y-61369000D01*
X156875000Y-59230000D02*
X156911000Y-59265000D01*
X157081000Y-59025000D02*
X157127000Y-59072000D01*
X159173000Y-56527000D02*
X159219000Y-56574000D01*
X159389000Y-56334000D02*
X159424000Y-56369000D01*
X156875000Y-54230000D02*
X156911000Y-54265000D01*
X157081000Y-54025000D02*
X157127000Y-54072000D01*
X152889000Y-52740000D02*
X162810000Y-52740000D01*
X157466001Y-66834999D02*
G75*
G03*
X158833042Y-66835426I684000J1534992D01*
G01*
X156615001Y-64616001D02*
G75*
G03*
X156614574Y-65983042I1534992J-684000D01*
G01*
X159684999Y-65984000D02*
G75*
G03*
X159830252Y-65271195I-1535000J683999D01*
G01*
X159829999Y-65300000D02*
G75*
G03*
X159684755Y-64616682I-1679999J0D01*
G01*
X158834000Y-63765000D02*
G75*
G03*
X157466958Y-63764574I-684000J-1535000D01*
G01*
X159830000Y-60300000D02*
G75*
G03*
X159830000Y-60300000I-1680000J0D01*
G01*
X159830000Y-55300000D02*
G75*
G03*
X159830000Y-55300000I-1680000J0D01*
G01*
%TO.C,TP2*%
X136700000Y-53200000D02*
G75*
G03*
X136700000Y-53200000I-700000J0D01*
G01*
%TO.C,R1*%
X122590000Y-54277064D02*
X122590000Y-52822936D01*
X124410000Y-54277064D02*
X124410000Y-52822936D01*
%TO.C,J10*%
X146470000Y-52090000D02*
X147800000Y-52090000D01*
X146470000Y-53420000D02*
X146470000Y-52090000D01*
X146470000Y-54690000D02*
X146470000Y-59830000D01*
X146470000Y-54690000D02*
X149130000Y-54690000D01*
X146470000Y-59830000D02*
X149130000Y-59830000D01*
X149130000Y-54690000D02*
X149130000Y-59830000D01*
%TO.C,J8*%
X114550000Y-96960000D02*
X114550000Y-97700000D01*
X114550000Y-97700000D02*
X115050000Y-97700000D01*
X114790000Y-87539000D02*
X114790000Y-97460000D01*
X114790000Y-87539000D02*
X134911000Y-87539000D01*
X114790000Y-90499000D02*
X134911000Y-90499000D01*
X114790000Y-95400000D02*
X134911000Y-95400000D01*
X114790000Y-96900000D02*
X134911000Y-96900000D01*
X114790000Y-97460000D02*
X134911000Y-97460000D01*
X121123000Y-93823000D02*
X121076000Y-93869000D01*
X121316000Y-94039000D02*
X121281000Y-94074000D01*
X123420000Y-91525000D02*
X123385000Y-91561000D01*
X123625000Y-91731000D02*
X123578000Y-91777000D01*
X126123000Y-93823000D02*
X126076000Y-93869000D01*
X126316000Y-94039000D02*
X126281000Y-94074000D01*
X128420000Y-91525000D02*
X128385000Y-91561000D01*
X128625000Y-91731000D02*
X128578000Y-91777000D01*
X131123000Y-93823000D02*
X131076000Y-93869000D01*
X131316000Y-94039000D02*
X131281000Y-94074000D01*
X133420000Y-91525000D02*
X133385000Y-91561000D01*
X133625000Y-91731000D02*
X133578000Y-91777000D01*
X134911000Y-87539000D02*
X134911000Y-97460000D01*
X115815001Y-92116001D02*
G75*
G03*
X115814574Y-93483042I1534992J-684000D01*
G01*
X118033999Y-91265001D02*
G75*
G03*
X116666958Y-91264574I-684000J-1534992D01*
G01*
X116666000Y-94334999D02*
G75*
G03*
X117378805Y-94480252I683999J1535000D01*
G01*
X117350000Y-94479999D02*
G75*
G03*
X118033318Y-94334755I0J1679999D01*
G01*
X118885000Y-93484000D02*
G75*
G03*
X118885426Y-92116958I-1535000J684000D01*
G01*
X124030000Y-92800000D02*
G75*
G03*
X124030000Y-92800000I-1680000J0D01*
G01*
X129030000Y-92800000D02*
G75*
G03*
X129030000Y-92800000I-1680000J0D01*
G01*
X134030000Y-92800000D02*
G75*
G03*
X134030000Y-92800000I-1680000J0D01*
G01*
%TO.C,R5*%
X116272936Y-59590000D02*
X117727064Y-59590000D01*
X116272936Y-61410000D02*
X117727064Y-61410000D01*
%TO.C,R3*%
X109372936Y-89790000D02*
X110827064Y-89790000D01*
X109372936Y-91610000D02*
X110827064Y-91610000D01*
%TO.C,TP4*%
X130810000Y-59440000D02*
G75*
G03*
X130810000Y-59440000I-700000J0D01*
G01*
%TO.C,J2*%
X101340000Y-73700000D02*
X100600000Y-73700000D01*
X100600000Y-73700000D02*
X100600000Y-74200000D01*
X110761000Y-73940000D02*
X100840000Y-73940000D01*
X110761000Y-73940000D02*
X110761000Y-84060000D01*
X107801000Y-73940000D02*
X107801000Y-84060000D01*
X102900000Y-73940000D02*
X102900000Y-84060000D01*
X101400000Y-73940000D02*
X101400000Y-84060000D01*
X100840000Y-73940000D02*
X100840000Y-84060000D01*
X104477000Y-80273000D02*
X104431000Y-80226000D01*
X104261000Y-80466000D02*
X104226000Y-80431000D01*
X106775000Y-82570000D02*
X106739000Y-82535000D01*
X106569000Y-82775000D02*
X106523000Y-82728000D01*
X110761000Y-84060000D02*
X100840000Y-84060000D01*
X106183999Y-74965001D02*
G75*
G03*
X104816958Y-74964574I-684000J-1534992D01*
G01*
X107034999Y-77183999D02*
G75*
G03*
X107035426Y-75816958I-1534992J684000D01*
G01*
X103965001Y-75816000D02*
G75*
G03*
X103819748Y-76528805I1535000J-683999D01*
G01*
X103820001Y-76500000D02*
G75*
G03*
X103965245Y-77183318I1679999J0D01*
G01*
X104816000Y-78035000D02*
G75*
G03*
X106183042Y-78035426I684000J1535000D01*
G01*
X107180000Y-81500000D02*
G75*
G03*
X107180000Y-81500000I-1680000J0D01*
G01*
%TO.C,TP3*%
X113200000Y-71600000D02*
G75*
G03*
X113200000Y-71600000I-700000J0D01*
G01*
%TO.C,G\u002A\u002A\u002A*%
G36*
X102297586Y-48577857D02*
G01*
X102297572Y-48699796D01*
X102297530Y-48818180D01*
X102297461Y-48932356D01*
X102297368Y-49041668D01*
X102297252Y-49145460D01*
X102297113Y-49243079D01*
X102296955Y-49333868D01*
X102296777Y-49417173D01*
X102296582Y-49492339D01*
X102296371Y-49558711D01*
X102296145Y-49615633D01*
X102295906Y-49662452D01*
X102295656Y-49698511D01*
X102295396Y-49723155D01*
X102295126Y-49735731D01*
X102294992Y-49737289D01*
X102289045Y-49733563D01*
X102275241Y-49723569D01*
X102255995Y-49709078D01*
X102244439Y-49700200D01*
X102122304Y-49598652D01*
X102004306Y-49486520D01*
X101892671Y-49366124D01*
X101789623Y-49239786D01*
X101744980Y-49179281D01*
X101662905Y-49054899D01*
X101587030Y-48921234D01*
X101518671Y-48781098D01*
X101459140Y-48637303D01*
X101409752Y-48492662D01*
X101387443Y-48413974D01*
X101369701Y-48346310D01*
X101833644Y-47882367D01*
X102297586Y-47418425D01*
X102297586Y-48577857D01*
G37*
G36*
X102160606Y-47353185D02*
G01*
X102074407Y-47439365D01*
X101990683Y-47523031D01*
X101909899Y-47603718D01*
X101832522Y-47680962D01*
X101759018Y-47754300D01*
X101689853Y-47823268D01*
X101625493Y-47887401D01*
X101566403Y-47946236D01*
X101513050Y-47999309D01*
X101465899Y-48046157D01*
X101425418Y-48086314D01*
X101392071Y-48119318D01*
X101366324Y-48144705D01*
X101348644Y-48162010D01*
X101339497Y-48170770D01*
X101338276Y-48171803D01*
X101336388Y-48165662D01*
X101333469Y-48148629D01*
X101329818Y-48122791D01*
X101325732Y-48090234D01*
X101322190Y-48059284D01*
X101316445Y-47993209D01*
X101312566Y-47918921D01*
X101310556Y-47839903D01*
X101310419Y-47759635D01*
X101312157Y-47681599D01*
X101315774Y-47609277D01*
X101321274Y-47546149D01*
X101321708Y-47542348D01*
X101348020Y-47366222D01*
X101385424Y-47196466D01*
X101434249Y-47032077D01*
X101494821Y-46872057D01*
X101567468Y-46715403D01*
X101630854Y-46598164D01*
X101667368Y-46534566D01*
X102323287Y-46534566D01*
X102979205Y-46534566D01*
X102160606Y-47353185D01*
G37*
G36*
X103259440Y-49345650D02*
G01*
X103345576Y-49431802D01*
X103429180Y-49515458D01*
X103509791Y-49596154D01*
X103586945Y-49673426D01*
X103660179Y-49746807D01*
X103729032Y-49815835D01*
X103793040Y-49880045D01*
X103851740Y-49938972D01*
X103904671Y-49992151D01*
X103951369Y-50039118D01*
X103991372Y-50079409D01*
X104024217Y-50112559D01*
X104049442Y-50138103D01*
X104066583Y-50155578D01*
X104075179Y-50164517D01*
X104076134Y-50165640D01*
X104069417Y-50167075D01*
X104052272Y-50169796D01*
X104027210Y-50173428D01*
X103996743Y-50177595D01*
X103993235Y-50178061D01*
X103950614Y-50182499D01*
X103897823Y-50186091D01*
X103837630Y-50188809D01*
X103772806Y-50190623D01*
X103706119Y-50191504D01*
X103640338Y-50191422D01*
X103578233Y-50190349D01*
X103522571Y-50188254D01*
X103476123Y-50185109D01*
X103461916Y-50183684D01*
X103286055Y-50158315D01*
X103117127Y-50122322D01*
X102954017Y-50075349D01*
X102795612Y-50017039D01*
X102640796Y-49947036D01*
X102517733Y-49881783D01*
X102441089Y-49838447D01*
X102441089Y-49182883D01*
X102441089Y-48527318D01*
X103259440Y-49345650D01*
G37*
G36*
X103619130Y-45928607D02*
G01*
X104081481Y-46390991D01*
X102925358Y-46392658D01*
X102803595Y-46392810D01*
X102685388Y-46392912D01*
X102571392Y-46392965D01*
X102462262Y-46392971D01*
X102358656Y-46392930D01*
X102261228Y-46392845D01*
X102170635Y-46392717D01*
X102087533Y-46392547D01*
X102012577Y-46392337D01*
X101946424Y-46392089D01*
X101889729Y-46391803D01*
X101843149Y-46391481D01*
X101807340Y-46391124D01*
X101782956Y-46390735D01*
X101770656Y-46390315D01*
X101769235Y-46390107D01*
X101773207Y-46382652D01*
X101784181Y-46367034D01*
X101800746Y-46345060D01*
X101821490Y-46318536D01*
X101845001Y-46289269D01*
X101869868Y-46259066D01*
X101893373Y-46231254D01*
X101927876Y-46192814D01*
X101969948Y-46148776D01*
X102016961Y-46101678D01*
X102066286Y-46054057D01*
X102115293Y-46008448D01*
X102161353Y-45967390D01*
X102201836Y-45933419D01*
X102203022Y-45932467D01*
X102338674Y-45831768D01*
X102482491Y-45740056D01*
X102632826Y-45658167D01*
X102788035Y-45586934D01*
X102946470Y-45527192D01*
X103084309Y-45485572D01*
X103156780Y-45466222D01*
X103619130Y-45928607D01*
G37*
G36*
X105120352Y-45868495D02*
G01*
X105141656Y-45882340D01*
X105170446Y-45904302D01*
X105205246Y-45933014D01*
X105244580Y-45967115D01*
X105286972Y-46005239D01*
X105330946Y-46046022D01*
X105375025Y-46088101D01*
X105417734Y-46130110D01*
X105457596Y-46170688D01*
X105493135Y-46208468D01*
X105516115Y-46234206D01*
X105622244Y-46366317D01*
X105719396Y-46507184D01*
X105806866Y-46655479D01*
X105883954Y-46809874D01*
X105949956Y-46969038D01*
X106004169Y-47131645D01*
X106019335Y-47185770D01*
X106037335Y-47253178D01*
X105573136Y-47717377D01*
X105108937Y-48181576D01*
X105108937Y-47021915D01*
X105108941Y-46877522D01*
X105108958Y-46745615D01*
X105108993Y-46625636D01*
X105109052Y-46517026D01*
X105109140Y-46419224D01*
X105109263Y-46331672D01*
X105109425Y-46253811D01*
X105109634Y-46185082D01*
X105109894Y-46124925D01*
X105110210Y-46072781D01*
X105110589Y-46028091D01*
X105111036Y-45990296D01*
X105111557Y-45958837D01*
X105112156Y-45933155D01*
X105112840Y-45912690D01*
X105113614Y-45896883D01*
X105114483Y-45885176D01*
X105115454Y-45877008D01*
X105116531Y-45871822D01*
X105117720Y-45869056D01*
X105119027Y-45868154D01*
X105120352Y-45868495D01*
G37*
G36*
X103774603Y-45406456D02*
G01*
X103853171Y-45409312D01*
X103898947Y-45412649D01*
X104074147Y-45434115D01*
X104242453Y-45466191D01*
X104405046Y-45509241D01*
X104563112Y-45563632D01*
X104717831Y-45629727D01*
X104870388Y-45707892D01*
X104888791Y-45718205D01*
X104965434Y-45761553D01*
X104965434Y-46415497D01*
X104965418Y-46506650D01*
X104965372Y-46594033D01*
X104965297Y-46676771D01*
X104965196Y-46753995D01*
X104965071Y-46824830D01*
X104964924Y-46888406D01*
X104964757Y-46943849D01*
X104964574Y-46990288D01*
X104964375Y-47026851D01*
X104964162Y-47052665D01*
X104963940Y-47066858D01*
X104963794Y-47069441D01*
X104959085Y-47064904D01*
X104945618Y-47051605D01*
X104923859Y-47030007D01*
X104894272Y-47000574D01*
X104857321Y-46963770D01*
X104813472Y-46920058D01*
X104763190Y-46869903D01*
X104706939Y-46813768D01*
X104645184Y-46752118D01*
X104578390Y-46685417D01*
X104507022Y-46614127D01*
X104431544Y-46538714D01*
X104352422Y-46459641D01*
X104270121Y-46377372D01*
X104185104Y-46292371D01*
X104144410Y-46251678D01*
X103326666Y-45433915D01*
X103355154Y-45429709D01*
X103430349Y-45420438D01*
X103513565Y-45413362D01*
X103601127Y-45408596D01*
X103689364Y-45406256D01*
X103774603Y-45406456D01*
G37*
G36*
X106071600Y-47434431D02*
G01*
X106075155Y-47451980D01*
X106078786Y-47479120D01*
X106082370Y-47514126D01*
X106085780Y-47555271D01*
X106088893Y-47600831D01*
X106091582Y-47649080D01*
X106093724Y-47698293D01*
X106095193Y-47746744D01*
X106095865Y-47792708D01*
X106095883Y-47809785D01*
X106089103Y-47988138D01*
X106070017Y-48162703D01*
X106038676Y-48333221D01*
X105995131Y-48499435D01*
X105939433Y-48661087D01*
X105912986Y-48726246D01*
X105897784Y-48760619D01*
X105878959Y-48800942D01*
X105857778Y-48844710D01*
X105835509Y-48889418D01*
X105813417Y-48932559D01*
X105792771Y-48971630D01*
X105774837Y-49004125D01*
X105760883Y-49027538D01*
X105759575Y-49029559D01*
X105738208Y-49062173D01*
X105082753Y-49063828D01*
X104427299Y-49065483D01*
X105245907Y-48246840D01*
X105332107Y-48160658D01*
X105415831Y-48076991D01*
X105496615Y-47996302D01*
X105573992Y-47919056D01*
X105647496Y-47845717D01*
X105716662Y-47776747D01*
X105781023Y-47712613D01*
X105840113Y-47653776D01*
X105893466Y-47600701D01*
X105940618Y-47553852D01*
X105981100Y-47513693D01*
X106014448Y-47480688D01*
X106040196Y-47455300D01*
X106057877Y-47437993D01*
X106067025Y-47429232D01*
X106068248Y-47428198D01*
X106071600Y-47434431D01*
G37*
G36*
X103541487Y-49207078D02*
G01*
X103612653Y-49207130D01*
X103692253Y-49207218D01*
X103779626Y-49207342D01*
X103874114Y-49207500D01*
X103975058Y-49207693D01*
X104081798Y-49207918D01*
X104193677Y-49208176D01*
X104310034Y-49208465D01*
X104430211Y-49208785D01*
X104484872Y-49208937D01*
X105638285Y-49212199D01*
X105603952Y-49257859D01*
X105551941Y-49323137D01*
X105490746Y-49393129D01*
X105422286Y-49465705D01*
X105365804Y-49522034D01*
X105234531Y-49640655D01*
X105096198Y-49748323D01*
X104951028Y-49844908D01*
X104799246Y-49930279D01*
X104641078Y-50004306D01*
X104476746Y-50066859D01*
X104371854Y-50099825D01*
X104336912Y-50109958D01*
X104305936Y-50118955D01*
X104281294Y-50126126D01*
X104265355Y-50130781D01*
X104260893Y-50132099D01*
X104254478Y-50128020D01*
X104239078Y-50114731D01*
X104214824Y-50092359D01*
X104181845Y-50061029D01*
X104140270Y-50020867D01*
X104090228Y-49971999D01*
X104031849Y-49914549D01*
X103965262Y-49848646D01*
X103890596Y-49774413D01*
X103807980Y-49691976D01*
X103788267Y-49672268D01*
X103723824Y-49607773D01*
X103662103Y-49545909D01*
X103603715Y-49487294D01*
X103549272Y-49432547D01*
X103499387Y-49382287D01*
X103454671Y-49337133D01*
X103415738Y-49297703D01*
X103383199Y-49264616D01*
X103357667Y-49238491D01*
X103339754Y-49219946D01*
X103330072Y-49209602D01*
X103328478Y-49207570D01*
X103335209Y-49207388D01*
X103354327Y-49207247D01*
X103385173Y-49207147D01*
X103427088Y-49207085D01*
X103479412Y-49207063D01*
X103541487Y-49207078D01*
G37*
%TO.C,C1*%
X122620000Y-79000000D02*
G75*
G03*
X122620000Y-79000000I-5120000J0D01*
G01*
%TO.C,R4*%
X121772936Y-59590000D02*
X123227064Y-59590000D01*
X121772936Y-61410000D02*
X123227064Y-61410000D01*
%TO.C,J4*%
X107870000Y-61830000D02*
X107870000Y-60500000D01*
X109200000Y-61830000D02*
X107870000Y-61830000D01*
X110470000Y-61830000D02*
X113070000Y-61830000D01*
X110470000Y-61830000D02*
X110470000Y-59170000D01*
X113070000Y-61830000D02*
X113070000Y-59170000D01*
X110470000Y-59170000D02*
X113070000Y-59170000D01*
%TO.C,TP1*%
X106400000Y-64750000D02*
G75*
G03*
X106400000Y-64750000I-700000J0D01*
G01*
%TO.C,J9*%
X162310000Y-84600000D02*
X163050000Y-84600000D01*
X163050000Y-84600000D02*
X163050000Y-84100000D01*
X152889000Y-84360000D02*
X162810000Y-84360000D01*
X152889000Y-84360000D02*
X152889000Y-69240000D01*
X155849000Y-84360000D02*
X155849000Y-69240000D01*
X160750000Y-84360000D02*
X160750000Y-69240000D01*
X162250000Y-84360000D02*
X162250000Y-69240000D01*
X162810000Y-84360000D02*
X162810000Y-69240000D01*
X159173000Y-78027000D02*
X159219000Y-78074000D01*
X159389000Y-77834000D02*
X159424000Y-77869000D01*
X156875000Y-75730000D02*
X156911000Y-75765000D01*
X157081000Y-75525000D02*
X157127000Y-75572000D01*
X159173000Y-73027000D02*
X159219000Y-73074000D01*
X159389000Y-72834000D02*
X159424000Y-72869000D01*
X156875000Y-70730000D02*
X156911000Y-70765000D01*
X157081000Y-70525000D02*
X157127000Y-70572000D01*
X152889000Y-69240000D02*
X162810000Y-69240000D01*
X157466001Y-83334999D02*
G75*
G03*
X158833042Y-83335426I684000J1534992D01*
G01*
X156615001Y-81116001D02*
G75*
G03*
X156614574Y-82483042I1534992J-684000D01*
G01*
X159684999Y-82484000D02*
G75*
G03*
X159830252Y-81771195I-1535000J683999D01*
G01*
X159829999Y-81800000D02*
G75*
G03*
X159684755Y-81116682I-1679999J0D01*
G01*
X158834000Y-80265000D02*
G75*
G03*
X157466958Y-80264574I-684000J-1535000D01*
G01*
X159830000Y-76800000D02*
G75*
G03*
X159830000Y-76800000I-1680000J0D01*
G01*
X159830000Y-71800000D02*
G75*
G03*
X159830000Y-71800000I-1680000J0D01*
G01*
%TO.C,J5*%
X101895000Y-54330000D02*
X101895000Y-53000000D01*
X103225000Y-54330000D02*
X101895000Y-54330000D01*
X104495000Y-54330000D02*
X107095000Y-54330000D01*
X104495000Y-54330000D02*
X104495000Y-51670000D01*
X107095000Y-54330000D02*
X107095000Y-51670000D01*
X104495000Y-51670000D02*
X107095000Y-51670000D01*
%TO.C,G\u002A\u002A\u002A*%
G36*
X110056047Y-95186905D02*
G01*
X110083221Y-95190293D01*
X110119149Y-95196090D01*
X110160272Y-95203622D01*
X110203032Y-95212213D01*
X110243871Y-95221191D01*
X110279231Y-95229881D01*
X110298760Y-95235413D01*
X110367571Y-95260072D01*
X110420393Y-95286783D01*
X110457446Y-95315793D01*
X110478948Y-95347348D01*
X110485120Y-95381695D01*
X110476179Y-95419080D01*
X110471342Y-95429454D01*
X110443694Y-95470763D01*
X110401545Y-95515679D01*
X110346072Y-95563326D01*
X110278453Y-95612826D01*
X110199867Y-95663302D01*
X110111491Y-95713876D01*
X110038474Y-95751853D01*
X109945297Y-95798388D01*
X110054091Y-95689451D01*
X110117975Y-95622698D01*
X110170494Y-95561877D01*
X110211049Y-95507775D01*
X110239041Y-95461179D01*
X110252079Y-95429528D01*
X110257111Y-95408415D01*
X110255551Y-95392441D01*
X110245996Y-95373954D01*
X110240251Y-95365093D01*
X110218602Y-95338615D01*
X110186077Y-95306798D01*
X110145913Y-95272473D01*
X110101349Y-95238469D01*
X110072818Y-95218717D01*
X110049410Y-95201734D01*
X110039052Y-95190709D01*
X110041184Y-95186600D01*
X110056047Y-95186905D01*
G37*
G36*
X108707404Y-95623385D02*
G01*
X108722718Y-95635807D01*
X108745486Y-95655494D01*
X108773452Y-95680537D01*
X108777223Y-95683969D01*
X108854956Y-95753651D01*
X108922145Y-95811306D01*
X108979044Y-95857126D01*
X109025909Y-95891301D01*
X109062995Y-95914025D01*
X109090560Y-95925487D01*
X109101488Y-95927063D01*
X109122132Y-95923872D01*
X109155293Y-95914850D01*
X109198603Y-95900823D01*
X109249693Y-95882618D01*
X109306193Y-95861061D01*
X109365734Y-95836979D01*
X109394362Y-95824909D01*
X109496822Y-95781117D01*
X109435666Y-95840042D01*
X109393670Y-95878716D01*
X109347638Y-95918086D01*
X109300595Y-95955819D01*
X109255566Y-95989580D01*
X109215575Y-96017036D01*
X109183646Y-96035854D01*
X109178812Y-96038226D01*
X109132712Y-96054146D01*
X109090391Y-96055545D01*
X109047973Y-96042303D01*
X109031396Y-96033622D01*
X108993261Y-96006395D01*
X108949857Y-95966036D01*
X108902632Y-95914274D01*
X108853034Y-95852839D01*
X108802512Y-95783458D01*
X108752513Y-95707862D01*
X108735407Y-95680258D01*
X108719628Y-95653768D01*
X108707823Y-95632842D01*
X108702055Y-95621169D01*
X108701798Y-95620136D01*
X108707404Y-95623385D01*
G37*
G36*
X108582739Y-94886273D02*
G01*
X108572174Y-94904267D01*
X108555953Y-94929961D01*
X108540321Y-94953766D01*
X108505494Y-95007814D01*
X108472517Y-95062392D01*
X108443110Y-95114409D01*
X108418989Y-95160773D01*
X108401876Y-95198393D01*
X108396858Y-95211826D01*
X108388120Y-95242745D01*
X108384703Y-95271073D01*
X108386708Y-95301955D01*
X108394232Y-95340539D01*
X108399773Y-95363072D01*
X108407420Y-95390493D01*
X108418658Y-95427613D01*
X108432477Y-95471395D01*
X108447865Y-95518805D01*
X108463809Y-95566810D01*
X108479299Y-95612373D01*
X108493323Y-95652462D01*
X108504869Y-95684040D01*
X108512925Y-95704075D01*
X108514639Y-95707623D01*
X108520114Y-95719488D01*
X108518469Y-95721713D01*
X108509051Y-95713663D01*
X108491204Y-95694705D01*
X108464275Y-95664202D01*
X108436106Y-95631477D01*
X108368055Y-95548051D01*
X108313430Y-95472711D01*
X108272311Y-95405596D01*
X108244779Y-95346845D01*
X108230913Y-95296596D01*
X108229130Y-95274735D01*
X108235165Y-95237072D01*
X108253909Y-95195292D01*
X108285976Y-95148327D01*
X108331979Y-95095111D01*
X108333022Y-95094000D01*
X108353022Y-95073979D01*
X108380037Y-95048681D01*
X108411875Y-95019968D01*
X108446348Y-94989703D01*
X108481266Y-94959748D01*
X108514441Y-94931966D01*
X108543682Y-94908219D01*
X108566801Y-94890371D01*
X108581607Y-94880284D01*
X108585889Y-94878870D01*
X108582739Y-94886273D01*
G37*
G36*
X109717761Y-93746272D02*
G01*
X109729413Y-93755063D01*
X109738698Y-93767117D01*
X109754515Y-93790428D01*
X109775710Y-93823093D01*
X109801125Y-93863207D01*
X109829607Y-93908867D01*
X109860001Y-93958170D01*
X109891149Y-94009211D01*
X109921899Y-94060087D01*
X109951093Y-94108893D01*
X109977578Y-94153728D01*
X110000197Y-94192685D01*
X110017795Y-94223863D01*
X110029218Y-94245357D01*
X110033309Y-94255264D01*
X110033198Y-94255654D01*
X110025016Y-94262138D01*
X110005979Y-94276916D01*
X109978183Y-94298369D01*
X109943725Y-94324881D01*
X109904700Y-94354833D01*
X109900449Y-94358091D01*
X109850813Y-94396239D01*
X109795825Y-94438670D01*
X109740563Y-94481455D01*
X109690107Y-94520663D01*
X109663980Y-94541050D01*
X109617148Y-94577549D01*
X109582360Y-94604262D01*
X109558912Y-94621572D01*
X109546097Y-94629857D01*
X109543207Y-94629501D01*
X109549537Y-94620882D01*
X109564381Y-94604383D01*
X109582829Y-94584798D01*
X109607439Y-94558639D01*
X109639555Y-94524109D01*
X109675736Y-94484926D01*
X109712544Y-94444809D01*
X109729062Y-94426710D01*
X109763441Y-94389096D01*
X109797323Y-94352254D01*
X109827767Y-94319367D01*
X109851830Y-94293620D01*
X109861320Y-94283611D01*
X109900737Y-94242438D01*
X109745871Y-94057182D01*
X109698937Y-94000973D01*
X109661441Y-93955796D01*
X109632323Y-93920198D01*
X109610528Y-93892729D01*
X109594997Y-93871937D01*
X109584674Y-93856369D01*
X109578500Y-93844574D01*
X109575420Y-93835100D01*
X109574375Y-93826496D01*
X109574285Y-93821580D01*
X109581577Y-93794744D01*
X109600805Y-93771353D01*
X109628005Y-93753110D01*
X109659208Y-93741715D01*
X109690449Y-93738869D01*
X109717761Y-93746272D01*
G37*
G36*
X109315050Y-94553534D02*
G01*
X109357480Y-94567741D01*
X109384487Y-94588412D01*
X109399127Y-94611138D01*
X109403323Y-94637951D01*
X109396710Y-94670598D01*
X109378924Y-94710826D01*
X109349604Y-94760381D01*
X109348293Y-94762416D01*
X109309653Y-94824837D01*
X109280783Y-94878119D01*
X109260560Y-94925259D01*
X109247860Y-94969255D01*
X109241557Y-95013102D01*
X109240368Y-95050172D01*
X109240768Y-95099422D01*
X109268168Y-95017031D01*
X109290463Y-94954358D01*
X109311913Y-94904319D01*
X109334337Y-94863462D01*
X109359559Y-94828332D01*
X109379822Y-94805331D01*
X109404559Y-94780525D01*
X109426422Y-94763311D01*
X109449188Y-94752481D01*
X109476633Y-94746826D01*
X109512533Y-94745137D01*
X109560664Y-94746205D01*
X109564128Y-94746335D01*
X109607780Y-94748420D01*
X109639643Y-94751372D01*
X109664235Y-94756025D01*
X109686077Y-94763215D01*
X109707869Y-94772903D01*
X109760733Y-94805243D01*
X109803798Y-94847426D01*
X109837424Y-94900266D01*
X109861967Y-94964578D01*
X109877786Y-95041178D01*
X109885240Y-95130879D01*
X109885955Y-95177949D01*
X109882586Y-95263015D01*
X109872521Y-95335373D01*
X109854899Y-95397545D01*
X109828858Y-95452051D01*
X109793537Y-95501413D01*
X109764904Y-95532220D01*
X109704259Y-95581204D01*
X109631262Y-95621549D01*
X109547652Y-95652820D01*
X109455171Y-95674582D01*
X109355559Y-95686401D01*
X109250556Y-95687844D01*
X109166581Y-95681548D01*
X109070042Y-95663615D01*
X108982729Y-95633073D01*
X108905356Y-95590504D01*
X108838635Y-95536485D01*
X108783281Y-95471598D01*
X108740007Y-95396420D01*
X108709526Y-95311533D01*
X108709097Y-95309912D01*
X108699464Y-95260110D01*
X108693416Y-95200884D01*
X108691025Y-95137467D01*
X108692363Y-95075094D01*
X108697499Y-95019000D01*
X108704639Y-94981188D01*
X108734786Y-94895914D01*
X108778968Y-94817290D01*
X108835874Y-94746449D01*
X108904193Y-94684527D01*
X108982612Y-94632656D01*
X109069821Y-94591970D01*
X109164507Y-94563604D01*
X109194579Y-94557595D01*
X109260826Y-94550164D01*
X109315050Y-94553534D01*
G37*
G36*
X112760712Y-96054584D02*
G01*
X112762734Y-96078181D01*
X112764516Y-96117437D01*
X112766047Y-96172029D01*
X112767318Y-96241632D01*
X112768319Y-96325924D01*
X112768876Y-96396700D01*
X112771138Y-96748104D01*
X112520176Y-96860757D01*
X112450428Y-96892070D01*
X112376562Y-96925242D01*
X112302211Y-96958639D01*
X112231007Y-96990630D01*
X112166585Y-97019583D01*
X112112576Y-97043865D01*
X112102054Y-97048597D01*
X112058926Y-97067989D01*
X112003397Y-97092946D01*
X111937942Y-97122355D01*
X111865040Y-97155104D01*
X111787167Y-97190081D01*
X111706800Y-97226172D01*
X111626415Y-97262265D01*
X111576115Y-97284847D01*
X111510281Y-97314404D01*
X111442157Y-97344995D01*
X111370798Y-97377044D01*
X111295261Y-97410976D01*
X111214603Y-97447215D01*
X111127878Y-97486184D01*
X111034145Y-97528309D01*
X110932457Y-97574013D01*
X110821873Y-97623720D01*
X110701448Y-97677855D01*
X110570238Y-97736842D01*
X110427300Y-97801104D01*
X110271689Y-97871067D01*
X110102462Y-97947155D01*
X110043146Y-97973825D01*
X109952753Y-98014459D01*
X109876192Y-98048855D01*
X109812428Y-98077476D01*
X109760424Y-98100786D01*
X109719147Y-98119249D01*
X109687559Y-98133328D01*
X109664626Y-98143488D01*
X109649711Y-98150019D01*
X109623210Y-98161503D01*
X109623210Y-97807746D01*
X109623210Y-97453989D01*
X109918796Y-97321364D01*
X109981441Y-97293246D01*
X110056513Y-97259534D01*
X110141568Y-97221325D01*
X110234163Y-97179718D01*
X110331853Y-97135811D01*
X110432195Y-97090704D01*
X110532744Y-97045493D01*
X110631055Y-97001279D01*
X110703627Y-96968633D01*
X110822552Y-96915134D01*
X110929244Y-96867148D01*
X111026339Y-96823492D01*
X111116473Y-96782982D01*
X111202284Y-96744433D01*
X111286406Y-96706662D01*
X111371477Y-96668484D01*
X111460132Y-96628717D01*
X111555009Y-96586175D01*
X111658742Y-96539676D01*
X111706581Y-96518236D01*
X111754307Y-96496834D01*
X111812141Y-96470879D01*
X111878264Y-96441188D01*
X111950862Y-96408579D01*
X112028115Y-96373867D01*
X112108209Y-96337870D01*
X112189325Y-96301404D01*
X112269647Y-96265288D01*
X112347357Y-96230337D01*
X112420640Y-96197369D01*
X112487678Y-96167200D01*
X112546654Y-96140648D01*
X112595751Y-96118529D01*
X112633153Y-96101661D01*
X112652456Y-96092938D01*
X112689511Y-96076310D01*
X112721422Y-96062264D01*
X112745145Y-96052121D01*
X112757634Y-96047201D01*
X112758459Y-96046971D01*
X112760712Y-96054584D01*
G37*
G36*
X112767828Y-95029835D02*
G01*
X112768430Y-95052359D01*
X112768879Y-95087870D01*
X112769168Y-95134706D01*
X112769288Y-95191207D01*
X112769232Y-95255713D01*
X112768991Y-95326563D01*
X112768738Y-95374310D01*
X112766613Y-95726662D01*
X112652456Y-95778584D01*
X112610500Y-95797601D01*
X112557722Y-95821423D01*
X112498196Y-95848215D01*
X112435998Y-95876146D01*
X112375201Y-95903382D01*
X112354831Y-95912489D01*
X112300516Y-95936787D01*
X112247999Y-95960329D01*
X112200141Y-95981828D01*
X112159802Y-96000001D01*
X112129841Y-96013560D01*
X112118363Y-96018796D01*
X112085065Y-96033948D01*
X112044492Y-96052226D01*
X112004295Y-96070185D01*
X111996051Y-96073845D01*
X111963814Y-96088160D01*
X111933381Y-96101735D01*
X111901607Y-96115988D01*
X111865342Y-96132334D01*
X111821440Y-96152191D01*
X111766753Y-96176974D01*
X111748442Y-96185278D01*
X111705081Y-96204856D01*
X111657517Y-96226193D01*
X111613571Y-96245785D01*
X111597592Y-96252864D01*
X111559963Y-96269558D01*
X111521818Y-96286602D01*
X111489856Y-96301000D01*
X111482343Y-96304415D01*
X111449080Y-96319518D01*
X111402174Y-96340717D01*
X111342869Y-96367452D01*
X111272412Y-96399161D01*
X111192047Y-96435287D01*
X111103021Y-96475269D01*
X111006578Y-96518547D01*
X110903963Y-96564561D01*
X110796422Y-96612752D01*
X110789245Y-96615967D01*
X110714181Y-96649604D01*
X110637651Y-96683919D01*
X110562276Y-96717735D01*
X110490680Y-96749875D01*
X110425485Y-96779160D01*
X110369315Y-96804415D01*
X110324791Y-96824461D01*
X110316308Y-96828285D01*
X110271498Y-96848485D01*
X110214941Y-96873963D01*
X110149764Y-96903311D01*
X110079096Y-96935121D01*
X110006063Y-96967985D01*
X109933794Y-97000496D01*
X109894249Y-97018281D01*
X109623040Y-97140238D01*
X109625164Y-96785018D01*
X109627287Y-96429798D01*
X109880064Y-96316543D01*
X109952353Y-96284135D01*
X110030811Y-96248929D01*
X110111347Y-96212761D01*
X110189872Y-96177470D01*
X110262296Y-96144893D01*
X110324528Y-96116868D01*
X110332616Y-96113222D01*
X110387511Y-96088480D01*
X110439137Y-96065226D01*
X110485133Y-96044521D01*
X110523139Y-96027428D01*
X110550795Y-96015008D01*
X110565008Y-96008649D01*
X110586712Y-95998955D01*
X110622155Y-95983075D01*
X110670204Y-95961517D01*
X110729729Y-95934790D01*
X110799598Y-95903402D01*
X110878678Y-95867862D01*
X110965838Y-95828678D01*
X111059947Y-95786361D01*
X111159873Y-95741417D01*
X111264483Y-95694356D01*
X111372647Y-95645687D01*
X111483233Y-95595919D01*
X111527191Y-95576133D01*
X111610264Y-95538752D01*
X111690477Y-95502682D01*
X111766324Y-95468598D01*
X111836297Y-95437178D01*
X111898889Y-95409097D01*
X111952593Y-95385031D01*
X111995903Y-95365657D01*
X112027312Y-95351649D01*
X112044976Y-95343832D01*
X112073985Y-95331035D01*
X112113609Y-95313409D01*
X112159602Y-95292851D01*
X112207723Y-95271254D01*
X112232520Y-95260088D01*
X112320114Y-95220634D01*
X112403295Y-95183245D01*
X112480873Y-95148450D01*
X112551655Y-95116782D01*
X112614451Y-95088770D01*
X112668069Y-95064946D01*
X112711317Y-95045840D01*
X112743005Y-95031983D01*
X112761941Y-95023906D01*
X112767081Y-95021958D01*
X112767828Y-95029835D01*
G37*
G36*
X112736167Y-94779646D02*
G01*
X112744895Y-94781226D01*
X112750373Y-94783584D01*
X112753318Y-94786644D01*
X112754448Y-94790330D01*
X112754480Y-94794566D01*
X112754133Y-94799278D01*
X112754041Y-94801798D01*
X112746785Y-94808459D01*
X112725001Y-94821015D01*
X112688590Y-94839514D01*
X112637449Y-94864005D01*
X112571478Y-94894538D01*
X112490573Y-94931161D01*
X112434118Y-94956391D01*
X112355491Y-94991400D01*
X112272169Y-95028518D01*
X112187411Y-95066293D01*
X112104471Y-95103273D01*
X112026605Y-95138007D01*
X111957069Y-95169043D01*
X111899120Y-95194929D01*
X111898202Y-95195339D01*
X111830413Y-95225639D01*
X111775583Y-95250148D01*
X111731783Y-95269730D01*
X111697085Y-95285250D01*
X111669559Y-95297573D01*
X111647277Y-95307562D01*
X111628309Y-95316084D01*
X111610728Y-95324001D01*
X111592604Y-95332180D01*
X111572008Y-95341485D01*
X111551653Y-95350682D01*
X111528061Y-95361301D01*
X111491374Y-95377760D01*
X111443390Y-95399255D01*
X111385907Y-95424982D01*
X111320723Y-95454136D01*
X111249637Y-95485912D01*
X111174445Y-95519508D01*
X111096947Y-95554117D01*
X111082793Y-95560436D01*
X111003655Y-95595769D01*
X110925342Y-95630737D01*
X110849836Y-95664456D01*
X110779118Y-95696042D01*
X110715167Y-95724609D01*
X110659966Y-95749273D01*
X110615496Y-95769149D01*
X110583736Y-95783352D01*
X110581316Y-95784435D01*
X110490395Y-95825105D01*
X110387801Y-95870964D01*
X110276761Y-95920573D01*
X110160500Y-95972490D01*
X110042246Y-96025274D01*
X109925224Y-96077485D01*
X109852162Y-96110070D01*
X109620407Y-96213410D01*
X109497459Y-96222031D01*
X109430660Y-96225466D01*
X109353070Y-96227373D01*
X109268092Y-96227834D01*
X109179126Y-96226931D01*
X109089575Y-96224746D01*
X109002839Y-96221362D01*
X108922320Y-96216860D01*
X108851419Y-96211322D01*
X108795570Y-96205109D01*
X108665209Y-96184226D01*
X108540334Y-96157960D01*
X108428294Y-96128043D01*
X108305897Y-96085530D01*
X108190474Y-96034065D01*
X108083631Y-95974708D01*
X107986971Y-95908519D01*
X107902100Y-95836555D01*
X107830622Y-95759877D01*
X107792316Y-95708324D01*
X107755923Y-95654075D01*
X107755923Y-97112801D01*
X107755923Y-98571527D01*
X107777919Y-98600836D01*
X107860801Y-98698834D01*
X107955040Y-98786852D01*
X108061144Y-98865213D01*
X108179623Y-98934240D01*
X108310986Y-98994255D01*
X108455742Y-99045579D01*
X108502009Y-99059374D01*
X108623855Y-99089094D01*
X108757612Y-99112420D01*
X108900111Y-99129164D01*
X109048182Y-99139138D01*
X109198656Y-99142155D01*
X109348364Y-99138026D01*
X109494134Y-99126563D01*
X109541669Y-99121034D01*
X109619133Y-99111236D01*
X109621503Y-98780995D01*
X109623872Y-98450755D01*
X109796816Y-98373775D01*
X109859103Y-98346030D01*
X109922017Y-98317961D01*
X109987151Y-98288855D01*
X110056099Y-98257995D01*
X110130456Y-98224668D01*
X110211814Y-98188159D01*
X110301769Y-98147752D01*
X110401914Y-98102732D01*
X110513843Y-98052386D01*
X110630241Y-98000007D01*
X110724521Y-97957578D01*
X110812918Y-97917806D01*
X110897437Y-97879790D01*
X110980082Y-97842629D01*
X111062857Y-97805423D01*
X111147768Y-97767271D01*
X111236818Y-97727272D01*
X111332013Y-97684526D01*
X111435356Y-97638133D01*
X111548852Y-97587191D01*
X111674506Y-97530800D01*
X111722889Y-97509089D01*
X111799783Y-97474580D01*
X111875717Y-97440495D01*
X111948673Y-97407742D01*
X112016631Y-97377226D01*
X112077572Y-97349855D01*
X112129476Y-97326535D01*
X112170325Y-97308173D01*
X112195826Y-97296700D01*
X112306196Y-97247024D01*
X112402489Y-97203730D01*
X112485484Y-97166472D01*
X112555959Y-97134904D01*
X112614694Y-97108679D01*
X112662468Y-97087453D01*
X112700058Y-97070878D01*
X112728245Y-97058609D01*
X112747806Y-97050299D01*
X112759520Y-97045603D01*
X112764122Y-97044173D01*
X112765505Y-97052050D01*
X112766790Y-97074570D01*
X112767944Y-97110067D01*
X112768936Y-97156878D01*
X112769736Y-97213337D01*
X112770312Y-97277780D01*
X112770633Y-97348540D01*
X112770690Y-97394718D01*
X112770690Y-97745263D01*
X112715650Y-97770521D01*
X112686964Y-97783577D01*
X112648203Y-97801071D01*
X112604198Y-97820829D01*
X112559782Y-97840677D01*
X112554607Y-97842982D01*
X112512733Y-97861660D01*
X112472875Y-97879494D01*
X112439044Y-97894686D01*
X112415258Y-97905435D01*
X112411910Y-97906961D01*
X112381542Y-97920780D01*
X112338888Y-97940099D01*
X112286543Y-97963748D01*
X112227103Y-97990560D01*
X112163164Y-98019365D01*
X112097321Y-98048994D01*
X112032171Y-98078278D01*
X111970308Y-98106050D01*
X111914330Y-98131139D01*
X111873740Y-98149292D01*
X111823269Y-98171859D01*
X111762057Y-98199268D01*
X111694236Y-98229667D01*
X111623936Y-98261204D01*
X111555288Y-98292027D01*
X111510883Y-98311983D01*
X111442657Y-98342650D01*
X111367049Y-98376624D01*
X111288938Y-98411713D01*
X111213205Y-98445727D01*
X111144728Y-98476471D01*
X111111332Y-98491460D01*
X111049454Y-98519246D01*
X110982888Y-98549168D01*
X110916152Y-98579191D01*
X110853761Y-98607286D01*
X110800233Y-98631418D01*
X110785168Y-98638218D01*
X110739709Y-98658707D01*
X110683027Y-98684194D01*
X110618790Y-98713032D01*
X110550667Y-98743576D01*
X110482330Y-98774179D01*
X110422311Y-98801021D01*
X110359536Y-98829106D01*
X110285638Y-98862221D01*
X110204357Y-98898686D01*
X110119434Y-98936821D01*
X110034609Y-98974948D01*
X109953624Y-99011387D01*
X109907635Y-99032100D01*
X109617197Y-99162971D01*
X109493740Y-99175835D01*
X109452681Y-99179166D01*
X109399807Y-99182026D01*
X109338302Y-99184371D01*
X109271352Y-99186160D01*
X109202140Y-99187348D01*
X109133853Y-99187895D01*
X109069674Y-99187756D01*
X109012787Y-99186889D01*
X108966378Y-99185251D01*
X108938266Y-99183293D01*
X108782251Y-99164910D01*
X108639963Y-99141412D01*
X108509456Y-99112191D01*
X108388782Y-99076640D01*
X108275997Y-99034151D01*
X108169155Y-98984117D01*
X108066308Y-98925931D01*
X108020931Y-98897004D01*
X107979785Y-98867271D01*
X107933382Y-98829472D01*
X107884842Y-98786557D01*
X107837287Y-98741480D01*
X107793838Y-98697192D01*
X107757615Y-98656646D01*
X107732954Y-98624598D01*
X107706998Y-98586436D01*
X107706998Y-97049496D01*
X107706998Y-95512555D01*
X107749807Y-95503346D01*
X107783111Y-95496344D01*
X107824202Y-95487955D01*
X107870461Y-95478687D01*
X107919269Y-95469046D01*
X107968008Y-95459540D01*
X108014060Y-95450676D01*
X108054806Y-95442961D01*
X108087627Y-95436902D01*
X108109906Y-95433007D01*
X108119023Y-95431783D01*
X108119105Y-95431815D01*
X108121859Y-95440234D01*
X108125618Y-95454870D01*
X108130672Y-95476001D01*
X107977952Y-95506556D01*
X107927885Y-95516658D01*
X107881338Y-95526206D01*
X107841459Y-95534542D01*
X107811399Y-95541008D01*
X107794674Y-95544852D01*
X107764116Y-95552592D01*
X107776734Y-95582861D01*
X107802377Y-95632176D01*
X107839396Y-95686641D01*
X107885089Y-95743172D01*
X107936756Y-95798687D01*
X107991694Y-95850101D01*
X108047202Y-95894330D01*
X108053547Y-95898850D01*
X108151749Y-95959646D01*
X108263948Y-96014106D01*
X108388949Y-96061827D01*
X108525556Y-96102404D01*
X108672574Y-96135433D01*
X108826200Y-96160167D01*
X108873133Y-96165036D01*
X108933195Y-96169251D01*
X109003217Y-96172753D01*
X109080031Y-96175481D01*
X109160469Y-96177376D01*
X109241362Y-96178376D01*
X109319543Y-96178422D01*
X109391842Y-96177452D01*
X109455091Y-96175408D01*
X109497250Y-96172943D01*
X109611835Y-96164291D01*
X109778566Y-96089676D01*
X109829062Y-96067073D01*
X109876452Y-96045852D01*
X109918048Y-96027219D01*
X109951156Y-96012377D01*
X109973087Y-96002534D01*
X109977913Y-96000363D01*
X109993950Y-95993161D01*
X110023695Y-95979834D01*
X110067271Y-95960327D01*
X110124798Y-95934584D01*
X110196400Y-95902552D01*
X110282198Y-95864175D01*
X110382315Y-95819400D01*
X110496872Y-95768171D01*
X110625992Y-95710433D01*
X110769797Y-95646134D01*
X110874863Y-95599157D01*
X110942692Y-95568827D01*
X111006969Y-95540079D01*
X111065925Y-95513706D01*
X111117790Y-95490499D01*
X111160796Y-95471249D01*
X111193173Y-95456748D01*
X111213153Y-95447787D01*
X111217335Y-95445906D01*
X111233637Y-95438590D01*
X111262415Y-95425713D01*
X111301250Y-95408357D01*
X111347722Y-95387603D01*
X111399412Y-95364530D01*
X111443611Y-95344811D01*
X111596915Y-95276423D01*
X111735983Y-95214369D01*
X111861476Y-95158350D01*
X111974056Y-95108065D01*
X112074384Y-95063213D01*
X112163122Y-95023493D01*
X112240931Y-94988605D01*
X112308472Y-94958249D01*
X112366406Y-94932123D01*
X112415395Y-94909928D01*
X112456101Y-94891362D01*
X112489184Y-94876125D01*
X112515306Y-94863917D01*
X112535129Y-94854436D01*
X112549313Y-94847382D01*
X112558520Y-94842455D01*
X112563411Y-94839355D01*
X112564649Y-94837779D01*
X112562893Y-94837429D01*
X112558806Y-94838002D01*
X112558592Y-94838042D01*
X112548321Y-94839540D01*
X112522976Y-94843043D01*
X112483651Y-94848403D01*
X112431439Y-94855477D01*
X112367433Y-94864117D01*
X112292725Y-94874178D01*
X112208409Y-94885513D01*
X112115578Y-94897977D01*
X112015323Y-94911423D01*
X111908739Y-94925706D01*
X111796917Y-94940680D01*
X111680951Y-94956198D01*
X111561934Y-94972115D01*
X111440959Y-94988285D01*
X111319118Y-95004561D01*
X111197504Y-95020798D01*
X111077211Y-95036850D01*
X110959331Y-95052570D01*
X110844956Y-95067813D01*
X110735181Y-95082432D01*
X110631097Y-95096283D01*
X110533797Y-95109218D01*
X110444375Y-95121091D01*
X110363924Y-95131758D01*
X110293535Y-95141071D01*
X110234303Y-95148885D01*
X110187319Y-95155054D01*
X110153677Y-95159431D01*
X110134480Y-95161870D01*
X110102251Y-95165463D01*
X110076822Y-95167633D01*
X110062020Y-95168085D01*
X110059852Y-95167654D01*
X110056642Y-95158190D01*
X110054136Y-95144519D01*
X110051300Y-95124384D01*
X111395136Y-94944990D01*
X111568914Y-94921786D01*
X111727241Y-94900644D01*
X111870837Y-94881489D01*
X112000418Y-94864247D01*
X112116702Y-94848840D01*
X112220407Y-94835193D01*
X112312250Y-94823232D01*
X112392949Y-94812880D01*
X112463222Y-94804061D01*
X112523786Y-94796700D01*
X112575359Y-94790722D01*
X112618658Y-94786050D01*
X112654401Y-94782609D01*
X112683306Y-94780324D01*
X112706091Y-94779119D01*
X112723472Y-94778918D01*
X112736167Y-94779646D01*
G37*
%TO.C,J7*%
X136050000Y-96960000D02*
X136050000Y-97700000D01*
X136050000Y-97700000D02*
X136550000Y-97700000D01*
X136290000Y-87539000D02*
X136290000Y-97460000D01*
X136290000Y-87539000D02*
X156411000Y-87539000D01*
X136290000Y-90499000D02*
X156411000Y-90499000D01*
X136290000Y-95400000D02*
X156411000Y-95400000D01*
X136290000Y-96900000D02*
X156411000Y-96900000D01*
X136290000Y-97460000D02*
X156411000Y-97460000D01*
X142623000Y-93823000D02*
X142576000Y-93869000D01*
X142816000Y-94039000D02*
X142781000Y-94074000D01*
X144920000Y-91525000D02*
X144885000Y-91561000D01*
X145125000Y-91731000D02*
X145078000Y-91777000D01*
X147623000Y-93823000D02*
X147576000Y-93869000D01*
X147816000Y-94039000D02*
X147781000Y-94074000D01*
X149920000Y-91525000D02*
X149885000Y-91561000D01*
X150125000Y-91731000D02*
X150078000Y-91777000D01*
X152623000Y-93823000D02*
X152576000Y-93869000D01*
X152816000Y-94039000D02*
X152781000Y-94074000D01*
X154920000Y-91525000D02*
X154885000Y-91561000D01*
X155125000Y-91731000D02*
X155078000Y-91777000D01*
X156411000Y-87539000D02*
X156411000Y-97460000D01*
X137315001Y-92116001D02*
G75*
G03*
X137314574Y-93483042I1534992J-684000D01*
G01*
X139533999Y-91265001D02*
G75*
G03*
X138166958Y-91264574I-684000J-1534992D01*
G01*
X138166000Y-94334999D02*
G75*
G03*
X138878805Y-94480252I683999J1535000D01*
G01*
X138850000Y-94479999D02*
G75*
G03*
X139533318Y-94334755I0J1679999D01*
G01*
X140385000Y-93484000D02*
G75*
G03*
X140385426Y-92116958I-1535000J684000D01*
G01*
X145530000Y-92800000D02*
G75*
G03*
X145530000Y-92800000I-1680000J0D01*
G01*
X150530000Y-92800000D02*
G75*
G03*
X150530000Y-92800000I-1680000J0D01*
G01*
X155530000Y-92800000D02*
G75*
G03*
X155530000Y-92800000I-1680000J0D01*
G01*
%TO.C,SW1*%
X125670000Y-51395000D02*
X127000000Y-51395000D01*
X125670000Y-52725000D02*
X125670000Y-51395000D01*
X125670000Y-53995000D02*
X125670000Y-56595000D01*
X125670000Y-53995000D02*
X128330000Y-53995000D01*
X125670000Y-56595000D02*
X128330000Y-56595000D01*
X128330000Y-53995000D02*
X128330000Y-56595000D01*
%TO.C,R6*%
X102672936Y-89790000D02*
X104127064Y-89790000D01*
X102672936Y-91610000D02*
X104127064Y-91610000D01*
%TO.C,SW3*%
X162330000Y-91605000D02*
X161000000Y-91605000D01*
X162330000Y-90275000D02*
X162330000Y-91605000D01*
X162330000Y-89005000D02*
X162330000Y-86405000D01*
X162330000Y-89005000D02*
X159670000Y-89005000D01*
X162330000Y-86405000D02*
X159670000Y-86405000D01*
X159670000Y-89005000D02*
X159670000Y-86405000D01*
%TO.C,R2*%
X110090000Y-54277064D02*
X110090000Y-52822936D01*
X111910000Y-54277064D02*
X111910000Y-52822936D01*
%TO.C,G\u002A\u002A\u002A*%
G36*
X141848232Y-75226937D02*
G01*
X141965309Y-75238115D01*
X142066316Y-75257379D01*
X142107202Y-75269848D01*
X142273219Y-75346056D01*
X142418707Y-75445905D01*
X142541616Y-75566569D01*
X142639893Y-75705219D01*
X142711488Y-75859026D01*
X142754348Y-76025163D01*
X142766666Y-76178890D01*
X142755733Y-76346318D01*
X142721245Y-76495048D01*
X142660669Y-76631152D01*
X142571470Y-76760700D01*
X142483129Y-76858357D01*
X142343073Y-76976758D01*
X142188160Y-77066005D01*
X142021020Y-77125343D01*
X141844278Y-77154019D01*
X141660562Y-77151277D01*
X141533333Y-77131155D01*
X141375915Y-77082521D01*
X141230391Y-77006129D01*
X141092701Y-76899663D01*
X141040952Y-76850198D01*
X140930004Y-76723695D01*
X140849397Y-76595656D01*
X140796498Y-76459652D01*
X140768677Y-76309249D01*
X140762733Y-76170271D01*
X140777686Y-75998811D01*
X140820723Y-75842664D01*
X140893354Y-75698281D01*
X140997093Y-75562113D01*
X141042049Y-75514718D01*
X141181208Y-75396747D01*
X141333244Y-75307915D01*
X141495208Y-75249912D01*
X141510221Y-75246249D01*
X141609723Y-75230571D01*
X141726048Y-75224278D01*
X141848232Y-75226937D01*
G37*
G36*
X139900090Y-75235079D02*
G01*
X139900180Y-76181533D01*
X140900378Y-76921935D01*
X141101456Y-77071025D01*
X141276806Y-77201583D01*
X141427720Y-77314608D01*
X141555491Y-77411100D01*
X141661410Y-77492060D01*
X141746771Y-77558488D01*
X141812864Y-77611383D01*
X141860983Y-77651747D01*
X141892419Y-77680578D01*
X141908465Y-77698877D01*
X141911066Y-77704157D01*
X141917595Y-77729586D01*
X141931508Y-77783352D01*
X141951782Y-77861512D01*
X141977394Y-77960128D01*
X142007321Y-78075258D01*
X142040539Y-78202962D01*
X142073732Y-78330496D01*
X142225908Y-78915014D01*
X142745210Y-79291084D01*
X143264512Y-79667154D01*
X143298922Y-79766288D01*
X143330696Y-79888224D01*
X143334912Y-79991416D01*
X143311619Y-80075789D01*
X143260868Y-80141268D01*
X143182706Y-80187778D01*
X143077183Y-80215243D01*
X143000016Y-80222584D01*
X142858333Y-80229190D01*
X142258333Y-79792189D01*
X142132812Y-79700533D01*
X142015033Y-79614078D01*
X141907868Y-79534965D01*
X141814188Y-79465335D01*
X141736863Y-79407326D01*
X141678765Y-79363081D01*
X141642764Y-79334737D01*
X141632202Y-79325452D01*
X141621388Y-79302300D01*
X141603400Y-79251141D01*
X141579540Y-79176227D01*
X141551109Y-79081811D01*
X141519408Y-78972147D01*
X141485738Y-78851485D01*
X141473869Y-78807960D01*
X141341666Y-78320204D01*
X141133333Y-78537635D01*
X141069893Y-78603669D01*
X140987884Y-78688760D01*
X140891987Y-78788064D01*
X140786884Y-78896740D01*
X140677258Y-79009944D01*
X140567791Y-79122834D01*
X140510821Y-79181518D01*
X140096642Y-79607969D01*
X140235189Y-79795999D01*
X140278231Y-79854229D01*
X140337821Y-79934577D01*
X140410542Y-80032451D01*
X140492979Y-80143258D01*
X140581715Y-80262406D01*
X140673334Y-80385303D01*
X140746208Y-80482964D01*
X140831743Y-80597938D01*
X140911817Y-80706330D01*
X140984012Y-80804810D01*
X141045909Y-80890046D01*
X141095090Y-80958709D01*
X141129136Y-81007467D01*
X141145629Y-81032989D01*
X141145808Y-81033325D01*
X141168116Y-81105188D01*
X141171293Y-81190140D01*
X141155736Y-81274240D01*
X141137707Y-81318237D01*
X141118539Y-81343968D01*
X141077654Y-81390800D01*
X141017169Y-81456516D01*
X140939203Y-81538898D01*
X140845873Y-81635731D01*
X140739297Y-81744797D01*
X140621594Y-81863880D01*
X140501292Y-81984373D01*
X139900000Y-82583798D01*
X139900000Y-83055909D01*
X139900000Y-83528020D01*
X139800000Y-83528020D01*
X139700000Y-83528020D01*
X139700000Y-80789690D01*
X139900000Y-80789690D01*
X139900000Y-81078845D01*
X139900000Y-81368001D01*
X140026781Y-81241136D01*
X140153562Y-81114272D01*
X140026781Y-80951981D01*
X139900000Y-80789690D01*
X139700000Y-80789690D01*
X139700000Y-78908323D01*
X139700000Y-74288625D01*
X139800000Y-74288625D01*
X139900000Y-74288625D01*
X139900090Y-75235079D01*
G37*
G36*
X136929196Y-78912492D02*
G01*
X136925000Y-83536359D01*
X136841026Y-83541278D01*
X136790519Y-83541931D01*
X136754612Y-83538154D01*
X136745193Y-83534329D01*
X136741341Y-83514547D01*
X136738011Y-83467034D01*
X136735424Y-83397416D01*
X136733797Y-83311315D01*
X136733333Y-83229998D01*
X136733333Y-82937535D01*
X136669296Y-83000107D01*
X136594735Y-83052479D01*
X136499549Y-83089396D01*
X136393301Y-83109549D01*
X136285553Y-83111628D01*
X136185867Y-83094324D01*
X136132832Y-83073556D01*
X136060352Y-83024799D01*
X136007598Y-82959823D01*
X135972904Y-82874852D01*
X135954601Y-82766107D01*
X135950636Y-82660785D01*
X135951087Y-82519025D01*
X136341490Y-82118762D01*
X136731893Y-81718500D01*
X136732613Y-81114966D01*
X136733333Y-80511432D01*
X136420833Y-80078686D01*
X136108333Y-79645941D01*
X135681162Y-80067420D01*
X135566346Y-80180415D01*
X135472020Y-80272388D01*
X135395175Y-80345973D01*
X135332802Y-80403806D01*
X135281891Y-80448520D01*
X135239433Y-80482750D01*
X135202420Y-80509130D01*
X135167842Y-80530297D01*
X135132689Y-80548882D01*
X135129360Y-80550536D01*
X134992486Y-80603179D01*
X134861125Y-80622945D01*
X134735123Y-80609825D01*
X134614327Y-80563812D01*
X134544970Y-80520901D01*
X134525854Y-80505793D01*
X134505076Y-80485693D01*
X134481059Y-80458287D01*
X134452221Y-80421262D01*
X134416985Y-80372304D01*
X134373772Y-80309099D01*
X134321002Y-80229334D01*
X134257096Y-80130694D01*
X134180475Y-80010867D01*
X134089560Y-79867539D01*
X133982773Y-79698395D01*
X133972562Y-79682196D01*
X133479561Y-78899984D01*
X133488743Y-78791579D01*
X133511249Y-78649098D01*
X133552077Y-78532768D01*
X133610669Y-78443289D01*
X133686462Y-78381362D01*
X133778897Y-78347690D01*
X133848933Y-78341284D01*
X133906859Y-78346735D01*
X133978479Y-78361222D01*
X134054675Y-78381944D01*
X134126331Y-78406100D01*
X134184331Y-78430890D01*
X134219556Y-78453513D01*
X134221686Y-78455791D01*
X134235925Y-78475994D01*
X134265697Y-78520921D01*
X134308750Y-78587085D01*
X134362835Y-78670997D01*
X134425701Y-78769171D01*
X134495099Y-78878117D01*
X134548856Y-78962869D01*
X134852672Y-79442694D01*
X135047169Y-79256729D01*
X135094969Y-79211060D01*
X135164071Y-79145091D01*
X135251640Y-79061523D01*
X135354841Y-78963062D01*
X135470840Y-78852412D01*
X135596803Y-78732275D01*
X135729894Y-78605357D01*
X135867279Y-78474361D01*
X135987271Y-78359963D01*
X136732876Y-77649163D01*
X136733105Y-77380206D01*
X136733333Y-77111249D01*
X136437500Y-76888919D01*
X136350349Y-76824237D01*
X136271095Y-76766956D01*
X136203920Y-76719974D01*
X136153005Y-76686190D01*
X136122532Y-76668501D01*
X136116666Y-76666564D01*
X136098187Y-76675778D01*
X136055217Y-76702162D01*
X135990616Y-76743818D01*
X135907240Y-76798847D01*
X135807948Y-76865350D01*
X135695598Y-76941429D01*
X135573049Y-77025184D01*
X135468219Y-77097384D01*
X134844772Y-77528228D01*
X134739428Y-77519766D01*
X134635576Y-77501486D01*
X134545639Y-77466285D01*
X134476395Y-77417460D01*
X134443028Y-77375497D01*
X134421228Y-77312863D01*
X134412265Y-77231383D01*
X134416348Y-77143076D01*
X134433682Y-77059963D01*
X134437409Y-77048769D01*
X134443683Y-77033934D01*
X134453346Y-77018288D01*
X134468488Y-77000252D01*
X134491197Y-76978245D01*
X134523563Y-76950687D01*
X134567673Y-76915996D01*
X134625617Y-76872592D01*
X134699484Y-76818895D01*
X134791362Y-76753324D01*
X134903341Y-76674299D01*
X135037509Y-76580239D01*
X135195955Y-76469563D01*
X135284636Y-76407710D01*
X136108333Y-75833361D01*
X136220215Y-75826316D01*
X136285098Y-75824088D01*
X136338635Y-75828545D01*
X136388475Y-75842587D01*
X136442268Y-75869116D01*
X136507664Y-75911033D01*
X136581280Y-75963238D01*
X136733333Y-76073324D01*
X136733333Y-75180974D01*
X136733333Y-74288625D01*
X136833362Y-74288625D01*
X136933392Y-74288625D01*
X136929196Y-78912492D01*
G37*
%TD*%
M02*
