%TF.GenerationSoftware,KiCad,Pcbnew,7.0.1*%
%TF.CreationDate,2024-01-31T00:22:47-07:00*%
%TF.ProjectId,Portal Gun PiHAT,506f7274-616c-4204-9775-6e2050694841,rev?*%
%TF.SameCoordinates,Original*%
%TF.FileFunction,Copper,L2,Bot*%
%TF.FilePolarity,Positive*%
%FSLAX46Y46*%
G04 Gerber Fmt 4.6, Leading zero omitted, Abs format (unit mm)*
G04 Created by KiCad (PCBNEW 7.0.1) date 2024-01-31 00:22:47*
%MOMM*%
%LPD*%
G01*
G04 APERTURE LIST*
%TA.AperFunction,ComponentPad*%
%ADD10R,1.700000X1.700000*%
%TD*%
%TA.AperFunction,ComponentPad*%
%ADD11O,1.700000X1.700000*%
%TD*%
%TA.AperFunction,ComponentPad*%
%ADD12R,1.800000X1.800000*%
%TD*%
%TA.AperFunction,ComponentPad*%
%ADD13C,1.800000*%
%TD*%
%TA.AperFunction,ComponentPad*%
%ADD14R,2.600000X2.600000*%
%TD*%
%TA.AperFunction,ComponentPad*%
%ADD15C,2.600000*%
%TD*%
%TA.AperFunction,ComponentPad*%
%ADD16C,1.600000*%
%TD*%
%TA.AperFunction,Conductor*%
%ADD17C,1.000000*%
%TD*%
%TA.AperFunction,Conductor*%
%ADD18C,0.300000*%
%TD*%
G04 APERTURE END LIST*
D10*
%TO.P,J1,1,Pin_1*%
%TO.N,+5V*%
X102725000Y-60500000D03*
D11*
%TO.P,J1,2,Pin_2*%
%TO.N,GND*%
X105265000Y-60500000D03*
%TD*%
D10*
%TO.P,SW2,1,1*%
%TO.N,GPIO_SPARE_2*%
X114500000Y-52725000D03*
D11*
%TO.P,SW2,2,2*%
%TO.N,GND*%
X114500000Y-55265000D03*
%TD*%
D12*
%TO.P,D1,1,K*%
%TO.N,GND*%
X101575000Y-90000000D03*
D13*
%TO.P,D1,2,A*%
%TO.N,Net-(D1-A)*%
X104115000Y-90000000D03*
%TD*%
D14*
%TO.P,J6,1,Pin_1*%
%TO.N,LED_FWD_GPIO*%
X158150000Y-65300000D03*
D15*
%TO.P,J6,2,Pin_2*%
%TO.N,LED_PWR*%
X158150000Y-60300000D03*
%TO.P,J6,3,Pin_3*%
%TO.N,GND*%
X158150000Y-55300000D03*
%TD*%
D14*
%TO.P,J8,1,Pin_1*%
%TO.N,+5V*%
X117350000Y-92800000D03*
D15*
%TO.P,J8,2,Pin_2*%
X122350000Y-92800000D03*
%TO.P,J8,3,Pin_3*%
%TO.N,PB2_GPIO_WHT*%
X127350000Y-92800000D03*
%TO.P,J8,4,Pin_4*%
%TO.N,GND*%
X132350000Y-92800000D03*
%TD*%
D14*
%TO.P,J2,1,Pin_1*%
%TO.N,VIN*%
X105500000Y-76500000D03*
D15*
%TO.P,J2,2,Pin_2*%
%TO.N,GND*%
X105500000Y-81500000D03*
%TD*%
D16*
%TO.P,C1,1*%
%TO.N,VIN*%
X117500000Y-76500000D03*
%TO.P,C1,2*%
%TO.N,GND*%
X117500000Y-81500000D03*
%TD*%
D10*
%TO.P,J4,1,Pin_1*%
%TO.N,+3V3*%
X109200000Y-60500000D03*
D11*
%TO.P,J4,2,Pin_2*%
%TO.N,GND*%
X111740000Y-60500000D03*
%TD*%
D14*
%TO.P,J9,1,Pin_1*%
%TO.N,LED_AFT_GPIO*%
X158150000Y-81800000D03*
D15*
%TO.P,J9,2,Pin_2*%
%TO.N,LED_PWR*%
X158150000Y-76800000D03*
%TO.P,J9,3,Pin_3*%
%TO.N,GND*%
X158150000Y-71800000D03*
%TD*%
D10*
%TO.P,J5,1,Pin_1*%
%TO.N,+5V*%
X103225000Y-53000000D03*
D11*
%TO.P,J5,2,Pin_2*%
%TO.N,GND*%
X105765000Y-53000000D03*
%TD*%
D14*
%TO.P,J7,1,Pin_1*%
%TO.N,+5V*%
X138850000Y-92800000D03*
D15*
%TO.P,J7,2,Pin_2*%
X143850000Y-92800000D03*
%TO.P,J7,3,Pin_3*%
%TO.N,PB1_GPIO_WHT*%
X148850000Y-92800000D03*
%TO.P,J7,4,Pin_4*%
%TO.N,GND*%
X153850000Y-92800000D03*
%TD*%
D10*
%TO.P,SW1,1,1*%
%TO.N,GPIO_SPARE_1*%
X127000000Y-52725000D03*
D11*
%TO.P,SW1,2,2*%
%TO.N,GND*%
X127000000Y-55265000D03*
%TD*%
D10*
%TO.P,SW3,1*%
%TO.N,+5V*%
X161000000Y-90275000D03*
D11*
%TO.P,SW3,2*%
%TO.N,LED_PWR*%
X161000000Y-87735000D03*
%TD*%
D10*
%TO.P,J3,1,Pin_1*%
%TO.N,+3V3*%
X108370000Y-48770000D03*
D11*
%TO.P,J3,2,Pin_2*%
%TO.N,+5V*%
X108370000Y-46230000D03*
%TO.P,J3,3,Pin_3*%
%TO.N,GPIO_SPARE_2*%
X110910000Y-48770000D03*
%TO.P,J3,4,Pin_4*%
%TO.N,+5V*%
X110910000Y-46230000D03*
%TO.P,J3,5,Pin_5*%
%TO.N,/GPIO3{slash}SCL1*%
X113450000Y-48770000D03*
%TO.P,J3,6,Pin_6*%
%TO.N,GND*%
X113450000Y-46230000D03*
%TO.P,J3,7,Pin_7*%
%TO.N,/GPIO4{slash}GPCLK0*%
X115990000Y-48770000D03*
%TO.P,J3,8,Pin_8*%
%TO.N,/GPIO14{slash}TXD0*%
X115990000Y-46230000D03*
%TO.P,J3,9,Pin_9*%
%TO.N,GND*%
X118530000Y-48770000D03*
%TO.P,J3,10,Pin_10*%
%TO.N,PB2_GPIO_WHT*%
X118530000Y-46230000D03*
%TO.P,J3,11,Pin_11*%
%TO.N,PB1_GPIO_WHT*%
X121070000Y-48770000D03*
%TO.P,J3,12,Pin_12*%
%TO.N,LED_AFT_GPIO*%
X121070000Y-46230000D03*
%TO.P,J3,13,Pin_13*%
%TO.N,GPIO_SPARE_1*%
X123610000Y-48770000D03*
%TO.P,J3,14,Pin_14*%
%TO.N,GND*%
X123610000Y-46230000D03*
%TO.P,J3,15,Pin_15*%
%TO.N,/GPIO22*%
X126150000Y-48770000D03*
%TO.P,J3,16,Pin_16*%
%TO.N,/GPIO23*%
X126150000Y-46230000D03*
%TO.P,J3,17,Pin_17*%
%TO.N,+3V3*%
X128690000Y-48770000D03*
%TO.P,J3,18,Pin_18*%
%TO.N,/GPIO24*%
X128690000Y-46230000D03*
%TO.P,J3,19,Pin_19*%
%TO.N,/GPIO10{slash}SPI0.MOSI*%
X131230000Y-48770000D03*
%TO.P,J3,20,Pin_20*%
%TO.N,GND*%
X131230000Y-46230000D03*
%TO.P,J3,21,Pin_21*%
%TO.N,/GPIO9{slash}SPI0.MISO*%
X133770000Y-48770000D03*
%TO.P,J3,22,Pin_22*%
%TO.N,/GPIO25*%
X133770000Y-46230000D03*
%TO.P,J3,23,Pin_23*%
%TO.N,/GPIO11{slash}SPI0.SCLK*%
X136310000Y-48770000D03*
%TO.P,J3,24,Pin_24*%
%TO.N,/GPIO8{slash}SPI0.CE0*%
X136310000Y-46230000D03*
%TO.P,J3,25,Pin_25*%
%TO.N,GND*%
X138850000Y-48770000D03*
%TO.P,J3,26,Pin_26*%
%TO.N,/GPIO7{slash}SPI0.CE1*%
X138850000Y-46230000D03*
%TO.P,J3,27,Pin_27*%
%TO.N,/ID_SDA*%
X141390000Y-48770000D03*
%TO.P,J3,28,Pin_28*%
%TO.N,/ID_SCL*%
X141390000Y-46230000D03*
%TO.P,J3,29,Pin_29*%
%TO.N,/GPIO5*%
X143930000Y-48770000D03*
%TO.P,J3,30,Pin_30*%
%TO.N,GND*%
X143930000Y-46230000D03*
%TO.P,J3,31,Pin_31*%
%TO.N,/GPIO6*%
X146470000Y-48770000D03*
%TO.P,J3,32,Pin_32*%
%TO.N,/GPIO12{slash}PWM0*%
X146470000Y-46230000D03*
%TO.P,J3,33,Pin_33*%
%TO.N,/GPIO13{slash}PWM1*%
X149010000Y-48770000D03*
%TO.P,J3,34,Pin_34*%
%TO.N,GND*%
X149010000Y-46230000D03*
%TO.P,J3,35,Pin_35*%
%TO.N,/GPIO19{slash}PCM.FS*%
X151550000Y-48770000D03*
%TO.P,J3,36,Pin_36*%
%TO.N,/GPIO16*%
X151550000Y-46230000D03*
%TO.P,J3,37,Pin_37*%
%TO.N,/GPIO26*%
X154090000Y-48770000D03*
%TO.P,J3,38,Pin_38*%
%TO.N,/GPIO20{slash}PCM.DIN*%
X154090000Y-46230000D03*
%TO.P,J3,39,Pin_39*%
%TO.N,GND*%
X156630000Y-48770000D03*
%TO.P,J3,40,Pin_40*%
%TO.N,LED_FWD_GPIO*%
X156630000Y-46230000D03*
%TD*%
D17*
%TO.N,GND*%
X132350000Y-92800000D02*
X121050000Y-81500000D01*
X105500000Y-81500000D02*
X117500000Y-81500000D01*
X135700000Y-89450000D02*
X150500000Y-89450000D01*
X121050000Y-81500000D02*
X117500000Y-81500000D01*
X132350000Y-92800000D02*
X135700000Y-89450000D01*
X150500000Y-89450000D02*
X153850000Y-92800000D01*
D18*
%TO.N,LED_AFT_GPIO*%
X122325000Y-50275000D02*
X121975000Y-50625000D01*
X125900000Y-69750000D02*
X137950000Y-81800000D01*
X121070000Y-46230000D02*
X122325000Y-47485000D01*
X122325000Y-47485000D02*
X122325000Y-50275000D01*
X121975000Y-56475000D02*
X123300000Y-57800000D01*
X125900000Y-59500000D02*
X125900000Y-69750000D01*
X124200000Y-57800000D02*
X125900000Y-59500000D01*
X137950000Y-81800000D02*
X158150000Y-81800000D01*
X123300000Y-57800000D02*
X124200000Y-57800000D01*
X121975000Y-50625000D02*
X121975000Y-56475000D01*
%TO.N,LED_FWD_GPIO*%
X155350000Y-62500000D02*
X158150000Y-65300000D01*
X155350000Y-47510000D02*
X155350000Y-62500000D01*
X156630000Y-46230000D02*
X155350000Y-47510000D01*
%TD*%
%TA.AperFunction,Conductor*%
%TO.N,GND*%
G36*
X162003243Y-44000669D02*
G01*
X162133379Y-44007490D01*
X162313908Y-44017628D01*
X162326309Y-44018955D01*
X162474990Y-44042504D01*
X162476245Y-44042709D01*
X162635324Y-44069738D01*
X162646606Y-44072202D01*
X162795635Y-44112134D01*
X162797761Y-44112725D01*
X162949174Y-44156347D01*
X162959260Y-44159729D01*
X163104710Y-44215562D01*
X163107599Y-44216714D01*
X163251768Y-44276430D01*
X163260594Y-44280500D01*
X163400064Y-44351565D01*
X163403748Y-44353521D01*
X163493848Y-44403316D01*
X163539548Y-44428574D01*
X163547061Y-44433081D01*
X163678754Y-44518604D01*
X163682947Y-44521452D01*
X163809147Y-44610996D01*
X163815428Y-44615759D01*
X163937567Y-44714665D01*
X163942158Y-44718571D01*
X164057424Y-44821579D01*
X164062478Y-44826358D01*
X164173640Y-44937520D01*
X164178419Y-44942574D01*
X164281427Y-45057840D01*
X164285333Y-45062431D01*
X164384239Y-45184570D01*
X164389002Y-45190851D01*
X164478546Y-45317051D01*
X164481409Y-45321266D01*
X164566907Y-45452921D01*
X164571430Y-45460460D01*
X164646477Y-45596250D01*
X164648433Y-45599934D01*
X164719498Y-45739404D01*
X164723575Y-45748247D01*
X164783259Y-45892337D01*
X164784462Y-45895353D01*
X164840265Y-46040727D01*
X164843655Y-46050836D01*
X164887258Y-46202185D01*
X164887879Y-46204419D01*
X164927791Y-46353370D01*
X164930264Y-46364694D01*
X164957282Y-46523715D01*
X164957507Y-46525087D01*
X164981040Y-46673666D01*
X164982372Y-46686111D01*
X164992498Y-46866421D01*
X164992523Y-46866884D01*
X164999330Y-46996757D01*
X164999500Y-47003247D01*
X164999500Y-96996753D01*
X164999330Y-97003243D01*
X164992523Y-97133114D01*
X164992498Y-97133577D01*
X164982372Y-97313887D01*
X164981040Y-97326332D01*
X164957507Y-97474911D01*
X164957282Y-97476283D01*
X164930264Y-97635304D01*
X164927791Y-97646628D01*
X164887879Y-97795579D01*
X164887258Y-97797813D01*
X164843655Y-97949162D01*
X164840265Y-97959271D01*
X164784462Y-98104645D01*
X164783259Y-98107661D01*
X164723575Y-98251751D01*
X164719498Y-98260594D01*
X164648433Y-98400064D01*
X164646477Y-98403748D01*
X164571430Y-98539538D01*
X164566897Y-98547094D01*
X164481412Y-98678728D01*
X164478546Y-98682947D01*
X164389002Y-98809147D01*
X164384239Y-98815428D01*
X164285333Y-98937567D01*
X164281427Y-98942158D01*
X164178419Y-99057424D01*
X164173640Y-99062478D01*
X164062478Y-99173640D01*
X164057424Y-99178419D01*
X163942158Y-99281427D01*
X163937567Y-99285333D01*
X163815428Y-99384239D01*
X163809147Y-99389002D01*
X163682947Y-99478546D01*
X163678728Y-99481412D01*
X163547094Y-99566897D01*
X163539538Y-99571430D01*
X163403748Y-99646477D01*
X163400064Y-99648433D01*
X163260594Y-99719498D01*
X163251751Y-99723575D01*
X163107661Y-99783259D01*
X163104645Y-99784462D01*
X162959271Y-99840265D01*
X162949162Y-99843655D01*
X162797813Y-99887258D01*
X162795579Y-99887879D01*
X162646628Y-99927791D01*
X162635304Y-99930264D01*
X162476283Y-99957282D01*
X162474911Y-99957507D01*
X162326332Y-99981040D01*
X162313887Y-99982372D01*
X162133577Y-99992498D01*
X162133114Y-99992523D01*
X162003243Y-99999330D01*
X161996753Y-99999500D01*
X103003247Y-99999500D01*
X102996757Y-99999330D01*
X102866884Y-99992523D01*
X102866421Y-99992498D01*
X102686111Y-99982372D01*
X102673666Y-99981040D01*
X102525087Y-99957507D01*
X102523715Y-99957282D01*
X102364694Y-99930264D01*
X102353370Y-99927791D01*
X102204419Y-99887879D01*
X102202185Y-99887258D01*
X102050836Y-99843655D01*
X102040727Y-99840265D01*
X101895353Y-99784462D01*
X101892337Y-99783259D01*
X101748247Y-99723575D01*
X101739404Y-99719498D01*
X101599934Y-99648433D01*
X101596250Y-99646477D01*
X101460460Y-99571430D01*
X101452921Y-99566907D01*
X101321266Y-99481409D01*
X101317051Y-99478546D01*
X101190851Y-99389002D01*
X101184570Y-99384239D01*
X101062431Y-99285333D01*
X101057840Y-99281427D01*
X100942574Y-99178419D01*
X100937520Y-99173640D01*
X100826358Y-99062478D01*
X100821579Y-99057424D01*
X100718571Y-98942158D01*
X100714665Y-98937567D01*
X100615759Y-98815428D01*
X100610996Y-98809147D01*
X100521452Y-98682947D01*
X100518604Y-98678754D01*
X100433081Y-98547061D01*
X100428568Y-98539538D01*
X100353521Y-98403748D01*
X100351565Y-98400064D01*
X100280500Y-98260594D01*
X100276430Y-98251768D01*
X100216714Y-98107599D01*
X100215562Y-98104710D01*
X100159729Y-97959260D01*
X100156347Y-97949174D01*
X100112725Y-97797761D01*
X100112134Y-97795635D01*
X100072202Y-97646606D01*
X100069738Y-97635324D01*
X100042709Y-97476245D01*
X100042491Y-97474911D01*
X100018955Y-97326309D01*
X100017628Y-97313908D01*
X100007485Y-97133285D01*
X100007476Y-97133114D01*
X100000669Y-97003243D01*
X100000500Y-96996755D01*
X100000500Y-96500000D01*
X101894551Y-96500000D01*
X101914317Y-96751149D01*
X101973126Y-96996110D01*
X102021330Y-97112484D01*
X102069534Y-97228859D01*
X102201164Y-97443659D01*
X102364776Y-97635224D01*
X102556341Y-97798836D01*
X102771141Y-97930466D01*
X103003889Y-98026873D01*
X103248852Y-98085683D01*
X103437118Y-98100500D01*
X103562879Y-98100500D01*
X103562882Y-98100500D01*
X103751148Y-98085683D01*
X103996111Y-98026873D01*
X104228859Y-97930466D01*
X104443659Y-97798836D01*
X104635224Y-97635224D01*
X104798836Y-97443659D01*
X104930466Y-97228859D01*
X105026873Y-96996111D01*
X105085683Y-96751148D01*
X105105449Y-96500000D01*
X159894551Y-96500000D01*
X159914317Y-96751149D01*
X159973126Y-96996110D01*
X160021330Y-97112485D01*
X160069534Y-97228859D01*
X160201164Y-97443659D01*
X160364776Y-97635224D01*
X160556341Y-97798836D01*
X160771141Y-97930466D01*
X161003889Y-98026873D01*
X161248852Y-98085683D01*
X161437118Y-98100500D01*
X161562879Y-98100500D01*
X161562882Y-98100500D01*
X161751148Y-98085683D01*
X161996111Y-98026873D01*
X162228859Y-97930466D01*
X162443659Y-97798836D01*
X162635224Y-97635224D01*
X162798836Y-97443659D01*
X162930466Y-97228859D01*
X163026873Y-96996111D01*
X163085683Y-96751148D01*
X163105449Y-96500000D01*
X163085683Y-96248852D01*
X163026873Y-96003889D01*
X162930466Y-95771141D01*
X162798836Y-95556341D01*
X162635224Y-95364776D01*
X162443659Y-95201164D01*
X162228859Y-95069534D01*
X162112485Y-95021330D01*
X161996110Y-94973126D01*
X161751149Y-94914317D01*
X161704081Y-94910612D01*
X161562882Y-94899500D01*
X161437118Y-94899500D01*
X161324158Y-94908390D01*
X161248850Y-94914317D01*
X161003889Y-94973126D01*
X160771139Y-95069535D01*
X160556342Y-95201163D01*
X160364776Y-95364776D01*
X160201163Y-95556342D01*
X160069535Y-95771139D01*
X159973126Y-96003889D01*
X159914317Y-96248850D01*
X159894551Y-96500000D01*
X105105449Y-96500000D01*
X105085683Y-96248852D01*
X105026873Y-96003889D01*
X104930466Y-95771141D01*
X104798836Y-95556341D01*
X104635224Y-95364776D01*
X104443659Y-95201164D01*
X104228859Y-95069534D01*
X104112485Y-95021330D01*
X103996110Y-94973126D01*
X103751149Y-94914317D01*
X103704081Y-94910612D01*
X103562882Y-94899500D01*
X103437118Y-94899500D01*
X103324158Y-94908390D01*
X103248850Y-94914317D01*
X103003889Y-94973126D01*
X102771139Y-95069535D01*
X102556342Y-95201163D01*
X102364776Y-95364776D01*
X102201163Y-95556342D01*
X102069535Y-95771139D01*
X101973126Y-96003889D01*
X101914317Y-96248850D01*
X101894551Y-96500000D01*
X100000500Y-96500000D01*
X100000500Y-94144867D01*
X115749500Y-94144867D01*
X115752414Y-94169988D01*
X115752414Y-94169990D01*
X115752415Y-94169991D01*
X115779117Y-94230466D01*
X115797795Y-94272767D01*
X115877232Y-94352204D01*
X115877233Y-94352204D01*
X115877235Y-94352206D01*
X115980009Y-94397585D01*
X116005135Y-94400500D01*
X118694864Y-94400499D01*
X118694867Y-94400499D01*
X118707427Y-94399041D01*
X118719991Y-94397585D01*
X118822765Y-94352206D01*
X118902206Y-94272765D01*
X118947585Y-94169991D01*
X118950500Y-94144865D01*
X118950499Y-92800000D01*
X120744551Y-92800000D01*
X120764317Y-93051149D01*
X120823126Y-93296110D01*
X120871330Y-93412484D01*
X120919534Y-93528859D01*
X121051164Y-93743659D01*
X121214776Y-93935224D01*
X121406341Y-94098836D01*
X121621141Y-94230466D01*
X121853889Y-94326873D01*
X122098852Y-94385683D01*
X122350000Y-94405449D01*
X122601148Y-94385683D01*
X122846111Y-94326873D01*
X123078859Y-94230466D01*
X123293659Y-94098836D01*
X123485224Y-93935224D01*
X123648836Y-93743659D01*
X123780466Y-93528859D01*
X123876873Y-93296111D01*
X123935683Y-93051148D01*
X123955449Y-92800000D01*
X125744551Y-92800000D01*
X125764317Y-93051149D01*
X125823126Y-93296110D01*
X125871330Y-93412484D01*
X125919534Y-93528859D01*
X126051164Y-93743659D01*
X126214776Y-93935224D01*
X126406341Y-94098836D01*
X126621141Y-94230466D01*
X126853889Y-94326873D01*
X127098852Y-94385683D01*
X127350000Y-94405449D01*
X127601148Y-94385683D01*
X127846111Y-94326873D01*
X128078859Y-94230466D01*
X128218543Y-94144867D01*
X137249500Y-94144867D01*
X137252414Y-94169988D01*
X137252414Y-94169990D01*
X137252415Y-94169991D01*
X137279117Y-94230466D01*
X137297795Y-94272767D01*
X137377232Y-94352204D01*
X137377233Y-94352204D01*
X137377235Y-94352206D01*
X137480009Y-94397585D01*
X137505135Y-94400500D01*
X140194864Y-94400499D01*
X140194867Y-94400499D01*
X140207427Y-94399041D01*
X140219991Y-94397585D01*
X140322765Y-94352206D01*
X140402206Y-94272765D01*
X140447585Y-94169991D01*
X140450500Y-94144865D01*
X140450499Y-92799999D01*
X142244551Y-92799999D01*
X142264317Y-93051149D01*
X142323126Y-93296110D01*
X142371330Y-93412484D01*
X142419534Y-93528859D01*
X142551164Y-93743659D01*
X142714776Y-93935224D01*
X142906341Y-94098836D01*
X143121141Y-94230466D01*
X143353889Y-94326873D01*
X143598852Y-94385683D01*
X143850000Y-94405449D01*
X144101148Y-94385683D01*
X144346111Y-94326873D01*
X144578859Y-94230466D01*
X144793659Y-94098836D01*
X144985224Y-93935224D01*
X145148836Y-93743659D01*
X145280466Y-93528859D01*
X145376873Y-93296111D01*
X145435683Y-93051148D01*
X145455449Y-92800000D01*
X145455449Y-92799999D01*
X147244551Y-92799999D01*
X147264317Y-93051149D01*
X147323126Y-93296110D01*
X147371330Y-93412484D01*
X147419534Y-93528859D01*
X147551164Y-93743659D01*
X147714776Y-93935224D01*
X147906341Y-94098836D01*
X148121141Y-94230466D01*
X148353889Y-94326873D01*
X148598852Y-94385683D01*
X148850000Y-94405449D01*
X149101148Y-94385683D01*
X149346111Y-94326873D01*
X149578859Y-94230466D01*
X149793659Y-94098836D01*
X149985224Y-93935224D01*
X150148836Y-93743659D01*
X150280466Y-93528859D01*
X150376873Y-93296111D01*
X150435683Y-93051148D01*
X150455449Y-92800000D01*
X150435683Y-92548852D01*
X150376873Y-92303889D01*
X150280466Y-92071141D01*
X150148836Y-91856341D01*
X149985224Y-91664776D01*
X149793659Y-91501164D01*
X149578859Y-91369534D01*
X149462484Y-91321330D01*
X149346110Y-91273126D01*
X149101149Y-91214317D01*
X148850000Y-91194551D01*
X148598850Y-91214317D01*
X148353889Y-91273126D01*
X148121139Y-91369535D01*
X147906342Y-91501163D01*
X147714776Y-91664776D01*
X147551163Y-91856342D01*
X147419535Y-92071139D01*
X147323126Y-92303889D01*
X147264317Y-92548850D01*
X147244551Y-92799999D01*
X145455449Y-92799999D01*
X145435683Y-92548852D01*
X145376873Y-92303889D01*
X145280466Y-92071141D01*
X145148836Y-91856341D01*
X144985224Y-91664776D01*
X144793659Y-91501164D01*
X144578859Y-91369534D01*
X144462484Y-91321330D01*
X144346110Y-91273126D01*
X144101149Y-91214317D01*
X143850000Y-91194551D01*
X143598850Y-91214317D01*
X143353889Y-91273126D01*
X143121139Y-91369535D01*
X142906342Y-91501163D01*
X142714776Y-91664776D01*
X142551163Y-91856342D01*
X142419535Y-92071139D01*
X142323126Y-92303889D01*
X142264317Y-92548850D01*
X142244551Y-92799999D01*
X140450499Y-92799999D01*
X140450499Y-91455136D01*
X140447585Y-91430009D01*
X140402206Y-91327235D01*
X140402204Y-91327233D01*
X140402204Y-91327232D01*
X140322767Y-91247795D01*
X140322765Y-91247794D01*
X140219991Y-91202415D01*
X140194865Y-91199500D01*
X140194863Y-91199500D01*
X137505132Y-91199500D01*
X137480011Y-91202414D01*
X137377232Y-91247795D01*
X137297795Y-91327232D01*
X137252415Y-91430009D01*
X137249500Y-91455136D01*
X137249500Y-94144867D01*
X128218543Y-94144867D01*
X128293659Y-94098836D01*
X128485224Y-93935224D01*
X128648836Y-93743659D01*
X128780466Y-93528859D01*
X128876873Y-93296111D01*
X128935683Y-93051148D01*
X128955449Y-92800000D01*
X128935683Y-92548852D01*
X128876873Y-92303889D01*
X128780466Y-92071141D01*
X128648836Y-91856341D01*
X128485224Y-91664776D01*
X128293659Y-91501164D01*
X128078859Y-91369534D01*
X127962484Y-91321330D01*
X127846110Y-91273126D01*
X127601149Y-91214317D01*
X127350000Y-91194551D01*
X127098850Y-91214317D01*
X126853889Y-91273126D01*
X126621139Y-91369535D01*
X126406342Y-91501163D01*
X126214776Y-91664776D01*
X126051163Y-91856342D01*
X125919535Y-92071139D01*
X125823126Y-92303889D01*
X125764317Y-92548850D01*
X125744551Y-92800000D01*
X123955449Y-92800000D01*
X123935683Y-92548852D01*
X123876873Y-92303889D01*
X123780466Y-92071141D01*
X123648836Y-91856341D01*
X123485224Y-91664776D01*
X123293659Y-91501164D01*
X123078859Y-91369534D01*
X122962484Y-91321330D01*
X122846110Y-91273126D01*
X122601149Y-91214317D01*
X122350000Y-91194551D01*
X122098850Y-91214317D01*
X121853889Y-91273126D01*
X121621139Y-91369535D01*
X121406342Y-91501163D01*
X121214776Y-91664776D01*
X121051163Y-91856342D01*
X120919535Y-92071139D01*
X120823126Y-92303889D01*
X120764317Y-92548850D01*
X120744551Y-92800000D01*
X118950499Y-92800000D01*
X118950499Y-91455136D01*
X118947585Y-91430009D01*
X118902206Y-91327235D01*
X118902204Y-91327233D01*
X118902204Y-91327232D01*
X118822767Y-91247795D01*
X118822765Y-91247794D01*
X118719991Y-91202415D01*
X118694865Y-91199500D01*
X118694863Y-91199500D01*
X116005132Y-91199500D01*
X115980011Y-91202414D01*
X115877232Y-91247795D01*
X115797795Y-91327232D01*
X115752415Y-91430009D01*
X115749500Y-91455136D01*
X115749500Y-94144867D01*
X100000500Y-94144867D01*
X100000500Y-90000000D01*
X102909357Y-90000000D01*
X102929885Y-90221537D01*
X102990769Y-90435526D01*
X103089941Y-90634688D01*
X103224019Y-90812237D01*
X103388437Y-90962124D01*
X103577595Y-91079245D01*
X103577597Y-91079245D01*
X103577599Y-91079247D01*
X103785060Y-91159618D01*
X104003757Y-91200500D01*
X104226241Y-91200500D01*
X104226243Y-91200500D01*
X104444940Y-91159618D01*
X104652401Y-91079247D01*
X104841562Y-90962124D01*
X105005981Y-90812236D01*
X105140058Y-90634689D01*
X105239229Y-90435528D01*
X105300115Y-90221536D01*
X105320643Y-90000000D01*
X105300115Y-89778464D01*
X105277227Y-89698021D01*
X105239230Y-89564473D01*
X105140058Y-89365311D01*
X105005980Y-89187762D01*
X104841562Y-89037875D01*
X104652404Y-88920754D01*
X104543620Y-88878611D01*
X104444940Y-88840382D01*
X104226243Y-88799500D01*
X104003757Y-88799500D01*
X103785059Y-88840382D01*
X103785060Y-88840382D01*
X103577595Y-88920754D01*
X103388437Y-89037875D01*
X103224019Y-89187762D01*
X103089941Y-89365311D01*
X102990769Y-89564473D01*
X102929885Y-89778462D01*
X102909357Y-90000000D01*
X100000500Y-90000000D01*
X100000500Y-87735000D01*
X159844571Y-87735000D01*
X159864243Y-87947310D01*
X159922595Y-88152390D01*
X160017631Y-88343252D01*
X160146126Y-88513405D01*
X160146128Y-88513407D01*
X160303698Y-88657052D01*
X160484981Y-88769298D01*
X160683802Y-88846321D01*
X160856546Y-88878612D01*
X160911496Y-88903894D01*
X160947950Y-88952166D01*
X160957229Y-89011941D01*
X160937125Y-89068993D01*
X160892422Y-89109745D01*
X160833758Y-89124500D01*
X160105132Y-89124500D01*
X160080011Y-89127414D01*
X159977232Y-89172795D01*
X159897795Y-89252232D01*
X159852415Y-89355009D01*
X159849500Y-89380136D01*
X159849500Y-91169867D01*
X159852414Y-91194988D01*
X159852414Y-91194990D01*
X159852415Y-91194991D01*
X159875730Y-91247794D01*
X159897795Y-91297767D01*
X159977232Y-91377204D01*
X159977233Y-91377204D01*
X159977235Y-91377206D01*
X160080009Y-91422585D01*
X160105135Y-91425500D01*
X161894864Y-91425499D01*
X161894867Y-91425499D01*
X161907427Y-91424042D01*
X161919991Y-91422585D01*
X162022765Y-91377206D01*
X162102206Y-91297765D01*
X162147585Y-91194991D01*
X162150500Y-91169865D01*
X162150499Y-89380136D01*
X162147585Y-89355009D01*
X162102206Y-89252235D01*
X162102204Y-89252233D01*
X162102204Y-89252232D01*
X162022767Y-89172795D01*
X162022765Y-89172794D01*
X161919991Y-89127415D01*
X161894864Y-89124500D01*
X161166242Y-89124500D01*
X161107578Y-89109746D01*
X161062875Y-89068993D01*
X161042771Y-89011941D01*
X161052050Y-88952167D01*
X161088503Y-88903894D01*
X161143453Y-88878612D01*
X161316198Y-88846321D01*
X161515019Y-88769298D01*
X161696302Y-88657052D01*
X161853872Y-88513407D01*
X161982366Y-88343255D01*
X161982366Y-88343253D01*
X161982368Y-88343252D01*
X162030080Y-88247430D01*
X162077405Y-88152389D01*
X162135756Y-87947310D01*
X162155429Y-87735000D01*
X162135756Y-87522690D01*
X162077405Y-87317611D01*
X162077014Y-87316827D01*
X161982368Y-87126747D01*
X161853873Y-86956594D01*
X161696301Y-86812947D01*
X161515017Y-86700701D01*
X161316198Y-86623679D01*
X161106610Y-86584500D01*
X160893390Y-86584500D01*
X160753664Y-86610619D01*
X160683801Y-86623679D01*
X160484982Y-86700701D01*
X160303698Y-86812947D01*
X160146126Y-86956594D01*
X160017631Y-87126747D01*
X159922595Y-87317609D01*
X159864243Y-87522689D01*
X159844571Y-87735000D01*
X100000500Y-87735000D01*
X100000500Y-77844867D01*
X103899500Y-77844867D01*
X103902414Y-77869988D01*
X103947795Y-77972767D01*
X104027232Y-78052204D01*
X104027233Y-78052204D01*
X104027235Y-78052206D01*
X104130009Y-78097585D01*
X104155135Y-78100500D01*
X106844864Y-78100499D01*
X106844867Y-78100499D01*
X106857427Y-78099042D01*
X106869991Y-78097585D01*
X106972765Y-78052206D01*
X107052206Y-77972765D01*
X107097585Y-77869991D01*
X107100500Y-77844865D01*
X107100499Y-76500000D01*
X116394785Y-76500000D01*
X116413602Y-76703083D01*
X116469418Y-76899251D01*
X116560324Y-77081818D01*
X116683236Y-77244580D01*
X116833958Y-77381981D01*
X117007361Y-77489347D01*
X117007363Y-77489348D01*
X117197544Y-77563024D01*
X117398024Y-77600500D01*
X117601974Y-77600500D01*
X117601976Y-77600500D01*
X117802456Y-77563024D01*
X117992637Y-77489348D01*
X118166041Y-77381981D01*
X118316764Y-77244579D01*
X118439673Y-77081821D01*
X118439673Y-77081819D01*
X118439675Y-77081818D01*
X118485313Y-76990161D01*
X118530582Y-76899250D01*
X118586397Y-76703083D01*
X118605215Y-76500000D01*
X118586397Y-76296917D01*
X118530582Y-76100750D01*
X118515838Y-76071139D01*
X118439675Y-75918181D01*
X118316763Y-75755419D01*
X118166041Y-75618018D01*
X117992638Y-75510652D01*
X117802457Y-75436976D01*
X117735629Y-75424483D01*
X117601976Y-75399500D01*
X117398024Y-75399500D01*
X117297783Y-75418238D01*
X117197542Y-75436976D01*
X117007361Y-75510652D01*
X116833958Y-75618018D01*
X116683236Y-75755419D01*
X116560324Y-75918181D01*
X116469418Y-76100748D01*
X116413602Y-76296916D01*
X116394785Y-76500000D01*
X107100499Y-76500000D01*
X107100499Y-75155136D01*
X107097585Y-75130009D01*
X107052206Y-75027235D01*
X107052204Y-75027233D01*
X107052204Y-75027232D01*
X106972767Y-74947795D01*
X106972765Y-74947794D01*
X106869991Y-74902415D01*
X106844865Y-74899500D01*
X106844863Y-74899500D01*
X104155132Y-74899500D01*
X104130011Y-74902414D01*
X104027232Y-74947795D01*
X103947795Y-75027232D01*
X103902415Y-75130009D01*
X103899500Y-75155136D01*
X103899500Y-77844867D01*
X100000500Y-77844867D01*
X100000500Y-61394867D01*
X101574500Y-61394867D01*
X101577414Y-61419988D01*
X101622795Y-61522767D01*
X101702232Y-61602204D01*
X101702233Y-61602204D01*
X101702235Y-61602206D01*
X101805009Y-61647585D01*
X101830135Y-61650500D01*
X103619864Y-61650499D01*
X103619867Y-61650499D01*
X103632427Y-61649042D01*
X103644991Y-61647585D01*
X103747765Y-61602206D01*
X103827206Y-61522765D01*
X103872585Y-61419991D01*
X103875500Y-61394867D01*
X108049500Y-61394867D01*
X108052414Y-61419988D01*
X108097795Y-61522767D01*
X108177232Y-61602204D01*
X108177233Y-61602204D01*
X108177235Y-61602206D01*
X108280009Y-61647585D01*
X108305135Y-61650500D01*
X110094864Y-61650499D01*
X110094867Y-61650499D01*
X110107427Y-61649042D01*
X110119991Y-61647585D01*
X110222765Y-61602206D01*
X110302206Y-61522765D01*
X110347585Y-61419991D01*
X110350500Y-61394865D01*
X110350499Y-59605136D01*
X110347585Y-59580009D01*
X110302206Y-59477235D01*
X110302204Y-59477233D01*
X110302204Y-59477232D01*
X110222767Y-59397795D01*
X110222765Y-59397794D01*
X110119991Y-59352415D01*
X110094865Y-59349500D01*
X110094863Y-59349500D01*
X108305132Y-59349500D01*
X108280011Y-59352414D01*
X108177232Y-59397795D01*
X108097795Y-59477232D01*
X108052415Y-59580009D01*
X108049500Y-59605136D01*
X108049500Y-61394867D01*
X103875500Y-61394867D01*
X103875500Y-61394865D01*
X103875499Y-59605136D01*
X103872585Y-59580009D01*
X103827206Y-59477235D01*
X103827204Y-59477233D01*
X103827204Y-59477232D01*
X103747767Y-59397795D01*
X103747765Y-59397794D01*
X103644991Y-59352415D01*
X103619865Y-59349500D01*
X103619863Y-59349500D01*
X101830132Y-59349500D01*
X101805011Y-59352414D01*
X101702232Y-59397795D01*
X101622795Y-59477232D01*
X101577415Y-59580009D01*
X101574500Y-59605136D01*
X101574500Y-61394867D01*
X100000500Y-61394867D01*
X100000500Y-53894867D01*
X102074500Y-53894867D01*
X102077414Y-53919988D01*
X102122795Y-54022767D01*
X102202232Y-54102204D01*
X102202233Y-54102204D01*
X102202235Y-54102206D01*
X102305009Y-54147585D01*
X102330135Y-54150500D01*
X104119864Y-54150499D01*
X104119867Y-54150499D01*
X104132427Y-54149042D01*
X104144991Y-54147585D01*
X104247765Y-54102206D01*
X104327206Y-54022765D01*
X104372585Y-53919991D01*
X104375500Y-53894865D01*
X104375500Y-53619867D01*
X113349500Y-53619867D01*
X113352414Y-53644988D01*
X113397795Y-53747767D01*
X113477232Y-53827204D01*
X113477233Y-53827204D01*
X113477235Y-53827206D01*
X113580009Y-53872585D01*
X113605135Y-53875500D01*
X115394864Y-53875499D01*
X115394867Y-53875499D01*
X115407427Y-53874042D01*
X115419991Y-53872585D01*
X115522765Y-53827206D01*
X115602206Y-53747765D01*
X115647585Y-53644991D01*
X115650500Y-53619865D01*
X115650499Y-51830136D01*
X115647585Y-51805009D01*
X115602206Y-51702235D01*
X115602204Y-51702233D01*
X115602204Y-51702232D01*
X115522767Y-51622795D01*
X115522765Y-51622794D01*
X115419991Y-51577415D01*
X115394865Y-51574500D01*
X115394863Y-51574500D01*
X113605132Y-51574500D01*
X113580011Y-51577414D01*
X113477232Y-51622795D01*
X113397795Y-51702232D01*
X113352415Y-51805009D01*
X113349500Y-51830136D01*
X113349500Y-53619867D01*
X104375500Y-53619867D01*
X104375499Y-52105136D01*
X104372585Y-52080009D01*
X104327206Y-51977235D01*
X104327204Y-51977233D01*
X104327204Y-51977232D01*
X104247767Y-51897795D01*
X104247765Y-51897794D01*
X104144991Y-51852415D01*
X104119865Y-51849500D01*
X104119863Y-51849500D01*
X102330132Y-51849500D01*
X102305011Y-51852414D01*
X102202232Y-51897795D01*
X102122795Y-51977232D01*
X102077415Y-52080009D01*
X102074500Y-52105136D01*
X102074500Y-53894867D01*
X100000500Y-53894867D01*
X100000500Y-47003245D01*
X100000670Y-46996756D01*
X100003022Y-46951873D01*
X100007501Y-46866421D01*
X100017628Y-46686087D01*
X100018954Y-46673694D01*
X100042513Y-46524947D01*
X100042700Y-46523809D01*
X100069739Y-46364666D01*
X100072199Y-46353402D01*
X100105265Y-46230000D01*
X107214571Y-46230000D01*
X107234243Y-46442310D01*
X107292595Y-46647390D01*
X107387631Y-46838252D01*
X107512231Y-47003247D01*
X107516128Y-47008407D01*
X107673698Y-47152052D01*
X107854981Y-47264298D01*
X108053802Y-47341321D01*
X108226546Y-47373612D01*
X108281496Y-47398894D01*
X108317950Y-47447166D01*
X108327229Y-47506941D01*
X108307125Y-47563993D01*
X108262422Y-47604745D01*
X108203758Y-47619500D01*
X107475132Y-47619500D01*
X107450011Y-47622414D01*
X107347232Y-47667795D01*
X107267795Y-47747232D01*
X107222415Y-47850009D01*
X107219500Y-47875136D01*
X107219500Y-49664867D01*
X107222414Y-49689988D01*
X107222414Y-49689990D01*
X107222415Y-49689991D01*
X107256100Y-49766281D01*
X107267795Y-49792767D01*
X107347232Y-49872204D01*
X107347233Y-49872204D01*
X107347235Y-49872206D01*
X107450009Y-49917585D01*
X107475135Y-49920500D01*
X109264864Y-49920499D01*
X109264867Y-49920499D01*
X109277427Y-49919041D01*
X109289991Y-49917585D01*
X109392765Y-49872206D01*
X109472206Y-49792765D01*
X109517585Y-49689991D01*
X109520500Y-49664865D01*
X109520499Y-48926046D01*
X109536170Y-48865710D01*
X109579221Y-48820622D01*
X109638772Y-48802181D01*
X109699770Y-48815049D01*
X109746799Y-48855972D01*
X109767970Y-48914607D01*
X109774243Y-48982310D01*
X109832595Y-49187390D01*
X109927631Y-49378252D01*
X110056126Y-49548405D01*
X110056128Y-49548407D01*
X110213698Y-49692052D01*
X110394981Y-49804298D01*
X110593802Y-49881321D01*
X110803390Y-49920500D01*
X111016608Y-49920500D01*
X111016610Y-49920500D01*
X111226198Y-49881321D01*
X111425019Y-49804298D01*
X111606302Y-49692052D01*
X111763872Y-49548407D01*
X111892366Y-49378255D01*
X111892366Y-49378253D01*
X111892368Y-49378252D01*
X111940080Y-49282430D01*
X111987405Y-49187389D01*
X112045756Y-48982310D01*
X112056529Y-48866047D01*
X112076633Y-48808996D01*
X112119410Y-48769999D01*
X112240589Y-48769999D01*
X112283367Y-48808996D01*
X112303471Y-48866048D01*
X112314243Y-48982310D01*
X112372595Y-49187390D01*
X112467631Y-49378252D01*
X112596126Y-49548405D01*
X112596128Y-49548407D01*
X112753698Y-49692052D01*
X112934981Y-49804298D01*
X113133802Y-49881321D01*
X113343390Y-49920500D01*
X113556608Y-49920500D01*
X113556610Y-49920500D01*
X113766198Y-49881321D01*
X113965019Y-49804298D01*
X114146302Y-49692052D01*
X114303872Y-49548407D01*
X114432366Y-49378255D01*
X114432366Y-49378253D01*
X114432368Y-49378252D01*
X114480080Y-49282430D01*
X114527405Y-49187389D01*
X114585756Y-48982310D01*
X114596529Y-48866047D01*
X114616633Y-48808996D01*
X114659410Y-48769999D01*
X114780589Y-48769999D01*
X114823367Y-48808996D01*
X114843471Y-48866048D01*
X114854243Y-48982310D01*
X114912595Y-49187390D01*
X115007631Y-49378252D01*
X115136126Y-49548405D01*
X115136128Y-49548407D01*
X115293698Y-49692052D01*
X115474981Y-49804298D01*
X115673802Y-49881321D01*
X115883390Y-49920500D01*
X116096608Y-49920500D01*
X116096610Y-49920500D01*
X116306198Y-49881321D01*
X116505019Y-49804298D01*
X116686302Y-49692052D01*
X116843872Y-49548407D01*
X116972366Y-49378255D01*
X116972366Y-49378253D01*
X116972368Y-49378252D01*
X117020080Y-49282430D01*
X117067405Y-49187389D01*
X117125756Y-48982310D01*
X117145429Y-48770000D01*
X117125756Y-48557690D01*
X117067405Y-48352611D01*
X117067014Y-48351827D01*
X116972368Y-48161747D01*
X116843873Y-47991594D01*
X116686301Y-47847947D01*
X116566418Y-47773719D01*
X116505019Y-47735702D01*
X116505017Y-47735701D01*
X116306198Y-47658679D01*
X116306197Y-47658678D01*
X116109385Y-47621888D01*
X116048634Y-47591637D01*
X116012906Y-47533934D01*
X116012906Y-47466066D01*
X116048634Y-47408363D01*
X116109385Y-47378111D01*
X116306198Y-47341321D01*
X116505019Y-47264298D01*
X116686302Y-47152052D01*
X116843872Y-47008407D01*
X116972366Y-46838255D01*
X116972366Y-46838253D01*
X116972368Y-46838252D01*
X117032866Y-46716753D01*
X117067405Y-46647389D01*
X117125756Y-46442310D01*
X117136529Y-46326047D01*
X117156633Y-46268996D01*
X117199410Y-46229999D01*
X117320589Y-46229999D01*
X117363367Y-46268996D01*
X117383471Y-46326048D01*
X117394243Y-46442310D01*
X117452595Y-46647390D01*
X117547631Y-46838252D01*
X117672231Y-47003247D01*
X117676128Y-47008407D01*
X117833698Y-47152052D01*
X118014981Y-47264298D01*
X118213802Y-47341321D01*
X118423390Y-47380500D01*
X118636608Y-47380500D01*
X118636610Y-47380500D01*
X118846198Y-47341321D01*
X119045019Y-47264298D01*
X119226302Y-47152052D01*
X119383872Y-47008407D01*
X119512366Y-46838255D01*
X119512366Y-46838253D01*
X119512368Y-46838252D01*
X119572866Y-46716753D01*
X119607405Y-46647389D01*
X119665756Y-46442310D01*
X119676529Y-46326047D01*
X119696633Y-46268996D01*
X119739410Y-46229999D01*
X119860589Y-46229999D01*
X119903367Y-46268996D01*
X119923471Y-46326048D01*
X119934243Y-46442310D01*
X119992595Y-46647390D01*
X120087631Y-46838252D01*
X120212231Y-47003247D01*
X120216128Y-47008407D01*
X120373698Y-47152052D01*
X120554981Y-47264298D01*
X120753802Y-47341321D01*
X120950613Y-47378111D01*
X121011365Y-47408363D01*
X121047093Y-47466066D01*
X121047093Y-47533934D01*
X121011365Y-47591637D01*
X120950613Y-47621888D01*
X120820475Y-47646215D01*
X120753801Y-47658679D01*
X120554982Y-47735701D01*
X120373698Y-47847947D01*
X120216126Y-47991594D01*
X120087631Y-48161747D01*
X119992595Y-48352609D01*
X119934243Y-48557689D01*
X119914571Y-48770000D01*
X119934243Y-48982310D01*
X119992595Y-49187390D01*
X120087631Y-49378252D01*
X120216126Y-49548405D01*
X120216128Y-49548407D01*
X120373698Y-49692052D01*
X120554981Y-49804298D01*
X120753802Y-49881321D01*
X120963390Y-49920500D01*
X121176608Y-49920500D01*
X121176610Y-49920500D01*
X121386198Y-49881321D01*
X121585019Y-49804298D01*
X121685224Y-49742253D01*
X121747635Y-49723714D01*
X121810839Y-49739352D01*
X121857407Y-49784856D01*
X121874500Y-49847681D01*
X121874500Y-50037035D01*
X121865061Y-50084488D01*
X121838183Y-50124713D01*
X121682506Y-50280389D01*
X121679264Y-50283632D01*
X121668898Y-50292895D01*
X121641031Y-50315118D01*
X121608824Y-50362356D01*
X121606144Y-50366132D01*
X121568633Y-50416959D01*
X121566301Y-50421578D01*
X121547674Y-50481966D01*
X121546225Y-50486369D01*
X121525369Y-50545973D01*
X121524500Y-50551090D01*
X121524500Y-50614262D01*
X121524413Y-50618899D01*
X121522050Y-50682029D01*
X121524500Y-50700635D01*
X121524500Y-56442738D01*
X121523720Y-56456622D01*
X121519729Y-56492034D01*
X121530356Y-56548194D01*
X121531133Y-56552766D01*
X121540550Y-56615248D01*
X121542163Y-56620148D01*
X121571687Y-56676010D01*
X121573777Y-56680150D01*
X121601184Y-56737060D01*
X121604183Y-56741287D01*
X121648846Y-56785950D01*
X121652063Y-56789289D01*
X121695043Y-56835611D01*
X121709930Y-56847034D01*
X122958630Y-58095733D01*
X122967896Y-58106101D01*
X122990120Y-58133969D01*
X123037364Y-58166180D01*
X123041145Y-58168863D01*
X123091973Y-58206376D01*
X123096568Y-58208695D01*
X123102325Y-58210470D01*
X123102327Y-58210472D01*
X123127351Y-58218190D01*
X123156980Y-58227330D01*
X123161371Y-58228774D01*
X123215301Y-58247646D01*
X123215302Y-58247646D01*
X123220989Y-58249636D01*
X123226073Y-58250500D01*
X123232098Y-58250500D01*
X123289262Y-58250500D01*
X123293899Y-58250587D01*
X123351010Y-58252724D01*
X123351010Y-58252723D01*
X123357029Y-58252949D01*
X123375635Y-58250500D01*
X123962034Y-58250500D01*
X124009487Y-58259939D01*
X124049715Y-58286819D01*
X125413181Y-59650284D01*
X125440061Y-59690512D01*
X125449500Y-59737965D01*
X125449500Y-69717738D01*
X125448720Y-69731622D01*
X125444729Y-69767034D01*
X125455356Y-69823194D01*
X125456133Y-69827766D01*
X125465550Y-69890248D01*
X125467163Y-69895148D01*
X125496687Y-69951010D01*
X125498777Y-69955150D01*
X125526184Y-70012060D01*
X125529183Y-70016287D01*
X125573847Y-70060951D01*
X125577064Y-70064291D01*
X125620040Y-70110608D01*
X125634930Y-70122034D01*
X137608634Y-82095738D01*
X137617900Y-82106106D01*
X137640121Y-82133970D01*
X137687336Y-82166161D01*
X137691117Y-82168843D01*
X137741968Y-82206372D01*
X137746576Y-82208698D01*
X137752326Y-82210471D01*
X137752327Y-82210472D01*
X137807001Y-82227336D01*
X137811337Y-82228763D01*
X137865300Y-82247646D01*
X137865302Y-82247646D01*
X137870989Y-82249636D01*
X137876070Y-82250500D01*
X137882098Y-82250500D01*
X137939261Y-82250500D01*
X137943898Y-82250587D01*
X138001010Y-82252724D01*
X138001010Y-82252723D01*
X138007029Y-82252949D01*
X138025635Y-82250500D01*
X156425501Y-82250500D01*
X156487501Y-82267113D01*
X156532888Y-82312500D01*
X156549501Y-82374500D01*
X156549501Y-83144867D01*
X156552414Y-83169988D01*
X156597795Y-83272767D01*
X156677232Y-83352204D01*
X156677233Y-83352204D01*
X156677235Y-83352206D01*
X156780009Y-83397585D01*
X156805135Y-83400500D01*
X159494864Y-83400499D01*
X159494867Y-83400499D01*
X159507427Y-83399042D01*
X159519991Y-83397585D01*
X159622765Y-83352206D01*
X159702206Y-83272765D01*
X159747585Y-83169991D01*
X159750500Y-83144865D01*
X159750499Y-80455136D01*
X159747585Y-80430009D01*
X159702206Y-80327235D01*
X159702204Y-80327233D01*
X159702204Y-80327232D01*
X159622767Y-80247795D01*
X159622765Y-80247794D01*
X159519991Y-80202415D01*
X159494865Y-80199500D01*
X159494863Y-80199500D01*
X156805132Y-80199500D01*
X156780011Y-80202414D01*
X156677232Y-80247795D01*
X156597795Y-80327232D01*
X156552415Y-80430009D01*
X156549500Y-80455136D01*
X156549500Y-81225500D01*
X156532887Y-81287500D01*
X156487500Y-81332887D01*
X156425500Y-81349500D01*
X138187965Y-81349500D01*
X138140512Y-81340061D01*
X138100284Y-81313181D01*
X133587102Y-76799999D01*
X156544551Y-76799999D01*
X156564317Y-77051149D01*
X156623126Y-77296110D01*
X156658695Y-77381981D01*
X156719534Y-77528859D01*
X156851164Y-77743659D01*
X157014776Y-77935224D01*
X157206341Y-78098836D01*
X157421141Y-78230466D01*
X157653889Y-78326873D01*
X157898852Y-78385683D01*
X158150000Y-78405449D01*
X158401148Y-78385683D01*
X158646111Y-78326873D01*
X158878859Y-78230466D01*
X159093659Y-78098836D01*
X159285224Y-77935224D01*
X159448836Y-77743659D01*
X159580466Y-77528859D01*
X159676873Y-77296111D01*
X159735683Y-77051148D01*
X159755449Y-76800000D01*
X159735683Y-76548852D01*
X159676873Y-76303889D01*
X159580466Y-76071141D01*
X159448836Y-75856341D01*
X159285224Y-75664776D01*
X159093659Y-75501164D01*
X158878859Y-75369534D01*
X158762484Y-75321330D01*
X158646110Y-75273126D01*
X158401149Y-75214317D01*
X158150000Y-75194551D01*
X157898850Y-75214317D01*
X157653889Y-75273126D01*
X157421139Y-75369535D01*
X157206342Y-75501163D01*
X157014776Y-75664776D01*
X156851163Y-75856342D01*
X156719535Y-76071139D01*
X156623126Y-76303889D01*
X156564317Y-76548850D01*
X156544551Y-76799999D01*
X133587102Y-76799999D01*
X126386819Y-69599716D01*
X126359939Y-69559488D01*
X126350500Y-69512035D01*
X126350500Y-59532262D01*
X126351280Y-59518378D01*
X126355270Y-59482966D01*
X126354185Y-59477232D01*
X126344635Y-59426761D01*
X126343864Y-59422220D01*
X126340183Y-59397794D01*
X126335348Y-59365713D01*
X126335347Y-59365711D01*
X126334448Y-59359746D01*
X126332842Y-59354864D01*
X126330023Y-59349531D01*
X126330023Y-59349528D01*
X126303282Y-59298933D01*
X126301220Y-59294847D01*
X126273814Y-59237936D01*
X126270818Y-59233714D01*
X126226152Y-59189048D01*
X126222934Y-59185708D01*
X126179958Y-59139391D01*
X126165070Y-59127966D01*
X124541368Y-57504265D01*
X124532102Y-57493897D01*
X124509879Y-57466030D01*
X124462608Y-57433800D01*
X124458870Y-57431148D01*
X124408035Y-57393629D01*
X124403424Y-57391302D01*
X124343049Y-57372679D01*
X124338644Y-57371230D01*
X124279023Y-57350368D01*
X124273914Y-57349500D01*
X124267902Y-57349500D01*
X124210738Y-57349500D01*
X124206101Y-57349413D01*
X124142970Y-57347050D01*
X124124365Y-57349500D01*
X123537966Y-57349500D01*
X123490513Y-57340061D01*
X123450285Y-57313181D01*
X122461819Y-56324716D01*
X122434939Y-56284488D01*
X122425500Y-56237035D01*
X122425500Y-53619867D01*
X125849500Y-53619867D01*
X125852414Y-53644988D01*
X125897795Y-53747767D01*
X125977232Y-53827204D01*
X125977233Y-53827204D01*
X125977235Y-53827206D01*
X126080009Y-53872585D01*
X126105135Y-53875500D01*
X127894864Y-53875499D01*
X127894867Y-53875499D01*
X127907427Y-53874042D01*
X127919991Y-53872585D01*
X128022765Y-53827206D01*
X128102206Y-53747765D01*
X128147585Y-53644991D01*
X128150500Y-53619865D01*
X128150499Y-51830136D01*
X128147585Y-51805009D01*
X128102206Y-51702235D01*
X128102204Y-51702233D01*
X128102204Y-51702232D01*
X128022767Y-51622795D01*
X128022765Y-51622794D01*
X127919991Y-51577415D01*
X127894865Y-51574500D01*
X127894863Y-51574500D01*
X126105132Y-51574500D01*
X126080011Y-51577414D01*
X125977232Y-51622795D01*
X125897795Y-51702232D01*
X125852415Y-51805009D01*
X125849500Y-51830136D01*
X125849500Y-53619867D01*
X122425500Y-53619867D01*
X122425500Y-50862967D01*
X122434939Y-50815515D01*
X122461818Y-50775287D01*
X122620739Y-50616363D01*
X122631098Y-50607105D01*
X122658970Y-50584879D01*
X122691191Y-50537618D01*
X122693859Y-50533859D01*
X122727793Y-50487882D01*
X122727794Y-50487877D01*
X122731381Y-50483018D01*
X122733692Y-50478441D01*
X122735470Y-50472675D01*
X122735472Y-50472673D01*
X122752330Y-50418014D01*
X122753775Y-50413626D01*
X122754303Y-50412118D01*
X122772646Y-50359699D01*
X122772646Y-50359695D01*
X122774637Y-50354006D01*
X122775500Y-50348932D01*
X122775500Y-50285754D01*
X122775587Y-50281116D01*
X122777950Y-50217973D01*
X122775500Y-50199362D01*
X122775500Y-49829106D01*
X122792593Y-49766281D01*
X122839161Y-49720777D01*
X122902364Y-49705139D01*
X122964776Y-49723678D01*
X123094981Y-49804298D01*
X123293802Y-49881321D01*
X123503390Y-49920500D01*
X123716608Y-49920500D01*
X123716610Y-49920500D01*
X123926198Y-49881321D01*
X124125019Y-49804298D01*
X124306302Y-49692052D01*
X124463872Y-49548407D01*
X124592366Y-49378255D01*
X124592366Y-49378253D01*
X124592368Y-49378252D01*
X124640080Y-49282430D01*
X124687405Y-49187389D01*
X124745756Y-48982310D01*
X124756529Y-48866047D01*
X124776633Y-48808996D01*
X124819410Y-48769999D01*
X124940589Y-48769999D01*
X124983367Y-48808996D01*
X125003471Y-48866048D01*
X125014243Y-48982310D01*
X125072595Y-49187390D01*
X125167631Y-49378252D01*
X125296126Y-49548405D01*
X125296128Y-49548407D01*
X125453698Y-49692052D01*
X125634981Y-49804298D01*
X125833802Y-49881321D01*
X126043390Y-49920500D01*
X126256608Y-49920500D01*
X126256610Y-49920500D01*
X126466198Y-49881321D01*
X126665019Y-49804298D01*
X126846302Y-49692052D01*
X127003872Y-49548407D01*
X127132366Y-49378255D01*
X127132366Y-49378253D01*
X127132368Y-49378252D01*
X127180080Y-49282430D01*
X127227405Y-49187389D01*
X127285756Y-48982310D01*
X127296529Y-48866047D01*
X127316633Y-48808996D01*
X127359410Y-48769999D01*
X127480589Y-48769999D01*
X127523367Y-48808996D01*
X127543471Y-48866048D01*
X127554243Y-48982310D01*
X127612595Y-49187390D01*
X127707631Y-49378252D01*
X127836126Y-49548405D01*
X127836128Y-49548407D01*
X127993698Y-49692052D01*
X128174981Y-49804298D01*
X128373802Y-49881321D01*
X128583390Y-49920500D01*
X128796608Y-49920500D01*
X128796610Y-49920500D01*
X129006198Y-49881321D01*
X129205019Y-49804298D01*
X129386302Y-49692052D01*
X129543872Y-49548407D01*
X129672366Y-49378255D01*
X129672366Y-49378253D01*
X129672368Y-49378252D01*
X129720080Y-49282430D01*
X129767405Y-49187389D01*
X129825756Y-48982310D01*
X129836529Y-48866047D01*
X129856633Y-48808996D01*
X129899410Y-48769999D01*
X130020589Y-48769999D01*
X130063367Y-48808996D01*
X130083471Y-48866048D01*
X130094243Y-48982310D01*
X130152595Y-49187390D01*
X130247631Y-49378252D01*
X130376126Y-49548405D01*
X130376128Y-49548407D01*
X130533698Y-49692052D01*
X130714981Y-49804298D01*
X130913802Y-49881321D01*
X131123390Y-49920500D01*
X131336608Y-49920500D01*
X131336610Y-49920500D01*
X131546198Y-49881321D01*
X131745019Y-49804298D01*
X131926302Y-49692052D01*
X132083872Y-49548407D01*
X132212366Y-49378255D01*
X132212366Y-49378253D01*
X132212368Y-49378252D01*
X132260080Y-49282430D01*
X132307405Y-49187389D01*
X132365756Y-48982310D01*
X132376529Y-48866047D01*
X132396633Y-48808996D01*
X132439410Y-48769999D01*
X132560589Y-48769999D01*
X132603367Y-48808996D01*
X132623471Y-48866048D01*
X132634243Y-48982310D01*
X132692595Y-49187390D01*
X132787631Y-49378252D01*
X132916126Y-49548405D01*
X132916128Y-49548407D01*
X133073698Y-49692052D01*
X133254981Y-49804298D01*
X133453802Y-49881321D01*
X133663390Y-49920500D01*
X133876608Y-49920500D01*
X133876610Y-49920500D01*
X134086198Y-49881321D01*
X134285019Y-49804298D01*
X134466302Y-49692052D01*
X134623872Y-49548407D01*
X134752366Y-49378255D01*
X134752366Y-49378253D01*
X134752368Y-49378252D01*
X134800080Y-49282430D01*
X134847405Y-49187389D01*
X134905756Y-48982310D01*
X134916529Y-48866047D01*
X134936633Y-48808996D01*
X134979410Y-48769999D01*
X135100589Y-48769999D01*
X135143367Y-48808996D01*
X135163471Y-48866048D01*
X135174243Y-48982310D01*
X135232595Y-49187390D01*
X135327631Y-49378252D01*
X135456126Y-49548405D01*
X135456128Y-49548407D01*
X135613698Y-49692052D01*
X135794981Y-49804298D01*
X135993802Y-49881321D01*
X136203390Y-49920500D01*
X136416608Y-49920500D01*
X136416610Y-49920500D01*
X136626198Y-49881321D01*
X136825019Y-49804298D01*
X137006302Y-49692052D01*
X137163872Y-49548407D01*
X137292366Y-49378255D01*
X137292366Y-49378253D01*
X137292368Y-49378252D01*
X137340080Y-49282430D01*
X137387405Y-49187389D01*
X137445756Y-48982310D01*
X137465429Y-48770000D01*
X137445756Y-48557690D01*
X137387405Y-48352611D01*
X137387014Y-48351827D01*
X137292368Y-48161747D01*
X137163873Y-47991594D01*
X137006301Y-47847947D01*
X136886418Y-47773719D01*
X136825019Y-47735702D01*
X136825017Y-47735701D01*
X136626198Y-47658679D01*
X136626197Y-47658678D01*
X136429385Y-47621888D01*
X136368634Y-47591637D01*
X136332906Y-47533934D01*
X136332906Y-47466066D01*
X136368634Y-47408363D01*
X136429385Y-47378111D01*
X136626198Y-47341321D01*
X136825019Y-47264298D01*
X137006302Y-47152052D01*
X137163872Y-47008407D01*
X137292366Y-46838255D01*
X137292366Y-46838253D01*
X137292368Y-46838252D01*
X137352866Y-46716753D01*
X137387405Y-46647389D01*
X137445756Y-46442310D01*
X137456529Y-46326047D01*
X137476633Y-46268996D01*
X137519410Y-46229999D01*
X137640589Y-46229999D01*
X137683367Y-46268996D01*
X137703471Y-46326048D01*
X137714243Y-46442310D01*
X137772595Y-46647390D01*
X137867631Y-46838252D01*
X137992231Y-47003247D01*
X137996128Y-47008407D01*
X138153698Y-47152052D01*
X138334981Y-47264298D01*
X138533802Y-47341321D01*
X138743390Y-47380500D01*
X138956608Y-47380500D01*
X138956610Y-47380500D01*
X139166198Y-47341321D01*
X139365019Y-47264298D01*
X139546302Y-47152052D01*
X139703872Y-47008407D01*
X139832366Y-46838255D01*
X139832366Y-46838253D01*
X139832368Y-46838252D01*
X139892866Y-46716753D01*
X139927405Y-46647389D01*
X139985756Y-46442310D01*
X139996529Y-46326047D01*
X140016633Y-46268996D01*
X140059410Y-46229999D01*
X140180589Y-46229999D01*
X140223367Y-46268996D01*
X140243471Y-46326048D01*
X140254243Y-46442310D01*
X140312595Y-46647390D01*
X140407631Y-46838252D01*
X140532231Y-47003247D01*
X140536128Y-47008407D01*
X140693698Y-47152052D01*
X140874981Y-47264298D01*
X141073802Y-47341321D01*
X141270613Y-47378111D01*
X141331365Y-47408363D01*
X141367093Y-47466066D01*
X141367093Y-47533934D01*
X141331365Y-47591637D01*
X141270613Y-47621888D01*
X141140475Y-47646215D01*
X141073801Y-47658679D01*
X140874982Y-47735701D01*
X140693698Y-47847947D01*
X140536126Y-47991594D01*
X140407631Y-48161747D01*
X140312595Y-48352609D01*
X140254243Y-48557689D01*
X140234571Y-48769999D01*
X140254243Y-48982310D01*
X140312595Y-49187390D01*
X140407631Y-49378252D01*
X140536126Y-49548405D01*
X140536128Y-49548407D01*
X140693698Y-49692052D01*
X140874981Y-49804298D01*
X141073802Y-49881321D01*
X141283390Y-49920500D01*
X141496608Y-49920500D01*
X141496610Y-49920500D01*
X141706198Y-49881321D01*
X141905019Y-49804298D01*
X142086302Y-49692052D01*
X142243872Y-49548407D01*
X142372366Y-49378255D01*
X142372366Y-49378253D01*
X142372368Y-49378252D01*
X142420080Y-49282430D01*
X142467405Y-49187389D01*
X142525756Y-48982310D01*
X142536529Y-48866047D01*
X142556633Y-48808996D01*
X142599410Y-48769999D01*
X142720589Y-48769999D01*
X142763367Y-48808996D01*
X142783471Y-48866048D01*
X142794243Y-48982310D01*
X142852595Y-49187390D01*
X142947631Y-49378252D01*
X143076126Y-49548405D01*
X143076128Y-49548407D01*
X143233698Y-49692052D01*
X143414981Y-49804298D01*
X143613802Y-49881321D01*
X143823390Y-49920500D01*
X144036608Y-49920500D01*
X144036610Y-49920500D01*
X144246198Y-49881321D01*
X144445019Y-49804298D01*
X144626302Y-49692052D01*
X144783872Y-49548407D01*
X144912366Y-49378255D01*
X144912366Y-49378253D01*
X144912368Y-49378252D01*
X144960080Y-49282430D01*
X145007405Y-49187389D01*
X145065756Y-48982310D01*
X145076529Y-48866047D01*
X145096633Y-48808996D01*
X145139410Y-48769999D01*
X145260589Y-48769999D01*
X145303367Y-48808996D01*
X145323471Y-48866048D01*
X145334243Y-48982310D01*
X145392595Y-49187390D01*
X145487631Y-49378252D01*
X145616126Y-49548405D01*
X145616128Y-49548407D01*
X145773698Y-49692052D01*
X145954981Y-49804298D01*
X146153802Y-49881321D01*
X146363390Y-49920500D01*
X146576608Y-49920500D01*
X146576610Y-49920500D01*
X146786198Y-49881321D01*
X146985019Y-49804298D01*
X147166302Y-49692052D01*
X147323872Y-49548407D01*
X147452366Y-49378255D01*
X147452366Y-49378253D01*
X147452368Y-49378252D01*
X147500080Y-49282430D01*
X147547405Y-49187389D01*
X147605756Y-48982310D01*
X147616529Y-48866047D01*
X147636633Y-48808996D01*
X147679410Y-48769999D01*
X147800589Y-48769999D01*
X147843367Y-48808996D01*
X147863471Y-48866048D01*
X147874243Y-48982310D01*
X147932595Y-49187390D01*
X148027631Y-49378252D01*
X148156126Y-49548405D01*
X148156128Y-49548407D01*
X148313698Y-49692052D01*
X148494981Y-49804298D01*
X148693802Y-49881321D01*
X148903390Y-49920500D01*
X149116608Y-49920500D01*
X149116610Y-49920500D01*
X149326198Y-49881321D01*
X149525019Y-49804298D01*
X149706302Y-49692052D01*
X149863872Y-49548407D01*
X149992366Y-49378255D01*
X149992366Y-49378253D01*
X149992368Y-49378252D01*
X150040080Y-49282430D01*
X150087405Y-49187389D01*
X150145756Y-48982310D01*
X150156529Y-48866047D01*
X150176633Y-48808996D01*
X150219410Y-48769999D01*
X150340589Y-48769999D01*
X150383367Y-48808996D01*
X150403471Y-48866048D01*
X150414243Y-48982310D01*
X150472595Y-49187390D01*
X150567631Y-49378252D01*
X150696126Y-49548405D01*
X150696128Y-49548407D01*
X150853698Y-49692052D01*
X151034981Y-49804298D01*
X151233802Y-49881321D01*
X151443390Y-49920500D01*
X151656608Y-49920500D01*
X151656610Y-49920500D01*
X151866198Y-49881321D01*
X152065019Y-49804298D01*
X152246302Y-49692052D01*
X152403872Y-49548407D01*
X152532366Y-49378255D01*
X152532366Y-49378253D01*
X152532368Y-49378252D01*
X152580080Y-49282430D01*
X152627405Y-49187389D01*
X152685756Y-48982310D01*
X152696529Y-48866047D01*
X152716633Y-48808996D01*
X152759410Y-48769999D01*
X152880589Y-48769999D01*
X152923367Y-48808996D01*
X152943471Y-48866048D01*
X152954243Y-48982310D01*
X153012595Y-49187390D01*
X153107631Y-49378252D01*
X153236126Y-49548405D01*
X153236128Y-49548407D01*
X153393698Y-49692052D01*
X153574981Y-49804298D01*
X153773802Y-49881321D01*
X153983390Y-49920500D01*
X154196608Y-49920500D01*
X154196610Y-49920500D01*
X154406198Y-49881321D01*
X154605019Y-49804298D01*
X154641417Y-49781761D01*
X154710223Y-49739159D01*
X154772636Y-49720619D01*
X154835839Y-49736257D01*
X154882407Y-49781761D01*
X154899500Y-49844586D01*
X154899500Y-62467738D01*
X154898720Y-62481622D01*
X154894729Y-62517034D01*
X154905356Y-62573194D01*
X154906133Y-62577766D01*
X154915550Y-62640248D01*
X154917163Y-62645148D01*
X154946687Y-62701010D01*
X154948777Y-62705150D01*
X154976184Y-62762060D01*
X154979183Y-62766287D01*
X155023846Y-62810950D01*
X155027063Y-62814289D01*
X155070043Y-62860611D01*
X155084930Y-62872034D01*
X156513181Y-64300284D01*
X156540061Y-64340512D01*
X156549500Y-64387965D01*
X156549500Y-66644867D01*
X156552414Y-66669988D01*
X156597795Y-66772767D01*
X156677232Y-66852204D01*
X156677233Y-66852204D01*
X156677235Y-66852206D01*
X156780009Y-66897585D01*
X156805135Y-66900500D01*
X159494864Y-66900499D01*
X159494867Y-66900499D01*
X159507427Y-66899041D01*
X159519991Y-66897585D01*
X159622765Y-66852206D01*
X159702206Y-66772765D01*
X159747585Y-66669991D01*
X159750500Y-66644865D01*
X159750499Y-63955136D01*
X159747585Y-63930009D01*
X159702206Y-63827235D01*
X159702204Y-63827233D01*
X159702204Y-63827232D01*
X159622767Y-63747795D01*
X159622765Y-63747794D01*
X159519991Y-63702415D01*
X159494865Y-63699500D01*
X159494864Y-63699500D01*
X157237966Y-63699500D01*
X157190513Y-63690061D01*
X157150285Y-63663181D01*
X155836819Y-62349716D01*
X155809939Y-62309488D01*
X155800500Y-62262035D01*
X155800500Y-60300000D01*
X156544551Y-60300000D01*
X156564317Y-60551149D01*
X156623126Y-60796110D01*
X156671330Y-60912485D01*
X156719534Y-61028859D01*
X156851164Y-61243659D01*
X157014776Y-61435224D01*
X157206341Y-61598836D01*
X157421141Y-61730466D01*
X157653889Y-61826873D01*
X157898852Y-61885683D01*
X158150000Y-61905449D01*
X158401148Y-61885683D01*
X158646111Y-61826873D01*
X158878859Y-61730466D01*
X159093659Y-61598836D01*
X159285224Y-61435224D01*
X159448836Y-61243659D01*
X159580466Y-61028859D01*
X159676873Y-60796111D01*
X159735683Y-60551148D01*
X159755449Y-60300000D01*
X159735683Y-60048852D01*
X159676873Y-59803889D01*
X159580466Y-59571141D01*
X159448836Y-59356341D01*
X159285224Y-59164776D01*
X159093659Y-59001164D01*
X158878859Y-58869534D01*
X158762485Y-58821330D01*
X158646110Y-58773126D01*
X158401149Y-58714317D01*
X158150000Y-58694551D01*
X157898850Y-58714317D01*
X157653889Y-58773126D01*
X157421139Y-58869535D01*
X157206342Y-59001163D01*
X157014776Y-59164776D01*
X156851163Y-59356342D01*
X156719535Y-59571139D01*
X156623126Y-59803889D01*
X156564317Y-60048850D01*
X156544551Y-60300000D01*
X155800500Y-60300000D01*
X155800500Y-47747966D01*
X155809939Y-47700513D01*
X155836816Y-47660287D01*
X155997103Y-47499999D01*
X159894551Y-47499999D01*
X159914317Y-47751149D01*
X159973126Y-47996110D01*
X160021330Y-48112485D01*
X160069534Y-48228859D01*
X160201164Y-48443659D01*
X160364776Y-48635224D01*
X160556341Y-48798836D01*
X160771141Y-48930466D01*
X161003889Y-49026873D01*
X161248852Y-49085683D01*
X161437118Y-49100500D01*
X161562879Y-49100500D01*
X161562882Y-49100500D01*
X161751148Y-49085683D01*
X161996111Y-49026873D01*
X162228859Y-48930466D01*
X162443659Y-48798836D01*
X162635224Y-48635224D01*
X162798836Y-48443659D01*
X162930466Y-48228859D01*
X163026873Y-47996111D01*
X163085683Y-47751148D01*
X163105449Y-47500000D01*
X163085683Y-47248852D01*
X163026873Y-47003889D01*
X162930466Y-46771141D01*
X162798836Y-46556341D01*
X162635224Y-46364776D01*
X162443659Y-46201164D01*
X162228859Y-46069534D01*
X162103694Y-46017689D01*
X161996110Y-45973126D01*
X161751149Y-45914317D01*
X161704081Y-45910612D01*
X161562882Y-45899500D01*
X161437118Y-45899500D01*
X161324158Y-45908390D01*
X161248850Y-45914317D01*
X161003889Y-45973126D01*
X160771139Y-46069535D01*
X160556342Y-46201163D01*
X160364776Y-46364776D01*
X160201163Y-46556342D01*
X160121422Y-46686467D01*
X160069534Y-46771141D01*
X160055415Y-46805225D01*
X159973126Y-47003889D01*
X159914317Y-47248850D01*
X159894551Y-47499999D01*
X155997103Y-47499999D01*
X156142777Y-47354325D01*
X156182119Y-47327819D01*
X156228543Y-47318026D01*
X156275247Y-47326385D01*
X156296267Y-47334528D01*
X156313802Y-47341321D01*
X156523390Y-47380500D01*
X156736608Y-47380500D01*
X156736610Y-47380500D01*
X156946198Y-47341321D01*
X157145019Y-47264298D01*
X157326302Y-47152052D01*
X157483872Y-47008407D01*
X157612366Y-46838255D01*
X157612366Y-46838253D01*
X157612368Y-46838252D01*
X157672866Y-46716753D01*
X157707405Y-46647389D01*
X157765756Y-46442310D01*
X157785429Y-46230000D01*
X157765756Y-46017690D01*
X157707405Y-45812611D01*
X157707014Y-45811827D01*
X157612368Y-45621747D01*
X157483873Y-45451594D01*
X157326301Y-45307947D01*
X157145017Y-45195701D01*
X156946198Y-45118679D01*
X156946197Y-45118678D01*
X156736610Y-45079500D01*
X156523390Y-45079500D01*
X156383664Y-45105619D01*
X156313801Y-45118679D01*
X156114982Y-45195701D01*
X155933698Y-45307947D01*
X155776126Y-45451594D01*
X155647631Y-45621747D01*
X155552595Y-45812609D01*
X155494243Y-46017689D01*
X155483471Y-46133951D01*
X155463367Y-46191003D01*
X155420589Y-46229999D01*
X155463367Y-46268996D01*
X155483471Y-46326048D01*
X155494244Y-46442312D01*
X155537727Y-46595138D01*
X155538479Y-46660242D01*
X155506142Y-46716753D01*
X155300165Y-46922730D01*
X155239757Y-46956012D01*
X155170912Y-46951873D01*
X155114928Y-46911592D01*
X155089124Y-46847631D01*
X155101484Y-46779778D01*
X155132866Y-46716753D01*
X155167405Y-46647389D01*
X155225756Y-46442310D01*
X155236529Y-46326047D01*
X155256633Y-46268996D01*
X155299410Y-46229999D01*
X155256633Y-46191003D01*
X155236529Y-46133951D01*
X155225756Y-46017689D01*
X155192127Y-45899500D01*
X155167405Y-45812611D01*
X155167014Y-45811827D01*
X155072368Y-45621747D01*
X154943873Y-45451594D01*
X154786301Y-45307947D01*
X154605017Y-45195701D01*
X154406198Y-45118679D01*
X154406197Y-45118678D01*
X154196610Y-45079500D01*
X153983390Y-45079500D01*
X153843664Y-45105619D01*
X153773801Y-45118679D01*
X153574982Y-45195701D01*
X153393698Y-45307947D01*
X153236126Y-45451594D01*
X153107631Y-45621747D01*
X153012595Y-45812609D01*
X152954243Y-46017689D01*
X152943471Y-46133951D01*
X152923367Y-46191003D01*
X152880589Y-46229999D01*
X152923367Y-46268996D01*
X152943471Y-46326048D01*
X152954243Y-46442310D01*
X153012595Y-46647390D01*
X153107631Y-46838252D01*
X153232231Y-47003247D01*
X153236128Y-47008407D01*
X153393698Y-47152052D01*
X153574981Y-47264298D01*
X153773802Y-47341321D01*
X153970613Y-47378111D01*
X154031365Y-47408363D01*
X154067093Y-47466066D01*
X154067093Y-47533934D01*
X154031365Y-47591637D01*
X153970613Y-47621888D01*
X153840475Y-47646215D01*
X153773801Y-47658679D01*
X153574982Y-47735701D01*
X153393698Y-47847947D01*
X153236126Y-47991594D01*
X153107631Y-48161747D01*
X153012595Y-48352609D01*
X152954243Y-48557689D01*
X152943471Y-48673951D01*
X152923367Y-48731003D01*
X152880589Y-48769999D01*
X152759410Y-48769999D01*
X152716633Y-48731003D01*
X152696529Y-48673951D01*
X152685756Y-48557689D01*
X152627404Y-48352609D01*
X152532368Y-48161747D01*
X152403873Y-47991594D01*
X152246301Y-47847947D01*
X152126418Y-47773719D01*
X152065019Y-47735702D01*
X152065017Y-47735701D01*
X151866198Y-47658679D01*
X151866197Y-47658678D01*
X151669385Y-47621888D01*
X151608634Y-47591637D01*
X151572906Y-47533934D01*
X151572906Y-47466066D01*
X151608634Y-47408363D01*
X151669385Y-47378111D01*
X151866198Y-47341321D01*
X152065019Y-47264298D01*
X152246302Y-47152052D01*
X152403872Y-47008407D01*
X152532366Y-46838255D01*
X152532366Y-46838253D01*
X152532368Y-46838252D01*
X152592866Y-46716753D01*
X152627405Y-46647389D01*
X152685756Y-46442310D01*
X152696529Y-46326047D01*
X152716633Y-46268996D01*
X152759410Y-46229999D01*
X152716633Y-46191003D01*
X152696529Y-46133951D01*
X152685756Y-46017689D01*
X152652127Y-45899500D01*
X152627405Y-45812611D01*
X152627014Y-45811827D01*
X152532368Y-45621747D01*
X152403873Y-45451594D01*
X152246301Y-45307947D01*
X152065017Y-45195701D01*
X151866198Y-45118679D01*
X151866197Y-45118678D01*
X151656610Y-45079500D01*
X151443390Y-45079500D01*
X151303664Y-45105619D01*
X151233801Y-45118679D01*
X151034982Y-45195701D01*
X150853698Y-45307947D01*
X150696126Y-45451594D01*
X150567631Y-45621747D01*
X150472595Y-45812609D01*
X150414243Y-46017689D01*
X150394571Y-46229999D01*
X150414243Y-46442310D01*
X150472595Y-46647390D01*
X150567631Y-46838252D01*
X150692231Y-47003247D01*
X150696128Y-47008407D01*
X150853698Y-47152052D01*
X151034981Y-47264298D01*
X151233802Y-47341321D01*
X151430613Y-47378111D01*
X151491365Y-47408363D01*
X151527093Y-47466066D01*
X151527093Y-47533934D01*
X151491365Y-47591637D01*
X151430613Y-47621888D01*
X151300475Y-47646215D01*
X151233801Y-47658679D01*
X151034982Y-47735701D01*
X150853698Y-47847947D01*
X150696126Y-47991594D01*
X150567631Y-48161747D01*
X150472595Y-48352609D01*
X150414243Y-48557689D01*
X150403471Y-48673951D01*
X150383367Y-48731003D01*
X150340589Y-48769999D01*
X150219410Y-48769999D01*
X150176633Y-48731003D01*
X150156529Y-48673951D01*
X150145756Y-48557689D01*
X150087404Y-48352609D01*
X149992368Y-48161747D01*
X149863873Y-47991594D01*
X149706301Y-47847947D01*
X149586418Y-47773719D01*
X149525019Y-47735702D01*
X149525017Y-47735701D01*
X149326198Y-47658679D01*
X149326197Y-47658678D01*
X149116610Y-47619500D01*
X148903390Y-47619500D01*
X148763664Y-47645619D01*
X148693801Y-47658679D01*
X148494982Y-47735701D01*
X148313698Y-47847947D01*
X148156126Y-47991594D01*
X148027631Y-48161747D01*
X147932595Y-48352609D01*
X147874243Y-48557689D01*
X147863471Y-48673951D01*
X147843367Y-48731003D01*
X147800589Y-48769999D01*
X147679410Y-48769999D01*
X147636633Y-48731003D01*
X147616529Y-48673951D01*
X147605756Y-48557689D01*
X147547404Y-48352609D01*
X147452368Y-48161747D01*
X147323873Y-47991594D01*
X147166301Y-47847947D01*
X147046418Y-47773719D01*
X146985019Y-47735702D01*
X146985017Y-47735701D01*
X146786198Y-47658679D01*
X146786197Y-47658678D01*
X146589385Y-47621888D01*
X146528634Y-47591637D01*
X146492906Y-47533934D01*
X146492906Y-47466066D01*
X146528634Y-47408363D01*
X146589385Y-47378111D01*
X146786198Y-47341321D01*
X146985019Y-47264298D01*
X147166302Y-47152052D01*
X147323872Y-47008407D01*
X147452366Y-46838255D01*
X147452366Y-46838253D01*
X147452368Y-46838252D01*
X147512866Y-46716753D01*
X147547405Y-46647389D01*
X147605756Y-46442310D01*
X147625429Y-46230000D01*
X147605756Y-46017690D01*
X147547405Y-45812611D01*
X147547014Y-45811827D01*
X147452368Y-45621747D01*
X147323873Y-45451594D01*
X147166301Y-45307947D01*
X146985017Y-45195701D01*
X146786198Y-45118679D01*
X146786197Y-45118678D01*
X146576610Y-45079500D01*
X146363390Y-45079500D01*
X146223664Y-45105619D01*
X146153801Y-45118679D01*
X145954982Y-45195701D01*
X145773698Y-45307947D01*
X145616126Y-45451594D01*
X145487631Y-45621747D01*
X145392595Y-45812609D01*
X145334243Y-46017689D01*
X145314571Y-46229999D01*
X145334243Y-46442310D01*
X145392595Y-46647390D01*
X145487631Y-46838252D01*
X145612231Y-47003247D01*
X145616128Y-47008407D01*
X145773698Y-47152052D01*
X145954981Y-47264298D01*
X146153802Y-47341321D01*
X146350613Y-47378111D01*
X146411365Y-47408363D01*
X146447093Y-47466066D01*
X146447093Y-47533934D01*
X146411365Y-47591637D01*
X146350613Y-47621888D01*
X146220475Y-47646215D01*
X146153801Y-47658679D01*
X145954982Y-47735701D01*
X145773698Y-47847947D01*
X145616126Y-47991594D01*
X145487631Y-48161747D01*
X145392595Y-48352609D01*
X145334243Y-48557689D01*
X145323471Y-48673951D01*
X145303367Y-48731003D01*
X145260589Y-48769999D01*
X145139410Y-48769999D01*
X145096633Y-48731003D01*
X145076529Y-48673951D01*
X145065756Y-48557689D01*
X145007404Y-48352609D01*
X144912368Y-48161747D01*
X144783873Y-47991594D01*
X144626301Y-47847947D01*
X144506418Y-47773719D01*
X144445019Y-47735702D01*
X144445017Y-47735701D01*
X144246198Y-47658679D01*
X144246197Y-47658678D01*
X144036610Y-47619500D01*
X143823390Y-47619500D01*
X143683664Y-47645619D01*
X143613801Y-47658679D01*
X143414982Y-47735701D01*
X143233698Y-47847947D01*
X143076126Y-47991594D01*
X142947631Y-48161747D01*
X142852595Y-48352609D01*
X142794243Y-48557689D01*
X142783471Y-48673951D01*
X142763367Y-48731003D01*
X142720589Y-48769999D01*
X142599410Y-48769999D01*
X142556633Y-48731003D01*
X142536529Y-48673951D01*
X142525756Y-48557689D01*
X142467404Y-48352609D01*
X142372368Y-48161747D01*
X142243873Y-47991594D01*
X142086301Y-47847947D01*
X141966418Y-47773719D01*
X141905019Y-47735702D01*
X141905017Y-47735701D01*
X141706198Y-47658679D01*
X141706197Y-47658678D01*
X141509385Y-47621888D01*
X141448634Y-47591637D01*
X141412906Y-47533934D01*
X141412906Y-47466066D01*
X141448634Y-47408363D01*
X141509385Y-47378111D01*
X141706198Y-47341321D01*
X141905019Y-47264298D01*
X142086302Y-47152052D01*
X142243872Y-47008407D01*
X142372366Y-46838255D01*
X142372366Y-46838253D01*
X142372368Y-46838252D01*
X142432866Y-46716753D01*
X142467405Y-46647389D01*
X142525756Y-46442310D01*
X142545429Y-46230000D01*
X142525756Y-46017690D01*
X142467405Y-45812611D01*
X142467014Y-45811827D01*
X142372368Y-45621747D01*
X142243873Y-45451594D01*
X142086301Y-45307947D01*
X141905017Y-45195701D01*
X141706198Y-45118679D01*
X141706197Y-45118678D01*
X141496610Y-45079500D01*
X141283390Y-45079500D01*
X141143664Y-45105619D01*
X141073801Y-45118679D01*
X140874982Y-45195701D01*
X140693698Y-45307947D01*
X140536126Y-45451594D01*
X140407631Y-45621747D01*
X140312595Y-45812609D01*
X140254243Y-46017689D01*
X140243471Y-46133951D01*
X140223367Y-46191003D01*
X140180589Y-46229999D01*
X140059410Y-46229999D01*
X140016633Y-46191003D01*
X139996529Y-46133951D01*
X139985756Y-46017689D01*
X139952127Y-45899500D01*
X139927405Y-45812611D01*
X139927014Y-45811827D01*
X139832368Y-45621747D01*
X139703873Y-45451594D01*
X139546301Y-45307947D01*
X139365017Y-45195701D01*
X139166198Y-45118679D01*
X139166197Y-45118678D01*
X138956610Y-45079500D01*
X138743390Y-45079500D01*
X138603664Y-45105619D01*
X138533801Y-45118679D01*
X138334982Y-45195701D01*
X138153698Y-45307947D01*
X137996126Y-45451594D01*
X137867631Y-45621747D01*
X137772595Y-45812609D01*
X137714243Y-46017689D01*
X137703471Y-46133951D01*
X137683367Y-46191003D01*
X137640589Y-46229999D01*
X137519410Y-46229999D01*
X137476633Y-46191003D01*
X137456529Y-46133951D01*
X137445756Y-46017689D01*
X137412127Y-45899500D01*
X137387405Y-45812611D01*
X137387014Y-45811827D01*
X137292368Y-45621747D01*
X137163873Y-45451594D01*
X137006301Y-45307947D01*
X136825017Y-45195701D01*
X136626198Y-45118679D01*
X136626197Y-45118678D01*
X136416610Y-45079500D01*
X136203390Y-45079500D01*
X136063664Y-45105619D01*
X135993801Y-45118679D01*
X135794982Y-45195701D01*
X135613698Y-45307947D01*
X135456126Y-45451594D01*
X135327631Y-45621747D01*
X135232595Y-45812609D01*
X135174243Y-46017689D01*
X135163471Y-46133951D01*
X135143367Y-46191003D01*
X135100589Y-46229999D01*
X135143367Y-46268996D01*
X135163471Y-46326048D01*
X135174243Y-46442310D01*
X135232595Y-46647390D01*
X135327631Y-46838252D01*
X135452231Y-47003247D01*
X135456128Y-47008407D01*
X135613698Y-47152052D01*
X135794981Y-47264298D01*
X135993802Y-47341321D01*
X136190613Y-47378111D01*
X136251365Y-47408363D01*
X136287093Y-47466066D01*
X136287093Y-47533934D01*
X136251365Y-47591637D01*
X136190613Y-47621888D01*
X136060475Y-47646215D01*
X135993801Y-47658679D01*
X135794982Y-47735701D01*
X135613698Y-47847947D01*
X135456126Y-47991594D01*
X135327631Y-48161747D01*
X135232595Y-48352609D01*
X135174243Y-48557689D01*
X135163471Y-48673951D01*
X135143367Y-48731003D01*
X135100589Y-48769999D01*
X134979410Y-48769999D01*
X134936633Y-48731003D01*
X134916529Y-48673951D01*
X134905756Y-48557689D01*
X134847404Y-48352609D01*
X134752368Y-48161747D01*
X134623873Y-47991594D01*
X134466301Y-47847947D01*
X134346418Y-47773719D01*
X134285019Y-47735702D01*
X134285017Y-47735701D01*
X134086198Y-47658679D01*
X134086197Y-47658678D01*
X133889385Y-47621888D01*
X133828634Y-47591637D01*
X133792906Y-47533934D01*
X133792906Y-47466066D01*
X133828634Y-47408363D01*
X133889385Y-47378111D01*
X134086198Y-47341321D01*
X134285019Y-47264298D01*
X134466302Y-47152052D01*
X134623872Y-47008407D01*
X134752366Y-46838255D01*
X134752366Y-46838253D01*
X134752368Y-46838252D01*
X134812866Y-46716753D01*
X134847405Y-46647389D01*
X134905756Y-46442310D01*
X134916529Y-46326047D01*
X134936633Y-46268996D01*
X134979410Y-46229999D01*
X134936633Y-46191003D01*
X134916529Y-46133951D01*
X134905756Y-46017689D01*
X134872127Y-45899500D01*
X134847405Y-45812611D01*
X134847014Y-45811827D01*
X134752368Y-45621747D01*
X134623873Y-45451594D01*
X134466301Y-45307947D01*
X134285017Y-45195701D01*
X134086198Y-45118679D01*
X134086197Y-45118678D01*
X133876610Y-45079500D01*
X133663390Y-45079500D01*
X133523664Y-45105619D01*
X133453801Y-45118679D01*
X133254982Y-45195701D01*
X133073698Y-45307947D01*
X132916126Y-45451594D01*
X132787631Y-45621747D01*
X132692595Y-45812609D01*
X132634243Y-46017689D01*
X132614571Y-46229999D01*
X132634243Y-46442310D01*
X132692595Y-46647390D01*
X132787631Y-46838252D01*
X132912231Y-47003247D01*
X132916128Y-47008407D01*
X133073698Y-47152052D01*
X133254981Y-47264298D01*
X133453802Y-47341321D01*
X133650613Y-47378111D01*
X133711365Y-47408363D01*
X133747093Y-47466066D01*
X133747093Y-47533934D01*
X133711365Y-47591637D01*
X133650613Y-47621888D01*
X133520475Y-47646215D01*
X133453801Y-47658679D01*
X133254982Y-47735701D01*
X133073698Y-47847947D01*
X132916126Y-47991594D01*
X132787631Y-48161747D01*
X132692595Y-48352609D01*
X132634243Y-48557689D01*
X132623471Y-48673951D01*
X132603367Y-48731003D01*
X132560589Y-48769999D01*
X132439410Y-48769999D01*
X132396633Y-48731003D01*
X132376529Y-48673951D01*
X132365756Y-48557689D01*
X132307404Y-48352609D01*
X132212368Y-48161747D01*
X132083873Y-47991594D01*
X131926301Y-47847947D01*
X131806418Y-47773719D01*
X131745019Y-47735702D01*
X131745017Y-47735701D01*
X131546198Y-47658679D01*
X131546197Y-47658678D01*
X131336610Y-47619500D01*
X131123390Y-47619500D01*
X130983664Y-47645619D01*
X130913801Y-47658679D01*
X130714982Y-47735701D01*
X130533698Y-47847947D01*
X130376126Y-47991594D01*
X130247631Y-48161747D01*
X130152595Y-48352609D01*
X130094243Y-48557689D01*
X130083471Y-48673951D01*
X130063367Y-48731003D01*
X130020589Y-48769999D01*
X129899410Y-48769999D01*
X129856633Y-48731003D01*
X129836529Y-48673951D01*
X129825756Y-48557689D01*
X129767404Y-48352609D01*
X129672368Y-48161747D01*
X129543873Y-47991594D01*
X129386301Y-47847947D01*
X129266418Y-47773719D01*
X129205019Y-47735702D01*
X129205017Y-47735701D01*
X129006198Y-47658679D01*
X129006197Y-47658678D01*
X128809385Y-47621888D01*
X128748634Y-47591637D01*
X128712906Y-47533934D01*
X128712906Y-47466066D01*
X128748634Y-47408363D01*
X128809385Y-47378111D01*
X129006198Y-47341321D01*
X129205019Y-47264298D01*
X129386302Y-47152052D01*
X129543872Y-47008407D01*
X129672366Y-46838255D01*
X129672366Y-46838253D01*
X129672368Y-46838252D01*
X129732866Y-46716753D01*
X129767405Y-46647389D01*
X129825756Y-46442310D01*
X129845429Y-46230000D01*
X129825756Y-46017690D01*
X129767405Y-45812611D01*
X129767014Y-45811827D01*
X129672368Y-45621747D01*
X129543873Y-45451594D01*
X129386301Y-45307947D01*
X129205017Y-45195701D01*
X129006198Y-45118679D01*
X129006197Y-45118678D01*
X128796610Y-45079500D01*
X128583390Y-45079500D01*
X128443664Y-45105619D01*
X128373801Y-45118679D01*
X128174982Y-45195701D01*
X127993698Y-45307947D01*
X127836126Y-45451594D01*
X127707631Y-45621747D01*
X127612595Y-45812609D01*
X127554243Y-46017689D01*
X127543471Y-46133951D01*
X127523367Y-46191003D01*
X127480589Y-46229999D01*
X127523367Y-46268996D01*
X127543471Y-46326048D01*
X127554243Y-46442310D01*
X127612595Y-46647390D01*
X127707631Y-46838252D01*
X127832231Y-47003247D01*
X127836128Y-47008407D01*
X127993698Y-47152052D01*
X128174981Y-47264298D01*
X128373802Y-47341321D01*
X128570613Y-47378111D01*
X128631365Y-47408363D01*
X128667093Y-47466066D01*
X128667093Y-47533934D01*
X128631365Y-47591637D01*
X128570613Y-47621888D01*
X128440475Y-47646215D01*
X128373801Y-47658679D01*
X128174982Y-47735701D01*
X127993698Y-47847947D01*
X127836126Y-47991594D01*
X127707631Y-48161747D01*
X127612595Y-48352609D01*
X127554243Y-48557689D01*
X127543471Y-48673951D01*
X127523367Y-48731003D01*
X127480589Y-48769999D01*
X127359410Y-48769999D01*
X127316633Y-48731003D01*
X127296529Y-48673951D01*
X127285756Y-48557689D01*
X127227404Y-48352609D01*
X127132368Y-48161747D01*
X127003873Y-47991594D01*
X126846301Y-47847947D01*
X126726418Y-47773719D01*
X126665019Y-47735702D01*
X126665017Y-47735701D01*
X126466198Y-47658679D01*
X126466197Y-47658678D01*
X126269385Y-47621888D01*
X126208634Y-47591637D01*
X126172906Y-47533934D01*
X126172906Y-47466066D01*
X126208634Y-47408363D01*
X126269385Y-47378111D01*
X126466198Y-47341321D01*
X126665019Y-47264298D01*
X126846302Y-47152052D01*
X127003872Y-47008407D01*
X127132366Y-46838255D01*
X127132366Y-46838253D01*
X127132368Y-46838252D01*
X127192866Y-46716753D01*
X127227405Y-46647389D01*
X127285756Y-46442310D01*
X127296529Y-46326047D01*
X127316633Y-46268996D01*
X127359410Y-46229999D01*
X127316633Y-46191003D01*
X127296529Y-46133951D01*
X127285756Y-46017689D01*
X127252127Y-45899500D01*
X127227405Y-45812611D01*
X127227014Y-45811827D01*
X127132368Y-45621747D01*
X127003873Y-45451594D01*
X126846301Y-45307947D01*
X126665017Y-45195701D01*
X126466198Y-45118679D01*
X126466197Y-45118678D01*
X126256610Y-45079500D01*
X126043390Y-45079500D01*
X125903664Y-45105619D01*
X125833801Y-45118679D01*
X125634982Y-45195701D01*
X125453698Y-45307947D01*
X125296126Y-45451594D01*
X125167631Y-45621747D01*
X125072595Y-45812609D01*
X125014243Y-46017689D01*
X124994571Y-46230000D01*
X125014243Y-46442310D01*
X125072595Y-46647390D01*
X125167631Y-46838252D01*
X125292231Y-47003247D01*
X125296128Y-47008407D01*
X125453698Y-47152052D01*
X125634981Y-47264298D01*
X125833802Y-47341321D01*
X126030613Y-47378111D01*
X126091365Y-47408363D01*
X126127093Y-47466066D01*
X126127093Y-47533934D01*
X126091365Y-47591637D01*
X126030613Y-47621888D01*
X125900475Y-47646215D01*
X125833801Y-47658679D01*
X125634982Y-47735701D01*
X125453698Y-47847947D01*
X125296126Y-47991594D01*
X125167631Y-48161747D01*
X125072595Y-48352609D01*
X125014243Y-48557689D01*
X125003471Y-48673951D01*
X124983367Y-48731003D01*
X124940589Y-48769999D01*
X124819410Y-48769999D01*
X124776633Y-48731003D01*
X124756529Y-48673951D01*
X124745756Y-48557689D01*
X124687404Y-48352609D01*
X124592368Y-48161747D01*
X124463873Y-47991594D01*
X124306301Y-47847947D01*
X124186418Y-47773719D01*
X124125019Y-47735702D01*
X124125017Y-47735701D01*
X123926198Y-47658679D01*
X123926197Y-47658678D01*
X123716610Y-47619500D01*
X123503390Y-47619500D01*
X123363664Y-47645619D01*
X123293801Y-47658679D01*
X123094982Y-47735701D01*
X123045736Y-47766193D01*
X122964776Y-47816321D01*
X122902364Y-47834861D01*
X122839161Y-47819223D01*
X122792593Y-47773719D01*
X122775500Y-47710894D01*
X122775500Y-47517262D01*
X122776280Y-47503378D01*
X122780270Y-47467966D01*
X122780270Y-47467965D01*
X122769635Y-47411761D01*
X122768864Y-47407220D01*
X122760348Y-47350713D01*
X122760347Y-47350711D01*
X122759448Y-47344746D01*
X122757842Y-47339864D01*
X122755023Y-47334531D01*
X122755023Y-47334528D01*
X122728282Y-47283933D01*
X122726220Y-47279847D01*
X122698814Y-47222936D01*
X122695818Y-47218714D01*
X122651152Y-47174048D01*
X122647934Y-47170708D01*
X122609055Y-47128806D01*
X122609053Y-47128805D01*
X122604958Y-47124391D01*
X122590070Y-47112966D01*
X122193857Y-46716753D01*
X122161520Y-46660242D01*
X122162272Y-46595137D01*
X122173311Y-46556342D01*
X122205756Y-46442310D01*
X122225429Y-46230000D01*
X122205756Y-46017690D01*
X122147405Y-45812611D01*
X122147014Y-45811827D01*
X122052368Y-45621747D01*
X121923873Y-45451594D01*
X121766301Y-45307947D01*
X121585017Y-45195701D01*
X121386198Y-45118679D01*
X121386197Y-45118678D01*
X121176610Y-45079500D01*
X120963390Y-45079500D01*
X120823664Y-45105619D01*
X120753801Y-45118679D01*
X120554982Y-45195701D01*
X120373698Y-45307947D01*
X120216126Y-45451594D01*
X120087631Y-45621747D01*
X119992595Y-45812609D01*
X119934243Y-46017689D01*
X119923471Y-46133951D01*
X119903367Y-46191003D01*
X119860589Y-46229999D01*
X119739410Y-46229999D01*
X119696633Y-46191003D01*
X119676529Y-46133951D01*
X119665756Y-46017689D01*
X119632127Y-45899500D01*
X119607405Y-45812611D01*
X119607014Y-45811827D01*
X119512368Y-45621747D01*
X119383873Y-45451594D01*
X119226301Y-45307947D01*
X119045017Y-45195701D01*
X118846198Y-45118679D01*
X118846197Y-45118678D01*
X118636610Y-45079500D01*
X118423390Y-45079500D01*
X118283664Y-45105619D01*
X118213801Y-45118679D01*
X118014982Y-45195701D01*
X117833698Y-45307947D01*
X117676126Y-45451594D01*
X117547631Y-45621747D01*
X117452595Y-45812609D01*
X117394243Y-46017689D01*
X117383471Y-46133951D01*
X117363367Y-46191003D01*
X117320589Y-46229999D01*
X117199410Y-46229999D01*
X117156633Y-46191003D01*
X117136529Y-46133951D01*
X117125756Y-46017689D01*
X117092127Y-45899500D01*
X117067405Y-45812611D01*
X117067014Y-45811827D01*
X116972368Y-45621747D01*
X116843873Y-45451594D01*
X116686301Y-45307947D01*
X116505017Y-45195701D01*
X116306198Y-45118679D01*
X116306197Y-45118678D01*
X116096610Y-45079500D01*
X115883390Y-45079500D01*
X115743664Y-45105619D01*
X115673801Y-45118679D01*
X115474982Y-45195701D01*
X115293698Y-45307947D01*
X115136126Y-45451594D01*
X115007631Y-45621747D01*
X114912595Y-45812609D01*
X114854243Y-46017689D01*
X114834571Y-46230000D01*
X114854243Y-46442310D01*
X114912595Y-46647390D01*
X115007631Y-46838252D01*
X115132231Y-47003247D01*
X115136128Y-47008407D01*
X115293698Y-47152052D01*
X115474981Y-47264298D01*
X115673802Y-47341321D01*
X115870613Y-47378111D01*
X115931365Y-47408363D01*
X115967093Y-47466066D01*
X115967093Y-47533934D01*
X115931365Y-47591637D01*
X115870613Y-47621888D01*
X115740475Y-47646215D01*
X115673801Y-47658679D01*
X115474982Y-47735701D01*
X115293698Y-47847947D01*
X115136126Y-47991594D01*
X115007631Y-48161747D01*
X114912595Y-48352609D01*
X114854243Y-48557689D01*
X114843471Y-48673951D01*
X114823367Y-48731003D01*
X114780589Y-48769999D01*
X114659410Y-48769999D01*
X114616633Y-48731003D01*
X114596529Y-48673951D01*
X114585756Y-48557689D01*
X114527404Y-48352609D01*
X114432368Y-48161747D01*
X114303873Y-47991594D01*
X114146301Y-47847947D01*
X114026418Y-47773719D01*
X113965019Y-47735702D01*
X113965017Y-47735701D01*
X113766198Y-47658679D01*
X113766197Y-47658678D01*
X113556610Y-47619500D01*
X113343390Y-47619500D01*
X113203664Y-47645619D01*
X113133801Y-47658679D01*
X112934982Y-47735701D01*
X112753698Y-47847947D01*
X112596126Y-47991594D01*
X112467631Y-48161747D01*
X112372595Y-48352609D01*
X112314243Y-48557689D01*
X112303471Y-48673951D01*
X112283367Y-48731003D01*
X112240589Y-48769999D01*
X112119410Y-48769999D01*
X112076633Y-48731003D01*
X112056529Y-48673951D01*
X112045756Y-48557689D01*
X111987404Y-48352609D01*
X111892368Y-48161747D01*
X111763873Y-47991594D01*
X111606301Y-47847947D01*
X111486418Y-47773719D01*
X111425019Y-47735702D01*
X111425017Y-47735701D01*
X111226198Y-47658679D01*
X111226197Y-47658678D01*
X111029385Y-47621888D01*
X110968634Y-47591637D01*
X110932906Y-47533934D01*
X110932906Y-47466066D01*
X110968634Y-47408363D01*
X111029385Y-47378111D01*
X111226198Y-47341321D01*
X111425019Y-47264298D01*
X111606302Y-47152052D01*
X111763872Y-47008407D01*
X111892366Y-46838255D01*
X111892366Y-46838253D01*
X111892368Y-46838252D01*
X111952866Y-46716753D01*
X111987405Y-46647389D01*
X112045756Y-46442310D01*
X112065429Y-46230000D01*
X112045756Y-46017690D01*
X111987405Y-45812611D01*
X111987014Y-45811827D01*
X111892368Y-45621747D01*
X111763873Y-45451594D01*
X111606301Y-45307947D01*
X111425017Y-45195701D01*
X111226198Y-45118679D01*
X111226197Y-45118678D01*
X111016610Y-45079500D01*
X110803390Y-45079500D01*
X110663664Y-45105619D01*
X110593801Y-45118679D01*
X110394982Y-45195701D01*
X110213698Y-45307947D01*
X110056126Y-45451594D01*
X109927631Y-45621747D01*
X109832595Y-45812609D01*
X109774243Y-46017689D01*
X109763471Y-46133951D01*
X109743367Y-46191003D01*
X109700589Y-46229999D01*
X109743367Y-46268996D01*
X109763471Y-46326048D01*
X109774243Y-46442310D01*
X109832595Y-46647390D01*
X109927631Y-46838252D01*
X110052231Y-47003247D01*
X110056128Y-47008407D01*
X110213698Y-47152052D01*
X110394981Y-47264298D01*
X110593802Y-47341321D01*
X110790613Y-47378111D01*
X110851365Y-47408363D01*
X110887093Y-47466066D01*
X110887093Y-47533934D01*
X110851365Y-47591637D01*
X110790613Y-47621888D01*
X110660475Y-47646215D01*
X110593801Y-47658679D01*
X110394982Y-47735701D01*
X110213698Y-47847947D01*
X110056126Y-47991594D01*
X109927631Y-48161747D01*
X109832595Y-48352609D01*
X109774243Y-48557689D01*
X109767970Y-48625393D01*
X109746799Y-48684029D01*
X109699770Y-48724952D01*
X109638772Y-48737820D01*
X109579221Y-48719379D01*
X109536170Y-48674291D01*
X109520499Y-48613952D01*
X109520499Y-47875133D01*
X109517585Y-47850011D01*
X109517585Y-47850009D01*
X109472206Y-47747235D01*
X109472204Y-47747233D01*
X109472204Y-47747232D01*
X109392767Y-47667795D01*
X109387062Y-47665276D01*
X109289991Y-47622415D01*
X109264864Y-47619500D01*
X108536242Y-47619500D01*
X108477578Y-47604746D01*
X108432875Y-47563993D01*
X108412771Y-47506941D01*
X108422050Y-47447167D01*
X108458503Y-47398894D01*
X108513453Y-47373612D01*
X108686198Y-47341321D01*
X108885019Y-47264298D01*
X109066302Y-47152052D01*
X109223872Y-47008407D01*
X109352366Y-46838255D01*
X109352366Y-46838253D01*
X109352368Y-46838252D01*
X109412866Y-46716753D01*
X109447405Y-46647389D01*
X109505756Y-46442310D01*
X109516529Y-46326047D01*
X109536633Y-46268996D01*
X109579410Y-46229999D01*
X109536633Y-46191003D01*
X109516529Y-46133951D01*
X109505756Y-46017689D01*
X109472127Y-45899500D01*
X109447405Y-45812611D01*
X109447014Y-45811827D01*
X109352368Y-45621747D01*
X109223873Y-45451594D01*
X109066301Y-45307947D01*
X108885017Y-45195701D01*
X108686198Y-45118679D01*
X108686197Y-45118678D01*
X108476610Y-45079500D01*
X108263390Y-45079500D01*
X108123664Y-45105619D01*
X108053801Y-45118679D01*
X107854982Y-45195701D01*
X107673698Y-45307947D01*
X107516126Y-45451594D01*
X107387631Y-45621747D01*
X107292595Y-45812609D01*
X107234243Y-46017689D01*
X107214571Y-46230000D01*
X100105265Y-46230000D01*
X100112150Y-46204305D01*
X100112709Y-46202293D01*
X100156351Y-46050811D01*
X100159724Y-46040753D01*
X100215583Y-45895233D01*
X100216692Y-45892452D01*
X100276439Y-45748212D01*
X100280488Y-45739429D01*
X100351569Y-45599925D01*
X100353521Y-45596250D01*
X100428588Y-45460426D01*
X100433065Y-45452962D01*
X100518633Y-45321199D01*
X100521434Y-45317077D01*
X100611010Y-45190832D01*
X100615733Y-45184603D01*
X100714702Y-45062386D01*
X100718532Y-45057885D01*
X100821613Y-44942537D01*
X100826323Y-44937556D01*
X100937556Y-44826323D01*
X100942537Y-44821613D01*
X101057885Y-44718532D01*
X101062386Y-44714702D01*
X101184603Y-44615733D01*
X101190832Y-44611010D01*
X101317077Y-44521434D01*
X101321199Y-44518633D01*
X101452962Y-44433065D01*
X101460426Y-44428588D01*
X101596255Y-44353517D01*
X101599934Y-44351565D01*
X101739429Y-44280488D01*
X101748212Y-44276439D01*
X101892452Y-44216692D01*
X101895233Y-44215583D01*
X102040753Y-44159724D01*
X102050811Y-44156351D01*
X102202293Y-44112709D01*
X102204305Y-44112150D01*
X102353402Y-44072199D01*
X102364666Y-44069739D01*
X102523809Y-44042700D01*
X102524947Y-44042513D01*
X102673694Y-44018954D01*
X102686087Y-44017628D01*
X102866554Y-44007493D01*
X102996756Y-44000669D01*
X103003245Y-44000500D01*
X161996755Y-44000500D01*
X162003243Y-44000669D01*
G37*
%TD.AperFunction*%
%TD*%
M02*
